<?xml version="1.0" encoding="UTF-8"?>
<svg id="Layer_1" xmlns="http://www.w3.org/2000/svg" version="1.1" viewBox="0 0 534.2 534.2">
  <!-- Generator: Adobe Illustrator 29.1.0, SVG Export Plug-In . SVG Version: 2.1.0 Build 142)  -->
  <defs>
    <style>
      .st0 {
        fill: #010101;
      }

      .st1 {
        stroke-dasharray: 0 27.2;
        stroke-linecap: round;
        stroke-width: 15px;
      }

      .st1, .st2 {
        fill: none;
        stroke: #010101;
        stroke-miterlimit: 1;
      }

      .st2 {
        stroke-width: 5px;
      }
    </style>
  </defs>
  <path class="st0" d="M173.5,409.5c-6.5,0-5.9-7.1-5.3-10.3l51.6-256.2c1.9-9.3-8.6-10.1-26-8.7-6.9-.3-9-10.6-2.8-12.9,58.4-10.1,48.2-12.5,76.8-21,5.6,0,4.4,4.6,3.9,8.9l-36.2,161.7s22.5-72.5,91.9-56.5c46.6,10.9,21.4,86.6,13.2,120.5-3.5,14.2-15.2,58.2,12.8,53.2,26.1-4.7,47.3-34.5,48.8-35.8,4.1-3.4,7.5-2.5,9.1-.5s.8,8.2-1.4,11.6-42.2,66.3-97.7,42.3c-46.6-24.4-.3-111.3-2-150.2-.6-13.5-13-18.7-25.2-16.6-33.6,5.8-51.1,85.6-59.9,117.8-1.3,4.9-9.1,40-10.3,45.3s-1.4,7.5-10,7.1l-31.2.4h-.1,0Z"/>
  <circle class="st1" cx="267.1" cy="267.1" r="259.6"/>
  <circle class="st2" cx="267.1" cy="267.1" r="234.2"/>
</svg>