<?xml version="1.0" encoding="UTF-8"?>
<svg id="Layer_1" xmlns="http://www.w3.org/2000/svg" version="1.1" viewBox="0 0 877.7 880.6">
  <!-- Generator: Adobe Illustrator 29.1.0, SVG Export Plug-In . SVG Version: 2.1.0 Build 142)  -->
  <path d="M430.1,0l1,5,2-2.5-2-2.5,7.5,1,.5,4,1-4c7.1.8,16.7-1.1,23.5,0s15.6,2.4,23,3,6.4-.2,9.5,0l1.5,3c1.5-2.3,4.3-2.4,7-2s5.9,1.6,8,2c24.6,4.9,49.9,8.2,72.9,19l2-1c11.3,4.4,23,8.8,34,14s13.7,5.9,20,9c19.2,9.5,37.2,21.5,54.9,34,3,2.1,7.1,5.7,10.5,6v2c27.3,18.5,52.4,43.9,71.9,69.9h2c4.3,7.1,10.2,14.5,15,21.5s12.4,17.9,18,27,13.7,24.6,20,38,13,28.1,18,42c4.8,13.1,8,26.6,12,40s4,11.4,5,17c5.6,32.4,8,68,9,100.9-3.2,50.1-9.1,99-27,145.9-15.4,43.2-39.6,83.7-66.9,119.9-1.7,2.2-3.8,2.3-4,2.5s0,2.4-1.5,3l-1.5-1c-.5,1.5,1,2.3,1,2.5s-1.5,1-1,2.5h-2c-1.7,5.6-9,9.6-11,15h-2c-13.3,16.5-30.8,33-48.5,46-1.9,1.4-3,4.3-5.5,4l-2-3,1,4.5c-.9.7-1.6,1.8-2.5,2.5-15.4,11.6-34.1,23.7-51,33s-26,13.6-40,20-11.6,5.3-18,7-.7,1-1,1-1-1.5-2.5-1l-.5,2-1.5-1v2c-1.9-.7-2.8.8-3.5,1-10.8,3.6-21.1,7.1-32,10s-2.1.8-3,1-2.7-1.8-4.5-1l2,2-7.5,1c-24.7,8-51.7,9.7-78.9,12-6.7.6-15.9,2.1-22,1s-7.8.7-12,0-18.8.7-19.5,0v-2l-3.5,1c-3.6-1.7-6.8-.3-11-1-12.3-2-27.9-2.7-41-7-.3,0-.6.9-1,1-2.3.7-27.2-6.9-31-9l-2,1c-23.9-8.7-49.5-16.1-72.9-29s-1.8-.1-2.5-1.5l1-1.5c-4.5,1.1-7.1-1.4-10.5-3-4.9-2.3-10.1-5.2-15-8-23.7-13.7-46.1-30-65.9-47-51.2-43.6-92.1-100.9-119.4-162.3l1-5.5h-3c.4-1.7-1.5-3.2-2-4.5-4.4-11.5-8.8-23.4-12-35-5.7-20.8-9.4-39.5-13-60.9s-2.4-10.8-2-15c-1.6-1.3-1.6-4.7,0-6l-2-.5,2-2.5c-1.5-.8-.7-2-1-3-1.2-4.7-2.8-18.9-2-24s.4-7.7,0-10c-1.4-8.4.4-17.4,1-26,1.1-15,.8-28.1,3-44,1-6.8,2.7-12.6,4-20s3.9-17.4,6-26c5-20.6,11.8-43,22-62.9l-1-1c3.2-6.5,6.7-13.1,10-20,17.5-36.6,36.3-65,62.9-95.9,3.3-3.8,10.6-13.9,13.5-15.5,4.8-2.7,17.5-18,23-23,16.5-15.1,34.7-27.6,52.9-40,33.6-22.7,70.6-39.2,108.9-51,14.1-4.3,27.2-7.2,42-10s26-5.5,40-7c2.2-.2,4.9.4,7,0,7.6-1.4,18-2.1,27-3s5.1.2,7.5,0ZM424.1,6.1v-2.5l-3-1.5v2h2v2h1ZM394.1,4.1l-4,.5v4.5c3.1.6,1.8-1.5,2-3.5l2-1.5ZM430.1,7.1c-1.9-.2-3.5,0-4,2,1.9.2,3.5,0,4-2ZM442.1,12.1l-2-4.5c-.9-1.3-2.8.3-3,1-1.2,4,3,1.7,5,3.5ZM411.1,8.1h-2v3h2v-3ZM426.1,11.1c-.2-1.3-3.2-3.8-4-3v3h4ZM485.1,12.1c2-.5,2.2-2.1,2-4l-3,1,1,3ZM381.2,10.1c-1.5.4-1.8-.7-3-1v3h1.5l1.5-2ZM430.1,10.1c-2.2-.7-3.4,2.7-4.5,3-2.1.6-4.2-2.8-5.5,1,4.1.3,8,0,10-4ZM405.1,12.1l-4.5,2-2.5-1-1,3.5,2.5,2.5c2-2.3,3.2-3.6,6.5-3l-2-1,1-3ZM446.1,13.1h-4v2h4v-2ZM520,13.1c-1.9-.3-3.3,1.1-3,3h3v-3ZM357.2,15.1h-4v2h4v-2ZM340.2,16.1l-4,1.5,2,3.5,2-5ZM444.1,17.1l-3-1,1,4h1l1-3ZM496,16.1h-2v3h3c-.3-1.2-1.4-1.5-1-3ZM365.2,20.1c-1-2.2-2.6-3.5-5-3,.6,1.9,3.2,2.9,5,3ZM369.2,20.1h1.5l1.5-1.5-1.5-1.5-1.5,1.5v1.5ZM536,18.1c-1.9-.3-3.3,1.1-3,3h2l1-3ZM362.2,20.1l-4-1c.2,1.3,3.2,3.8,4,3v-2ZM507,22.1v-1.5l-1.5-1.5-1.5,1.5v1.5h3ZM488.1,20.1l-5,.5c1.2.3.5,3.4,2.5,2.5s2.3-2.1,2.5-3ZM495,20.1h-3v2h3v-2ZM350.2,21.1h-4v2l2.5-1,1.5,1v-2ZM773.8,188.9c-14.7-19.6-33.5-40.2-52.9-56.9v-2c-19.2-15.9-37.6-31.8-59.4-44-5.3-4.2-12.6-8.6-18.5-11v-2c-25.2-11.2-51.7-24.7-78.4-32-.4-.1-2.6-1.9-3-2-1-.2-2.4.1-3.5,0v-2l-3.5,1c-3.5-2.7-8.8-.9-12-5l-5,1c-1.5-1.5-3.6-.6-5-3-7.2.9-16.1-3.2-24-4s-14.6-1.9-22-3-16.8-1.7-24-2c-28.4-1.1-57.1.2-83.9,3-1.9.2-10.7,2.4-12,2-1.9-.6-9.7,2.3-13,3-12.3,2.8-23.8,5.1-36,9s-14.3,4.5-22,7c-15.2,4.9-31.6,12.6-46,20s-4.8,1.9-7,3c-29.1,15.4-58.7,35.9-82.9,57.9-9.8,9-19.6,20.4-28.5,28.5C55.2,241.6,16.3,348,23.5,464.1c.7,11.6,1.1,22,3,33s1.8,18.4,4,27c4.7,18,8.5,35.5,15,53.9s9.1,23.6,14,34,5.5,11.2,8,16c5.2,10.2,10.9,19.2,16,29,7.6,14.5,18.9,26.4,27,40.5h2c10.7,16.2,25.2,32.6,41,46v2c70.4,63.9,156.5,103.1,248.3,109.9,15.6,1.2,35.4,5.3,50,2s7.6,1.5,12,1c16-2,33.3-4.7,47-7,12.3-2.1,24.1-3.9,36-7,10.9-2.8,22.5-8.3,33-11s5.7-2.6,7-3c13.5-4,27-10.9,39-17,9.3-4.7,17.4-10.2,26-15,26.8-15.1,49.1-33.7,72.4-52.9v-2c10.9-8,18.4-17.9,27-27.5,12.3-13.8,22.5-27.5,33-43,13.2-19.5,24.5-40.8,34-60.9,8.5-18.1,15.4-36.2,21-54.9,1.7-5.6,3.6-11.3,5-17s.5-4.2,1-6l3-1.5v-1h-2c-.5-1.6.9-2.1,1-2.5.4-2.3.5-4.6,1-7,5.2-23,7.7-47.2,9-71.9-.7-77.4-18.3-154.4-57.9-221.8-7.9-13.4-16-27.5-25-39.5h2l1-4c-2.5-.2-3.4,1.6-3,4ZM341.2,25.1h-2v6h1c0-2.3-.4-4.1,1-6ZM552,31c.3-1.9-1.1-3.3-3-3l1,3h2ZM565,28l-5,1,1.5,2,3.5-2v-1ZM592,32l1.5,2c1.6-1.4,4-1.4,3.5-4-.2-.3-3.9,2.5-5,2ZM550,33l-3.5-1-1.5,2,2.5,1,2.5-2ZM563,32l-3,1.5v.5l-3,1,6-3ZM264.3,40h-3.5l-1.5,2h3.5l1.5-2ZM619.9,41h-2c.3,1.7-.2,2.6-1,4h2l1-4ZM614.9,43h-2c-.3,1.9,1.1,3.3,3,3l-1-3ZM619.9,47c-3.2-.7-1.8,2.1-2,4h-2c-.3,1.9,1.1,3.3,3,3-2.3-2.7,1.1-4.2,1-7ZM627.9,49h-2l2.5,4,1.5-2h-2v-2ZM253.3,53c.3-1.5-.4-2.1-1.5-3h-2.5c.2,1.3,3.2,3.8,4,3ZM638.9,53l-1-3-3,4,4-1ZM632.9,61c-.8-.8-3.8,1.7-4,3l4-1v-2ZM636.9,61c-4.3-.5.4,2.7-2,5l3-1.5-1-3.5ZM220.3,63l-2.5-1-1.5,3h4v-2ZM656.9,65c-1.5.4-1.8-.7-3-1v3h3v-2ZM658.9,68h-3v4h2l1-4h3v-2h-3v2ZM192.3,92h-2l1,5h1l1-2.5-1-2.5ZM182.4,93l-1.5,1-2.5-1v2l2.5,1,1.5-3ZM183.3,100h-2v3h2v-3ZM711.8,105l-5-5,1.5,3,3.5,2ZM179.4,104l-5-1v2l3.5,1,1.5-2ZM706.8,104h-3l1,4h1l1-4ZM707.8,109h-4.5l-1.5,2,3.5-1,1,1,1.5-2ZM716.8,112h-1.5l-1.5,2c1.5-.4,1.8.7,3,1v-3ZM160.4,125c.5-2.4-.8-4-3-5-.5,1.2,2.4,5.8,3,5ZM725.8,123c-1.9-.3-3.3,1.1-3,3h2l1-3ZM743.8,133.9l-1.5-3-3.5,1,1.5,2,1-1,2.5,1ZM738.8,138.9v-4h-1l-1,4h2ZM129.4,138.9c-2.2-.4-2,.2-2.5,2s-.8,2.5-.5,4c1.6.2.9-1.4,1.5-3s1.6-2.9,1.5-3ZM747.8,147.9l1.5-2c-2-2.8-4.3-2.6-4.5,1l3,1ZM762.8,155.9h-3l1,4h1c-.3-1.7.2-2.6,1-4ZM123.4,158.9c-1.8-.3-3.3,1.4-4,3,1.8.3,3.3-1.4,4-3ZM117.4,169.9c-2,.5-2.3-1.5-4-2-.4,1.9,1.3,2.7,2.5,4l1.5-2ZM772.8,168.9c-2.7-.5-2,.8-2,3h1.5l1,3-.5-6ZM111.4,169.9h-2l1,5h2l-1-5ZM777.8,172.9h-2c1.1,1.7,1.2,3,1,5h1v-5ZM105.4,177.9l-4-1,2.5,3,1.5-2ZM104.4,183.9h-3v2h3v-2ZM790.8,189.9l-3-2c-.4,1.9,1.3,2.7,2.5,4l.5-2,3,1v-3l-1.5,1-1.5-1v2ZM93.4,196.9v-1.5l-1.5-1.5-1.5,1.5,1.5,1.5h1.5ZM784.8,193.9c-4.3-.8-2.3,1.4-4,4l2-2.5,2-1.5ZM87.4,200.9h-2v2.5l1.5,1.5,1.5-2h-2l1-2ZM812.7,215.9c.1-1.9-1.5-2.8-1-5h-1v3.5l2,1.5ZM805.7,228.9v-3.5l-2-1.5c-.1,1.9,1.5,2.8,1,5h1ZM71.5,227.9l-1.5-2h-1.5v3c1.2-.3,1.5-1.4,3-1ZM816.7,227.9l-1.5-2c-.7,1-1.3,1.2-2.5,1v2l4-1ZM56.5,242.8h-2l1,4h1v-4ZM814.7,245.8h-2l-1,4c1.3-.2,3.8-3.2,3-4ZM48.5,263.8c-.2-1.2,0-1.8,1-2.5l-2-1.5-1,4h2ZM839.7,264.8v-3l-3,2.5v.5h3ZM830.7,266.8l-4-1,1.5,3h2.5v-2ZM49.5,274.8l-3,3-3,1c1.6-.5,2.4,1.8,3.5,0s.7-1,.5-2l2-2ZM30.5,311.8c.7-1.7-3.1-4.9-4-4v2l4,2ZM24.5,318.8l-2.5,1-1-1-1.5,2h5v-2ZM32.5,318.8h-3l-1,4c1.1.9,4.6-2.3,4-4ZM846.7,322.8l1-4c-2,.4-1.7,2.5-3,3.5l2,.5ZM858.7,350.7h-2l-1,3.5,2,1.5,1-5ZM20.5,354.7c-1.9-.3-3.3,1.1-3,3l3-1v-2ZM23.5,355.7h-2l-1,3c1.9.3,3.3-1.1,3-3ZM858.7,373.7l1-7-2,2.5c.3,2.2-2.1,3.5,1,4.5ZM859.7,373.7c0,3,2.2,4.1,4,1.5l-.5-2.5-3.5,1ZM860.7,404.7l-5,4,1.5-2,3.5-2ZM868.7,423.7l-1-4.5c2.1-1.6,3.1-3.2,0-4.5l-1,6.5,2,2.5ZM862.7,420.7l-1.5-3c-1.7,1.5-3,2.5-2.5,5l4,1-3-4,3,1ZM18,423.7l-1.5,1.5,2.5,1.5,1.5-1.5-2.5-1.5ZM9.5,442.6l-4-1c-.3,1.5.4,2.1,1.5,3h2.5v-2ZM871.7,450.6c.4-2.4-.5-4.2-3-4-.8.8,1.7,3.8,3,4ZM11.5,447.6c-5-.4-5.2,3.4-1.5,6l-1.5-4,3-2ZM871.7,466.6v-5h-.5l-2.5,3.5,1.5,1.5h1.5ZM6.5,468.6l-1.5,1-2.5-1v2h4v-2ZM13.5,471.6v-1.5l-1.5-1.5-1.5,1.5,1.5,1.5h1.5ZM863.7,473.6l-4-4v3l4,1ZM21.5,485.6l-1.5-2h-1l-1.5,1.5v.5h4ZM860.7,494.6l-1-2c0,2.1-.4,3.7,1.5,5l1.5-1,.5,3,2.5-5c-1.5-.5-2.3,1-2.5,1s-1-1.5-2.5-1ZM18.5,511.6v-2l-5,1,1.5,2,3.5-1ZM850.7,534.6l-3.5-1-1.5,1.5c1.3,1.9,2.9,1.6,5,1.5v-2ZM852.7,556.5h-2v3h2v-3ZM32.5,557.5c-1.9-.2-3.5,0-4,2,1.9.2,3.5,0,4-2ZM851.7,570.5c-2.2-.5-3.1,1.1-5,1l1.5,2,3.5-3ZM44.5,589.5l-2.5-3-2.5,1,5,2ZM836.7,604.5l-1.5-2h-1l-1.5,1.5v.5h4ZM55.5,617.5c.9.9,4.7-2.3,4-4l-4,2v2ZM71.5,650.4l2.5,3,1.5-1.5-1.5-1.5h-2.5ZM803.7,654.4l-5-3,1,3c1.9-1.3,2.1-1.2,4,0ZM81.4,657.4l-3,1.5,3,1.5-1-1.5,1-1.5ZM815.7,660.4l-7-2c.7.9.8,2.8,1.5,3s1.4-.1,2,1l3.5-2ZM806.7,665.4c-1.5.4-1.8-.7-3-1v3h3v-2ZM793.8,666.4l-3-1c-.4,1.9,1.3,2.7,2.5,4l.5-3ZM805.7,671.4c-4.4-.3-1,3.9,2,3l-.5-3h-1.5ZM800.7,685.4c.2-1.6-.4-3-1-4.5s-.7-2.9-3-2.5l4,7ZM796.8,681.4h-3l2.5,3h.5v-3ZM102.4,693.4v-3c-1.2.3-1.5,1.4-3,1v2h3ZM94.4,695.4l-4,1v2l1.5-1,2.5,1v-3ZM771.8,708.4v-4h-1l-1,4h2ZM110.4,705.4l-4,1,.5,2,1.5,2c1.1-.2,2.3-1.4,2-2.5s-1.6-.4,0-2.5ZM103.4,707.4l-3-1c-.4,1.9,1.3,2.7,2.5,4l.5-3ZM119.4,727.4c.1-1.9-1.5-2.8-1-5h-1v3.5l2,1.5ZM746.8,730.4h-1.5l-1.5,1.5,1.5,1.5,1.5-1.5v-1.5ZM752.8,730.4l-1.5,1-2.5-1v2h4v-2ZM148.4,746.3l-5,.5,5,1.5-3,1,2.5,3,1.5-2.5-1-3.5ZM141.4,746.3l-5,.5,2.5,1.5,2.5-1v-1ZM703.8,768.3l-4,1v1l2.5,1,1.5-3ZM177.4,774.3c.2-2.6-1.7-3.4-4-3l-1,4,3,1v-1.5l2-.5ZM191.3,780.3h-2v3h2v-3ZM189.3,785.3l-5-1v4c2.6.2,5.2.2,5-3ZM193.3,788.3h-3v2h3v-2ZM665.9,802.3h-2l-1,5c1.6,0,3.5-4.5,3-5ZM219.3,804.3h-3v2h3v-2ZM637.9,818.3l-1-4-2,1.5,1,2.5h2ZM229.3,820.3c.4-1.9-1.3-2.7-2.5-4l-1.5,2,4,2ZM253.3,817.3l-2,.5,1,4,3,.5-2-5ZM247.3,820.3l-1.5-2h-1l-1.5,1.5v.5h4ZM276.3,836.3l1-3.5-3-1.5v5h2ZM610.9,831.3c-1.9-.3-3.3,1.1-3,3,1.9.3,3.3-1.1,3-3ZM590,838.3l-4,1v1h4v-2ZM575,839.3c-1.9-.3-3.3,1.1-3,3,1.9.3,3.3-1.1,3-3ZM311.2,846.3l-2.5-4-2.5,1.5.5,2.5,2.5-2,2,2ZM287.2,844.3l-5,1,1.5,2,3.5-3ZM571,852.2l-1.5-3c-1.2,1.8-1.5-.3-3.5,0-.2,3.1,2.3,3.3,5,3ZM576,849.2h-4v3l2-.5-1-1,2.5.5.5-2ZM363.2,858.2l-1-4-2,1.5,1,2.5h2ZM469.1,864.2v-3c-1.2.3-1.5,1.4-3,1l1.5,2h1.5ZM522,861.2l-1.5,1-2.5-1v2h4v-2ZM465.1,862.2c-2.8-.4-4.9.3-6,3,1.9.7,2.6-1.7,3.5-2s2.8.8,2.5-1ZM485.1,862.2h-2l2,3.5-2,2.5,2.5-1,1.5,1.5,3-.5-2-2.5,1-1.5h-4v-2ZM414.1,863.2h-4c0,4,4,4,4,0ZM355.2,870.2c-1.6-1.8-2.1-5.3-5-5l.5,4,1.5-3,3,4ZM410.1,873.2v-2h-1v3h4v-1h-3ZM465.1,872.2h-3v4c.6.8,2.8-3.1,3-4Z"/>
  <path d="M543,684.4l-1,2,2-2h108.4l4.5,1,1,4.5c-1.1.5-.8,1.7-1,2-.9,1.4-4.7,3.9-5,2,.5-3.2-.5-2.6-3-2.5l2,4c-1.5.5-2.3-1-2.5-1-1.1,0-3.9,1.5-7,1-11.5-1.9-28.8,1.4-42,0-3.2-.3-2.4-1.5-7,0s-4.2,0-3.5-3l-1,3c-3.7-.5-9.1.7-12.5,0-6.7-1.5-19.8,1.4-28,0s-2.8-.4-5,0c-4.5.8-10.7-.5-15.5,0l2-3h-4l1,1.5-1.5,1.5c-6.1-.7-14.2,1-20,0-2.2-.4-4.8-.4-7,0-18.8,3.1-48.3-2.9-65.9,0s-18.9-1.3-20-1c-12.9,3.5-31.8-1-44,1-2.2.4-14,.4-16,0s-1.3-2.3-3,0l-3.5-1v-2h-1l-1.5,3c-2.2-.3-4.9.4-7,0-5.3-.9-12.7,1-19,0s-13.2,1.3-19,0c-7.5-1.7-23.5,1.9-32,0-7.5-1.7-23.5,1.9-32,0s-.7-1.4-2-1-.6.9-1,1c-.9.2-4.1.2-5,0s-.6-.8-1-1-.8.1-1,0c-1.7-1-2.3-3.1-3.5-4.5.5-2.9,2-4.2,4.5-5.5h112.4v2h2l-1-2h33l1,2,.5-2h48c1.9-1.6,7.1-1.6,9,0h113.4ZM370.2,689.4l-1-3-.5,2c-1.9.3-4.1-1.2-3.5,2l5-1ZM579,688.4l-2-1.5-2,1v1.5h-2l1,4c2,0,.4-2.3,1.5-4s2.1-1,3.5-1ZM408.1,690.4l-5-3,.5,3h4.5ZM374.2,689.4h-3v1.5l1.5,1.5,1.5-1.5v-1.5ZM515,689.4h-2c.3,1.7-.2,2.6-1,4h2l1-4ZM580,689.4l-3,1.5v2.5h1l2-4ZM286.2,690.4h-3l1,1.5-1,1,2,1.5,1-4ZM352.2,692.4c-.9-3-1.7-1.1-2.5-1s-2.4,0-3.5,0l3,1.5,3-.5Z"/>
  <path d="M204.8,371.1v1l-2,.5c.3,1.1,2.9,3.7,3,4,.3,1.1-.2,2.8,0,4,.6,2.8,2.1,6.5,3,10,1.3,4.9,3,8.5,4,14s1.8,1.7,1,3.5c-4.2,1.2-4.8-2.9-8-3v-2c-6.3-4.1-13.3-8.7-19.5-13s-1.9-2.2-3-3h-1c-1.4,1.2-2.6,2.9-4,4-4.3,3.3-9.5,6.8-14,10s-6.5,3.4-6.5,6l-4,1-.5-3c1-.6.2-1.8.5-2.5,3.1-7.8,7.5-17.2,10-25s-.5-2.2,1-3v-1l-8.5-5.5c-5.4-4.3-11.5-7.9-17-12s-2.8-2.4-2.5-3.5l3.5-2.5h31.5c.1-.8-.2-1.9,0-2.5,3-9.1,7.1-17.3,9-27l2.5-4.5c.5.8,2.3,1.9,2.5,2.5.4,1.3.6,3.7,1,5s1.6,3.7,2,5c2.1,7.2,2.4,15.8,8,22l-1,3.5c1.6.3.8-2.5,2.5-3s2.8.2,4,0,2.2-1.5,5-1,4,.7,6,1c3.4.5,6.4-.4,9,0s7.1-.3,7.5,0c.6,2.5-1.7,4.7-3.5,6-6.2,4.5-14.8,10.3-21.5,14,.2-1.9,0-3.5-2-4v4h2ZM183.8,355.1l2-1.5v-4.5l-2,2.5c1.8,1.2-.3,1.5,0,3.5ZM182.8,353.1h-2v3h2v-3ZM207.8,361.1l-4-1c-.4,1.9,1.3,2.7,2.5,4l1.5-1.5v-1.5ZM174.8,367.1c0-1.5-.3-2.6,1-3.5l-2-1.5v5h1ZM168.8,365.1h-6v1h6v-1ZM199.8,369.1c-4.6.4-4.2,4.4-4,8l1-4h5l-3-1,1-3ZM192.8,377.1h-3v3l3-3ZM194.8,386.1c.3-1.9-1.1-3.3-3-3l1,3h2ZM202.8,389.1c.3-1.9-1.1-3.3-3-3v2l3,1Z"/>
  <path d="M719.3,332.3l-5,1,6-1-1,4,2,.5-1,2.5h2c-.7,1.9.8,2.9,1,3.5.8,2.7,1,6.6,2,9s1.8,3,2.5,3.5,1.5-.1,2,1l2-1,1,1c2.8-2,6.3-.5,9-1s13.1-.4,15,0,2.9,2.5,4.5,2c-1.5,1.7-3.7,3.7-5.5,5-5.2,3.8-15.1,11.8-20,14s-2.6-.4-3.5,1.5l3,6c2.3,8.2,5.2,17,8,25,.2.6,1.5,2.3,2,3l-4.5.5c-1.4-1.2-2.6-2.9-4-4-5-3.9-10.9-8.3-16-12s-3.3-3.8-4-4c-2.7-.8-4,2.7-6,4-6.5,4.3-13.4,7.9-19,14l-5.5,2c-.8-3.7,1.4-5.9,2-9h4l-3-3.5c1.7-.9.6-2.6,1-4,.8-3,4.1-7.8,5-11s-.6-3.5,2-5l-7.5-6.5c-5.7-2.8-10.8-6.5-16-10-1-.7-2-2.5-3-3s-1.3.2-1.5,0-.6-2.8-1-3.5c1.1-1.7,1.8-1.4,3.5-1.5,2.9-.2,9.4,1.2,10,1,3.5-1,9.4-1,13,0s2.7-.9,3-1c1.6-.3,3.8.2,5.5,0,.1-.8-.2-1.8,0-2.5,2.3-8.3,7.2-18,9-27s-.1-2.4,0-3.5l2.5-1c.4,0,2.2,2.9,2.5,3.5s-.2,1.4,0,2c.7,1.7,2.7,3.1,2,5.5ZM718.3,354.2c.1-1.9-1.5-2.8-1-5h-1v5h2ZM710.3,350.2c-1.9-.2-3.5,0-4,2l3,1,1-3ZM702.3,360.2v-2.5l-1.5-1.5h-2.5c-.5.4,1.7,2.6,3,2v2h1ZM751.2,356.2c-2.4-.5-4,.8-5,3,2.3.5,2.7-2.5,5-2v-1ZM734.3,361.2h-4v1l4,1v-2ZM716.3,363.2h-2c-.3,1.9,1.1,3.3,3,3l-1-3Z"/>
  <path d="M567,741.3l-2,2c4.8-.4,5,2.9,1.5,5s-3.9.6-6,1-2.2,1.9-5,0l-1,1c-34.3-1.6-70.3.4-105.9-1-6.1.7-16.1,1.1-22,0-2.7-.5-5.4,1.2-6,1s-1.6-1.7-3.5-1v-2h-1l-1.5,3-1-1-3,1-1-1c-7.8,3-18.8-.7-26,1s-3.5-.6-7,0-4.5-.2-6.5,0l-1.5-4-.5,3c-1.8-.8-3.3,1-3.5,1-.3,0-.6-.9-1-1-5.6-.9-15.1,1.1-19,0l-1.5.5-1-1.5-1,2-1.5-1c-.7.1-1.4-.2-2,0-2.7.8-6.6-.8-10,0s-4.8.4-7,1-2.9-1.8-4,0h-1l-5.5-5.5,1-3.5c1.6.6,2.1-.9,2.5-1,4.2-.7,10.4.3,15,0s7.3-2.4,11,0c69.4-1.3,141.7-1.7,211.8,0,2.1-2,6-.6,9-1l6.5,2ZM430.1,741.3h-2c-.3,2.7-.1,5.2,3,5l-1-5ZM425.1,743.3h-5v1l2.5,1,2.5-2ZM528,743.3h-3v2h3v-2Z"/>
  <path d="M576,632.4l-.5-2h79.9c1.3,1.9,1.3.1,2,0,4.5-.8,10.4.6,14,0s5.1.7,7,1,3.1-.1,4.5,0c0,1.9,1.5,3.1,1,5.5s-1.5.9-1,2.5l-4.5,1h-122.9l.5-2-2,2c-6.5-.8-15.3,1.1-21.5,0s-.9-1.5-2.5-1l-1-4,2-.5-1-2c1-1.9,2.4-1.1,3.5-1.5s1-1.6,3-1,5.6,1.1,6,1c9.7-2.7,21.8.4,30-1l3.5,2ZM600.9,632.4h-3.5l-.5,3,2-1.5,1.5.5.5-2ZM614.9,635.4l-1.5-3-1.5,1.5v2.5l3-1Z"/>
  <path d="M347.2,631.4l2,4.5-2.5,4.5h-149.9l-2.5-1-1-6h2l1.5-3c5.2.6,12-.8,17,0s20.5,1,28,1c26,0,60.8-4,87.9,0,2.8.4,4.7-.4,7,0s10.1-.4,10.5,0ZM297.2,632.4h-2l-1,4,3-1.5v-2.5ZM327.2,632.4l-2,2c-.3.2-3.7-3-3,1l5-3ZM315.2,637.4v-2l-5,2v1l5-1ZM256.3,636.4l-5,1v2l5-1v-2Z"/>
  <path d="M467.1,834.3c.3,2.9-1.5,5.2-3.5,7-2.1.3-5.1-.4-7,0s-.7,1.4-2,1-.6-.9-1-1c-1.9-.4-4.9.3-7,0l-2.5-3.5v-2l4.5-2.5c4.6,0,8.9.2,12-1,1.9,1.7,4.1,2.3,6.5,2Z"/>
  <path d="M831.2,476.6h4c2.7,2.4,2.9,6.1,2.5,9.5s-.9.6-1,1c-.4,2.4-.4,5.7-1,8s-2,3.4-2.5,3.5c-1.1.3-2.3,0-3-1s-.5-1.4-.5-1.5c-1.2-1.7-2.7-1.9-2-5s2.3-1.3,0-3c1.9-1.6.6-4.7,1-7s.9-.6,1-1c.4-1.1-.4-2.5,1.5-3.5Z"/>
  <path d="M114.4,217.9c-.2.2-1-.3-1.5,0-1.1.6-1.5,2.6-3.5,2l1-3c-2.2,1.6-4.6,1.5-5-1.5.7-.9,1.5-2,2-3,1.1-2,2.7-5.3,4-7s4.2-3.9,6-5,4.8-.7,5,2-1.8,4-3,6-2.8,4.8-4,7-.9,2.4-1,2.5Z"/>
  <path d="M499,829.3l1,6.5-1.5,1.5-2-1c-3.2,2.5-8.3,1.3-12,2s-1,1.6-3,1l-3.5-3.5c1.5-.8.7-2.1,1-3,.5-1.7,2.6-1.2,3.5-1.5s.6-.9,1-1c1.2-.2,2.8.2,4,0s.6-1,1-1c3.3-.4,7.1.3,10.5,0Z"/>
  <path d="M50.5,513.6c3.7-.2,2.5,2.4,3,4.5s1.9,4.4,2,5c.2,1.4.2,4.7,0,6s-1.5.9-1,2.5h-5c.7-1.9-1.7-2.6-2-3.5-1.4-4.7-1.3-7.7-2-12s-1-.7-1-1,1.8-1.7,1-3.5l4.5-2c2,1.5,1.7,2.1.5,4Z"/>
  <path d="M398.1,832.3l-1,6-2.5-1-.5,2c-3.1-2-7.1-.5-10.5-1s-.6-.9-1-1c-1.3-.3-3.9.5-4.5-1.5s.5-2.1-1-3l2-.5-1-1.5,2.5-2.5c1.3.1,2.8-.2,4,0s.6.9,1,1c3.1.7,7,.9,10,2s.9,1.5,2.5,1Z"/>
  <path d="M513,833.3l-1-2.5,1-5.5c1.1-.1,2.5.2,3.5,0s5.1-1.9,6-2c1.8-.2,5.3-.2,7,0,3.5.5,2.4,3.7,2.5,6.5-2.1,2.9-4.9,2-7.5,2.5s-3.6.8-5,1-4.4-.2-6.5,0ZM520,830.3c-.5-2-2.1-2.2-4-2,.5,2,2.1,2.2,4,2Z"/>
  <path d="M574,70c-.5-1.6.8-1.9,1-2.5s-.2-1.4,0-2c.5-1.8,4.7-1.8,6.5-1.5s5.4,2.3,7,3c2.3,1,4.8,1.7,6.5,3.5.4,1.3-2.4,2.4,0,4-1.2,1.8-3.6,1.9-5.5,1.5s-.6-.9-1-1c-3.7-.9-7.3-1.9-11-3s-1.6-2.7-3.5-2Z"/>
  <path d="M151.9,710.4c1.6.8,2.7,2.1,4,3s.8-.2,1,0c2.7,2,3.9,5.4,6.5,7.5,1.6,3.4,1.6,5.2-1.5,7.5-1.3-.7-2.9-.7-4-1-1.9-.6-8.9-9.7-10.5-11.5l4.5-5.5Z"/>
  <path d="M498,43l-1,7c-.5,0-1.1.2-1.5,0-3.9-1.7-3.7.4-5,0-2.8-.8-6.1-1.3-9-2s-3.2.7-4.5-1.5v-4c1.6-1.9,2.9-3.1,5.5-2.5,3.9.9,6.9.3,10,1s2.5,1.8,3,2,1.7-.1,2.5,0Z"/>
  <path d="M432.1,841.3c-.4.4-5.9-.3-7.5,0s-.7,1-1,1-.6-.9-1-1c-2.4-.4-5.5.4-8,0s-1.7-1.8-3.5-1v-4.5l3.5-2.5,1,1c1.2-1.4,5-1.3,7-1s.7,1,1,1,.6-.9,1-1c2.6-.4,3.7,1.1,6,1l2.5,2.5-1,4.5Z"/>
  <path d="M687.9,129c2.7.2,4.8-1.7,7.5-1s4.6,4.9,6,6,.8-.2,1,0c2.5,1.9,2.1,3.4,3.5,5.5-.7,2.9-2.1,5.5-5.5,4.5s-1.3-1.5-2-2c-3.9-2.7-7.5-5.9-10-10s-.6-1.8-.5-3Z"/>
  <path d="M59,317.8c4.7-1.1,5.1,2.8,4.5,6.5s-2.6,5.4-3,7,.2,2.2,0,3-.8.6-1,1-.3,2.2-1.5,2.5c-5.6,1.5-6.3-2.8-5.5-7.5s1.9-.7,0-2l3-8,3.5-2.5Z"/>
  <path d="M718.8,149.9v2c1.9-.7,9.6,6.2,10,7.5s-.2,1.4,0,2,.9.6,1,1c.2,1-.1,2.4,0,3.5l-4.5,1-13.5-13.5,3.5-4.5,3.5,1Z"/>
  <path d="M333.2,824.3c-1.1.1-2.5-.2-3.5,0s-.6.9-1,1c-1.1.2-4,.2-5,0s-2.6-1.9-3-2c-1.4-.4-3.3,0-5-1s-1.6-1.9-2.5-2.5c1.7-1,.7-2.7,1-4s4-1.8,5.5-1.5.6.9,1,1c4,1,5.8,1.1,10,3s3-.3,3.5,1.5-1.3,2.7-1,4.5Z"/>
  <path d="M623.9,90c-1.4-.2-3.2.2-4.5,0s-4.5-2.4-6-3-1.4.2-2,0c-1.5-.7-2.7-2.1-4-3s-1.9-.2-2.5-1.5l1-1-1-1,1-2.5c2-.1,3.2-1.5,5.5-1s3.8,2.5,5,3,2.2-.5,3,1l5.5,3.5-1,5.5Z"/>
  <path d="M345.2,55c0-1.9-1.6-3.3-1-5.5s2.7-1.2,3.5-1.5,1.3-2.3,3,0l2-2,2,1c1.3-1.4,4.9-1.3,7-1s1.7.5,2.5,1.5l-.5,2.5.5,1.5c-.6,1.4-2,1.2-2.5,1.5s-2.7,1.9-3,2c-1.6.4-5.4.7-6,0-2.1,2.3-5.1.4-7.5,0Z"/>
  <path d="M662.9,109l3.5-2c.5,1.1,1.7.8,2,1,3,1.9,6.2,4.9,9,7s2.4,2.3,2.5,2.5c.3.9-.5,2.1,1,3l-4.5,3.5c-1.5-2.6-3.2-1.5-5-2s-5.6-5-7-6-1.6-1.8-2.5-2.5l1-4.5Z"/>
  <path d="M801.7,274.8h-4.5c-.8-1.4-2.8-3.3-3.5-4.5-1.1-1.8-1.4-4.1-2-6s-1.8-1.4-2-2,.2-1.4,0-2-1.6-1-1-3,2.3-2.5,2.5-2.5c2.2-.6,4.3.7,5.5,2.5s1.3,3.7,2,5,1.8,1.5,2,2c.6,1.9.5,4.7,2,6l-1,4.5Z"/>
  <path d="M529,51h2l1,2.5-2.5,2.5c-1.6-.2-3.5.2-5,0s-.6-.9-1-1c-3.6-.6-7.6-.8-11-2s-.9-1.5-2.5-1c-.3-3.2-.2-5,2.5-7,1.6,1.9,4.6.7,7,1s4.3,1.9,5,2c2,.4,4.1-.9,5.5,1.5l-1,1.5Z"/>
  <path d="M365.2,832.3l-4.5,2c-.3,0-.6-.9-1-1-2.3-.6-2.6-.4-4,0s-4.6-1.7-6-2-2.4.1-3.5,0l-1-4.5,2.5-3.5c1.3.1,2.8-.2,4,0s.6.9,1,1c2.8.4,6.2.2,9,1s3.4,2,3.5,2.5v4.5Z"/>
  <path d="M75.5,276.8c-.1-.1-.6-2.8-1-3.5,1.5-.8.7-2,1-3,.5-1.8.4-3.9,1-6s1.6-1.3,2-2,.7-2.6,1-3c1.5-2.3,5.5-2.2,7,0-.1,1.3.2,2.8,0,4-.3,1.7-2.2,7.9-3,10s-.9,1.8-1,2c-.5.8-1.9,1.6-2.5,2.5l-4.5-1Z"/>
  <path d="M752.8,686.4c-.3,1.6.4,4.1,0,5.5s-6.9,7.1-7.5,7.5-1.3-.2-1.5,0v2l-2.5,1-3.5-1c.2-1.7-.3-4,0-5.5s2.9-3.6,4-5-.2-.8,0-1c1.8-2.3,4.2-4.1,6.5-5.5l4.5,2Z"/>
  <path d="M302.2,809.3c.4,2.9-.3,4.2-2.5,6-1.6-1.9-4.7-.6-7-1s-5.4-2.3-8-3-2.5-2.9-3.5-3.5l1-4.5c1.8.2,3.8-.3,5.5,0,3.5.5,8.6,3.1,12,5s.9,1.5,2.5,1Z"/>
  <path d="M638.9,91l.5,2,1-2c.8,1.5,2.1.7,3,1s4.8,4,6,5,2,.4,3,2c1.9,3.2-.5,4.6-3,6l-7-2c-.8-1.7-3.3-2.5-4-3s-3.4-3.2-3.5-3.5c-.6-2.1,2.3-3.4,0-5l4-.5Z"/>
  <path d="M812.2,570.5l3.5,3.5c-.2,1.6.3,3.6,0,5s-.8.6-1,1c-.7,2-5,11.5-6.5,11.5-.8-1.5-2-.7-3-1-1.8-.5-1.8-4.7-1.5-6.5s1.7-3.2,2-4c1.5-3.7,2.6-7.8,6.5-9.5Z"/>
  <path d="M46.5,467.6l-5,1-3-5.5,1-2c-2.7-1.6,0-5.6,0-6s-.9-.6-1-1c-.6-2,.9-2.6,1-3,.3-1.2-.5-3.9,1.5-4.5s4.4,1.3,5.5,2.5l-1,1c1.7,1.1.7,3.2,1,5s1,.6,1,1c.2,2,.3,7.1,0,9s-1.5.9-1,2.5ZM45.5,465.6c0-1.8,0-3.7,0-5.5s.7-2.7-1-2.5c0,1.8,0,3.7,0,5.5s-.7,2.7,1,2.5Z"/>
  <path d="M378.2,50l-1-6c1.9.7,2.7-1.8,3.5-2,1.5-.4,4.2.2,6,0s.6-.9,1-1c1.5-.2,3.4.2,5,0,.9,1.5,4,.7,4.5,2.5s-2.3,5.5-4.5,6.5c-2.5-3.1-5.2.6-7,1-2.7.6-5.2-.5-7.5-1Z"/>
  <path d="M139.4,174.9l1,6h-2c.6,3.3-3.1,4.8-3,8h-2c.3,2-3.2,5.7-5.5,5s-2.9-4.4-2.5-6.5.9-.6,1-1c.2-.6-.2-1.4,0-2s3.1-3.3,3.5-3.5,1.3.2,1.5,0-.3-1,0-1.5c.9-1.7,2.7-1.9,3.5-2.5,1.5-1,1.8-2.7,4.5-2Z"/>
  <path d="M654.9,772.3l1,3.5-5.5,5.5c-2.3-.4-5.1,3.8-6,4s-2.8,1-3,1c-1,.2-2.4-.1-3.5,0l-1-4,2-1c-3.1.6-2.4-1.8-.5-3,3.1-1.9,7.2-3.3,10-6h6.5Z"/>
  <path d="M595.9,803.3c1.2,6-3.2,7.4-7.5,10l-10,2-2.5-3.5,2-.5-1-1.5,1-2.5c1.9.7,2.8-.8,3.5-1,2.6-.9,5.7-1.4,8-3h6.5Z"/>
  <path d="M785.3,629.5c3.6.7,5.5,2.7,4.5,6.5s-1.6,1.3-2,2c-.7,1.2-1.3,4-2,5s-3.4,3.7-4.5,4.5-1.4,1.5-3,1-2.5-2.3-2.5-2.5c-.6-2.3.6-3,1-4,1.8-5,4.5-8.9,8.5-12.5Z"/>
  <path d="M824.7,334.8h-5.5l-1.5-1.5-1-6.5h-2c.5-3.1-1.7-5.4-1-8.5s2.1-3.5,2.5-3.5c1.2,2,1.6-.4,3,0l1.5,1.5,2,8c2.3,2,1.4,5.2,3,7l-1,3.5Z"/>
  <path d="M73.5,287.8l1,4.5-4,13.5h-2v2h-5l1-2h-2c.2-1.4-.2-3.2,0-4.5s2.6-4.3,2-6.5h2c-.7-4.3,2.7-7.7,7-7Z"/>
  <path d="M210.3,760.4l2.5-1,1.5,1.5-1,5.5-3-1v2h-2.5l-10.5-8.5v-4l2.5-2.5h2c3,2.4,8.1,3.9,8.5,8Z"/>
  <path d="M768.8,213.9l2-.5-1.5,3.5-1.5-4-1,4c-.8-.8-2.9-.9-3-1-.2-.2.3-1,0-1.5-.9-1.6-4.6-6-6-8s-2.2-1.9-3-3c-.4-1.3,1.7-1.6,0-3.5l6.5-1,8.5,10.5-1,4.5Z"/>
  <path d="M809.7,284.8c-.4,1.7,1.4,3.1,2,4.5s-.2,1.3,0,2,1.8,1.4,2,2c.2.8-.2,2.1,0,3s.9.6,1,1c.5,2.6-.6,4.3-1,6.5h-5c.7-1.9-1.7-2.6-2-3.5-.9-3.1-2.1-5.8-3-9s-.9-.6-1-1c-1-4.4,3-6.3,7-5.5Z"/>
  <path d="M252.3,788.3l2.5-1,7,3c3.3,1,6.5,3.4,9,6,.5.3-.4,2.4-.5,2.5-1.2,1.9-5.5,1.9-7.5,1.5s-.6-.8-1-1c-3.5-1.3-7.6-3.3-10.5-5.5,1.7-1.2.8-3.5,1-5.5Z"/>
  <path d="M565,815.3l1,3.5c-.9.6-1.7,2-2.5,2.5-1.8,1.1-4.9,1.3-7,2s-2.6,1.9-3,2c-.7.2-3.3.2-4,0s-1.6-2.7-3.5-2l1-6,11.5-3,6.5,1Z"/>
  <path d="M95.4,633.5h2c.7,2.3,2.6,6.4,4,8.5s4,2.5,3,6.5h-2v2l-1.5-1-2.5,1c.3-2.4-2.6-3.6-4-5.5s-2-4.2-3-6-1.9-1.5-2-2c-1-3.6,1.9-4.9,4.5-6.5l1.5,3Z"/>
  <path d="M780.8,226.9c.2.2-.3,1,0,1.5.8,1.3,3.2,3.6,4,5s2.9,6.3,3,7c.2,1.3-.2,3.1,0,4.5-1.6-.5-2,.8-2.5,1-2.2.7-4.8-2-4.5-4h-2l-4-10.5,1-4.5,2.5-1c.5,1.3,2.4.9,2.5,1Z"/>
  <path d="M48.5,399.7l-5-1v3c-1.1.3-2.8-.7-3-1.5s-.2-7.6,0-9,1-.7,1-1-.9-.6-1-1c-.6-2,.8-2.5,1-3s-.2-1.4,0-2,2.3-2.5,2.5-2.5c5.2-1.4,6.2,4.5,5.5,8.5s-.8,3.6-1,5,.2,3.1,0,4.5Z"/>
  <path d="M624.9,788.3l1,5.5c-.9.7-1.6,1.8-2.5,2.5-2.7,2.1-6.6,2.5-9,5l-1-1-3,1c-.9.3-2.3-1-2.5-1.5-.6-2.1,1.9-2.9,0-4l1-2.5c1.7.4,3.2-1.5,4.5-2s3.8-.6,5-1,2.6-1.9,3-2c1-.2,2.4.1,3.5,0Z"/>
  <path d="M825.7,541.5l-1,9.5c-2.5,2.7-2,7.1-4.5,9.5l-1-1-1,1-3.5-1c.2-2-.3-4.6,0-6.5s1.5-5.1,2-7,3-2,2-4.5l2.5-1,4.5,1Z"/>
  <path d="M45.5,369.7l-1-4.5c1.8-1.3.7-3.9,1-6s.9-.6,1-1c.5-2.6-.3-5.5,2.5-7.5l1,1,3-1c2,.6,1.7,6.6,1.5,8.5s-.9.6-1,1c-.2,1.6.3,3.5,0,5s-1.7,1.4-1,3l-3.5,2.5-3.5-1Z"/>
  <path d="M46.5,414.7v17.5l-1.5,1.5h-4.5c.7-1.9-1.8-2.6-2-3.5s-.3-10.8,0-12,.8-.6,1-1-.1-.8,0-1c.5-.8,1.9-1.6,2.5-2.5l4.5,1Z"/>
  <path d="M563,65l-2.5-1-2,1c-2.8-2.6-6.8-2.2-10-3s-1.6-1.7-3.5-1c0-2-1.5-3.1-1-5.5s1.5-.9,1-2.5c1.6-.5,1.9.8,2.5,1,3.5,1.2,7.4,1.3,11,2s1.4,1.7,3,1l2.5,2.5-1,5.5Z"/>
  <path d="M57.5,542.5l.5,2h1.5c1.3,5.8,4.5,8.7,4,15.5s.2,2.4-1.5,3.5c-3.4-.7-5.4-2.9-6.5-6l2-1-3-.5-2-6,1-1c-3.6-1.8,2.9-7.6,4-6.5Z"/>
  <path d="M269.3,84c-1.9-.7-2.6,1.7-3.5,2-2.5.7-5.8,2.7-7,3-1.8.4-4.5-.3-6.5,0v-4.5l5.5-4.5,8-4c2-.2,3.3-.2,4.5,1.5.5,2.6-.6,4.3-1,6.5Z"/>
  <path d="M463.1,45c-.2.1-.7,1.8-1.5,2l-3-1-1,1-1-1-1,1c-1.8-2-5.3-.6-8-1s-1.7-1.8-3.5-1c.2-1.8-1.5-2.6-1-4.5s4.4-3,6.5-2.5c3.3.7,7.7.3,12,1s.9,1.5,2.5,1v5c-.1.2-.8-.2-1,0v-2c-1.7,1.1-3,1.2-5,1v1h5Z"/>
  <path d="M69.5,575.5l4,8.5,1,7-1.5,1.5-2-1-.5,2c-.8.8-3.5-1.7-4-2.5s-1.9-3.8-2-4c-.2-.9.3-2.2,0-3s-1.9-3.5-2-4c-.4-1.9-.3-4.3,1.5-5.5,1.3,1.7,3.6.8,5.5,1Z"/>
  <path d="M214.3,116c-2.2-.4-2.9,1.9-4.5,3s-.8-.2-1,0c-1.7,1.2-1.7,2-4,3s-.6.9-1,1c-2.4.5-4.3-.6-6.5-1-.6-1.9.5-2.4,1-3.5,1.5-3.1,1.1-1.7,2.5-2.5s5.1-4.6,7-6l6-3c1.1.4.3,2.5.5,3.5s1.4.7,1,2-1.7,1.6-1,3.5Z"/>
  <path d="M102.4,227.9l1,3.5-4,10-5.5,5.5c-.3,0-2.7-.8-3-1-3.3-2.1,1-3.7-1.5-5.5l8.5-11.5,4.5-1Z"/>
  <path d="M750.8,190.9c-3.4.3-4.9.2-7-2.5s-2.9-4.6-4-6c-2.5-3.1-4.4-2.7-4-7.5l2-2c1.2,0,1.9-.2,3,.5,4,2.4,8.4,9.2,11,13l-1,4.5Z"/>
  <path d="M832.7,377.7v2l1.5-1c2.5,1.6,1.1,4.1,1.5,6.5s.9.6,1,1c.3,1.9-.3,4.2,0,6s1.6,1,1,3-4.3,3.6-6,2l-2-2c.7-1.6-.9-2.7-1-3-.6-3.4,1.2-8.3-1-11l2.5-3.5h2.5Z"/>
  <path d="M187.3,135.9c-.2.2-1-.3-1.5,0s-8.1,7.9-8.5,8.5.2,1.3,0,1.5l-5-1v-1.5l-2-.5c-.5-1.9,1.2-2.3,2-3.5s-.2-.8,0-1c.8-1,8.9-8.3,9.5-8.5,1-.3,2.2.5,3-1,1.8-.5,3.3,3.1,3.5,4.5-1.3.5-.9,2.4-1,2.5Z"/>
  <path d="M702.3,733.4c1.5-.3,5-.2,5.5,1.5s-1,2.5-1,4c-2.3,1.9-4.2,4.7-6.5,6.5s-.8-.2-1,0c-3.4,2.6-4.4,5.4-8.5.5.7-1.3.7-2.9,1-4s4.7-4.9,5.5-5.5.8.2,1,0c1-.7,2.9-2.8,4-3Z"/>
  <path d="M81.4,603.5c-.6,1.9,1.3,2.3,2,3.5,1.3,2.4,2.3,5.4,3,8s4.5,3.4.5,6.5l-.5-4-3,1,2,1-.5,4c-1.1.3-2.9-1.7-3.5-2.5-1.1-1.4-1.5-4-2-5-1.6-3.2-5-5.5-4-10,1.8-2.2,3.1-2.9,6-2.5Z"/>
  <path d="M182.4,736.4c.2.2-.3,1,0,1.5,1.2,2.2,5.5,3.5,7,6,.4,1.3-1.7,1.6,0,3.5-2,.1-3.2,1.5-5.5,1s-.6-.8-1-1-.8.1-1,0c-1.3-.8-2.6-3-4-4s-2.4-1.7-3-2-1.3.2-1.5,0-.2-2.8-2-3.5c.4-.7.9-3.4,1-3.5s2,.3,2.5-1h2c1.5.6,2.8,2.3,4,3s1.3-.2,1.5,0Z"/>
  <path d="M117.4,663.4c-.3,2.5,3.5,4.3,4,6.5s.4,7-1.5,7.5c-2.8.7-6.1-2.4-7.5-4.5s-.7-2.6-1-3c-.6-.9-2.8-2.4-3-3-.4-1.5-.2-6,1.5-6.5,2.7-.8,5.1,3.2,7.5,3Z"/>
  <path d="M803.7,602.5c-.1,1.1.2,2.5,0,3.5-.4,1.8-3.6,8.9-5,11s-1.4,1.5-2,2c-3.6,3-4,1.2-6-2v-1c1.5-.8.7-2.1,1-3,.5-1.4,2.9-6.4,4-8s2.6-2.3,3.5-3.5l4.5,1Z"/>
  <path d="M833.7,443.6l3.5,1c.6.4,2.4,3.1,2.5,3.5.3,1.3.3,8.7,0,10s-3,3-1,4l-2.5,2.5c-3.3-.9-5.1-1.8-4.5-5.5s1-2.8,1-3c0-.3-.9-.6-1-1-.2-1.3-.3-5.8,0-7s2.5-2.9,2-4.5Z"/>
  <path d="M832.7,365.7c-2.1-.6-3.7,1.5-5.5,1s-1.2-2.6-1.5-3.5-.9-.6-1-1c-1-3.5-.8-7.2-2-11s2.8-3.1,4.5-4.5c.6.9,2,1.7,2.5,2.5,1,1.7.6,3.6,1,5s1.9,4.3,2,5c.3,2-.2,4.4,0,6.5Z"/>
  <path d="M47.5,479.6c-.6,1.5,1.8,3.6,2,4.5.3,1.4-.3,3.6,0,5s1.4.7,1,2-2.4,4.1,0,6l-2.5,3.5-2-2-2.5,1c.7-1.9-.9-3-1-3.5-1.1-4.3.1-7.8-1-11l1-4.5,5-1Z"/>
  <path d="M766.3,658.4c2.5-.7,4,.7,5.5,2.5v1c-1.5.8-.7,2.2-1,3-1.2,2.9-3.2,4.7-5,7s0,1.4-1.5,2.5c-3.5,2.7-7.1-2-6.5-5.5,1.5-2.1,3.5-4.1,5-6s-.2-.8,0-1c.5-.6,3.2-3.4,3.5-3.5Z"/>
  <path d="M664.9,767.3v-6.5l9.5-7.5c2.6.2,4.3-2.6,6.5.5.4,3.2,0,4.6-2.5,6.5s-6.1,5.3-9.5,6.5-2.5.7-4,.5Z"/>
  <path d="M162.4,158.9c-.1.1-2-.3-3,1.5s-3.7,2.7-5,5,.2,1.3,0,1.5-2-.3-2.5,1l-3.5-1,1-3.5-2-.5c.4-1.7,5.2-7.6,6.5-8s1.7.1,2.5,0c.6-4.3,4.2-5.6,7-1.5l-1,1,1,2c-1.3.5-.9,2.4-1,2.5Z"/>
  <path d="M300.2,64l1,2.5-1,3.5-2.5,1-1.5-1c.4,1.9-1.3,2.7-2.5,4l-3.5-1,1,2-7,1c.4-2.4-2.8-2.9-2-5.5s2.1-2.2,2.5-2.5.7.2,1,0c2.8-1.7,9-4.4,12-4s.5,1.6,2.5,0Z"/>
  <path d="M832.7,510.6c-.2,2.1.3,4.5,0,6.5s-1.5,6.1-2,8-1.8,3-2.5,3.5c-1.3,1-1.7,1.3-3.5,1l-1-10h2c-2.2-3-.3-5.5,0-8.5l3.5-2.5,3.5,2Z"/>
  <path d="M242.3,779.3l-2,6h-2.5l-8-4c-3.4-.7-5.8-3.1-6.5-6.5l3.5-2.5h3l12.5,7Z"/>
  <path d="M422.6,38l4,1,1-1c.9-.3,2.3,1,2.5,1.5.6,2.1-1.9,2.9,0,4l-2.5,2.5-1-1c-1.6,1.9-4.6.7-7,1s-.6.9-1,1c-.9.2-3.1.2-4,0s-.6-.9-1-1c-.6-.2-1.4.2-2,0-2.1-.6-2.1-6.4,0-7,3.1-.8,8.5,1.3,11-1ZM417.1,43h-4v2l2.5,1,1.5-3Z"/>
  <path d="M326.7,53c1.5-.3,5-.2,5.5,1.5.8,2.6-3.1,4.7-4.5,6.5l-11,3-3.5-2.5.5-3.5,2-2c.6-.2,1.4.2,2,0,2.2-.7,7.2-2.7,9-3Z"/>
  <path d="M134.4,687.4v2h2c0,3.3,5.3,5.4,6,8.5s-.1,2.4,0,3.5c-2,0-3.3,1.6-5.5,1s-4.9-4.7-5.5-5.5.2-.8,0-1c-.7-1-3.8-4.5-4-5-.8-2.8,2.5-4,4.5-4.5l2.5,1Z"/>
  <path d="M838.7,431.7l-2.5,1-2.5-1c.8-1.8-1-3.2-1-3.5-.6-3.9.6-8.2-1-12l2-4.5c3.5-.7,4.4,2.1,6,4.5-.2,3.2.3,6.8,0,10s-.9.6-1,1c-.2,1.4.1,3.1,0,4.5Z"/>
  <path d="M730.8,710.4l1,3.5c-.9,1.1-2.2,1.9-3,3s.2.8,0,1c-1,1.3-4.3,4.7-5.5,5.5s-3.2.7-4,2l-3.5-1v-1.5l2,.5-1-3.5c0-.3,3.5-4.1,4-5s-.2-1.3,0-1.5,1,.3,1.5,0c1.3-.7,2.7-3.1,4-4l4.5,1Z"/>
  <path d="M240.3,93c.3,3.4.2,4.9-2.5,7s-.8-.2-1,0c-1.9,1.5-3.9,3.5-6,5h-3l-3.5-2.5,1-4.5,10.5-6,4.5,1Z"/>
  <path d="M402.8,361.3l5.7-2.8c.9-4.8,6.9-8.6,9.1-12.5,1.1-2,3.1-4,5.1-5.1,3-1.7,10.9-10.6,14.8-13.6s6.2-5.1,9.1-6.8,7.4-3.2,10.2-4.5c8.1-3.9,15.9-7,23.8-9.1,18.4-4.8,39.3-2.1,56.7,3.4l10.8,5.7v2.3c3.2-.4,4.9,4.3,7.4,5.7s1.5-.2,1.7,0-.3,1.2,0,1.7c1.6,2.9,5.9,7,6.8,10.2s-.3,2.4,0,3.4,2.2,3,2.3,3.4c.3,1.6-.3,3.9,0,5.7s1.1.7,1.1,1.1c.3,2.1-.3,4.7,0,6.8s1.1.7,1.1,1.1c.4,4.5-.7,7.1-1.1,10.2-1.7,13.1-2.6,25-5.7,37.4s-3.5,17.5-5.7,26.1c-2,8.1-4.9,16.4-6.8,25-3.7,17.2-10.9,35.5-12.5,53.3s-.5,10.3,0,12.5,2.6,1.5,0,3.4c2.8,2.7,3.8,7.4,5.7,10.2s5.7,3.4,7.4,5.1c4.4-.4,9.4.5,13.6,0s.7-1.1,1.1-1.1c2.5-.4,3.1-.3,5.7-1.1,6-1.9,11.8-4.3,17-7.9,7.7-5.4,16.8-11.9,23.8-18.2s11.4-13.5,18.2-19.3c3.3-.4,5.8.4,8.5,1.1,0,2.2,1.8,3.6,1.1,6.2s-1.1.7-1.1,1.1c-.3,1.8.3,4.1,0,5.7-.8,3.8-5.6,9.3-7.9,12.5-15.8,21.3-38,41.5-64.1,48.2s-6.2,1.4-9.1,2.3-1.8,1.9-4,1.1v-.6l-3.4-1.7,2.3,2.3c-1.8-.6-2.4,1.1-2.8,1.1-4.1.7-25.5.7-29.5,0s-.7-1-1.1-1.1c-3.2-.9-5.5-2.3-7.9-1.1-1.3-2-4.5-1.7-5.7-2.3-11.3-5-21.8-13.1-27.8-23.3s-2.6-4.6-3.4-6.8c-1.4-3.9-1.6-7.5-2.3-11.3s-1.1-.7-1.1-1.1c-.7-5.4-.4-15.9,0-21.6.6-7.6,2.7-16.5,4.5-23.8,4.4-17.9,8.6-35.1,13.6-53.3,2.3-8.1,4.8-16.7,6.8-25,1.8-7.6,3.6-16,4.5-23.8s-.6-11.2-1.1-14.8-1-.7-1.1-1.1c-.4-1.8,0-3.7-1.1-5.7s-2.8-2.3-3.4-3.4.2-1.5,0-1.7-1.2.3-1.7,0c-1.2-.7-1.5-1.4-3.4-2.3s-6-3.2-6.8-3.4c-2.6-.6-14-.4-17,0s-.7,1.1-1.1,1.1c-2.4.4-3.5.6-5.7,1.1-11.1,2.9-20.1,8.6-28.4,15.9-8.7,7.7-18.5,19.8-23.3,30.1-4.2,9-7.5,15.7-10.2,26.1-2.7,10.3-6,21.3-7.9,31.8s1,4.8-2.3,6.8l1.1,2.3c-5.5,19.1-7.9,39.5-12.5,59s-3.2,21.2-7.9,30.6c3,3.1-.9,7.3-1.1,10.8l-3.4-1.1,1.1,2.8-1.7,1.7c-4.9-.2-9.9.3-14.8,0-.4,0-.7-1.1-1.1-1.1-3.7-.3-7.6.2-11.3,0l-.6-2.3c-.5-.6-3,2-2.3,3.4-2.9.7-4.4-2.5-6.2,0l-.6-2.3-2.8,2.3-1.1-1.1c-1,1.5-3.8,1.4-5.7,1.1s-.7-1.5-3.4,0c-2-1.6-4.5-1.1-6.2-4s.2-.8,0-1.1-1-.7-1.1-1.1c-.3-1.2-.2-5.5,0-6.8s1-.7,1.1-1.1c1.1-4.6,2.1-9.2,2.3-14.2h2.3c0-.5.2-1.2,0-1.7-.3-.8-1.8-1.2-1.1-3.4,1.9-6.2,3-13,4.5-19.3,4.6-18.4,6.2-38.1,10.2-56.7,2.1-9.9,5.5-20.6,6.8-30.6.3-2-.2-4.2,0-6.2h2.3c-1-1.6-1.6-3.1-1.1-5.1,2.8-11.9,4.8-24,6.8-36.3,1.4-8.2,4-19.6,5.7-29.5,2.9-17.2,6.9-37.9,10.2-56.7,2-11.2,4.2-23,6.8-34s1-10.5,2.3-15.9-2.4-5,0-6.8l-1.1-1.1,1.1-1.1c0-.5-2.9-2.5-3.4-3.4s.2-1.5,0-1.7-1.2.3-1.7,0c-1.1-.6-2.2-2.6-3.4-3.4-3.9-2.6-11.4-4.5-15.9-5.7s-5-2-9.1-1.1-5.5.2-6.8,0-1-1.8-2.8-1.1l-2.3-6.2c1.8-2,.6-5.5,4.5-5.1v-3.4c.9-.1,2.1.2,2.8,0s3-2.2,3.4-2.3c3.4-.7,8.8-.4,12.5-1.1,9.6-2,19.7-3.8,29.5-5.7s27.2-7.5,40.8-10.2.7-1.1,1.1-1.1c2.9-.4,16.8-.6,19.3,0s.6.9,1.1,1.1.9-.1,1.1,0c1.3.8,4.3,5,4,6.2-2.1,1.5-.7,4.5-1.1,6.8-2.7,15.9-8,32.8-10.2,48.8-1.6,11.6-3.3,22.8-5.7,34-4.9,23.3-10,46.5-13.6,70.3,0,.4-1.1.7-1.1,1.1-.5,4.7,1.1,8.9-2.3,13ZM427.8,180.9h-2.3l1.1,1.7-1.1,1.1,3.4,1.7-1.1-4.5ZM402.8,205.9l-1.7-3.4-2.8,1.1v2.3l2.8-1.1,1.7,1.1ZM389.2,209.3c.3-2.2-1.2-3.7-3.4-3.4l1.1,3.4h2.3ZM417.6,209.3l-4.5-1.1v2.3l4.5,1.1v-2.3ZM424.4,208.1h-2.3v3.4h2.3v-3.4ZM400.5,214.9h1.7l1.7-1.7-1.7-1.7-1.7,1.7v1.7ZM358.6,213.8h-2.3v3.4l4.5,1.1c-.5-1.9-2.9-2.3-2.3-4.5ZM414.1,219.5v-5.7l-2.3,1.7,1.1,4h1.1ZM394.9,216.1h-2.3c-.4,2,1.5,2.5,1.1,4.5h2.3l-1.1-4.5ZM393.7,221.7h-4.5c.4,1.3,1.6,1.7,1.1,3.4l3.4-3.4ZM398.3,237.6l2.3-2.8-1.1-2.8-2.3,1.7,1.1,4ZM392.6,233.1h-2.3v4.5h2.3c-1.4-2.2-1.4-2.4,0-4.5ZM389.2,238.8c.4-2.7-.5-4.8-3.4-4.5-.2.2,2.7,5.5,3.4,4.5ZM423.2,249l-4.5-1.1v2.3c1.4-.2,2,0,2.8,1.1l1.7-2.3ZM391.5,261.5c.2-2.6,2.7-4.3-1.1-5.7l-2.3,5.7h3.4ZM385.8,283h-3.4v4.5l2.3-.6-.6-1.7,1.7-2.3ZM376.7,285.3l-3.4-1.1v3.4l1.7-1.1,1.7,1.1v-2.3ZM403.9,286.4h-3.4c.6,1.9,2.9,2.3,2.3,4.5h1.1v-4.5ZM382.4,294.4l-1.1-2.3-2.3,2.8,5.7,2.8-1.7-3.4h-.6ZM382.4,303.4h-3.4l.6,5.7,2.8-5.7ZM376.7,304.6h-4.5v2.3l4.5-1.1v-1.1ZM499.2,310.2c2.2.3,3.7-1.2,3.4-3.4l-3.4,1.1v2.3ZM382.4,310.2l-4.5,1.1v1.1l3.4,1.1,1.1-3.4ZM472,314.8h-2.3l-1.1,3.4h3.4l-1.1-1.7,1.1-1.7ZM509.5,319.3h-5.7v2.3l4-1.1,1.7,1.1v-2.3ZM476.6,326.1c-2.9-.4-3.4,2.3-4.5,4.5h2.3l2.3-4.5ZM354,331.8l-2.3.6c2.5,1.5-1.1,2.7-1.1,3.4l4,2.8-.6,2.8,2.3.6v-4.5h-2.3v-5.7ZM552.6,332.9c-2.5-.6-3.6,1.3-5.7,1.1v2.3l5.7-1.1v-2.3ZM349.5,339.7l-3.4-1.1-1.1,4.5,2.3-2.3h1.1l2.3,2.3-1.1-3.4ZM402.8,339.7l-3.4-1.1v4.5h1.1v-2.3h2.3v-1.1ZM375.6,344.3l-2.3-3.4,2.8,5.7,4-3.4-4.5,1.1ZM368.8,350l-5.1-1.1-.6,2.3,1.1,2.3c2.6.4,4.8-.4,4.5-3.4ZM508.3,348.8h-4.5v2.3l1.7-1.1,2.8,1.1v-2.3ZM560.5,353.4h-5.7l1.7,2.3,1.1-1.1,2.8,1.1v-2.3ZM366.5,354.5c-1.9-.3-3.4.5-5.1,1.1s-.4,2.4-.6,3.4l4.5-1.1,1.1-3.4ZM554.8,360.2l-6.8-1.1v1.1l6.8,1.1v-1.1ZM541.2,367l-1.1-5.7-2.3,1.7,3.4,4ZM365.4,363.6l-3.4.6.6,1.7-1.7,3.4,4.5-5.7ZM507.2,367l-4.5-1.1v2.3l4.5,1.1v-2.3ZM391.5,373.8l2.3-1.7v-1.1l-1.7-1.7h-.6v4.5ZM554.8,369.2l-4.5,1.1v2.3c.2.2,5.5-2.6,4.5-3.4ZM508.3,376.1h-3.4v1.1h2.3l-1.1,2.3h2.3v-3.4ZM517.4,379.5c-2.4-4.8-4.1.4-3.4,3.4l3.4-3.4ZM400.5,399.9l-4.5-4.5,3.4,2.8-1.1,1.1,2.3.6ZM358.6,397.6l-2.3,4.5,5.7-1.1h-4l.6-3.4ZM396,403.3h-4.5v2.3h4.5v-2.3ZM514,405.6h-1.7l-1.7,2.3c1.7-.5,2.1.8,3.4,1.1v-3.4ZM554.8,411.2c-.4-1.3-1.6-1.7-1.1-3.4l-3.4,2.8v.6h4.5ZM344.9,414.6c1.1,1.1,5.3-2.6,4.5-4.5l-4.5,2.3v2.3ZM368.8,419.2l3.4-1.7c-2.1-1.3.4-1.7,0-4-2.9.8-1.9,3.7-3.4,5.7ZM534.4,414.6c-1.7-.6-2.6,1.1-2.8,1.1s-1.1-1.8-2.8-1.1v2.3h5.7v-2.3ZM366.5,421.4l2.8,2.3,1.7-3.4-4.5,1.1ZM333.6,426h-1.7l-1.7,1.7,1.7,1.7h1.7v-3.4ZM360.8,437.3l-.6-2.3-1.7,3.4,2.8,1.1,1.7-2.3h-2.3ZM332.5,446.4l-.6-4.5c-2.7-.3-1.6.4-1.1,2.3s.6,3.4,2.3,4.5h7.4l-4-2.3c-1.3,2.1-1.7-.4-4,0ZM359.7,441.9h-3.4c1.1,2.1,1.6,5,4.5,4.5l-3.4,3.4,5.7-1.1-1.7-3.4h-2.8l1.1-3.4ZM517.4,445.3l-7.4-1.1-.6,3.4,4.5-2.3,1.7,3.4,1.7-3.4ZM334.7,449.8c-1.9.4-3-.2-4.5-1.1v3.4l4.5-1.1v-1.1ZM534.4,455.5c.4-2.2-1.5-3-2.8-4.5l-1.7,3.4,4.5,1.1ZM334.7,453.2h-2.8l-1.7,3.4h2.3v-2.3h2.3v-1.1ZM525.3,455.5c-1.7.5-2.1-.8-3.4-1.1v3.4h1.7l1.7-2.3ZM335.9,460l-5.7-2.3,1.1,5.7h3.4l-2.3-2.8,3.4-.6ZM359.7,461.1l-4,2.3-3.4-2.3-1.7,2.3,2.3.6v1.7c2.5.2,7-.9,6.8-4.5ZM347.2,463.4h-5.7l1.7,2.3,4-1.1v-1.1ZM527.6,463.4c-2.1-.3-3.9,0-4.5,2.3l2.8-1.1,1.7,1.1v-2.3ZM352.9,468c-2.7-.4-4.8.5-4.5,3.4.9.9,4.3-1.9,4.5-3.4ZM529.9,481.6l2.3-1.7-1.7-2.8-1.7,1.7,1.1,2.8ZM526.5,482.7c.4-2.2-1.5-3-2.8-4.5l-1.7,2.3h2.3v2.3h2.3ZM338.1,482.7l-4-3.4-1.7,1.7,1.1,2.8,4.5-1.1ZM341.5,486.1c0-2.4.6-4.8-2.3-5.7l.6,4.5-2.8,1.7,4.5,1.7-2.3-2.3h2.3ZM489,482.7l-1.7-2.3h-1.1l-1.7,1.7v.6h4.5ZM347.2,490.6l1.1-5.7h-1.1l-1.1,5.7h1.1ZM524.2,486.1c-.8-.8-6.6,2.7-5.7,3.4h5.7v-3.4ZM507.2,489.5l-3.4,4.5,1.1-2.8,2.3-1.7ZM371,491.8h-2.3c-1.1,1.1,2.6,5.3,4.5,4.5l-2.3-4.5ZM499.2,496.3h-3.4v2.3h3.4v-2.3ZM360.8,500.9h-4.5v2.3l4.5-1.1v-1.1ZM352.9,502h-3.4c.4,1.3,1.6,1.7,1.1,3.4l2.3-1.7v-1.7ZM517.4,505.4l-4.5-2.3-1.1,4.5,5.7-2.3ZM628.6,503.1h-4.5v.6c1.3,1.7,2.4,2,4.5,1.7v-2.3ZM364.2,508.8l-4.5-1.7-2.3,1.1,4,2.8,2.8-2.3ZM344.9,509.9l-1.7-2.3-4,1.1,1.7,2.3,4-1.1ZM367.6,514.5h-4.5v2.3l5.7,1.1-1.1-3.4ZM620.6,514.5h-4.5v2.3l4.5-1.1v-1.1ZM480,515.6l-3.4.6,1.1,4,2.3-4.5ZM626.3,521.3l-1.1-4.5h-1.1l-1.1,5.7,3.4-1.1ZM520.8,527l-3.4-1.1c-.3,2.2,1.2,3.7,3.4,3.4v-2.3ZM355.1,527l-3.4,6.8c2.9.7,2.9-1.3,1.7-3.4l1.7-3.4ZM349.5,531.5h-2.3v3.4h2.3v-3.4ZM357.4,533.8v-2.3l-2.3,1.7,2.8,2.8,1.7-2.3h-2.3ZM524.2,537.2l2.3-1.7v-4h-1.1c.6,2.5-1.3,3.6-1.1,5.7ZM367.6,533.8l-4.5-1.1v2.3c1.9-.4,3,.2,4.5,1.1v-2.3ZM532.1,533.8c-2.1-.3-3.9,0-4.5,2.3h4.5v-2.3ZM509.5,534.9h-5.7v2.3c1.9-1.3,3.4-1.3,5.7-1.1v-1.1ZM344.9,539.4v-3.4l-3.4,2.8v.6h3.4ZM325.6,540.6l-5.1-3.4-6.2,1.7,4.5-.6v2.3h6.8ZM310.9,544h1.7l1.7-1.7-2.8-4h-.6v5.7ZM340.4,539.4h-4.5v.6l1.7,1.7h1.1l1.7-2.3ZM509.5,541.7l-4-1.1-2.8,2.3c2.5-.7,7.4,3.8,6.8-1.1ZM323.4,545.1c.4-1.7-.5-2.3-1.7-3.4h-2.8v2.3l4.5,1.1ZM487.9,544l-4.5-1.1v3.4c2.2-1.4,2.4-1.4,4.5,0v-2.3ZM355.1,546.2l-4.5-1.1,1.1,3.4,1.7-1.1,1.7,1.1v-2.3ZM493.6,548.5h-5.7v.6c1.8,2.5,4.6,2.5,5.7-.6ZM508.3,553.1v-1.7l-2.3-1.7c.5,1.7-.8,2.1-1.1,3.4h3.4ZM526.5,550.8c-2.8.6-4.5-.9-6.8-1.1l1.7,2.3h5.1v-1.1ZM569.6,550.8h-2.3c-.3,2.2,1.2,3.7,3.4,3.4l-1.1-3.4ZM335.9,551.9h-4.5l1.1,4.5h2.3l-.6-2.3,1.7-2.3ZM590,551.9h-4.5v2.3l4.5-1.1v-1.1ZM563.9,553.1c-4.9-.9-2.6,1.6-4.5,4.5l2.3-2.8,2.3-1.7ZM569.6,561l-2.8-1.1-1.7,3.4h4.5v-2.3Z"/>
</svg>