<?xml version="1.0" encoding="UTF-8"?>
<svg id="Layer_1" xmlns="http://www.w3.org/2000/svg" version="1.1" viewBox="0 0 753.4 310.7">
  <!-- Generator: Adobe Illustrator 29.1.0, SVG Export Plug-In . SVG Version: 2.1.0 Build 142)  -->
  <path d="M358.4,126.9c-26.4-22.9-70.8-11-96.5,7.7-34.4,25-55.1,75.9-48.2,117.8.9,5.1,2.1,9.8,3.8,14.2-10.3,9.2-23.1,19.5-31.9,21-28,4.5-16.2-39-12.8-53.2,8.3-33.9,33.5-109.6-13.2-120.5-69.4-16-91.9,56.5-91.9,56.5L103.8,8.9C104.4,4.6,105.5,0,99.9,0c-28.6,8.5-18.4,10.9-76.8,21-6.3,2.4-4.2,12.7,2.8,12.9,17.4-1.4,27.8-.6,26,8.7L.4,298.8c-.6,3.2-1.2,10.3,5.3,10.3l31.2-.4c8.6.4,9.7-5.8,10-7.1,1.2-5.3,9-40.4,10.3-45.3,8.8-32.2,26.3-112,59.9-117.8,12.2-2.1,24.6,3.1,25.2,16.6,1.7,38.8-44.6,125.7,2,150.2,35.4,15.3,65.1-4.7,82.1-22.1,27.9,36.3,90.5,31.4,122.7-5.7,4.9-5.7,16.5-19.5,9.9-26.2-3.2-4-6.2-2.2-9.8.2-5.5,3.6-12,11.9-18.2,16.2-19.7,13.4-52.8,15.9-65.1-8.4-2.4-4.8-9.9-30.4-4.1-31.7,31.2-3.1,84.4-10.9,101.9-40.3,10.5-17.6,11.1-46.1-5.3-60.3ZM259.3,208.9c.1-3.3,3.9-16.9,5.1-20.9,6.5-21.2,24.5-48.4,48.3-51.5,10-1.3,21.3,1.9,24.2,12.6,11.3,42.1-46.6,57-77.6,59.8Z"/>
  <path d="M709.4,6.3c-27.9-2.1-42.3,6.3-55.3,20.1l-5,6.8c-36.4-20.4-85.9-47.9-136.9-20.7-19,10.2-11.9,27.3-1.7,30.8,10.4,3.6,18.2-3.1,25.5-9.4,7.2-6.3,17.4-8.1,26.6-9.3,9.5-1.2,19-.4,28.2,2.2,8.7,2.4,16.8,6.3,24.8,10.5,1.9,1,23.1,12.3,23.1,12.3-3.1,7.4-5.8,14.7-8,22.4-3.1,10.7-4.6,21.7-6.6,32.6-2,11.2-4,22.3-6,33.5-.4,2.5-2.5-.6-3.2-1.4-2.1-2.2-4.3-4.3-6.6-6.4-4.5-4-9.5-7.6-15.1-10.1-17.8-8.2-38-5.7-55.2,2.8-17.3,8.5-32.2,22.4-42.6,38.6-22.3,34.7-44.9,122,5.1,142.7,29.6,12.3,56.3-2.9,75.9-24.6,3-3.4,17.2-18.9,19.7-22.4.4,1.8-1.6,15.1-2.3,19.7-5.2,34.6,1.9,31.5,20.2,31.5s19.8,4,26.4-44.4c20.5-139.8,20.5-142,32.3-199.6,27.4,10.6,61.7,18.3,77.1-13,13.2-27-12.1-43.3-40.4-45.4ZM562.2,269.5c-13.9,8.3-31.1,9.4-40.4-5.8-20.4-33.2,8.7-122.5,51.6-128,25.1-3.2,37,15.4,36.7,38.2-.5,30.7-20.7,79.3-47.9,95.6ZM728.9,51.7c-14.7,7.2-35.4,0-49-5.2,7.1-17.9,25.9-27.8,45.6-21.4,15,4.9,15.9,20.5,3.4,26.6Z"/>
  <path d="M465.1,18.7c-28.6,8.5-19.1,10.9-77.5,21-6.3,2.4-4.2,12.7,2.8,12.9,17.4-1.4,27.8-.6,26,8.7l-20.8,95c-7.1,30.8-14.4,61.5-19.6,92.2-2.8,16.8-8,43.2,8.8,54,16.3,10.6,40.1,4.3,54.5-7.2,11-8.8,24-28.6,23.2-41.1-.2-2.5-1.7-4.9-4.1-5.9-7-3.2-10.2,17.6-24.3,23.8-23.3,10.2-14.3-23.8-12.2-35.1,3.3-17.7,7-35.3,10.8-52.8l36.4-156.7c.5-4.3,1.7-8.9-3.9-8.9Z"/>
</svg>