<?xml version="1.0" encoding="UTF-8"?>
<svg id="Layer_1" xmlns="http://www.w3.org/2000/svg" version="1.1" viewBox="0 0 244.5 310.7">
  <!-- Generator: Adobe Illustrator 29.1.0, SVG Export Plug-In . SVG Version: 2.1.0 Build 142)  -->
  <path d="M5.6,309.1c-6.5,0-5.9-7.1-5.3-10.3L51.9,42.6c1.9-9.3-8.6-10.1-26-8.7-6.9-.3-9-10.6-2.8-12.9C81.5,10.9,71.3,8.5,99.9,0c5.6,0,4.4,4.6,3.9,8.9l-36.2,161.7s22.5-72.5,91.9-56.5c46.6,10.9,21.4,86.6,13.2,120.5-3.5,14.2-15.2,58.2,12.8,53.2,26.1-4.7,47.3-34.5,48.8-35.8,4.1-3.4,7.5-2.5,9.1-.5s.8,8.2-1.4,11.6-42.2,66.3-97.7,42.3c-46.6-24.4-.3-111.3-2-150.2-.6-13.5-13-18.7-25.2-16.6-33.6,5.8-51.1,85.6-59.9,117.8-1.3,4.9-9.1,40-10.3,45.3s-1.4,7.5-10,7.1l-31.2.4Z"/>
</svg>