<?xml version="1.0" encoding="UTF-8"?>
<svg id="Layer_1" xmlns="http://www.w3.org/2000/svg" version="1.1" viewBox="0 0 1188.6 744.6">
  <!-- Generator: Adobe Illustrator 29.1.0, SVG Export Plug-In . SVG Version: 2.1.0 Build 142)  -->
  <path d="M900.4,87.9c-1.5-1.1-10.6,9.4-12.5,11-8.8,7.3-21,14.1-31.5,18.5-4.5,1.9-25.7,8.2-27.1,9.9-2.7,3.4,1.5,15,2.8,19.4,6.3,20.7,15.2,40.1,21.3,60.7,10.5,19.2,16.4,40.7,23,61.5,36-16.6,74-20.9,113.5-19,11.6.5,29.2,2.2,40,6,14.2,5,12.5,16.2-2.2,17.9-16.2,2-38.3-1.7-55.9-.9s-51,4.9-73,13-12.1,4.5-14,6c-2.8,2.3.8,10.3,4.8,9.9s16.9-6.6,22.8-8.3c67.7-19.7,151.7-8,202.5,43.5,80.2,81.4,98.5,194,36.9,292.9-65.9,105.9-186.9,136.1-294.3,69.5-52.1-32.3-87.8-83.9-99.2-144.3-2.3-.5-8.9.1-9.8,2.5-.5,9.3,6.7,34.9-4.4,39.6-13.8,5.9-20.2-22.2-22.2-31.2-12.4-55.6-.7-117.9,25-168,23.9-46.7,61-90.5,106.1-117.9.8-1.4-6.3-28.1-7.5-30.6-2.8-6-10.3,3.1-13.1,6.1-25,27.5-49.4,65.9-73.1,95.9-22.1,28.1-45.5,55.2-67.9,83.1-21.1,26.2-40.5,53.8-63.9,78.2,2.2,6.8,6.7,12.5,8.9,19.8,5.8,19.4,2.1,37.3-6.9,54.9.4,1.6,21.8,12.7,24.7,13.4,13,3.2,43.3-3.7,42.3,18.7-.5,12.1-16.7,13.7-25.9,15.2-8.5,1.4-31.8,5.4-37.2-2.2-5.8-8.1,1-19.7-.1-21.4l-17.2-8c-4.6,3-8.4,7-13,10.1-44.1,30-103.4,29.9-154,19.9-7.3,9.2-13,19.5-20.3,28.8-33.8,42.7-91.6,78.6-146.9,82.1-92.8,5.9-174.9-30.2-221.7-111.4C.4,528.5,39.5,379.4,147.4,324.4c3.8-1.9,19.9-7.9,21-9,2.1-1.9-1.9-11.4-4.5-11.5-42.9,15.2-79.7,45.5-104.8,83.2-21,31.7-33.3,68.1-44.9,104.1-6.8,7.6-14.7,3.5-14.3-6.5s7.3-28,10.2-36.6c24.8-74.4,72.4-138.2,148.2-165.3,1.4-2-8.4-29.6-10.9-31.3-8.8-3.7-33.9,1.8-35.9-11.1s5.1-12.7,13.5-13.4c15-1.3,31.9-.8,46.9-1.1,57.4-1,114.5,3.8,171.8,2.3,3.7,1.2,7.1,3.2,7.7,7.4-.9,11.7-22.8,9.6-27,14.9s-6.2,22.4-5.5,23.5c19.1,7,38.4,13.5,55.9,23.9l2.1-2c11.4-21.4,27.6-42,38.7-63.3,8.8-16.8,3.1-26.7-1.7-43.7-3.6-13-8.5-31.4-13.5-43.5s-7.2-8.6-14.7-9.3c-16.2-1.6-49,2-58.2-14.8s-5.4-26.4,5.3-34.3c20.9-15.5,59.9-1.8,83.3,2.7,25.4,4.8,54.4,7.8,79,14,9.8,2.5,20.6,6.8,16.7,19.4s-24.9,11-33.1,11.9c-16.5,2-33.4,1.7-50,3-4.9.9-3.7,6.4-3.1,10,1.7,10.6,10.2,39.7,14.3,49.6,4.6,11,9.6,6.4,18.7,6.3,66.6-1.1,132.5-2.9,199.1-5.9s95.1-1.2,142-4c3.5-.2,13.7-1.2,16.4-2.6,3.9-2.2,3.5-6.9,3-10.8-2.3-17.8-20-44.1-17.9-61.1,2.1-17.4,39-24.1,52.7-30.3s27.2-13,26.1-26.4c-.2-1.9-1.9-7-3.1-8.5-6.4-7.7-31-6.3-41.2-7.3-16.6-1.7-43.3-3.3-58.5-7.5-21.4-5.8-18.9-35.1,6-39.1,15.6-2.5,45.7,9.5,61.8,14.3s30,5.7,45.1,17.9c33.8,27.1,34,83.3,7.5,115.3-3.6,4.3-15.6,13.5-18.2,4.4-1.5-5.1,10-16.8,13-22.6,6.1-12,10.4-28.4,7.8-41.7ZM824.4,218.9c-66.5,1.4-133.1.2-199.6,3-47.9,2-96,4.2-143.9,6-4.7.2-21.7-1-24.1.9l-1.4,2.6,86.2,249.3c24.2-2.8,48.4-.7,68.5,14.1l1.4-.3c8.8-11.8,19.6-21.9,29-33.1,23.4-28,45.3-58.3,68.1-86.9,39.5-49.7,80.8-98,115.7-151.3l.3-4.2ZM432.4,248.9l-2.8,1.7-35.1,58.7c.4,2.1,15.1,12.6,17.9,15.1,27.8,25.2,51.4,55.5,65.5,90.5,4.7,11.7,14.4,38.6,12.5,50.4-1.3,7.6-9.7,7.2-13.8.9s-8.8-25.9-12.7-35.3c-12.8-31.2-35.2-63.2-60.5-85.5-2.6-2.3-21.4-17.5-22.9-16.4l-5,10.3c49,36,82.3,87.9,95.9,147.2l41-2.5c1.3-1.3-9.5-30.5-11-34.5-23.5-66.6-51-132-69-200.5ZM302.4,250.9c-42.3-2-85-.6-127.6-1-2.3,0-6.4.7-6.4,3.5,2.7,5,4.1,21.2,10.4,21.4,38.6-9.5,78.7-9.8,118.1-5.2,2.9-.5,5.7-15.6,5.4-18.7ZM187.6,308.7c13.4-1.7,26.8-5.1,40.3-5.9,9.8-.5,23.3-.6,33.1,0,6.4.4,19.6,4.1,25,3.1s4.7-7.7,2.5-9.5-23.2-4.2-27.5-4.5c-25.3-1.4-51.9.9-76.5,7l3.2,9.8ZM362.4,319c-9.7-5.6-19.8-10.5-30.4-14.1s-15.5-5.4-18.5-5.5-6.2,9.4-4.1,11.1l46.6,19.5h1.4c0,0,5-10.9,5-10.9ZM861.4,304.9c-20.2,10.7-39.4,27.7-54.5,45-43.4,49.9-65.2,108.9-60.5,175.5.2,2.8-1.1,12.7,1.6,13.4l7.5-2.6c-2.9-76.8,26.7-156,87.5-204.3,3-2.4,20.4-13.9,21-15,1.6-3.2-2.6-8.3-2.5-12ZM784.5,550c13.9,70.3,66.5,126.9,134.9,147.4,166.9,50,292.4-125.7,225.9-275.9-42.8-96.7-140.6-136-240.6-101.9-2.4.8-8.4,2.7-9.1,5s4.4,15.6,5.6,19.1c16.5,49.9,38.5,101.7,72.7,141.9,18.8-8,36.4,2.4,33.4,23.8-2.1,15-23.4,23.8-35.4,14.6-4.1-3.1-6.1-11.8-8.8-11.8l-178.6,37.9ZM243.4,480.9l35.9-148.4c-.6-1.9-9.4-3.2-11.5-3.5-16.4-2.4-35.3-2.3-51.7,0s-18.7,2.6-19.5,5.5c13.3,45.9,27.6,91.7,42.6,137.1.3.9,2.9,10.3,4.3,9.2ZM266.4,469.9c5.4-5.5,9.7-12.9,14-19.5,21.2-32.3,41.5-65.4,62-98.1l-1-1.9c-13.6-5.7-27-12.8-41.9-14.4l-33.1,133.9ZM955.4,497.9l-18.4-27.1c-17-28.6-33.3-57.8-46.8-88.2-6.8-15.4-12-31.6-19.3-46.6-62.9,40.8-96.5,119.9-89.5,193.9l174-32ZM224.4,499.9l.6-11-49.5-150.5c-37.4,11.5-68.1,43.5-87.2,76.9s-14.4,26.5-12.8,28.6l148.9,56ZM273.4,499.9c24.8-1.5,49.7-2.6,74.5-4,24.2-1.4,48.8-2.2,73-4,5.3-.4,15.4-.7,20-2s2-.2,2.4-1.5c-11-50.7-39.6-95.8-80.4-127.5l-89.5,139ZM215.3,515l-144.5-58c-1.9-.5-1,.2-1.5,1.1-6.3,11.5-11.9,38-12.8,51.2-8.8,131.3,114.8,231.8,242,204,49.1-10.7,94.9-44.7,119.9-87.9l-2.9-2.1c-55.2-22.7-117.8-37.8-172-62-22-9.9-30.4-21.1-28.2-46.3ZM516.4,501.9l-38.5,2c-1.5,0-4.3.7-5,2s1.5,14.5,1.6,17.5c.3,9.2-.5,18.3-1,27.5,3.8.2,19.9,3.8,21.8.9,1.2-12.2,5.7-23.6,11-34.5l10.2-15.3ZM569.2,507.2c-4.3.4-7,.3-6.7,5.1s2.4,15,3.7,17.4,6.5,6.1,7.5,6.5c3.1,1.2,27-9.8,27.6-11.9-2.3-12.2-21.3-18.1-32.1-17.1ZM436.2,508.2c-35.4,1.7-70.9,5.2-106.2,6.7s-33.8-.8-49.1.9c-1.7.2-3.1.5-4.5,1.5-4.9,4.7,10.3,6.5,13.8,7.2,23.3,4.7,48.4,8.5,71.9,12.1,27.2,4.2,54.5,7.4,81.8,11.2,3-.3,3.3-8.5,3.5-11.6.3-4.9.6-23.9-1.9-27.1s-6.5-1.2-9.3-1.1ZM545.3,512c-4.3-3-16.8,9.7-19.3,13-5.5,7-9.3,15.9-9.6,24.9,6.5-2.1,18.5-.5,24.2-3.2s9-9.2,9.2-9.8c1.1-2.4-3.4-24-4.6-24.9ZM271.1,540l-5.7,7.4c0,.8,5.2,3.2,6.3,3.7,37.8,16.8,83.5,33.6,122.7,47.3,5.7,2,28.3,10.3,32.5,9.6s1.6-.3,2-1.1c2.4-9.3,11.1-24.6,11.5-33.6s.2-2.2-1-2.9c-56.2-9.6-112.7-17.6-168.3-30.4ZM585.6,562.7c4,.5,17.4,10.5,19.9,8.7,3.8-2.7,6-25.8,1-30.1-2.4-1.4-17.7,9.3-20.8,10.8v10.6ZM547.4,574.9c-5.2,0-6.2-7-7.4-11.1l-1.1-.8-22.4,1.9c-.5,14.5,11,28.6,24,33l7-22.9ZM529.4,615.9c-17.4-5-30.3-21.4-35-38.5l-21.5-3.5-2.3,1.7-13.2,39.8c19.7,5.1,44.3,7.8,64.4,4.4.9-.2,10-1.4,7.6-3.9ZM556.4,604.9c3.4,4.8,31.7-6.4,35.1-11.4,2.5-3.7-1.4-4.9-4.4-6.7-5.2-3.1-13.9-7.4-20-5.6-5.2,1.6-9.2,18.8-10.7,23.8Z"/>
</svg>