<?xml version="1.0" encoding="UTF-8"?>
<svg id="Layer_1" xmlns="http://www.w3.org/2000/svg" version="1.1" viewBox="0 0 1707.8 1025.4">
  <!-- Generator: Adobe Illustrator 29.1.0, SVG Export Plug-In . SVG Version: 2.1.0 Build 142)  -->
  <path d="M71.6,499.1c-3,6.5-4.8,13.1-10,18,2.4-8,4.3-11.3,10-18Z"/>
  <path d="M1161,403.2c2.1,2.7-10.3,9.3-11.9,10.7-2.6,2.4-2.4,5.4-5.7,5.5l-6.3,7.7,10.5-3.9c3.1-4.6,8.4-3.8,5.4-10l4,2-1-4,4,1-1-2c1.3.4,6.7-2.8,6.9-3.2.4-.7-1.8-4,1.1-5.8l-3.5-2-.5,3-4-1c0,.7,0,1.3,0,2,.6,0,1.3,0,2,0Z"/>
  <path d="M391,347.3c-1.5.2-3.1.8-1.5,2h14.4c1,.1.7-1.3.6-2-4-.1-9.8-.5-13.5,0Z"/>
  <path d="M110.1,451.2c1.1-1.7,11.8-10.5,10.5-12l-9,6c-.7,1.1-2.6,4.8-1.5,6Z"/>
  <path d="M1589.8,889.8l-3.8.2c0,4.8-6.3,4.9-6.1,9.8,1.3-.9,2.7-.7,4-1,.6-.8,1-2.3,2-3.5,1.5-1.9,5-1.8,4-5.5Z"/>
  <path d="M1291,974.6c5.2-1.2,14,8.1,16.9,1.6-6.3,0-10.7-4.5-17-3.5,0,.6-.2,1.3,0,1.9Z"/>
  <path d="M1364.9,621c.9-1.1-7.7-16.8-8.2-19.8-.6-.5-1.4,0-1.8-.2,1.4,6.5,3.7,12.4,7.4,18.1.4.6,1.2,3.6,2.6,1.9Z"/>
  <path d="M1400.4,998.6c11.6.8,22.9-2.6,34-2,1.9.1,4.1.5,6.2,1,0,0,0,0,0,0,1-.3,2-.7,3-1,.2,0,.3-.1.5-.2,1-.3,2-.6,2.9-.9.1,0,.3,0,.4-.1,6.6-1.8,13.3-3.1,20.1-3.8.8-.6,1.6-1.2,2.5-1.7-10.7,1-21.6,1.7-32.6,1.6-7.6,0-17.1,1.9-24.1,1-1.5-.2-3.1-.8-1.5-2,38.2-2.8,76.7-15.7,110.8-32.6,114.2-56.8,185.9-176,185.1-303.6-1.1-159-115.5-296.9-270.7-328.9-73.2-15.1-163.8-4.6-228.8,33.5-5.2,3.1-11.3,5-10.3,12.1l3.1.6c10.7-6.9,22.3-12.9,34-17.9,8.3-3.5,17.2-6.8,25.1-8.9,5-1.3,9.3-4.1,14.7-1.8l-1-3,8.6-1.9,2.4.9c-4.2-1.3-3.2,3.2-4.1,3.9-.8.5-3.4-.1-5.1.4-5.5,1.8-7.4,1.8-12.1,2.8-19.5,4.4-33.5,12.2-50.6,21.4-1.6.9-3.2,1.3-4.9,1.6-.5.7.3,2.9-.3,3.7-.3.3-9.2,2.7-5.9,4.7l6,1.5-2-2.5c1.7-.7,2.6-2.6,3.8-3.4,1.6-1,17.8-9.6,18.9-9.9,3.9-1,21.4-4,24.1-6.4.4-.3,0-2.2,1.2-3.3,2.2-2.1,12.4-4.1,16-4.5l-4,4c5.1,1.3,5.7-4.3,11-1v-4c.2-.2,4.6,2.3,5,.5.8-3.4-6.1.7-5-3.5l15.4,4,1.6-2-10-2c2.3-4.6,5.9-.5,8.6,0,2.7.5,6,0,8.9,1.1.9-2.4-4.4-2.5-4.5-4l14,1c.9-4.8-8.9.8-8-4,5.6-1.3,9.3,2.4,14.5,2.1,3.1-.2,4.2-1.8,6-2,27-3.5,62.9-3.5,89.9,0,4.9.6,14.2,3.6,19,4,3.7.3,8.4-2.1,12.5-1.1l-6,1,1,1.5c6.4,1.6,13,2.7,19.3,4.6,14.2,4.1,29.9,10.3,45.9,17.2,5.7,2.5,12.2,7.9,18.8,7.7l-1,3c5.8-.8,7.5,6.8,13,2l-2,4c8.5,2.2,15,9.6,22.9,13.6,2,1,5.8,1.3,6,1.5.4.5-.3,2.6.3,3.7.6,1,6.2,2,5.8,5.2,6.2-.4-2.4-4.8-1-6,5.1.7,9,4.7,12,8.5.6,1.7-4.1,1.5-1.5,5.5.6.9,1.4,1.2,2.5,1,.7-8.1,13,3,11,5l-5,1.5,3.5,2.5c2.6.7,1-2.6,1.5-3,6.1-.4,5.3,3.6,7,8l-4-.5,3.2,4.4,5.8-.9-1,4c.2.2,3.7-2.4,5,.5.8,1.8-1.9,1.5-2,2-.4,2.3,5.4,8.2,8.4,6.7l1.5,1.3-.9,4.4,5-1,2.5,7h3.5c0,0-.5,4.9-.5,4.9l2-1c3.4,2.9,7.7,6.1,8.5,11-3.1,0-4.6-3.5-5-6-6,.3,2.8,7.1,3.7,8.4.6.8.2,2.4.4,2.6.3.3,2-1.1,3.5-.1,2.7,1.7,8.4,9.6,5.5,13.1l4.1.6c-.2,7.2,3.4,10.4,5.7,16,1.7,4,3.5,10.5,5.5,14,1.2,2.2,5.4,2.2,3.6,7.3,2.9.9,1.7-2.4,4-3-1.1,4.9,4,7.3,4,12.5l-2.5-2.5c-3.9,3.3,0,3.7.4,4.8,2.5,6.1,3.9,13.6,5.7,19,.9,2.8,3.1,5.8,3.8,8.8,1.2,5.5-.7,10-.4,15.4l2-2c-1.2,2.9,1.7,5.9,1.8,7.7.1,1.4-2.5,3-1.8,5.8,1.1,4.5,5.7-4.6,5.5-5.5.7.3,3.6,11.2,3.6,12.5,0,2.2-1.8,3.3-2,5-.3,2.1-1.2,17.2-1.1,18.8,0,.7,1.9.6,2.4,1.8,1,2.5,1.6,9.1-1.3,10.8l-1-8c-2.2,4.6-.3,8.3,0,12.5,1,11.9-.5,24.3,0,36,0,1.8,5.1,6,2.9,10.4l-3-2c-1.5,3.4-.6,7-1.1,10.4-1.2,7.9-4.5,16.3-4.8,24.2-.1,3.2,2,7.2.7,10.7-.6,1.7-4.3,2.3-4.7,5.4-.3,2.3,2,3.2,1.7,5.5-.4,3.1-5,7-5.7,9.5-.7,2.8,1,4.6.8,6.7-.2,1.8-2.8,3.9-2,6.5l-4-3c-1.5,4.8,3.2,4.9,2,9.3-.2.5-3.4,1.4-2,4.7l-4-1c.1,2.6,2.5,3.1,2,6.4-1,6.5-8.6,10.5-8,17.6l1.5-2,2.5,1.5-4.5,4.5-2-4-2.5,3.5,3,.5c1.5,2.3-5,8.8-4,2-5.1,2.9,0,4.2,0,4.5-.2,4.1-6.5,5.9-3,11.5l-4,.5,2.5,2.5-.5,2.4-2.9.7v3.2c-.1,0-3.1.7-3.1.7-.3-2.2,1.6-3.4,2.4-5,.3-.7,1.5-3.8-.4-2.5-.8,2.1-4.5,5.5-4.9,7.3-.5,2.1,1.8,3.2,1.9,4.7,0,2.1-3.4,6-6,5.5l2-2-1.5-2-4.5,2,3.7,5.5c-4.2,5.6-7.6,11.3-13.3,15.5l-2-2h-2c0,0-5.1,5-5.1,5-1.7,2,5.1,4,2.5,7-1.6,1.8-4.2-3.5-5.5-3l-1.5,2,1,2.5-4-.5c-1.4,2.4,3.8,1.8,2,4-.5.6-5.9,3.7-7,2,1.6,2.7-2.9,6.6-5,8.5v2s2,1,2,1c-4.1,3.7-5.5,7.1-11,8.5-2.6,3.1-1.9,3.3-5.6,5.4-.5.3-.4,1.7-.9,1.6-1.1-.2-3.3-3-5.3-1.8l-5.2,5.3,4,.5c1.1,4-3.9,4.1-6.2,6-31.8,25-57.9,36.7-95,49.2-1.6.5-2.3,2.5-4.3,2.8-3.2.5-5.8-3.2-9.4-2l2.9,1c1.3,1.3-2.7,3.4,2.9,5.7,1.5.6,2.7-.5,2.2,2.3-5.7,2.2-6.8-3.5-9.5-4-3.7-.7-8.7,3.8-13.5,2l5,6c-1.7.1-3.8-.3-5.4,0-4.2,1-9,2.8-13.1,3.9-2.1.5-5.6-.9-6.4,2.1l7,1-25-2-.5,3.1c-5.7,0-11.3-.1-17-.1-15.9,0-33.6,1.1-49.7-.3-2.7-.2-7.8-2.5-12-2.3-3.4.2-5.6,2.7-9.1,2.7-.9,0-5.5-.6-5.6-2l8-2c-2.8.4-6.7-.6-9.3,0-.4,0-3.5,5.2-6.7,0l5-2c-4.4,1.4-7.7-2.1-11.5-2.1-4.1,0-8.2,4.6-10.5.1l3-2-4-2c3.3,1,5.4-1.6,8-2-.1-.8.4-2-.5-2l-5.9,1.9c-.6-3-13.7-8.6-13.6-4.4,3.4,2,6.8,4.8,11,4.5-2.6,4.6-9.7-.5-13.8-1.7-1.8-.5-8.3-2.8-8.7-2.9-1.7-.2-5.8,2.7-8.5,1.6l4-3c-5.3,1.5-7.7-3.7-11.3-5.2-3.9-1.7-9.1-2.3-13.4-4.6-1.5-.8-4.4-2.8-5.3-4.2,6.1-.8,10.1,3.9,14.6,5.9,9,4,16.4,7.7,25.8,8.2,1.1,0,3.8.6,3.5-1-3,.7-6-2.7-6.8-2.9-2.1-.7-5,0-7.1-.7-7.2-2.4-19.9-9.5-27.5-12.9-14.2-6.4-25.9-15.9-39.8-20.7-7.6-2.6-5.1-5.9-7.4-7.8-1.4-1.1-5-1.5-6.9-2.9-1.9-1.5-2.3-3.8-4.7-5.2-4-2.3-10.5-.3-8.8-7.7-4.2.6-3.4-3.4-4.6-4.2-1-.7-3.5-.4-4.2-1.1-.5-.5,0-2.3-.2-2.6-.5-.4-3.1,0-4.7-.4-1.2-.4-9.8-16.4-11.2-7.7,2.7-1.2,7.1,7.6,3.5,6-2.8-4-6.5-4.6-8.5-9.5l3.5-.4.3-3.9-4.8-3.2v5.5s-2,.5-2,.5l-2-5,4-2.5c-4.6-3.4-6.3-8.9-11-12l3-4.5-5.9,1.9c-1.8-1.5-1.9-7.3-2.3-7.7-.3-.3-5.7-3-7.3-5.2-1.4-2,.2-5.9-4.6-4.9v4s-2.6-2-2.6-2c3.7-5.9-.3-4.6-1.2-6.2-.6-1.1,0-3.2-.7-4.8-.6-1.2-2.7-1.5-3.6-2.7-1.5-2-3.2-7.6-4-10.3l-5,1,2.1-5.4c-4.5-1.7-2.4-3.8-3-6.8-.2-.9-2.8-1.5-3.9-3.3-1.2-2-1.4-5.1-2.1-7.4l-5,.6c-1.7-.8-4.6-6.8-1-7.6l2,4c-1.4-6.7-4.1-13.4-6.6-19.9-5.6-14.9-13-32.5-15.3-48.6-.2-1.1-.1-2.3,0-3.4l4,3c-.1-1.8.3-3.8,0-5.5-.6-4.4-3.2-10.7-4-15-3.4-19.9-5.2-46.3-4.1-66.9.2-3.6,2.8-6.4,1-10.5l-3,3c-1.4-10.6,3.2-19.5,2-30,1.2-1.6,1.8,0,2,1.5.4,3-.3,6.5,0,9.5,3.2-1.3,1.6-5.6,2.1-8.4.6-3.5,4-9.4,0-11.6-.6,2.1,1.7,7.8-2,7,.3-2.3-.5-5.2,0-7.3.2-.8,1.8-.3,2.1-2.1.3-2.6-.4-5.8,0-8.6,4.7-.9-.7,7.9,4,7l1-13-1,5c-3.4-.9,0-10.3,2-12l2,5c-1.9-7.6-2.2-10.6.5-18,1.2-3.2,1.3,2.4,3.5,1l-1-5h3s-2-7-2-7l4,3c1.3-4.2-5-8.5,0-11l.5,5c1.3-2.3,3.9-6.7,3-8.9-1.2-3.2-6.2-5.3-4.4-10h2.9c.4-1.9-1.3-3.9-1.1-5.4,0-.3,3.6-1.4,2.1-4.6l2.4,1.1c.4,0,.9-4,2.6-2.1.8.9-5.6,11.2-5.6,12.5,0,.3,1.3,4,1.6,5,.5,1.5-1.2,3,2,2.5-.2-4.6,2.3-9,4.1-13.2,5-11.5,12-23.2,18.3-33.9,3.8-6.5,6.7-9.9,10.6-15.4,3.2-4.4,7.9-10,8-15.5l1.5,2,3.4-4.3c-3.5-3-1-6.2.6-1.7l3.1-2-1.5-5.9c3.9-1.1,5.5-5.3,9.9-3.1l1-2.5-5.5-4.5c-.1,5.4,1.3,4.8-3.5,6-.1,2.9-2.1,1.6-3.4,3-.9,1-1.4,2.4-2.5,3.5-2.7,2.6-6.4,2.3-4,7.4l-4-2,.9,5.8c-4.2,1.5-6.5,5.7-9.4,8.7-1.2,1.3-1.6,2.9-3.5,2.4-.6-.5,7.2-12,8.4-13.5,2.1-2.8,10.7-13.5,13-14.5,1.6-.7,3.1-.6,4.6-.9,0-.7,0-1.3,0-2-5.8-.6,1.2-3,1.7-4.3,1.3-2.9-1.6-4,4-4l25.8-25.7c2.4,0,.9,3,4.5,2,0-.7,0-1.3,0-2-1.4-.2-2.4.7-2-1.5l7-6.1,4,1.5-2-4h3.8c1.2,2.4,1.4,3.9-.8,5.5l3,.5-2,4,5-2c-2.5,4.8,2.3,7,3.7,9.7,1.1,2.1,4.7,9.9,4.2,11.6-.4,1.2-15.1,12.9-17.5,15.1-70.1,65.1-104.9,160.1-92.4,254.9.3,2.6-.9,11.8,2.1,12.4-.1-4.3-.3-8.8.5-13,2.9,3.2,1,8.4,1.5,12.4.1,1-1.3.7-2,.6.5,21.2,14,61.8,24.4,79,1.2,1.9,1.2,4.4,3.1,5.9l2.5-3c1,2.9-2.3,4.9-1.8,7.2.3,1.9,7.2,12.5,8.8,15.3,5.5,9.3,13.1,20.5,19.4,29.1,1.1,1.6,8,10.5,8.6,10.9.9.6,1.5.6,2.5.5l.5-3,2,1.5c-3.7,5.5-.9,3.6.7,5.8,2.5,3.5,3.2,3.8,5.9,6.7,4.4,4.7,7.2,11,14.5,10.5,2,1.2-.7,4,0,5.4.2.3,4.1,2,5.4,3.2,104.8,92.9,259.4,100.6,374.3,18.4,25.1-18,49-44.6,67.7-69.2.9-1.2,1-3.3,1.6-3.9,1.2-1.3,4.6-1.1,4.7-1.3.1-.1-1.3-1.9-.5-3.9,1.7-4.6,7.6-11.1,9.8-15.3,10.2-18.9,17.5-38.8,25.4-58.5l6-22.9,3.3-21.2,1,3c6-1,.4-5.4,0-8.4-.3-2.1-.2-6.9.1-9,6.3-42.9-.1-89.2-14.3-129.6-1.2-3.5-4-5.2-4.7-6.6-1.4-3.1-2.2-9.6-4-13.7-17.3-40.6-51.7-85.8-86.3-112.5-94.1-72.6-218.9-89.1-326.5-32.4-3,1.6-15.4,8.3-17,10-2.6,2.6,2.7,3.9,3.8,7l-2.2,6.5-18.5-45.5c-2.5-1.6-22.7,9.1-28,7.5v-3c6.1,0,13.4-2.1,19.1-4.3,15.5-6,9-8.4,4.7-21.5-5.1-3.3-27.5,12-35.6,5.6-.2-.2-2.1-3.8-2.2-4.3-.8-2.6,5.4-1.1,7.4-1.5,6.8-1.4,15.8-6.9,22.1-7.9.9-.1,2.7-.4,3.3,0,.2,5.3,6,7,4.9.6-1.4-8.2-11-5.1-9.9-16.2.3-2.8,2.8-5.2,1.6-7.5-1.1-2.2-7.2-3.7-9.4-6.6-2.7-3.6-4.3-12.2-6.4-16.6-3.1-6.4-8.3-12.7-11.4-19.5-9.2-20.2-16.5-43.1-25.1-63.8-9.6-23.3-25.2-51.1-30.6-75.1-.5-2.4.5-7.7-1.5-10.5-.9-1.2-3.3,0-4.6-1.6-1.5-1.7-6.9-18.9-7.3-21.8-.6-4.3,2.4-5,2.8-7.8,1-6.5-4.9-4.3-7.5-6.4-1-.8-2.5-4.4-4-6-8.5-9.5-14.4-20.2-19.9-32.1-5.1-11.1-12.7-36.6-19.2-44.7-7.5-9.4-19-6.4-24.8,3-11.7,18.7-8.7,38.9-26.2,57.7-9.4,10.1-9.7,5.1-20.7,7.2-14.9,2.9-39.8,14.9-53.3,22.7-4.6,2.7-14.9,8.4-17.1,12.9-2.4,4.9,3.5,17.3,9.3,18.2,16.9,2.7,66.2-17.5,76.4-31.4,1.4-1.8,1.3-4.3,3-6,1.4-1.3,4.2-1.7,5.9-3.1,6.9-5.7,15.4-14.1,20.5-21.5,1.9-2.7,11.2-17.9,9.6-19.9l-4,1c-.8-.9,1.7-6-2-5,.1,1.3-.3,2.4-1,3.5-8.3,12.6-14.8,23.4-27.5,31.4-3.1,2-2.6,5.3-8.5,3,1.4-3.4,5.4-3.4,8-5.4,10.8-8.2,13.7-19.1,20-29,.7-1.1,2.5-1.4,2.7-1.7.6-1.1-1-4.4-.9-6.3.1-2.7,5.2-23.4,6.6-23.5,4.2,5.2-1.4,12-3,17-1,3.2-.9,6.9-2.5,10,5.3.5,6.5-4.2,9-7.5.7-.9,2.5-1.2,2.8-1.7,1.1-1.8-1.3-6.2,1.7-5.8,5.7,2.2-2.4,14.2-1.5,19,4.5-1.1,2.7-7.7,7-8-.9,3.3-.6,6.9-1.2,10.3-1.4,7.7-14.5,36.2-19.7,42-1.2,1.3-3,1.2-4,2.3-2.7,2.7-4.7,6.2-8.1,8.4,3.9,1,4.6-1.8,6.8-4,8.5-8.5,18.4-21.7,22.9-33.8,2-5.5,3.1-11.5,4.9-17.1l2.5-1c-.7,10.1-4.8,20-9.6,28.8-6.7,12.3-14.3,23.1-25.3,31.7-.8.6-1,2.1-1.2,2.2-.4.3-2-.9-2.9-.9-.3,1.9.2,3.9-1.3,5.7-.8.9-9.8,6.1-10.7,5.3,1-2.9,9.6-10.8,12-11,.2-1.1,1.8-3.2.5-4-4.5,2.3-12.3,10.3-16.5,11.5-3.8,1.1-7.7,0-11.5.5-18.5,2.7-41.1,17-59.1,22.9-101.9,2.7-203.9,16.6-305.7,21-2.4.1-4.9,1.6-7,1.5-3,0-5.2-3.1-9-3.6-4.5-.6-9.1,0-13.1,2l-1.9-1c-1.2-3.5-4.4-7.7-.3-10.3l37.8-3.1c6.5-4-2.3-8.2,7.4-11.6,4.4-1.6,14.7-2,19.8-3.2,1.9-.4,3.8-2.4,5.4-2.6,2.2-.3,4,1.2,7.3.4,2.8-.6,4.1-2.8,6.4-3.7,2.5-1,5.1-.6,7.5-1.5,3.7-1.4,10.6-11.2,11-15,.3-2.8-1-14.2-2.2-16.6-1.1-2.4-12.2-11.6-14.9-13.2-2.9-1.7-5.6-.2-6.9-1-2.3-1.5-3.7-8.8-4.7-9.6-1.4-1.3-13.4-5.3-16-5.8-18.3-3.8-37.6.2-55.9.9-46.2,1.7-95.3-.3-141.8-3-12.4-.7-28-4-40-4-4.8,0-10.8,3.6-13.3,7.7,0,4.7-8.2,12.6-8.2,15.8,0,3.9,4.2,4.5,5.1,8,0,3.2-6.1,5.9-4,13.8.3,1,2,1,2.4,1.7,1.9,3.1,3.3,13.8,9.8,12.8.5,0,8.6-3.5,9.1-3.7,1.9-1.2,1-4.9,2.7-6.6,3.2-.3,9.4-4,11.7-4.3,13-1.8,17.3,6.7,25,12.8,5.6,4.5,15.1,7.4,21.2,11.5-3,2.9-2.9,6.5-4,9.7-.3.8-1.8.8-1.9,1.4-.2,1.2,1.4,9.5,2.1,10.7.3.5,8.3,7.8,8.9,8,7.5,2.3,14.1-.3,19.4-5.5,5.8-5.5,2.6-6.9,3.5-13.9,10.7-.2,6.5,7.9,9.5,14,3.2,6.5,7.5,2.2,12.9,3,2.4.4,4.7,2.6,6.2,2.7,1.8.1,3.2-1.9,4.7-1.7,2.8.5,5,5.4,13.2,4.9,8.7-.5,8.8-10.6,17.8-5.9,3.2,1.6,6.7,8.4,7.2,11.8.7,4.8-4.6,6.3-7.1,9-4.4,4.7-4,8.4-2.5,14.5l-70.4,160.4c-.5.7-1.2.9-2.1,1-3.8.6-26.2-8.3-32.2-9.8C237.2,288.1,33.4,417.2,3.8,621.6c-26.1,180.2,85,348,261.2,389.1,2,.5,3.9,2.3,6.4,2.1l.2,7.8c5.8-.1,9.6,3.1,15,4l.5-3.1c3.4.9,6.9-.8,10-.9,6.3-.2,16,.9,22.5,1.4,3,.2,6.3,2.5,7.5,2.5,1.6,0,4.6-3.2,7.2-3.8,2.7-.6,5.5-.1,8.3-.2-7.2-7-20.8,1-30-3,.5-2.3,1.8-1.4,3-1.5,3.9-.4,24,2.6,24-2-5.2-3-13.1-1-19.4-1.6-4.3-.4-9.6-3.3-15-2l-35.6-5.9-1.5,4.7-22.5-4.7c-.3-2-.2-1.6,1.3-2.3,4.4-1.9,13.6,5.1,19.5,2.5,1.4-.6,1.5-.2,1.2-2.3-5.2.7-10-2.3-14.8-3.7-8.3-2.5-29.6-8.1-36.2-12.8-.5-.3-1.4-1.2-1-1.5,3.7-1.7,5.4,1.9,5.7,2,1.5.3,3.2-.3,4.6,0,.4,0,5.1,5.7,5.7,0-1.3,0-2.7,0-3.9-.6-26.7-12.2-51-22.1-74.1-40.9-.6-.5-2.1-.5-2.9-.5l3-4-3.4-1.1-1.2,2.1-3.4-1.1,2-4-10-7c-2,2.1,5.1,4.4.5,5l-12.5-10v-1.9c6.8-1.4-7.4-4.9-4-9.1l3.5,1,.5-2-6-4-2.5,7c-1-.9-1.3-2.2-2.3-3-6.5-5.4-17.9-16.5-23-23.6-2.6-3.6-3.5-4.8-2.2-9.3l-2.5,3c-4.1-5.7-9.5-11.1-13.5-16.7-13-18.6-23.1-37-28.1-58.6-.5-2.3-2-4.1-1.9-6.6l-4,4c.8-3.7-3.8-8.8-4-11.6-.2-2.2,2.3-3.8,2.1-6.9,0-1-4-3.7-2.1-7.5l2,5c2.5.4,2.2-.5,2.1-2.5-.1-2.8-3.1-12.4-4.1-15.7-.3-.9-1.7-.7-1.9-1.4-.5-2.3,1-5.4-1.5-7.3l-.5,5-4-3v6c-.9,1.2-4.1-10.4-4.1-11.5,0-2.7,3.7-6.5,2.1-10.5l-2,6c-2.3-.7-2.4-6.6-2-8.3,0-.4,3.8-2.6,2-6.7,4-.9.8,5.2,2.5,7l3-10c-.2,6.5,3.3,11.6,2.5,18,2.6,3.5,2.1-9.4,2-10,4.6-.8,1.5,6.5,2,7l2.8-1.6-.8-7.4-4,.5c-3.6-1.6-3.6-18.9-4-22.9-.2-2.1-1.7-4.1-1.8-6.2-.5-6.1.2-12.3,0-18.4l4,1v-4s-6,2-6,2v24h-2v-15.5c0-.2-1.3-1.6-2-1.5v15h-2v-14.5c0-.2,1-.8.5-1.5l-1.5-1c.3,1-1,2.1-1,2.5v19.5c-.8.6-2-2-2-2.5v-22.5l4.7,1.9,2.2-1.5c-2-7,.1-13.4.2-19.8,0-3.9-3.5-10.6.9-13.5v23c2.4.1,1.8.3,2-1.5.4-3.3.3-7.1,1-10.5l5-.5c-1.2-2.7-4.2.3-5-.5-1.9-1.8.7-8.4.9-10.6,3-39,9.4-73.5,24.7-110.2,2.2-5.3,8.6-13.7,9.4-19.6.3-2-.4-1.6-2-1.5l-8,20c-5.3-.1-.5-5-.3-5.3,3.2-7.2,8-15.7,10.3-23.6-5.9,5.5-8,13.6-11.7,20.8-.7,1.4.5,2.7-2.3,2.1,1.1-3.7,2.6-8.8,4.1-12.1,1.2-2.5,4.5-6.2,5.6-9.6.6-1.9-.2-5.1.7-6.3.7-.9,2.6-.6,3.3-1.2.6-.6.8-2.8,1.6-3.9,5.7-7.8,11-16.4,16.1-24.8l2.5-1c.3.3-1.6,4.9-2,6,.1,0,.9,0,1.7-.3,1.9-1,5.5-9.5,8.1-11.4l.2-1.8c-4-1-1.9-5.2,1.5-4.5l.6,1.9h1.9c0,.1,8-10.3,8-10.3-2.7-1.9-8.1,9.5-10,7.5-.3-4.3,4.5-4.5,2-9l4,2,.9-3.6-1.9-2.4,3.8.9c3.3-3.6,7.2-9,11.2-10.9.8-1.4,4-4.2,4-4.5,0-1.1-4.1-.8-3-3.5l5,2,8-8.5c0-4-4.6,1.6-6,1.5-1.7-1.9,7.1-7.1,8.5-8l1,3c3.8-3.3,10.8-5.8,8.5-12,4.7,1.1,7.3-3.5,9.6-4.8,3.1-1.8,6.9-2.9,9.6-4.5,3.8-2.3,5.1-8.3,10.8-6.7l-3-4c3.9-1.3,11.4-4.2,13-8h2s0,3,0,3h1.5c2.5-3,12.3-5.2,14.2-7.3.8-.8.1-3,1.9-3.6,1.7-.6,4.5.1,6.4-.1l-2,4,7-2c.9-3.7-3.6-1-4-2.5-.8-3.2,5.1.5,4-3.5h-5s20.6-10,20.6-10l6.4,2-3-4c4.6,1,10.3-4.2,14.5-4.1,2.5,0,4.6,2.8,7.5,2.1.9,4.6-6.9-.6-6,4l14-2c.8-3.7-4.4-1.5-6.5-2-2.3-6.6,9.3-3.2,13.5-4l-6-2c3.3-5.1,9.5,2.1,15,0,.8-3.7-4.9-1.4-7-2,3.8-5.3,10.2,2.1,16,0,.8-3.8-5.8-1.3-8-2,1.1-3.1,5-1.5,7.4-2,32.6-6.9,64.5-8.5,98-5.9l7.5,2h-16.5c-.2,0-1.9,1.5-3.2,1.8-2.3.5-7.1-1.2-6.3,2.2,4.8-2,8.9,1.6,13.4,2.1,2.6.3,8.5.3,11.1,0,1.8-.2,1.6.3,1.5-2h-17c-.1-2.3-.3-1.8,1.5-2,4.1-.5,8.9.5,13,0,1.5-.2,2.8-1.7,5-2,2.3-.3,14-.6,14.5,2.1,17.5.5,36.7,6.7,53.6,11.9,2.1.7,7.4-.9,3.9,4l-6.5-2c-1,3.6,3.4,1.4,4,2l.5,7c-2.5-1.4-5.6-.5-7.8-1-12.9-3-28-9.5-42.2-11.9-2.7-.4-5.7.2-8.4,0-3.5,2.6,7.6,1.9,8.4,2,11.1,1.9,24.4,6.3,35.3,9.6,2.3.7,14.1,2.8,14.2,4.8l-4,1.5c1.9,4-1.1,6.9-1.6,11-.6.5-8.5-1-9.6-1.3-35.1-9-62.3-15.1-99.3-14.7C142.4,372.4-1.4,564.5,54,760.1c47,166.2,223.6,255.9,387.7,206.3,6.4-1.9,14.6-4.3,19.8-8.2-1.8-.6-5.2.4-7,1-25.7,8.5-54.2,15.6-81.5,17.5-4.3.3-6.4-1.8-8.8-1.8-2.9,0-7,2.6-10.2,2.8-4,.2-8.4-1.8-12.1-1.9-15.9-.4-27.4-.5-43.6-3.4-2-.4-4.3-.7-5.8-2.2-.7-2.3,3.5-1.7,4.5-1.5,6.9,1.2,14.8,3.6,21.9,4.1,6,.4,12.5-.4,18.5,0-2.6-3.6-9.3-1.6-13.5-2-3.8-.4-7.8-1.6-10.9-2-.9-.1-13.2.8-9.5-1.9,2.8,0,5.6-.2,8.4.1,32.4,3.9,77.1,3.1,108.5-5.6,1.7-.5,7.7-2.4,8-4-1.1-5-4.5-1-6.7-.7-2.3.3-4.6,0-6.7.3-9.4,1.7-18.8,5.3-28.5,4.9,0-2.3-.3-4.5-.9-6.7-.5-1.7.7-2.8-2.1-2.3.5,5.6-.7,9.9-7,10.6-2.5.3-4.2-.8-6.4-.5-7,.8-9,1.1-16.2.9-3.7,0-13.7,1.2-15.3-1.7-2.5-4.7-.9-23.1-1.2-29.8-1.8-42.3-4-85.3-6-127.8-.6-12.8,2.1-26.9-2.8-38.8l6.8-14.2c8.4.1,7.2-2.5,11-7,3-3.5,16.3-3.9,20.3-1.4,3.4,2.1,7,8.4,9.8,11.4,1.2,1.4,3.2,2.1,4.5,3.5,6,6.2,2.9,8,4.6,15.4l12.9,45.1,2,.5c-.9-8.7-4.3-16.5-6.5-25-2.4-9.2-5-18.7-6.5-28,1.8,0,4.2,2.9,5.4,4.1,1.7,1.8,8.3,9.5,9.2,10.9,1.1,1.7-.9,3.5,0,5.9,1.5,4.2,8.4,13.3,10.9,18.2,20,39,40.2,78.1,59.4,117.5,1.8,3.7,5.6,7.7,5.1,12.7-6.5,3-13.6,6.9-20.4,9.6-3.3,1.3-13.5,5.4-16.2,5.8-1.4.2-3.3-.3-4.3-1.3-.7-.7-6.2-16.1-6.7-18.3-3.1-11.7-5.2-25.5-8.5-37.5-2-7.1-3.2-15.9-7.8-21.7,0,10.9,4.9,20.7,7.5,30.9,2.9,11,8.9,29.6,10.2,39.7.5,4.1,1.7,10-2.5,11.7l.8,3.5c3,2.8,45.1-15.2,51.3-18.1,23-10.8,42.9-25,62.8-39.8l11.8-10-6,9.5,4,.5c1.1,4.3-4.5,3.4-6.5,7-2.2.5-1.9-4.5-5.4-2.9l-1.1,4h3c-4.8,9-3.6,1.4-4,1-1.5-.3-14.6,5.8-12,8h4c.7,5.8-5.3,4.9-7.9,6.6-1.2.8-1.7,3-3,4-7.1,5.6-17.9,8.4-25.3,13.4-.8.6-3.3,2.6-2.8,3.9,1.2,1.1,25.6-13.1,28.5-15,28.4-18.6,59.8-48.3,79.9-76,28.4-39.1,47-85.9,54-133.8,1.8-2.4,4.9,0,7-.2,1.9,0,3.7-1,6-.9,4.8.1,9.3,1.9,14,1.4,4.7,3.2-1.4,6.6-1.4,7.1.8,12.5-1.9,18.6-4.8,30.3-9.3,36.4-24.3,71.6-44.6,102.8-2.4,3.6-13.9,16.7-13.7,19.8l2,.5c1.8-4.2,5.3-7.3,7.9-10.8.8-1,1-3.1,2.1-4.4.6-.8,4-2.9,3-.2-3.2,9-16.9,19.4-21,28.7-3,3.1-22.9,23.5-23,25.2-.2,5.2,7.8-4.6,9-3.5-1.1,5.1-8.4,5.4-8,11,1.4,1.4,10.2-6.9,11.6-8.3,21.1-20.1,43.8-51.9,57.8-77.6,19.5-35.6,32.8-75.5,37.5-115.9,7.5-1.2,6.6,6.7,9.4,10.1,2.2,2.7,6.6,3,9,6,2.4,2.9,4,11.2,6.3,15.6,5.4,10.2,17.9,22.7,28.3,27.7,3.7,1.8,21,6.1,21.8,8.3l-7.1,78.6-2.3,1.6c-2.8-3.7-7-6.5-8.5,0,6.1-2,8.4,5.9,12,7.5,3.6,1.6,12.3,1.4,16.2.2,2-.6,8.2-6,9.8-2.2-11.7,4.2-3.2,5.8-3,7,.6,3.4-2.8,2.9-3.1,4.2-.2,1-.5,10.8,0,11.3l4-2v7s-3-.7-3-.7c.2-2.2-2.2-3.8-2.6-5.3-.7-2.6,1.5-7.4-.7-10.7-.2-.3-5.1-4-5.4-4.1-.9-.3-9.8-1.3-10.7-1.2-8.1.8-13.8,11.3-11.1,19l5.5,8-14,1,1-5-5-1.5c1.4-2.7,4.9-2,6.5-3.5.6-.6,5-10,5.5-11.5,1.9-5.3,3.7-9.7-.5-14.5-2.3-.4-1.4,1-1.5,2.5-.3,3.2.5,6.5-.3,9.7-1.4,6-14.2,21.8-21.7,16.8-1.4,3.4,1.8,4.1,2,4.7.3,1.1.3,6.8,0,7.7-.3,1.2-5,.5-4.1,3.6l5,1.5c.4,1.9-1.7,1.8-2.4,2.4-2,1.8.2,5.3,3.4,3.6,3.5-1.8,1.2-5.5,1.2-8,0-1.3.9-2.6.8-3.9-.2-2.2-3.6-5.3-1-7.1l7-.5c.4,3.9,1.8,7.6,2,11.5.2,2.7.2,18.7-.6,20.5-1.4,3.3-6.1,4.8-9.5,4,1.2-2.1,5-15.9.5-15-3.8.8,2.2,10.6-4.6,11.5-1,3.4,5.8,4.9,6,6-8.9,10.9,1.1,17.2,12.3,15.2,5.8-1,13.3-7.2,18.2-6.8,5.7.4,11.4,10.5,19.3,6.9,3-6.2-2.5-19.8,2.4-24.6.8-.8,2.4-.6,3-1.2.9-.8,1.2-1.9,1.8-2.4,4.1-3.2,11.1-4.6,11-11.1,0-3.5-3.4-7.8,1.9-8.5-1.4-2.6-2.6-5.7-2.6-8.6,0-3.9,1.3-13.1.7-16.6-.1-.7-1.7-.5-2-1.4-1.5-4.6-.2-8.5-.3-13-6.7-6.4-16,1.8-21.3,1.8-4,0-.7-5.5-.5-8.5,1.6-21.4,3.4-42.7,6-63.9.4-3.5-1.4-11.3,2-13,2.3-1.1,9.7-1.7,13.2-2.8,39.2-12.5,57.7-61.2,36.2-96.5-2.2-3.6-9.4-9.8-7.7-13.8,37-40.7,71.8-83.4,107.7-125.2,34.5-40.2,70.2-80.4,105-120.8,26.5-30.7,52.2-64.5,79.5-94.1,3.5-3.8,12.8-14.1,18.3-12.6,5.1,1.4.2,6.8,1.4,9.6,1.4,3.2,7.6,3.9,8.1,8,.5,3.4-3.6,3-1.5,9.4,2.4,7.6,7.1,6.7,9.1,9.9.3.5,4.4,9.2,4.8,10.3,1.3,3.1,1.5,8.7,3.6,12-48.4,36.2-86.2,84.3-110,139.8-10.9,25.4-23.7,67.7-24.8,95.1,0,1.9-.5,5.5,1.5,6.5,2.3,1.1,1.1-4,3.5-4-1.1,10-2.8,19.7-2,30-1,.4-2-2.3-2-2.5v-19.5c-1.5-.2-1.8,2.6-1.9,3.6-1.8,17.6-1,35.2,0,52.9l3,2.5,2-6,1,10c.3.3,3.2-1.8,3.9.6,1.2,3.8-1.3,3.1-2.3,4.5-1.1,1.5-.9,4.5-3.6,3.9v-1.5s-1,0-1,0c.9,12.4,2.4,24.5,5.3,36.7,27.3,114.6,119.9,211,233.4,243.3,8.6,2.5,17.7,3.5,26.2,6.3.2,1.9-2.1.8-3.2.7-23.5-2.1-46.7-.2-70.2-2.7-4.7-.5-12.7-.5-13.5-6l-3.1,2.7c1.9,1.5,3.9,3,5.8,4.5,2.1,2.1,4.1,4.2,6,6.4,6.8.8,13.7,1.6,20.8,2,17,.8,35.6-1.1,52.8,1.4,18.1,2.7,42.7,1.5,62,2.1,15.5.5,28-.3,44,.8ZM1362.9,335.3v-1c1.2.4,2.9-1,3.5-1,4.9,0,10.2-.3,15,0,1.6.1,4.6,1.1,6.5,1v1s-25,0-25,0ZM1542.8,937.7c-2.6,4-8.4,5.5-11.9,7.6-6.1,3.6-18.3,12.1-24.6,13.3-1.8.3-3.7,0-5.4,0l42-21ZM1474.9,968.7c.5,2.5-.5,1.8-1.9,2.5-2.4,1.2-5.8,2.9-8,0,2.5-3,6.4-2.6,10-2.5ZM1656.8,599c1.6.5,1.7,3.8,2.4,5.6.2.5,4,2.1,0,5.4-2.2-4.5-5.2-5.1-2.5-11ZM1124.1,517.5c1.1-.6,1.7-.3,2.5.5,8.4,6.2,17.3,11.7,26,17.5,32.3,21.6,64.8,43.1,96.4,65,1.1.8,2.6-.3,2,2.5l-148.8-35c-1.8-2.5,18.3-48.5,21.9-50.4ZM1087.1,645.5c.5-2.4,3.4-3.7,5.6-4.5,8.6.4,17.3,1.8,25.9,2,64.6,1.5,129.3,1.2,193.6,3.5,2.2,0,4.7,1.4,6.5,1.4,2.9,0,7.6-5,9.3,2-2,1.9-6.2-1.6-7-1-2,1.6,2,2.1,2,2.6.3,1.6-.2,2.7-1,4-.8,1.4-15.1,13.1-16.6,13.4-55.1,7-110.2,14.8-164.8,22.1-13.6,1.8-33,6.7-46.2,6.8-2.3,0-5-.8-5.4-3.4.6-7.3-1.7-14.8-2-21.9-.3-6.1-1-21.8,0-27ZM1300,605c4.5-.4,9.9-1.4,14.3.2,2.1.8,2,2.6,3,3.4,8.9,7.4,17.3,18,26,26,3.7,3.4,24.3,21.6,27.1,22,3.3.4,2.3-3.4,2.5-3.6,1.4-1.4,5.2,2.3,6,3.5l-2,2c1.5,1.3,9.7,8.1,10,9.2.6,2.9-.4,7.1,0,10.3-3.5.8-1.4-3.2-2.1-5.4-2.4-8.2-10-10.8-17.5-6.6l-.5,11c-.1.2-1.9-.8-2.3-1.2-4.6-3.6-3.4-4.3-6.1-7.9-5-6.8-17.4-13.6-23.9-19.1-6.8-5.8-13.1-12.2-19.6-18.3-4.2-4-13-9.3-14.6-15.5-.9-3.4,1.5-6.4-.4-10ZM1252.4,503.2c-5.5-10.9-15.9-27.4-19.1-38.9-.5-1.7-.2-5.2,1.7-3.2.1.1.6,2.6,1.6,3.9,35.9,48.8,73.7,96.3,109.9,145,1.3,2.3,0,14.5-1.4,15.5-10.1.6-15.4-9.3-21.5-15.6-31.7-32.7-50.6-66.5-71-106.8ZM1352.4,619c1.2,1.7,8.1,8.4,6.5,10h-6c1.4-3.6-3.7-7.4-.5-10ZM1356.4,638l1.5-4c1.4-1.3,4,6,6.8,1.7.6-1-.6-3.1,1.2-2.7,2,3.6-1.1,5.4-1,9h6c-.5,3.6-2.6,5.1-1,9h-3c.2-3.2.5-6-2.5-8l-2.5,4v-8c-3.7,5.4-13.1-1.6-11-4,1.9-2.1,2.1,4.1,5.5,3ZM1378.4,645c.9-1.5,4.6-2.4,6.3-1.7.2,0,.2,1.3,1,1.6,1.7.6,5.8.5,6.8,2,5.7,8.5-19.1,6.3-14.1-2ZM1390.9,660c-.6.7-4.8-2.1-5.8-2.7-1.2-.7-2.8.6-2.2-2.3l7.1.4.9,4.6ZM1409.9,657c.2,2.5.3,1.7-1.5,2-3.5.5-8.2,1.7-11.1,2-1.9.1-3.1.4-4.4-1.4,3.2-7.2,10.7-1.1,17-2.5ZM1393.9,679.4l3-.4,12,21.9c-11.2-3.2-20.7-8.2-15-21.5ZM1395,672.9l-1.9-6.3c.3-1,1.1-1.6,1.9-2.1,2-1.2,18.3-4.7,21.7-5.3,2.1-.4,4.2-.3,6.3-.2l-24.1,13.4-3.9.5ZM1404.4,653c-2.6-.4-5.3.1-7.9,0-1.7-8.8,9.9.3,14.5,0,.4,4.8-4.8.3-6.5,0ZM1394.5,642.1c-1.3,1.9-8.3,0-9.1-1-1.9-2.5,7.4-11.6,9.3-13.8.6-.7,0-1.9,2.3-1.3l-2.4,16ZM1384,636.2c-.9.8-1.9,1.4-3,1.8l13.5-24.9c.7-1.3,5.1-5.5,6.4-4.1,2,2.1-1.9,4.4-2,4.7-.5,1.9.2,3.2-1,5.9-.4,1-12.6,15.3-14,16.6ZM1385,623.8c-1.3,2.2-6.6,13.5-8.8,14.1-4.4,1.1-4.7-5.2-5.9-6.9-.6-.9-2.3-.9-2.4-1.1-1.6-2,7.7-8,9.4-9,3.4-2,8.9-4,12.5-5.9,1.4,1.4-4.3,7.7-4.9,8.8ZM1368.7,734.1c-2.7,11.8-14.1,28.3-16.9,41l-2.8,1.7c-.4-14.8.6-29.7,0-44.5-.3-9.3-3.9-20.2-1.6-29.5,1.4-5.5,11.2-17.4,14.8-8.7,1.1,2.6,0,7.6,2.3,8.7,3.6,1.8.4-7.6.4-8.5,0-2-.3-4.3,1.6-5.5,3.6,3.3,18.4,0,17.1,7-1.5,8.3-8.9,18.2-10.6,26.9l-4-2c-.4,4.2.7,9.1-.3,13.2ZM1345.4,680.5c0-3.4,2.7-11.9,7.3-9.3.9.5,3.8,9.1,3.5,10.5-.7,3.7-4.9,10-9.4,9.3.9-3.6-1.5-7.4-1.5-10.5ZM1380.4,670c4.8,4.7,2.3,11-4.5,8l5-1c2.2-2.3-5.1-6.4-.5-7ZM1330.5,651c2.7.3,13.8,8.8,11.5,11l-2.8.2-.7,2.9c-4.5-2.4-23.7,4.6-25.4.4,7.3-1.4,9.3-11.1,17-10.5-.4-1.8-1.5-2.8.5-4ZM1077,602.5c.1-1.7-.1-3.3,1.6-4.4l.5,13c-2.5,3.3-2.1-7.5-2-8.5ZM1093.6,740.9c-3.4-9.5-9.4-33.9-9.3-43.5,0-2.5,1.5-5.6.8-8.5,1.4.6,1.6,5.1,1.8,6.6,1,6.9,1.1,13.6,2.4,20.6,1.8,9.4,5.3,19.4,7.7,28.8-2.4.7-2.9-2.4-3.5-4ZM1091.5,702.9c1-1.5,15.1-3.4,18.2-3.8,59.2-8.6,118.5-15.7,177.7-24.2,4.6-.7,9.2-3.2,14.6-1.9.7,2.3-.6,1.7-1.3,2.3-6.9,6.1-13.8,12.1-20.7,18.2-5.6,5-10.3,9.5-15.5,14.5-2.8,2.8-7,4.9-9.5,8.4-.2.7,1,.7,1.5.5,7.3-3,16.4-14.7,22.3-19.9,9.7-8.5,20.3-16.4,29.5-25.2l33.1-4.6c4.4,4.4.3,10.6-2.4,14.8l4-1c-.4,7.5,4.1,10-4,13.4-6.4,2.7-9.9.8-13.2,1.7-2.2.6-10.2,5.2-14.5,6.6-12,3.9-42.3,14.8-52.9,16.1-8.8,1.1-5.4,1-13,3.9-31.2,11.7-70.6,22.4-103,31.9-10.5,3.1-21.3,5.1-31.7,8.4-1.8,0-2.4-.3-3.4-1.7-1.6-2.2-6.4-16.8-7.6-20.4-3.7-12-7-25.6-8.1-38ZM1109.6,778.9c-2.9-1.2-9-15.2-8.5-19,4.5,3.6,5.6,10.5,8.4,15.7.1.2,4.5,2.7.1,3.3ZM1129.1,812.8c-2.1.5-2.3-1.1-3.2-2.3-1.7-2.3-9.4-14.6-10.3-16.7-.8-1.9-1.6-4.6,1.4-3.9-.4,4.4,14.1,20.6,12,23ZM1139.4,818.7c-1.3.3-1.5-.8-2.2-1.5-3.3-3.5-10.4-15.2-13.1-19.8-5.4-9.4-9.2-19.8-15-29l132.9-41.4-102.6,91.8ZM1188.6,879.8c-3.7-2.5-8.6-6.1-11.5-9.4-1-1.1-2.3-1.7-2-3.5l13.6,10.3c.4.4,2.6,3.3-.1,2.7ZM1226.3,900c-5.6-4-39-24.8-40.1-29-.5-1.7.2-3.3.8-4.8,34-39.8,66.9-80.5,100-120.8,7.8-9.4,17.2-17.5,23-28.5l-126.5,147.7c-1.5,1-2.6,1.4-4.3.6-1.4-.6-13.9-13.7-16.1-16-7-7.4-12.8-16-19.9-23.2l-.5-4.2c11.4-10.3,23.2-20.1,34.5-30.5,24.6-22.5,48-46,73.6-67.3,17.3-5.6,34.8-10.5,52.3-15.6,3.8-1.1,10.9-4.8,13.8-5.3,2.3-.4,3.3,2,4.6,1.7.8-.1,2.4-2.4,3.9-3.1,3.4-1.6,15.8-6.2,18.7-4.3,2,3.1-2,9.1-3.7,12.4-11.6,22.6-26.9,45.2-39.5,67.4-23,40.2-45.6,80.8-68.1,121.2-1.9,1.5-4,3.2-6.4,1.6ZM1289,926.3c-1.1.5-2.1.7-3.2.3-16.6-6.1-32.6-13.1-48.7-20.4-2.4-1.4-2.5-4.3-1.8-6.7,32.5-53.5,61.7-108.8,92.7-163.1,4.6-8.1,9.8-17.4,14.8-25.2.6-1,0-1.8,2.2-1.3.4,8.4-.5,17.1,0,25.5.8,14.5,4.9,37.5,1.6,51.5-1.4,5.8-4.9,11.4-7,16.9-12.4,32.9-26.8,65.1-40.2,97.7-1.9,4.7-6.7,22.9-10.3,24.7ZM1299.5,911.8c10.8-30.4,24.8-60.1,36.8-90.1,2.8-7,5.3-17.8,8.9-24.1.7-1.3.9-2.1,2.7-1.8l4.8,140.2-.7,1.3c-19.1.4-38.6-3.6-56.9-8.7-1.1-1.8,3.4-13.9,4.4-16.8ZM1382.9,951.7c-.9-.2-2,1-2.5,1h-21c-1,0-5.5,0-5.8-.1-.7-.2-1.7-1-1.7-1.9h31v1ZM1399.9,946.7c-3.2-.4-5.5,1.7-8.5,2-13.9,1.5-29.2-1.4-43.1-.9-1.9,0-3.5,1.8-5.9,1.9-3.2.2-.7-3,0-3h52c1-.2,5.9-4.8,5.5,0ZM1422.4,944.8c-2.5-.5-8.3,1.5-7.4-2,7-1.2,12,3.2,19,2-3.4,4.6-8.4.7-11.5,0ZM1442.9,918.7c2.9-2.5,11.3,10.5,1,9l-1-9ZM1459.3,934.6c-1.8,0-1.3,1.9-2.1,2.1-1.9.4-4.3-.2-6.3,0l2,2-1.5,2-7.5-2c.3-1.9,2.1-1.6,3.4-2.1,6.4-2.4,14.2-3,20.6-5.9l-3,2,4,2c-1.6,3.9-5.7-.3-9.5-.1ZM1549.3,873.8c-3.3,2.7-11.4,9.8-14.7,11.3-1.3.6-2.3,1.2-3.7.3l-92-141.4c-.8,3.8,2.8,5.9,3.9,7.8,22.4,39.4,48.4,78.2,72.6,117,3.2,5.1,13,15.7,11.2,21.4-.6,2.1-23.3,14.9-27.1,16.9-4.5,2.3-18,9.6-22.1,8.9-3.2-9.6-7.1-19-10.6-28.4-.6-1.6-.6-3-2.9-2.6.7,4.6,1.7,11,3.3,15.2,1.1,3.1,5,7.9,5.7,12.3,1.7,10.3-13.1,9.2-19.4,13.4-4.8-8.7-3.1-14.5-15.6-11l3,14.9c-5.6.3-17.2,4.9-22,2.5-2.6-1.4-1.6-4.4-2.3-6.7-1.7-5.8-2.5-9.6-3.8-15.2-5.8-26.3-11.9-53.4-18-80-.4-1.5.7-1.7-2-1.5l20.9,104.3-1.6,1.5c-1.5.2-3.1,0-4.5.5-7.4,2.2-22.7,3.3-31.2,3.8-4,.2-18.7,1-19.5-3.5l-5.9-141.8-3.1-1.1,41-102.4c4.5,1.5-1.7,5.3.1,7.9,3.1.7,6.3,3,7.4,6.1,18,50.5,35.4,102.1,54.7,152.1,2.5,6.6,5.1,14.2,9.2,19.8,1.1-7.9-4.6-15.4-7.2-22.7-17.1-47.1-37.6-96.1-52.3-143.4-.4-1.2-2.8,0-2-2.7,4.1-1.2,4.4,2.1,6.8,3.9,6,4.5,17,11.8,21.7,17,3.2,3.5,5.4,10.4,9,14l-1.5-6c.6-.6,4.7,1.4,5.5,2,14,9.5,29.8,26,43.2,37,27.5,22.5,56.9,43.6,83.7,66.9,2.3,2,5.3,4.7,6.6,7.5,0,2.2-21.2,21.7-24.5,24.5ZM1612.7,798.1c-.4,1.8-8.7,14-10.4,16.6-4.1,6.1-9.4,13.3-14,19-1.9,2.4-6.9,8.8-8.9,10.2-2.1,1.4-3.9,0-5.8-1.1-13.8-8.7-30-25.2-43.1-35.6-32.7-26-65.8-50.7-97.1-78.3-6.4-5.6-9.3-11.4-14.5-16,.1.9,1.4,3.7,1,4-4.6,1.2-3.7-1.7-5.9-3.5-2.6-2.2-7.5-7-9.8-8.4-1.1-.7-5.2-1.2-5.3-2.5-.2-4.3,7.4,1.6,8.1,1.9,7.5,3.5,6,3.4,11.9,8.6-.2-1.5-.7-3.3,1.4-2.9,3.7.8,10.5,4.1,14.3,5.7,12,5.1,23.6,11.4,35.4,16.5,44.7,19.6,92.6,38.2,136.2,59.7,2.3,1.2,7.2,2.8,6.5,6.1ZM1620.2,783.7c-1.8,3.2-3.4,7.9-7.8,7.1l-198.1-88.3-11-18.4c-1.5-2.6-5.9-4.1-4.3-9.2,10.5-2.5,19.5-11.3,30.4-14l208,76.8,1.3,3.3c-6.3,14.1-10.9,29.1-18.5,42.6ZM1649.8,685.4c-.5,9.6-4.9,35.9-8.5,44.5-.6,1.5-1.9,4-3.8,3.8l-199.6-72.8,1.5-2,207.5,20.4c3.3,1.1,3.1,2.9,3,6ZM1647.6,614.7c1.3,3.5,2.9,17.4,3.2,21.8.3,4.9.7,35.1-.5,37.5-.6,1.1-1.8,1.9-3.1,2l-212.3-19c1.2-3.2,5.1-1.5,7.4-2,57.8-12.8,116.2-24.4,174.7-36.1,5.6-1.1,25.2-7,29.1-5.6.9.2,1.1.8,1.4,1.6ZM1629.8,551.5c1.4.9,8.2,21.4,9.2,24.8,2.4,7.8,6.8,21.9,7.5,29.5.1,1.1.4,2-.8,2.8l-198.9,40.9,180.6-98.3,2.4.3ZM1599.9,496.7c1.3.5,9.7,13.4,11.1,15.8,3.2,5.3,14.6,25.6,15.6,30.4,1.1,5.5-4.2,8-8.1,10.4-21.8,13.5-48.4,25.2-71.3,37.6-37.5,20.4-74.6,41.4-112,61.8-13.2,4.2-25.6-3.3-37.7-7.7l3.8-23.2c.4-2.6,3.2-3.7,4.3-5.2,6.5-8.5,14.3-15.9,22-23.4l168.1-95.8c1.3-.3,3-1.2,4.2-.8ZM1403.4,609c.8-2.2,9.6-9.6,11.5-7.9l-2,3.5-10,9.4c0-1.7-.1-3.4.4-5ZM1556.4,452.3c2.3-1.4,3.7-1.5,5.9-.2,2.3,1.4,12.4,12.2,15,15,2.6,2.9,5.4,6.5,7.9,9.6,3.8,4.6,7.6,9.4,11.5,14.1l-3,3.8c-52.3,26.9-101.4,59.9-153,87.8-1.7.9-4.7,3.5-5.8,1.1l121.5-131.3ZM1510.2,413.4c12.9,8.3,27.4,17,39.1,26.9,3.5,2.9,7.7,6,5.2,10.7-33.2,35.5-66.9,71.3-100.2,107.2-14.3,15.4-25.6,33-45.2,42.7-1.2.6-2.8,1.8-3.7.3-1.4-2.3,1.3-8.2,2.3-10.7,3.3-8.1,10.1-17.5,14.5-25.4,14.5-26.1,30.5-52.9,45.6-79.3,13.6-23.7,26.1-48.1,40.4-71.5l1.9-.8ZM1449.3,387.2c1.8.1,12.4,4,15.1,5,4.8,1.7,38.7,16,40,18,1.1,1.7.3,3.1-.3,4.7-2.2,6.1-11.8,21-15.6,27.9-24.2,43-50.3,85.8-73.8,129.6l-5.8,7.7,37-191.2c.8-1.4,1.8-1.7,3.3-1.6ZM1390.6,377.4c10.1-3.4,39.1,6.6,50.6,7.8,2.9,1.6-1.6,16.7-2.1,19.8-7.5,41.5-15.9,83.5-24,124.9-3.7,19-8.2,66.3-21.7,79.3-2.1,2-19.9,12.1-23.8,14.2-2.4,1.3-4.8-.2-6.2,3.8l-14.4-16,2.9-10.9c.9.5,2,.7,3,1-1.6-7.3-1.2-6.9-.2-13.7,9.7-65.7,21.6-131.2,32.2-196.6.5-3.4-1-11.7,3.7-13.3ZM1335.6,377.4c15-2.3,31.6-1.9,46.7-1.9,5.4,2.7,1.4,7.7.9,11.5-9.1,60.1-18.1,121.4-28.3,181.5-1,5.9-3.4,12.4-3.9,18.6-2.3-1.3-7-10.5-6.9-12.5,0-1.6,1.5-2.8,1.7-4.1.7-6.7-2.1-15.8-2.6-21.9-4.1-45.7-8.6-91.2-14.1-136.8-1.2-9.6-3.2-19.3-4-28.9.8-4.8,6.7-4.8,10.6-5.4ZM1216,418.7c7.5-1.7,14.2-7.6,21-11,3.5-1.8,19.9-9.9,22.3-9.3.9.2,1.7,1.1,2.3,1.8,17.4,38.7,35.3,77.2,53.1,115.7,6.3,13.7,13.5,34.7,21.1,46.8.8,1.3,1.1,2.7,3.2,2.3l-74-165.3c0-1.5-.2-3.2.6-4.5,1.5-2.6,53.6-17.2,56.4-14.9l7.2,66.2c3.5,38,10.9,77.1,13.9,115,.4,5-2.3,12.4-2,13.8.1.6,1.6.7,1.9,1.5,3.4,8.2,3.1,19.4,5.1,28.2-1.4,0-1.9.3-3-.7-3.2-2.7-8.1-11.7-11.1-15.7-29-38.3-58.5-77.3-87.3-116.4-6-8.1-13.9-16.1-19.2-24.7-5.1-8.3-7.6-18.3-12-27l.8-1.8ZM1193.9,437.4l2.2,6.8-3-5-2,.5c-.1,1.3,0,2.5.2,3.8,1.6,7,24.1,57.3,28.3,61.7.8.8,2.2,0,2.9.9,2,2.7,2.4,7.9,3,11.1h2.5c-2.6,5.6.9,4.6,2.1,6.6,2,3.4,3.3,8.5,5.6,12.2,1.4,2.3,5.8,4.1,3.9,7.1l-6.5-1.5c3.5,4.6,10,9.3,13.4,13.5,3.6,4.5,6.3,10.5,9.7,15.3,1.3,1.9,8.3,11.3,9.4,11.4.8.1,2.1-1.1,2.4-.8-1.7,5.3,2.3,7.1,5.6,10,.8.7,1.1,2.5,1.6,2.8,1.1.6,3.4-.1,3.8.2.2.2-.2,3.3.5,5,.3.6,7.2,9.2,7.8,9.7,2.7,2.3,5.1,2.8,8.6,2.4l-1.6,5,28.6,29c-4,1.6-9.2-3.5-11.7-3.8-1.1-.1-2.6,1.7-4.7,1.9-13.8,1.2-28.3-.8-42-1.1-39.9-.9-80.2-2.1-119.9-3-7.2-.2-54.9,1.3-56.4-1.1.4-22,5.2-43.8,11.3-64.8l2-1c12.9,2.2,25.5,5.9,38.2,8.8,36.8,8.3,79.5,15.8,115.4,26.5,5,1.5,9.3,5.3,13.3,6.7,3.3,1.2-1.4-3.1,2-3,4.3.2,11.9,3.2,16,4,2,.4,4.4,0,6.4,0,.2-2.6.1-1.7-1.5-2-11.4-2-28.6-5.7-38.2-11.7-22.1-14-43.3-31.3-65-46.2-17.7-12.2-42.2-25.2-58.2-38.5-2.1-1.8-3.4-3.3-2.3-6.1,1.6-4.2,9.8-16.1,12.8-20.3,4.5-6.3,10.9-12.2,14.9-19l2.9-1.1,73.5,70c0-1.9-1.9-3.7-3-5.2-10.4-13.2-29.7-30.9-42.3-43.4-3.7-3.7-23.3-20.6-24.2-23.3-.5-1.7-.8-3.4,0-5.1l26.8-25.7h4.6ZM899.4,118.4l.8-6.4c1.9-1,4-.7,5,1.2v7.4s-5.8-2.1-5.8-2.1ZM922.2,121.5c2.3-3.3,8.1-3.2,11.2-4.3,4.2-1.5,8.2-4.4,12.8-4.7-6.8,5.2-15.3,7.6-24,9ZM967.1,95.5l-3.6-4-6.4,3-2-4-4,8c-1,.7-2.7-5.6-5.9-3.8-2.7,4-3.7,5.1-2.1,10.2l-4.6,2.7-1.5-2c2.8,1.3,4.8-3.2,4-4-2-2.1-1.6,2.5-3,2l-2.3-3.9c-6.2,2.4-8.5,5.1-6.7,11.8-3,.6-1.7-3.2-5.3-2.7-1.1.1-2.1,1.3-3.3,1.4-1,.2-2.4-.8-3.6-.4-1.2.3-5.3,3.1-5.8,2.8-2.2-5.6-1.1-9.5,4.4-12.1,4.6-2.2,6.8-3.7,11.1-5.9,6.5-3.4,13.3-6.1,20-8.9l1.6,2.9,4.9-.9c1-3.9-3.8-.5-4-3l14-4c1.1,2.2-.4,5.7,0,7.3,0,.5,5.6,3.6,4.1,7.7ZM970.1,84c4.1-6.1,6.9,2.2,7,6.5-4,.9-9.9-2.3-7-6.5ZM299.5,1014.6c-3.1,0-6.3.2-9.4-.1-1.1-.1-5.5-.5-5.6-1.9,4.5.8,12-2,15,2ZM85.6,886.8c6.1,2,2.3,1.5,4.9,5.6,1.7,2.6,4.2,3.6,7.1,8.4,5.3,3.7,7.1,6.8,11,12,5.1,1.2,5.8,4.7,9.4,8,6.5,6,14.5,11.1,19.5,17.9,23.1,15.3,45.2,30,70.8,41.7,1.4.7,2.7-.6,2.2,2.3-4.4-.3-9.3-3.1-13.4-5.1-14.2-6.9-51.3-27.7-59.6-38.8-11.3-7.5-20.8-15.1-29-26-5.8-1.4-2.8-1.9-5.3-4.7-3-3.4-3.1-2.8-5.7-7.3-4.7-3.3-11.3-6.6-12-14-2.2-.7-2.7-1.4-4.3-3.3-10.2-12-20.3-29-27.8-42.8-1.3-2.4-4.9-4.4-3.9-7.9l36,53.9ZM49.7,830.8c-1.6.1-3-.5-4-1.8-2.2-3.2-4.8-12.9-6-17.2,4.9,5.4,6.7,12.6,10,19ZM37.7,806.8c-3.5-3.4-5.3-9.3-6-14,3.5,3.3,4.9,9.4,6,14ZM27.4,775.7l2.3,11.2c-2.1-1.4-2.9-5.4-3.7-7.8-1.8-5.5-3.2-11.4-4.3-17.2l5.7,13.8ZM17.7,738.4l2,12.5c-2.2.4-2-.2-2.5-2-.9-3.6-1-10.1-1.5-14l2,3.5ZM9.7,674.5c.8-6.3.8-12.6,1-19,0-1.2-.8-3.7,1-3.5-.9,6.3,1.2,15.6,0,21.5,0,.2-1.9,2.3-2,1ZM13.7,715.9c-3.9-2.7-1.2-9.8-2-14,1.5-.2,1.8,2.6,1.9,3.6.4,3.4,0,7,0,10.4ZM19.7,681.5v6.5c-.7,0-2-1.3-2-1.5v-22.5h2v17.5ZM21.7,654h-2v-17.5c0-.2,1.4-1.6,2-1.5v19ZM25.7,653.5c0,.5-1.2,3.1-2,2.5v-18h2v15.5ZM35.6,591.5c-.6,3.2-3.2,8.8-3.9,12.1-.5,2.3.9,7.3-2,8.4.1-2.4-.3-5,0-7.4.6-3.7,2.7-9.6,3.7-13.3.6-2.4-1-6,2.3-5.2,0,1.8.3,3.7,0,5.4ZM49.7,547.1c-1,5.6-3.8,10.6-5.7,15.8-.8,2.1-2.2,4.6-2.3,4.8-.6,2.2,1.5,6.1-2,5.3,0-7.8,4.1-16.8,7.7-23.8.7-1.4-.5-2.7,2.3-2.1ZM73.6,488.4l-6,6.7c0-2.3,5.3-13.1,8-11l-2,4.2ZM223.6,355.3c-2.7,2.1-8.2,5.2-11.3,6.2-1.9.6-2.2,1.3-3.7-.7,4.7-2.2,9.6-5.3,15-5.5ZM179.4,383.5c-10.6,6.3-21.5,12.9-31.8,19.7-1.4,2.8-33.7,29-40,35.4-2,2.1-.9,5.5-5,4.5-.3-.2,1.9-3.4,2.5-4,10.3-12.6,28.9-27,42.5-35.9,1.6-3.4,13.7-10.7,18.1-13.4,4.9-3,10.5-6.6,15.9-8.6.6,2.9-1,1.6-2.2,2.3ZM189.6,377.2c1.8-2.3,5.5-4.1,8.1-5.4,11.7-5.9,25.2-11.8,37.9-14.6l-46,20ZM268.1,349.3c-4.2.6-8.3,1.5-12.5,2,1.1-1.5,7-3.7,8.5-3.9,2.4-.4,5,.1,7.4,0-.4,1.9-2,1.8-3.5,2ZM329,339.3c-13.5.8-27.1,3.9-40,6-2.7.4-5.7-.1-8.4,0,.4-1.9,2-1.8,3.5-2,23.6-3.6,57.9-8.7,82-6,1.5.2,3.1.2,3.5,2-13.3.6-27.3-.8-40.5,0ZM392.5,341.3h-17.5c-.5,0-3.1-1.2-2.5-2,5.4.6,12.3-.8,17.5,0,.8.1,2.9,1.1,2.5,2ZM759.3,897.8c-1-14.1,22.5-16,21,0-5.2.2-6.1-5.1-12.5-4.9-3.9.1-4.9,4.6-8.4,4.9ZM767,924.9c4.7-.9,14.3,4.3,13.9,9.8-.7,8.2-2.9,5.4-6.8,6.2-3.5.6-6.8,3.2-10.2-1.2-3-3.9-.7-6.2,0-9.6.4-1.8-2-4.2,3.1-5.2ZM768.3,918.7c2.7-2.9.6-5.3,1-8.4.5-4.5,2.9-9.4,1-13.5,2.6-.1,4.4-.5,5,2.5,1,5.2,1.9,22.5-7,19.5ZM767.3,896.8c.9,6.5-1,12.2-2,18.5-.2,1.3-.3,3.1-2,1.5-1.7-3.5.6-6.2.8-9.5.2-3.5-3.4-9.7,3.2-10.5ZM760.6,916.8c1.7.3,2.2,3.4,2.8,3.7,1.4.8,3.8-.5,4.8.7-1.7,2.3-7.2,2.5-8.7,3.8-1.7,1.4-1,6.5-4.3,5.7,2.3-6.3-3-11.6,5.4-13.9ZM749.3,926.2l-1.9-4.8,3.9-2.6c1,6.5,6.2,18.3-4,18,2.1-3.9-2.1-9.4,2-10.5ZM787.9,933.8c-3.3,3.6-5.4,11.6-4.5,16.3.4,2,2,3,2.1,6,.2,10.1-7.9-.7-10.7-2.3-8.3-4.7-16.1,1.8-23.3,4.9,5.6-13.4-10.8-17.9-9.9-2.1l5.9,1.1c-2.5,4.7-9.8-.9-8.9-5.3,0-.4,3.2-6.4,3.4-6.7,2.9-3.2,11.1-3.6,12.9-8l2.5,6-4,.5c-2.2,2.2-.9,5.4,2,6.2,2.8.7,3-2.4,5.5-2.6,2.4-.3,5.7,2.1,9,2.1,11.6,0,14.5-9.2,13.9-19.1,3,.4,4.9-3,5.2-3,2.2-.3,5.4,1.7,8.3,0-2,3.7-6.3,2.8-9.4,6.1ZM791.3,923.7v-4.9c2.4-1.4,4.5-.4,7-.1.9,2.8-6,6.1-7,5ZM793.8,879.8l1.5,9c3.3.2,2.1-4.2,6-3l1,27c-4.4.8-1-7.9-4.5-8-4.5,2.3-.2,5.6-3,8l-4.5-2c1.1,4.1-8.3,9.5-10.9,7.9-.8-2.4-2.5-4.6-2.2-7.3.2-1.5,5.7-8.7,6-6v9.5s2.1-3.9,2.1-3.9l7.4-2.1c.6-.9.8-6.1.5-7.4-.3-1.1-2.7-1.2-3-2.2-.3-1.3,1.8-3,1.8-4,0-1.1-2.9-2-2.6-3.8.1-.8,1.7-1.8,1.9-3.3.5-3.2-2.8-6.5,2.5-8.4ZM1087,150.9c1.8-.9,9.6-6.7,11.1-5.4.4,2.1-1,2.3-2.3,3.2-1.6,1.1-16,7.4-16.7,6.8-2.5-2,7.1-4.2,7.9-4.6ZM1081.6,101.5c4.1,3.5-.4,6-2.5,9h5c-5.1,6.6-14.9,7.7-22.5,10l-.5-3c5.3.7,10.1-1.6,14.8-3.7,1.4-.7,2.7.6,2.2-2.3-8.3-1.2-18,8.7-25,1.5l28.4-11.5ZM1043.1,85.5v4c.8-.8,3.2.6,2-5,8.6,2.2-.2,11.5-5,7.5,3.6,0,2.8-2.3,3-2.5l-6,1-2-5.5,2-1.5c-.7,3.7,5.3,1.3,6,2ZM1048.1,95.6c-.2,2.5,1.3,4.9,1,7.4-.2,2.4-2.8,4.8-2.1,7.9.3,1.2,2.7.9,3.8,1.9.7.7,5.6,6.3,5.8,6.7,4.2,8.6-25.5,7.7-29,8-13.1,1.2-26.4,2.7-39.5,4-.5-2.5.5-1.8,1.9-2.6,2.6-1.6,7.7-2.6,9.4-4.3,4.9-5,10.8-10.7,15.4-15.4,5-5.1,11.2-14.6,15.8-18.6.9-.8,1.1-1.3,2.5-1,1.5,9.9,7.7,7.1,15,6ZM1079.9,94c-.3,3.8-24.1,12-28.7,12.5l1-11.5c6.6.7,15.7-8.5,20.7-9.2,3.9-.5,5.2,5.8,7.1,8.3ZM1069,84.4c-6.5,1-10.8,4-16.3,7.1l-5.3-11.5c0-2.5,14.9-8.2,18.1-8.4,1.6.5,4.6,11.1,3.5,12.8ZM1048.6,37.6c1.6.9,1.7,2.2,2.4,3.6,2,3.9,10.2,22.3,10.6,25.4.4,2.9-4,3.4-5.9,2.9-3.3-1-8.8-12.9-8.8-16.3l1.6-15.5ZM1037.1,79.5c-1.5-1.5,3.2-8.7,4.3-10.2.8-1.1.7-2.2,2.7-1.8,4.8,8.7,1.8,10.1-7,12ZM1043.6,29.6c1.9,0,3,14.8-.5,16,.5-2.7-.7-5.2-.9-7.6-.1-1.8-.2-7,1.4-8.3ZM1040.7,54.6c1.1-1.5-1-4.8,2.4-4.1,0,3.8-.8,9.6-4,12-.1-1.4.3-3,0-4.4-.2-1-3.1,0-2-2.6,1.1,0,2.9,0,3.6-.9ZM1035.1,13.6c3.4,1,2.6,11.9.5,12-3.3-3,.7-8.1-.5-12ZM1028.6,24.6c-3.4-2.9-4.8-7.6-4.5-12l1.2,3.8c2.9,0,2.1,5,4.2,4.2,4.1-1.5-1.2-4.7-1.5-5.5v-1.5s6-3,6-3c-.9,2.1-1.9,14.8-5.5,14ZM1030.3,31.4l-.2-5.8c5.7.2,5.4,3,2.9,6.9l-2.7-1.1ZM985.2,119.6c5,.3,6.4-3.3,9-5.5,4.3-3.5,9.2-6.9,12.9-11.3,3.6-4.2,6.2-7.7,9.7-12.1,2.5-3.1,6.6-4.8,5.4-10.1l1,2,2.5-1c-.3-2.3-.6-3.6,0-6,.7-2.9,3.1-3.8,3.5-4.8,1.5-3.8,1.6-8.9,5.1-12.7,3-.6.7,6.2,1,6.5.6.7,4.6-2.8,4,.5-2.4,13-19.7,35.1-29.5,44.5-2.5,2.4-10.1,8.9-13,11-4.5,3.2-12.2,8.5-11.4-.9ZM983.1,128.5c-4-.6-7-2.2-6.9-6.6,0-8.8,8.5,4.9,6.9,6.6ZM897.9,147.5c2.1-1.4,5.8-2.9,8.2-4.6,10.7-7.4,28-15.9,40.1-20.9,3.5-1.4,18.2-5.7,20.9-4,.7.5,6,8,6,9.1.2,2.3-2.4,4-2,6.4-2.8.6-1.9-1-2-3l-8,1c-1,3.6,3.3,1.3,4,2,.1,1.3-.2,2.8,0,4,3-1,5.3-2.9,8.9-1.9l1,6.9c-3.7.3-9.3-.9-10-5-.7.2-1.6,1.4-2.7,1.7-3.1,1-7.4.9-10.7,2.2l-3.6-5.9c2.8.7,5.7.5,8.5,0,1.6-.3,1.7.7,1.5-2-4-1.2-6.3.1-9.5.5-3.1.4-7.6-2.3-3.6,4.1l-8.4,8.3-2-2.1-3.4,1.1-.5-4c-3.6-3.4-4.6,1.9-5.8,2.7-3.5,2.3-9.2-2.4-7.7,6.3l-2.5-3-6.1,2.9.6,5c-2.7.3-3.7-2.9-4-5l-6,2c1.3-3.1-4-3.2-1.3-5ZM962.2,150.5c-4.7-.5-14.6-5.3-4.3-6.8,1.5-.2,2.8.5,4.2.9v5.9ZM946.3,158c1-1.2-.7-7.8,4.9-3,.4,1.8-6.3,8-9,6.5.4-1.9,3.1-2.2,4.1-3.4ZM948.2,143.5l-2.1,5.8c-8.6,1.2-5.1-9.6,2.1-5.8ZM936.2,149.5l-2.6,3.9-10.3-1.9c1.2-6.5,8.7-2.7,13-2ZM911.2,157.4c.3-2.1-1.5-6.8,1.9-6v4s6-.6,6-.6l1.5,2.5-1,2-8.5-2ZM914.2,164.9v4.5c-3.3.1-6.2-2-7-5l7,.5ZM896.9,157.6c10.5,5.8-.7,7.6-6.1,9.8-4.8-5.7,1.3-8.1,6.1-9.8ZM601.4,125.5c-3.2-2.9,8.9-2.8,9,.5,0,3.5-7.7-.6-9-.5ZM644,87.3c2.4.7,10.7,0,11.2.3.3.2.6,2.7,1.7,3.9,1,1.2,3.4,1.8,4,3,.8,1.8.2,3.7.6,5.5.3,1.4,1.6,2.4,1.5,3.6-.1,1.7-2.4,1.9-2.9,3.2-.5,1.4.5,3.6-.6,4.2-.5.3-11,4.4-11.7,4.5-3.5.3-5.2-2.4-8.6-1.8-2.4.4-5.2,3.5-6.4,3.7-1.2.2-2.4-1.6-3.9-1.9-.5,0-10.2,0-10.9,0-2.1.2-2.9,2.8-5,3.1-4.1.5-11.9-.4-16-.1-3.5.2-6.9,4.6-11.5-.4,5.7-3.2,11.7-6.3,17.1-9.9,8.2-5.3,18.8-12.6,25.4-19.6,1.3-1.3,6.4-8.9,7-9,2.3-.6,2,3,2.8,3.7.3.3,6,4,6.4,4.1ZM596.9,127.5c-3.4.5-8.4.4-8.5-4l10,2c1.5,1.4-.1,1.8-1.5,2ZM578.4,128c-1.5-.7-2.5.1-2-2.5l10,2c.8,4-6.3,1.2-8,.4ZM526.4,77.5c-5-.2-14.1,3.2-16-3,6.7,3.4,12.6-4.4,16,3ZM457,63.6c11.1-1.4,29.6-.4,40.9.1,3.3.2,6.9,1.5,10.5.8.5,2.8-.5,1.7-2.4,2.2-4.3,1-4.7-1-7-.9-1.5,0-3,1.5-5,1.5-2.2,0-4.9-2-7.1-1.7-4.3.5-6.8,1.3-12,1-7.9-.5-15.4-1.8-23.5-.5,1.5-1,3.9-2.2,5.6-2.4ZM487.4,73.5h-15c4.1-4.6,8.3-2.8,13.5-2,1.7.3,1.7-.6,1.5,2ZM450.4,63.6c.7,4.1-6.3,1.2-8.5,1.2-2.2,0-5,1.4-7.5.8,4-5,10.7-1.2,16-2ZM379.5,105.5c.2-5-1-6.6-6-7l1.5-3c3.4-1.1,2.3,3,4.9,3l11.5-4-2,1.5c9.1,4.7-4.6,9.6-10,9.5ZM387.2,83.4c-.7-.3-12.4-2.4-9.7-4.8,6.5,2.3,14.9,2.9,19,9-3.4-.4-6.2-3-9.3-4.2ZM396.5,62.1c2.3-2.3,3-2.6,5.6-1.1.3.2.3,1.6,1,1.7,2,.2,6-3.1,5.4.9-2.3-.7-5.6,1.3-7.4,1-.3,0-1.5-3.3-4.6-2.5ZM398.5,89c6.6-1.3,14,5.6,20.4,4.5,3.3-.6,8-3.3,11.1-5l-2.5-3,6-1c-2.5,3-1.4,7.2-2,11,1.8.6,3.2-1.7,4.5-1.6.8,0,2,1.6,4,1.7,5.9.3,9.7,1.5,14.1,1.9,1.9.2,4.3-1.5,6.5-1l-1,2c3.8-2.7,7.9,1,9.3.8,1.4-.1,2.9-2.2,5-1.9.6,0,.4,1.7,1.4,2,1.6.5,4.4.4,6.2,1.1-1.7-3.1,2.3-4,5-4l.5,3c3.5-1.8,7.3-2.7,11-4,1.4-.5,3,1.2,2.5-2-3.4-1.5-8.1,2.4-10.4,2-.6,0-.5-1.6-1.4-2-4.7-1.7-9.2-2.3-13.7-5.1-1.3-.8-2.9-.8-2.5-3,5.3-.7,8.2,4.7,13,0l-.7,2.5,1.2,1.5c4.1-2.2,8.4.6,11.9,0,1.8-.3,3-2.3,5-2,1.5.2,2.6,2,4.1,2,1.7,0,3.3-2,5-1.9,1.7,0,3.9,3,6.5,2l-3-4c3.2-1.3,7.4-1.3,10.3-2,.3,0,3.8-1.6,5.9-2.2,4.7-1.5,11.7-5,16.3-5.7,1.8-.3,2.2,1.1,1.5,2-.2.3-2.9-.9-2,2,3.4.6,5.2-2.3,8.5-2.1,1.8,0,1.3,1.9,2.2,2.1,5.3,1.3,5.3-1.7,6-1.9,3.1-.8,4.7-1.9,5-2,10.6-2.4,21.5-2.2,32.6-4.3.8-.2,1.6-1.1,2.2-1.7,2.5,1.1,0,3.4.5,3.9.4.5,7.4,1.7,8.6,4.1.8,1.5-2.9,4,4.9,3.8,10.1-.3,5.9-5.8,7.9-8.9.8-1.3,3.9-.7,5.5-1.5,1.8-.9,2.7-3.3,5.6-3.4,7.2-.5.3,4.7-1.2,6.4-14.4,16.3-24.3,25.2-43.2,36.2-8.6,5-36.5,16.6-45.7,16.2-1.7,0-2.8-1.5-4.1-1.6-22.2-2-34.3-7.4-55.2-14.9-19.3-6.9-30.8-9.4-50.6-11.5-12.8-1.4-28-.8-38.5-9.3ZM465.9,137.5c-4-1.6-5.5-6.2-3.4-9.9h3.3s1.5,1.5,1.5,1.5c.3,1.8.7,7.9-1.4,8.3ZM489.4,136.5l11.1,1.4.8,7.5c-9.3,3.2-11,0-11.9-8.9ZM494.9,123.5c-2.1-.5-4.7.4-6.8,0-.8-.2-.3-1.9-2.1-2.1-3.5-.3-5.4,1.4-8.5,2.1-.3-2.2-3.1-6.9-4.8-8-4-2.9-20.7-7.9-26.7-10-1.6-.6-3-.6-2.6-2.9,25.4,2.9,48.1,12.9,72,21,1.9,1.8-5.1,4.1-6.4,4-2.9-.2-10.6-3.2-14.1-3.9ZM517.4,139.5l7.9-1.9,2.1,5.8c-5.7,3.1-7.3,1.7-9.9-3.9ZM533.1,149.2c-3.1,2.5-7.2.7-10.7.3-.7-3.3,2.3-1.2,4.5-3,3.4-2.8,2.7-6.8-.5-9.4-5.5-4.5-7.6,1.9-9.4,1.4l-1.5-4-1.8.5-2.1,3.5c-.4-11.3,21.5-12.1,23.8-2.3.8,3.3.7,10.7-2.1,13ZM540.4,145.5l.6-3.1-2.6-1,1.7-1.8,67.3-5.2c.3,2.3-.6,4-2.7,4.8-6.8-.4-13.2,1.5-19.8,2.2-5.2.6-14.9-.8-19.5,2.5-1.6,1.1,0,13.3,1,14.9.5.8,4.2.4,4,5.6-6.2-3.3-9.9,3.5-14.9,1.9.7-5.1-5.6-8.7.9-11.3-5.3-3.4-8.8-10.6-16-9.5ZM453.2,349c-2.4-.8-6.4-1.6-7.8-3.7,4.6.7,10.2,2.2,14.6,3.9,1.3.5,3.1.2,3.4,2.1-3.5,0-6.9-1.2-10.2-2.3ZM459.9,408.2c2.5,1.7.6,1.9.3,3.2-1.4,6.8-4.3,11.8-6.3,17.7-16.4,49.8-33,99.6-50.8,149.1l-5.7,19.8,3.2-2.3,62.2-181.6c3.8-5,16.6,3,21.5,5.5,2.3,1.2,16.3,9,17.1,10,2.1,2.7-2.3,6.8-3.3,8.8-11.7,22.9-23.4,45.8-35.4,68.5-11.8,22.3-26.3,54-40,74-3.7,5.5-18.4,21.4-23.4,25.5-.5.4-2.8,1.7-3,1.6-.4-.9,2.7-7,0-6.5l-5.6,12.4-16.9,17c-2.8-1-3.7-10.5-3.8-13.7l50.6-115.3,39.1-93.8ZM645.3,661c-1.2-4-4.1-9.8,2-11-.5,3.3,1.7,9-2,11ZM648.3,685.5l3-1.1c-1.9-6.3.8-13,0-20-.3-3.1-1.8-5.5-2-8.9-.3-4.5,1.3-10,.6-13.9-.4-2.4-2-3.9-2.2-5.2-.2-1.4,1.3-3.8,2.6-2.5.7.7,2.8,16.2,3,18.5.6,8.6,2.1,31.2.8,38.7-.7,4.1-2.8,8.7-7.7,7.7,1.8-4.6,1.2-8.7,2-13.4ZM647,623.8c-.5-1.7-4.4-7.1.3-6.8l3,13c-3.9.2-2.6-4-3.3-6.2ZM645.3,640c-1.4-.7-3.6-4.1-4-5.5-.6-2.8-1.7-10-2-13-.4-3.7.2-7.7,0-11.5,4.2,3.9,3.3,11.5,4,16.4.7,4.1,3.4,8.3,1.9,13.5ZM572.8,737c-35.8-4.8-75.2-7.9-110.7-14.2-2.5-.4-22.6-7.2-22.6-8.4l198.9,4.5-5,25.9c-20.2-1.1-40.4-5.1-60.5-7.8ZM631.3,752.4c-4,10.4-6.6,25.3-12.2,34.7-.7,1.2-1.3,2.7-3,2.5l-144.6-60.7c-1-3.2,4.5-2.1,6.4-1.9,30.4,4,60.7,9.5,91.2,13.8,16.6,2.3,34.3,3.4,50.7,6.2,3.3.6,11.6,1.1,11.6,5.3ZM441.1,717.3c.5.2.9,2,2.3,1.6.4,4.4-2.4.5-3.7.2-5.3-1.1-10.7-1.5-16.1-2.9-1.8-.5-2.6.3-2.2-2.3,6.9.3,13.3.2,19.6,3.4ZM433.4,698.9h24.5c.2,0,1.6,1.3,1.5,2h-24.5c-.2,0-1.6-1.3-1.5-2ZM549.4,703.9c3.1,2.5-7,2.2-8.3,1.8-5.7-7.2,4.4-1.5,8.3-1.8ZM579.4,705.9v-1h29v1h-29ZM602.9,698.9c-59.1-2.8-118.9,1-177.9-3-7.6-.5-8.9-1.6-14.8-4.2-2.7-1.2-11.3-3.7-12.7-5.3-4.4-4.9,5.7-8,8.7-9.9,1.7-1.1,1.3-3.7,5.8-3.7,56.2,7,112.5,13.5,168.8,18.1l39.6,7.9c-3.5,4.1-12.3.2-17.4,0ZM393.5,702.5c-.9-3-1.9-4.7-3-7.5h4.5c0,0,.5,10,.5,10-3.1.5-1.5-1-2-2.5ZM394.4,680.4c-1.8.6-8.9,1.3-8.9-1,0-3.2,3.8-2.2,5.2-2.8,1.9-.8,13.1-6.4,13.8-5.7,2.4,2.4-9,9.1-10,9.4ZM354.5,657c-.8-.7,7-9.8,8.2-10.3,2.9-1.1,4.3-.6,5.7,2.3h-5c-.5,4.3,1.7,7.3,5.9,4.9v-3.8c9.6,2.7-4.6,7,6.1,10.5l-2,5.4c-11.9,3.1-7-11.5-18.9-8.9ZM352.8,675.7c-.6-.5-1.7-3.3-1.3-3.7,15.3.3,6.7,8.7,1.3,3.7ZM346.5,528.6c-.4,19.2-4.6,38.2-6.9,57-.5,3.7.1,7.7,0,11.4-4.5,0-3.5-4.3-4.5-7-22.3-57.1-45.2-117.8-65.1-175.7-1.2-3.4-5.8-14.4-2.6-16.2,10.6-2.2,21.2-5.1,31.9-6.8,3.6-.6,10.9-2.1,13.9-2.1,1.2,0,1.9.4,2.2,1.6l31.1,137.7ZM319,392.3l1.5-3.6c2.3.2,7-1.5,8.5-1.5h34c.4.1,2.1,1.9,2.2,2.5l-17.6,130.4c-8.2-42.9-18.8-85.2-28.5-127.8ZM339.3,616.3c.6-1.4.2-1.5,2.2-1.2-.9,4.1,2.5,7.6,3.5,11,1,3.5-2.9,3.8-5.1,2-2.7-2.2-1.9-9-.6-11.8ZM340.5,603.6c.1-8.6,3.8-22,4.9-31.1.7-5.9,1.4-12,2.1-17.9.5-4.2-1.7-10.9,2-13.5l11.9,49.4c-4.7,8.9-7.7,20.6-12.7,29.2-.8,1.4-1.2,2.7-3.2,2.3.1-6.1-5.1-12.6-5-18.4ZM361.5,637.6c.2-2.1,4.7-9.6,5.5-12.5,1.8,0,3.7,7.6,3.3,9.3-.5,2.3-9.6,10.8-8.8,3.3ZM383.5,633c.7,5.7-3.9,10.5-4,16h-2.9c-3-8.5-.9-12.5,6.9-16ZM385.3,624.1c.8-.6.7-1.9,3.1-1.1,2,1.9-6.7,8.2-9,8-1.7-1.9,4.5-5.9,5.9-6.9ZM389.7,627.3l11.7-5.2-14.2,28.8-7.8,2.2,10.2-25.7ZM395.4,612.5c1.1-1.1,2.9-1.1,3.7-1.9,4.8-4.6,10-11.5,14.9-15.6,1.1-.9,1.6-2.4,3.5-2l-11,20.5-15,9.5c-1.1-1.3,2.6-9.2,3.9-10.5ZM394.5,672l-7.7,2.8-3.3-1.3c-.8-3.8,8.9-2.5,11-1.5ZM618.4,696c5.3.4,12.1.3,17.2,1.2,1.9.3,5.1,1.1,4.7,3.8l-13.2-2.2-8.7-2.7ZM456.4,662.5c0-2.4,20.7-1.3,23.5-1.5,48.2-3.2,96.6-10.3,144.9-12,2.4,0,16.5-2.5,16.5,2.5v30l-184.9-19ZM641.7,600.2c-2-4.7-4-11.1-4.3-16.1,1.7.3,1.7,2,2.3,3.2,2.1,4.9,3.6,11.5,4.7,16.8-1.4,0-2.2-2.7-2.6-3.8ZM637.4,630.4c.2,1.6,1.6,2.7,1.9,4.1.5,3.1-.2,6.3,0,9.4-10.9.4-21.7,2.1-32.5,3-59.8,5-122.9,7.3-181.7,17.2-4.3.7-6.7,4-10.7,4.8-1-.9,2.1-3.8,3.1-4.4,1-.5,7.6-3.1,8.7-3.4,3.3-.8,4.2,2.4,7.4,1.6,2-.5,8.3-4.4,11.6-5.5,44-15.1,88.5-28.8,132.6-43.3,6.5-2.1,50.1-18.5,52.3-16.9,4.4,11,5.4,21.8,7.2,33.3ZM632.4,572.4c-1.1-6.9-7-12.7-7-20.3,1.3.3,2.2,1.6,2.7,2.8,2.7,5.8,4.9,12.2,7.3,18.2l-3-.7ZM628.3,590.6c0,1.2-.5,1.8-1.6,2.3l-193.3,66c-1.7-1.4,1.3-2.2,1.9-2.6,4.1-2.6,9-5.1,13.4-7.4l159.2-103.8c.8,0,1.4.4,2,.9.6.5,7.1,11.2,7.6,12.4,1.4,3.4,1.2,6.5,2.1,8.9,2.3,6,9,17.5,8.6,23.4ZM604.3,542.5c-51.8,33.2-102.9,67.3-154.4,100.9-7.7,5-15.3,10.4-23,15.5-12.2,0-24.3-5.6-36.4-4.9-1.8-1.8,6.3-13.9,7.4-16.1,2.6-5.1,7.7-18.4,11.1-21.9,3.4-3.6,24.5-15.5,30.5-19.5,44.6-29.8,91.4-59.8,136.6-90.2,1.6-.8,5-2.4,6.6-2,.5.1,7.2,5.7,7.7,6.3,2.3,2.6,13.4,20.2,14.7,23.3,1.2,2.9,1.4,6.2-.8,8.7ZM581.4,492.1l-4.5-2-6.5-10c1.1-1.1,8.4,7.3,9.5,8.6.9,1,2.2.4,1.5,3.4ZM571,487.5c1.2,1.4,1.7,3.3,2.9,4.6,1.8,2,7.4,5.7,4.4,8.5-35.6,23-71.1,46.1-106.4,69.5-19.4,12.8-38.1,26.9-58,38.9-1.4.9-2.5.7-2.5-.5l16.9-29c5.4-1.6,6.8-5.8,10-9,35.1-34.6,69.8-69.3,104.4-104.5,2.3-1.6,4.8-1.4,7.1,0,2.3,1.3,11.3,11.3,13.9,14,2.1,2.2,5.8,5.8,7.1,7.3ZM542.3,461.5c-25.3,25.2-50.2,50.8-75.2,76.3-4.6,4.6-9.1,9.3-13.6,13.9-6.8,6.9-13.8,13.6-20.5,20.4v-3c25.5-40.7,43.9-87.7,68.2-128.6.4-.6,3.5-5.1,3.7-5.3.8-.8,2.3-1.8,3.6-1.4,2.3.7,20.3,14,23.5,16.5,2.4,1.9,11.1,8.5,10.4,11.3ZM420.8,395.5c6,.2,17.5,7.1,24.6,6.8l-73.9,163.8c14.2-49.6,26.7-99.7,39.7-149.6,1.3-4.9,2.3-21.2,9.6-21ZM370.1,388.4c1.7-.6,4.9-.2,6.8-.2,6.4.3,17.2,2,23.7,3.2,3,.5,11.6,1.6,11.8,4.2l-49.5,189.3c-1.6-.9-1.3-2-1.5-3.5-2.8-17.2-7.8-34.5-11.1-52,7.6-45.3,10.2-91.5,17.1-136.8.2-1.6.9-3.8,2.6-4.4ZM327.5,380.3c1.2.4,2.9-1,3.5-1h36.5v2h-40v-1ZM235.6,395.8c1.3-.5,9.7-2.7,10.4-2.6,1.9,2-1.1,1.9-2.5,4,1.3-.2,3,.4,4.3-.1,1.5-.6,1.4-2.4,1.8-2.8.7-.5,4.2,2.2,4.8-1.1l-4-1c3.1-2,6.6.6,9.3,0,.7-.2.6-2,1.3-2.1,1.6-.2,3.5,1.5,5.7.9,2-.5,3.3-4.1,5.4-4.7,2.1-.6,4.5,0,6.6-.4,3.2-.7,10.2-4.5,14.4-4.6,1.3,0,3.4,1.8,6.8,1.9,4,0,5.7-1.7,9-2.1,5.4-.7,12,.5,17.5,0l-42.2,6.2c-7.2,2.8-15.4,4-22.7,6.3-4.1,1.3-25.9,11-28,9.5.8-3.4,9.1-3.5,9.9-4.1.4-.3,0-1.6,0-1.9-5.5.7-9.6,2.6-15,3,1.2-1.7,5.2-3.7,7.1-4.4ZM177.9,441.4l33.8-20.7,3.8-.4,91.1,184.6c-1.3,1.3-8.7-6.2-9.6-6.8-12.3-8.6-33.8-20.5-43.9-30.1-3.3-3.1-9.9-14.5-12.8-19.1-12.3-19.2-23.3-39.3-35.2-58.7-9.3-15.2-20.3-29.7-28.2-45.6l1.2-3.2ZM299.1,643.4c-.5-.6-2,.1-1.6-1.4,6,.4,10.8,4.9,16,7.5-8.6,5.2-10.2-1-14.4-6.1ZM305.5,661l-13-4c.5-2.8,9.9-2.4,10.8-1.8l2.2,5.8ZM322.3,654.2l.3,4.1c-4.3,1.1-4.9,4.8-8.8,6.5l-6.3-8.4c0-4,11.9-3.6,14.8-2.3ZM329.5,657l-3-4h4s-.2,9.8-.2,9.8l-13.8,7.2c-2.3-2.8,10-13.1,13-13ZM329.8,645.2l-14.3-29.2,18.5,12-1.5,20-2.7-2.8ZM326.9,645.1c.4,1.3.9,2.5.5,3.9-3.3.6-6.3,1.8-9.5,0l-23.5-14.5-36.9-58.5c.8-.8,5.3,2.4,6.3,3.2,12.7,8.7,24.9,18.7,37.7,27.2,2.2,1.5,6,1.7,7.9,4,1.4,1.8,16.5,31.8,17.4,34.6ZM175.6,435.2l-3.1,3.4-13.9,9.5c4.6-5,10.6-10.8,17-13ZM134.6,479.9c9.8-9.8,19.6-20.1,30.6-28.7,2.3-1.8,5.7-5.3,8.5-3.6l70.9,113.4c-4.6.6-7.3-4.2-10.2-6.3-32.7-22.9-65.5-45.4-97.9-68.6l-2.3-4.6.5-1.7ZM127.8,487.4l4.2-.2c23.6,17,47.3,33.7,71.1,50.3,14.3,10,28.7,22.1,44.4,28.9,10.6,19,24,36.3,35,55.1.7,1.2,4.5,8,4,8.5l-180.3-108-1.1-1.8c-.9-4,19.8-27.7,22.7-32.8ZM90.6,516.8l6-5.7c.2,4.3-3.9,6.9-5.3,9.2-2.4,3.8-2.9,8.5-7.6,10.7-.1-6.2,6.1-8.3,7-14.3ZM99.8,526.7l4-2.2c20.2,13.2,40.8,25.9,61.6,38.3,39,23.3,79,45,117.8,68.6,3.6,2.2,6.4,3.3,9.4,7.1,1.1,1.4,7,10.9,7,11.9l-14.2,2.3c-57.7-26.1-116.7-49.2-174.4-75.5-4.1-1.9-28-12.3-28.9-14.1l17.7-36.4ZM78.8,569.2h6.1c63.9,29.6,129.4,55.8,193.6,84.3l-71.2,6.3c-42.8-17.3-91-28.7-133.2-46.7-2.2-.9-7.3-2.9-7.3-5.3l11.9-38.5ZM64.9,617.8c.4-1.2,1.2-2.2,2.4-2.6,3.1-.9,17.8,6,22.1,7.5,35.6,12.1,71.2,23.8,106.6,36.3,1.3.5,3.1,0,3.5,2l-139.9,10c-.9-17.9,1.8-35.6,5.2-53.1ZM80.1,675c34.3-2.9,68.7-7.1,103-10,11.7-1,21-1.9,32.5,0-.3-.5-.4-2.2-1-3,8.4-.6,17.1-.4,25.5-1,13.5-1,35.6-5.6,48-4,2.7.3,9.3,4.7,13,6,4.2,1.5,10.3.5,10.3,7.6,0,6.1-5.9,3.9-9.3,4.6-9.2,1.8-19.1,4.5-28.1,5.9-8.8,1.3-44.8-13.6-58.4-15.9,2.1,3.2,3.7,1.3,6.2,2.3,12.1,4.7,23.8,9.9,36.3,13.7,1.5.5,3-1.2,2.5,2-2.1.2-4.4-.4-6.4,0-39.3,8.2-80,13.4-119.9,20-21,3.5-44.3,9.6-65.2,11.8-1.9.2-3.8.3-5.8,0l-1.5-1.5-2.7-36.4c2.2-3.2,16.8-1.6,21.1-2ZM303.5,698.4l-9.5,4.5c-1.2.4-2-.2-1.5-1.5,1.1-2.4,12-6.9,9-10.5-8.1,1.4-16.5-5.8-25-6-.2-2.6-.2-1.7,1.5-2,9.8-1.7,19.6-3.5,29.5-5,1.2,8-9.2,12.5-4,20.4ZM295.5,694.5c-8.8,13.7-27.6,14.4-42.2,18.8-58.1,17.2-116.6,33.3-174.4,51.4-8.9,2.3-7.8-7.3-9.5-13-1.9-6.5-4.6-13.4-5.7-20.3-1.7-11-1.8-12.3,9.5-14.4,62.6-11.5,126.7-21.5,189.1-31.8,2.5-.4,5-.6,7.5,0l25.7,9.3ZM294.8,705.7c2.8,0,10-5.2,8.5.5-.3,1.3-14.8,19.1-16.8,21.2-.7.8-1.8,1.1-2.6,1.9-8.1,7.4-20.7,10.4-31.2,14.2-2.6,1-6,5-8.1,1.9,8-6.8,16.3-13.5,24.2-20.6,5.7-5.1,16.6-17.9,22.8-20.5,1-.4,1.8,1.3,3.3,1.3ZM302,711.9l3.6-.9c-.2,2.6,1,5,2.1,7.2.4.9,3.5,1.3,1.4,3.9-.7.9-17.9,6.8-20.5,6.9l13.4-17ZM49.6,685.4l3-9.4c-2,6.9,4.2,18.8-2,23l-1.1-13.5ZM51.7,702.9c3.2,2.5,2.6,9.2,3,13-3.8-3-3-8.7-3-13ZM114.6,858.8c-5.5,1.2-4.3-1.1-6.4-3-7.3-6.6-8-10.9-12.7-18.3-2.6-4.1-7.7-6.5-6.9-12,4.5-1.8,1.3-4.4-1.5-.7-3.2-2.6-3.8-6.5-5.4-9.5-1.4-2.6-4.5-4.2-4-7.4,4.8.4,3.7-3.8,4-4,.8-.7,9.1,4.3,3.4-8.9-1.2-2.8-4.5-5.3-4.4-9.1-13.9,5.6-1.5,12.9-2,19.5-.4,6.6-6.1-4.4-6.8-6.2-2.8-6.6-5.3-14.5-7.7-21.3-1.2-3.4-7-18.2-6.5-20.3.2-.8,2.1-.3,2.1-2.1,0-3.3-4-7.5.9-10.5-1.2,3.9,1.9,6.1,2.7,8.8,1,3.2,3.8,10.5-.7,10.2v2c6.7,1.6,3.9,4.8,4.3,8.4.2,1.7,2.1,2.8,2.5,4.3,1,3.8-.7,8.6,4.2,11.3l.9-5.6c1.7-2.3,3.8-.1,4.1-.4.6-4.8-3.5-7-3-11-1-1.3-4.1,2.8-4,4-2.5.7-2.5-1.4-1.9-3.2.4-1.3,7.7-5.4,9.2-6,22.3-8.5,51.6-14,75.1-20.9,41.8-12.3,83.5-25.4,125.5-36.8l-39.9,37.5c-44,19.8-90,35.5-134.7,54.2-4.2,1.7-8.3,5.7-12.7,5.2-2.5-.3-4.3-2.5-7.6-1-.5,2.4,1.6,4.7,1.8,6.7.3,3.6-3.4,8.1,3.5,6.4,3.6,2.2,2.9,8.3,4.2,10.9,2.8,5.5,12.5,13.4,16.1,18.3.5.6,4.7,10.3,4.3,10.7ZM192.7,918.9c-5-2.9-11.4-6.5-15.9-9.4-2.5-1.6-4.7-8.9-9.3-5.7l.5-2-4.5,1-.9-5.6c-1.2-1.7-2.4-1.1-4.1-.4-.3-.4,1.1-5.1,1.6-5.9,7-12.9,24.8-30.4,34.4-42.5,9.5-12.1,18.4-24.9,28-36.9,18-22.7,38.4-45.3,55.5-68.4,1-1.4,1.9-2,1.4-4-2.6-2.9-13,14-14,15.2-24.6,29.7-49.4,59.5-73.4,89.8-5.5,6.9-30.7,43.2-36.3,44.7-1.2.3-2.2.3-3.3-.4l-13.5-13.5c-4.2-.4-3.1-3.2-4.9-5-3.4-3.5-8.4-6.2-10.5-11.3l104.9-98.5c-2.2,0-4.5,1.8-6.2,3-7.7,5.5-16.3,15.8-23.7,22.5-18.2,16.3-36.5,32.5-54.6,48.8-3.3,3-20.9,22.4-25.4,19.2-1.3-1.6-1.8-5-3.2-6.3-1-.9-3.1-.8-3.5-1.5-.5-.8-.2-3.1-.9-4.5-2.3-4.4-13.3-22-16.2-24.8-1.7-1.7-4.2-.8-5-3.9,2-.2,4.4-3.4,4.7-3.5,1.4-.4,3.4.3,5.3-.5,43.3-16.5,85.6-36.4,129.3-51.5l2,2c2.6-.8,7.6-7.8,8.3-7.9,2.2-.4,4.6.2,7.3-.5,4-1,11.3-5.5,15.8-7.2,15.9-6.1,32.3-11.3,47.9-18.2,3-.4,9.3,8.4,14.2,7.9.3.4-.9,8.8-1.2,10.1-3,12.6-32,47-41.1,59.8-23.8,33.3-47.5,66.7-71.6,99.6-3.2,4.4-10.1,19.5-16.3,18.2-.6-.1-.7-1.4-1.5-1.9ZM241,940.6l-1.4,1.6-37-17-.7-4.3,119.6-165.1-4.2,25.2-76.3,159.5ZM314.5,797.9l-26.9,158.2c-2.8,3.9-35-9.1-40.8-10.2-5.4-2.8.6-8.9,2.1-12.3,19.9-43.6,40.7-91.7,63.1-133.7.7-1.3-.3-2.6,2.4-2ZM323.5,763.3c.5-4.2-2-13,3-13.4,1.9,7.9,1,11.9-2.7,18.8-.7,1.3.5,2.7-2.3,2.1-.8-2.9,1.7-5.1,1.9-7.5ZM299.8,967c-2.5,0-8.7,0-10.6-.4-25-6-54.6-16.2-78.5-28.6-4.7-2.4-10.9-5.8-15.2-8.8-1.2-.8-2.4,0-1.9-2.6,17.7,9.6,35.7,18.9,54.8,25.6,12.5,4.4,25.9,7.3,37.9,11.1,5.3,1.7,11,.6,16.2,2.3-.5,2.2-1.4,1.4-2.7,1.3ZM333.6,947.1c.3,5.4,4.7,12.6-2.5,16.5-6.7-1.8-34.3-1.8-38-6-3-3.4,1.7-15,2.4-19.5,6.3-40.9,13-82.4,20-123.9,2.8-16.6,1.2-26.5,9.8-42.2.7-1.3-.5-2.7,2.3-2.1.2,5.1-.3,10.4,0,15.5,2.7,53.8,2.7,108.1,6.2,161.7ZM334.2,679.2c-.7,9.4-7.5,11.5-7.8,22.3-.2,7.2,6.8,24.2,4,28.8-2.4,4.1-9.9-5.6-7-9.3l-3.5,3c-1-.4-5.2-6.6-5.9-8.1-.4-.8-4.3-11-4.3-11.6,0-1.6,2-2.9,1.9-5.8,0-2-2.4-1-2.2-2.9.2-2.1,2.8-4.8,2.7-6.1,0-1.1-2.2-1.7-1.7-3.5h3s-1.6-5.1-1.6-5.1c2.1-1.8,3.8-6.4,5.1-7.9,1.9-2.2,10.9-5.2,13.7-6.1,1.2-.4,0-2.8,2.7-2,.2,5.1,1.2,9,.7,14.2ZM330.3,620.7l-17.7-11.2c-28.6-56-55.9-112.8-83.3-169.5-1.6-3.4-11.9-20.3-10.6-22.6,3.5-1,12.1-7,15.2-6,4,1.3,4.7,18.8,14.7,15.4,8-2.7-3.3-15.7-2-21.4l14.2-4,1.6,1.5,74.6,202.2-1.6,18c-3.9,1.1-3.5-1.2-5.2-2.3ZM337.5,631.7c.8-1.9,4.2-.2,4.1,1.9l-6.1,9.5,2-11.3ZM345.5,704.9c-3.6.8-.9-4.2-1.2-7.2-.4-4.4-3.5-5.8-3.8-9.8,8,2.9,4.4,10.4,5,17ZM344.5,657.5l6-2.5c-2.8,2.3-1.3,6.3.9,8.5,1.5,1.5,7.1,1.8,3.6,5.4-5.6-2-7-7.1-10.5-11.5ZM376.4,723.5c-2.7,3.6.8,17.5-10.9,15.4v-6c.4-.4,7.8,2.5,7-2h-21.5c-4.3-4.6-3.2-10.3-2.5-16,2.9-.7,1.9,2.4,3.1,4.4,3.4,5.4,5.4-1.6,10.9,1.7l-1,4c3.2-.8,3.9-2.8,4-6,3.1-.6,2.6,3.3,4,4.5l2-1-2-17.5c-2.4-1.1-1.8,2-2.6,2-.6,0-6.2-.2-6.7-.2-2.6-.4-4.9-3.1-9.1-1.7l-2.6,5.8c-1-9.3-.8-19,1.2-28.3,1.5-6.8,8.9-2.2,13.2-1.7,3.8.4,12.1-1.4,13.8-.9,2.9.8,1.5,5.2,5.8,3.3l3.8,5.2c-2.7,8.6-.1,22.5-2.3,30.4-1.1,3.9-6.8,3.4-7.7,4.5ZM383.3,752h-2.8c.2-1.9.5-4.8,3-4.1l7,15c-1.6,1.7-8-8.8-7.2-10.9ZM515.9,913.7c-4.9,4-24.4,15.5-30.3,17.7-2,.8-3.3,1.4-5.2-.2-1.2-1.2-.8-3.2-1.6-4.5-18.2-29.8-34.2-65.3-50.6-97.3-7.8-15.2-16.3-30.2-23.8-45.6,2.3-.6,2.3,1.7,3.3,2.6,21.5,19.2,45.2,47.3,65.2,68.7,15.2,16.3,29.9,32.8,45.5,49,2.4,4.1.8,6.8-2.6,9.5ZM576.3,875.2c-2.4,2.9-1.9,8.2-8,2l2-.5c-1.9-4.9,5.6-7.9,8.5-11l2,2c1.4-.6,3.2-6,5.5-4,1.6,1.4-9.3,10.6-10,11.5ZM584.8,847.7c-6.3,8.9-14.1,16.6-20.8,25.1l-2.1,1c-1.3,0-8.6-7.6-10.1-9.4-26.7-31.6-54.9-72.5-84.4-99.5,23.2,33.5,53.8,67.1,79.9,99.2,3.6,4.4,12,9,9.1,16.3l-29.6,24.5c-4.8,1.9-7.4-5.3-9.8-7.7-32-32.4-62.5-66.5-93.6-99.8-7.6-8.2-19.2-17.4-25.2-26.7-6.8-10.4-11.2-24.1-18.4-34.6-1.2-8.6,6.5-8.5,10.6-11.5,1.9-1.4,2.2-4.1,4.9-5,9.9-3.3,23,2.3,33.4,2.5.8,4,3.7,3.7,6.1,6,11.7,11.1,20,25.4,32.5,36.9-4.8-6.9-8.9-14.4-14.6-20.9-1.9-2.2-11.1-8.2-3.5-6.5l140.8,99.5c1.4,2.4-3.8,8.4-5.4,10.7ZM593.8,833.6c-.8.2-4.4-.9-5.3-1.4l-50.7-35.8-105.3-74.5c9.7,1.4,22.4,1.3,31.5,4.9,5.6,2.2,12.6,6.8,18.6,9.4,36.4,15.6,73.1,30.5,109.3,46.6,3.8,1.7,19.1,7.9,21,9.9,2.3,2.5,1.6,3.9.7,6.8-1.2,3.9-17.6,33.5-19.8,34.1ZM602.2,839.7c-.7.7-3,.5-3.6,1.4-.7,1-.9,6.1-1.2,7.8-2.7.7-2.7-2.4-2.8-4.3l10.8-16.7c2.4,5.1-.6,6.5-3.3,10-.3.4.3,1.7.2,1.8ZM646.4,740.2c-.2,1-2.4.9-2.9,2.3-.9,2.4.4,6.2-.2,8.7-.2.7-1.5.7-1.7.9-3.1,7-4.4,16.6-5.6,24.3-.2,1.1-2.4,1-2.7,2.1-.5,2.1.6,5.1-.2,7.6-.4,1.3-2.1,2-2.6,3.4-.8,2.5-.9,6.5-2.2,9.3l-4-6,2,8h-2.8c-.4,2-.7,5-2.1,6.3-1.2,1.1-2.9.5-3.1.7-.1.1,1.1,1.9.8,3.2-.2,1.2-3.2,6.4-4.4,6.6l-3.4-.8,13.5-27,1,2c2.2-.8,1.4-8.2,2-11,1.3-6.6,6.1-15.7,8.2-22.7,3-10.1,5.8-20.7,6.3-31.2l5.5,2,.5,8-2.7-5.9-2.3-2.1c-.3,3.5,3.8,7.9,3.1,11.3ZM647.3,726.9l-.5-3c-7.5-2.2-1.4-3.3,2-4.9,2.2,0,1.1,10.6-1.5,8ZM643.7,706c-2,0-3.8,1-5.8.9-5.3-.2-12-1.6-17.5-1.5l5.5-1.5,29.5,1.1c-2.5,4-8.4,1.1-11.6,1.1ZM624.4,885.8c1.7-5.5,7.5-12.6,11.4-17.1.8-1,0-2.5,2.6-1.9.9.8-12.1,17.6-14,19ZM651.9,833.9l-14.5,21.9c.5-5.8,6.3-11.1,9.2-16.3,3.9-7,6.7-14.5,10.5-21.5.7-1.3-.5-2.7,2.3-2.1l-7.4,18ZM681.6,751.6c-3.2,16.7-8.4,33.3-14.9,49.1-1.3,3.2-2.9,7.8-5.4,10.1l22-68.9c1.2,3.9-1.2,6.8-1.8,9.7ZM685,737.1c-.2,1.2-.1,4-1.7,3.8-1.3-4.5,1.3-8,1.9-11.5.2-.9-.6-11.9,2-8.4.7.9-1.8,13.8-2.3,16.2ZM687.3,655.5v-18.5l2,8.5c-.9,5,1.1,10.3,1.1,14.9,0,2,.6,2.9-2,2.5,1.1-2.4-1-6.2-1-7.5ZM691.3,687h-2v-21h1c-.6,1.6,1,3.8,1,4.5v16.5ZM699.7,686c.4-5.5.8-11,.6-16.6-4.2-122-69.6-235.1-176.3-295.3-5-2.8-35.6-19.3-38.6-17.4l-4,7c11.1,6,22.9,10.8,34,17,13.3,7.4,50.9,31.1,57.9,42.5,26.4,18.3,50.3,50.3,67.3,78.1,1.5,2.5,5,4.7,4.7,8.8l3-1c-1.3,3.4,1.5,3.8,1.9,4.8.6,1.5.4,3.6,1.3,5.5,1.9,4.1,6.6,8.1,5.9,13.6h2.9c-1.8,4.9,2.5,10.1,4.2,14.3,2.6,6.3,7.5,16.6,8.7,23.2.4,2.1.4,2.8-2,2.5l-2-4c0,4.6,2.6,9.3,3.8,13.7,3.5,13.6,6,28.7,8.3,43.7,1.7,11.4,1,9.4-.1,20-.3,2.4-.2,7.7,0,10.1.2,1.8-.3,1.6,2,1.5v-14c1.8.4,1.9,2,2,3.5,1.8,16.1-1.5,35.4-.2,51.9l-5.8,1.6-.5-9c-2.6,2.3-1.2,6-1.5,9-4,1-1.1-5.8-2-7-4-1.1-1.1,5.9-2,7-2.7-1.5-5.2-.1-7.3-.3-.8,0-1.6-1.4-2.3-1.5-1.6-.3-4,3.7-5.8.8-1.6-2.4,0-41.4-.5-48.5-7.2-104.9-78-204.4-171.7-250-3.2-1.6-15.3-7.6-17.7-7.9-3.9-.4-.9,4.3-4.5,3.6-1.4-5.9,2.6-6.5,4.7-9.8,2.9-4.8,5.3-12.1,7.9-17,.5-1,2.2-3.8,3.4-4.1.7,1.5-1.9,6.5.5,7,3,.5,1.3-2.9,1.5-3,2.3-1.3,1.9,1.9,2.4,1.8,3.7-.2,4.3-.7,7.5,2.6l-2,2.5,9.5,4c2.5-2.3-1.4-1.9-1.5-2-2.6-3.9,4.9,0,5.9.6,1,.7,1.3,2.4,2.1,2.9,1.9,1.1,5.3-.2,6,2.5l-3,2c1.9.8,3.5-1.5,4.5-1.6,1.6-.1,13.2,6.7,14.5,8.2,1,1.1.8,3,1.1,3.3.5.5,10.5,1.3,12.4,5.1l-3,1-.5,2c3.2.4,5.8,4.1,8.5,5,3.2,1.1-1.4-3.8,2-3l8.5,7.5-3,.5c.7.5,4.9,4.2,5.3,4.3,1.7.6,3.4-.4,4.7.2.4.2,6.9,5.1,7.3,5.4.9.8,3.7,7.1,4.9,7.8,1.1.6,3.2,0,4.8.7,1.9.9,2.9,4.9,4.3,6.2,1.3,1.2,4.6,1.9,6,3.3,1.8,1.7,4.7,7.1,6.8,9.3,4.6,4.9,22.1,22.2,22.7,27.4.2,1.5-1.1,3.6-.7,5.4l4-3c6.6,11.9,15.1,22.8,21.7,34.7,6.8,12.3,14.1,28.2,19.7,41.2.7,1.6.6,3.3.5,5,2.9,1,2.3-3.7,2-5.3-.2-.7-1.5-.6-1.8-1.5-15-43.5-45.7-87.4-78.5-120.1-5-5-9.7-6.8-13.5-13-7.2-5-14.3-11.7-21.5-17-21.1-15.3-42.9-26.4-66.3-37.6-1.7-.8-6.2-3-6.1-4.8l74.1-172.8,2.4-1.7c3.5-.3,7.6,8.8,9.2,11.8,16.7,32.9,30.1,73.7,44.6,108.3,43.2,102.9,86.6,205.4,129.7,308.8,4.5,10.8,11,23.1,15.4,34.8.9,2.4,3.3,8.9,1.5,10.5-.9.8-10.6,4.9-13.3,6.7-2.7,1.7-6.8,6.1-8.9,7.1-3,1.2-5.7.3-8.7,1.3-2.8.9-6.4,5.6-10,7-2.6,1-14,2.8-15.6.5ZM683.3,612c-2-.4-1.7-2-2-3.5-1.4-7.3-3.6-14.3-4-21.5,2,.4,1.6,2.1,2,3.5,1.9,6.9,3.7,14.4,4,21.5ZM777.3,863.4c-.6,5.3,1.7,20.5-8.4,14.2-3.6-2.2-.9-7.1-.9-10.3.4-35.1,6.7-69.8,9.2-104.9.8-10.5-1.2-9.9-3.6-17.5-1.2-3.7.3-18.8,6.5-19-7.1,10.2-4.5,19.6,9.3,17.8l4.7-6.8c3.3,8.3-1.6,9.7-4.4,16.1-3.1,7.3-1.8,11.3-2.6,18.3-3.6,30.8-6.3,61.6-9.9,92ZM788.8,738l-7.4.8c-1.2-3.1-1.6-9.1,2.4-9.9,6.7-1.3,6.2,4.1,5.1,9.1ZM785.3,718.9l9-1.6,2.9,7-2.5,1.6c-.6.3-.9-.1-1.3-.3-.1,0-.2-1.1-1-1.6-1.8-1-4-1.9-5.7-3-.8-.5-2.1.6-1.5-2.1ZM833.1,689.6c11.5,16,12.7,42.9,5,60.7-1.3,2.9-2.8,5.6-5.4,7.6-3.2,1.3.5-6.4-3.5-5v6.9c-2,1.9-6.7-1.2-8,1.6-1.2,2.5,4.7.3,4.5,3.5l3.5-4,2,1.5-7.9,8.1-1.6.4c-.9-3.6-4.6-2.4-4.5.9,8-.7-3.4,6.8-5.5,8-5.7,3.4-10.3,4.1-16.2,5.8-2.2.6-6.6,4.3-7.8,2.2,1.5-6.6,1.7-13.6,2.7-20.3.3-1.7,1.4-3.3,1.7-5.3.2-1.5-1.1-3-.5-5.4.4-1.7,6.3-8.7,7.6-9.5,1.6-1,3.9,0,4.8-.7,1.5-.9,1.1-9.1,1.2-11.2l-7-3.2c3.8-12.8.5-22-14.3-21.1-10.4.7-13.5,9.8-13.2,18.8-7.8-.2-7.9,2.9-8.1,9.9,1.5,2.5,5.5.8,6.1,1.9.7,1.2.2,3.2.8,4.3,1.2,2.5,3.2,4.5,3.6,7.3,1.8,11.2-2.8,22.2-1.9,33.4l-9-2.4-1-5.5-3.5,2-1.6-4h-2.9s-1.5,3.9-1.5,3.9c-4.6-.8-4-7.5-4.5-8-2.8-2.2-1.3,4.5-4,3v-7s-5,1.5-5,1.5c-4.1-2.9-2.2-11-4.5-13.5-2.1-2.4-5.9,1.6-4.5-6l-4,2v-6s-3,1-3,1c-.7-1.9,1.6-3.5,1.6-4.5,0-1.3-2-3.4-2.4-5.2-.9-4.2-1.3-9.8.6-13.8l-8.4-3.4-1-14.1,3.9-1c1.6,3.1,3.8,4.7,6.6,1.5-3.2-6.3-.7-4.5.8-8.2,5.8-14.5,15.8-24.5,30.8-31.1,13.9-6.1,19.3-5.5,33.9-4,10.2,1,17.5,2,26.5,8.4,1.1.8,1.5,2.7,2.2,3.2,5.3,3.9,11.2,7.9,15.6,13.9ZM813.2,513.1l2,5h-2.9c0,0,0,2.5,0,2.5l-4.1.5c-.5-.5,2.3-5.6,2.9-6.6.5-.9-.5-2,2.1-1.4ZM813.3,488.1c.5-.4,3.1.7,3.7,1.3,3,2.9,4.8,14.8-1.2,14.8-5.9,0-4.2-12.6-2.5-16ZM807.2,519.1h-3s-.6-7-.6-7l4.6-1-1,8ZM802,507.3c-3.2.5-4.7,2.9-6.8,4.8,0-10.1,9.4-7,16-5,0,5-6.1-.3-9.2.1ZM802.3,525.8c4.8,1.1,8.1,1.6,6.9,7.3-3.2.9-1.9-2.9-3.2-3.8-.4-.2-7.7-2.1-8.4-2.1-5.4-.3-5.4,3.5-9.4,4.9-2.1-8.4,8.5-7.5,14-6.3ZM791.2,544.1c-.6-4.8.6-9,4.7-11.8,15.4-.3,13.7,18.7-1.7,14.8l2.2,2.3,6.8,3.2c-2,3.3-5.7,2.1-8.9,3.4-1.1-2.2-8.6-12.9-7.1-14.9l4,3ZM801.2,559.1l-10,97.4c-.2,3.7-7.9,3.6-7.9,0l9.9-99.5,8,2ZM1118.7,310.9c-12.5,16.6-28.1,31.9-41.5,47.9-79.9,95.1-160.8,190.5-242.9,283.7-2.9,3.3-20.1,24.7-22.3,24.3l-17.5-6c-1.9-3.4.5-6.7.8-10.3,2.9-30.3,5.8-61.3,9.2-90.9.3-3,.2-8.1,4.1-7.3,2.2.4,2.2,4.4,8.2,3.9,2.8-.3,3.6-1,4.6-3.6,3.1-7.8-13.6-10.4-8.1-20.5.7-.6,7.1,3.3,9.5-2,1.6-3.6-2.2-4.3-3.6-6.4-3.9-5.8,10.6-8.2,12-10.1,2.9-3.8-.7-6-.7-7,0-.7,2.2-1.7,2.6-3.2.1-.4.3-7.8,0-8.2-.3-.5-3.5-.5-4.4-2.1-1.7-2.9-.6-10.9-7.9-10-4.5.6-4.1,3.2-10.1-1-6.1,1.2-1,8-1.6,8.9-3.3.6-3.8,5.2-6.6,6-6.4,1.8-15.2-9.6-18.5-2.6-2.8,5.8,5.3,12.6,5.1,19.3l-2.2,1.3c-7.5-4.6-11,6-4.9,10.8-.9,9.3-10.9-.5-12.8,1.3v3.9c2.1.3,3.5-.7,3,2.1l-3,.5c1.8,3.2,3.4,9.7-1,11l4.9,2.4c4.2-4-.7-12.9,5.1-13.8l.4,5.1,4.5,1v3.8c-2,.3-3.5-.7-3,2.1,8.8-2,6.5,2.1-.5,3l-.5-3c-2.9-.9-5.5,3.1-5.9,5.5-2,10.7,10.3,14.6,15.9,6.4.5,13.6-2.7,27-4,40.5-1.9,19.8-2.4,39.8-5.5,59.4l-3.4,1c-14.5-39.2-31.5-77.3-47.5-115.9-48.2-116.2-95.7-232.7-145.2-348.4-.9-5-.9-8,3.2-11.2,6-4.6,11.7-5.2,19-6,27.8-2.9,57.8-3.1,85.9-5,55.9-3.8,111.9-8.1,167.9-12,7.8-.5,15.5-3,23.5-2-.6,7.4-.1,12.9,6.5,17,7.2,4.6,7.8,1.7,14.2,1.3,14.5-1,27.7-4.8,41.2-10.9,6.7-3,18.1-11.6,23.8-13.1,14.3-3.9,42.8-3.3,58.7-4.2,9.8-.6,33.4-5.5,41,1,1.4,1.2,5.9,7.3,6.9,9.1,21,38.9,33.5,87.7,53.1,127.8,2.9,9.7-4.4,18.3-9.9,25.6ZM811.2,550.1l1.5-7c-.2,3.6,7.8,5.9,4.5,9-1.2,1.1-3.5-3.9-6-2ZM827.2,508.1c-2.3.5-1.6-.3-2.2-1.3-.6-.9-3.7-6.7-3.7-7.1l5.4-3.6c2.9.6-.6,9.6.5,12ZM1178.3,336.1c.7.9,3.4.7,2.7,3.2-2.6,1.8-5.8,1.5-8.2,2.3-6.7,2.3-12.8,7-19.8,3.7l1-3.5c8.4-.2,15.3-5,22.7-8.3l1.9.9c.2.2-.5,1.4-.2,1.8ZM1149.2,327c4-1.4,8.3-2.1,12.3-3.7,4.7-2,7.4-5.7,12.5-6l-5.8,5.8c-7.5.8-13.4,7.3-21.2,6.2-.5-2.8.6-1.7,2.2-2.3ZM1146.1,335.3v-4c5.7.6,9.9-.3,15.1-2.4,6-2.3,10.8-7.3,16.8-9.6,1.8,2-5.4,6.9-6.8,7.7-2.4,1.3-17.6,7.9-18.9,8.2-1.9.4-4.3-.2-6.3,0ZM1151.1,339.3l5.8-3.6c8.2-.7,13.7-7.1,21.1-8.3-4.4,5.7-15.1,9.2-22.1,11.4-1.7.5-3.1.8-4.9.6ZM1095.1,471.2c0,.9-.2,2,.3,2.7.6,1,3.2.8,2.7,2.8l-6,5.5c2.3-4.2-2.3-8.8,3-11ZM1087.1,487.6c-5.7-2.2.7-3.3,1.9-1.4.6.9,0,2.8-.4,3.9l-5.5,7c-.3-4.3-.2-7.5,4-9.5ZM1077.3,500.8c0-1.4,2.4-3.6,1.8-5.7,1.5-1.5,4.9,3.7,3.7,6.7,0,.2-1.2.4-1.6,1.1-.2.5-2.5,7.2-4.1,5.2-1-1.3,1.7-3.8,1.6-4.5,0-.7-1.5-1.6-1.5-2.8ZM1062.8,534.8c.8-1.2.6-4.1,1.3-5.7,3.6.8-1.8,12.9-2.5,13-4.4-4.4.1-5.6,1.2-7.2ZM1055.1,561.1c-.3,3.4-.9,13.3-5,14-.1-3.6.7-12.9,5-14ZM1035.1,681l-2-13.4c.7-2.2-1.7-8.3,2-7.5v21ZM1037.4,717.2l-.2-14.2c1.5-.2,1.8,2.6,1.9,3.6.7,6.1,1.3,12.3,2.1,18.4l-3.8-7.8ZM1044.1,595c3.2,1.9,4.5,5.9.3,7.3l-2.3,9.7,2-17ZM1043.1,665.5v-23.5h2v27h-1c.4-1.2-1-2.9-1-3.5ZM1049.1,712.9c-3.6-2.3-1.6-8.4-2.1-12.4-.7-4.8-3.3-10.9-2.2-15.4.4-1.8-.2-2.6,2.3-2.2-1.4,10.6,3.2,19.5,2,30ZM1058.2,771.3v-3.4c.6.4,2.6,1,2.8,1.2.5.7,2.2,10,2.2,11.8l-4.9-9.5ZM1353.4,990.7l-15.4-2.1h33c-.4,1.5-5.2,1.9-6.5,2-3.6.3-7.4-.2-11,0Z"/>
  <path d="M79.6,487.1c-2.6,7.1-3.9,7.2-8,12,2.3-5.1,3.4-9.1,8-12Z"/>
  <path d="M265,1018.6c.9-.1,1.8-.3,2.6-.6,2.6-7.3-5.4-4.8-9.6-5.4-7.9-1.1-15.4-1.5-22.9-2,10.2,1.7,20.2,4.4,29.8,8Z"/>
  <path d="M214.6,1005.9l5-1.2c-1.2-.2-5.6-1.6-9-1.9l4,3.1Z"/>
  <path d="M380.3,1024.5l1.7-3.9c3.9.1,6.1,3.6,9.8,4.1,13.1,1.8,33.9-.2,48.1,0,.7,0,1.4,0,2,0,1.2-.4,2.4-.9,3.6-1.3,0,0,.1,0,.2,0,1.2-.4,2.4-.8,3.5-1.1,0,0,.2,0,.3,0,1.2-.4,2.4-.7,3.6-1,0,0,.2,0,.2,0,1.2-.3,2.5-.6,3.7-.9,0,0,.1,0,.2,0,1.3-.3,2.5-.6,3.8-.8,0,0,0,0,0,0,1.3-.3,2.6-.5,3.9-.7,0,0,0,0,0,0,2.6-.4,5.3-.8,8-1.1,1-1,2-2,3.1-2.9-1.4-.4-2.9-2.4-4.8-1.8l-1.5,3.7c-12.1-1.2-24.6-.6-36.9.4-2.6.2-5.3,1.6-8.1,1.9-8.9.8-18.5,0-27.5,2l6.5-3.9c11.8.4,22.8-4.6,34.4-6.1.3-4.8-6.8-.7-8.7-.2-13.9,3.2-28.7,5.5-42.8,6.2-4.4.2-6.6,2.3-9.2,2.8-3.7.7-6.9-3.7-6.2,5.2h8.9Z"/>
  <path d="M578.4,932.7l5,1.5c-10.6,9.9-22.6,19.2-34.7,27.3-23.1,15.5-50.1,29.6-76.1,38.8-10.4,3.7-21,7.5-32.1,8.3.4-2.1,2.1-1.6,3.6-2,16.5-4.1,35.2-11.9,51.5-19.4s14.2-5.7,14.9-7.1-.3-1.9-1.5-1.5c-3.5,1.4-7.7,4.2-11.4,5.6s-7.8,1.9-10.9,3.1c-5.5,2.3-4.4,3.8-11.5,5.5s-5,4.4-5.8-1.2c4.6,1.6,6.2-1.8,8.7-2.8,11.1-4.1,21.4-10,32.2-14.8,2.6-1.1,4.9-3.5,8-4,5.4-1,2.3,4,7,2.1s2.3-3.6,2.1-5.9c-.4-4.2,3.4-3.3,5.2-4.5,9-6.1,18.6-12.5,27.6-19.6,5.3-4.2,12.3-12.4,18.4-14.6s-.7,4.9-.3,5.2ZM558.4,947.7c-4.1,0-17.1,12.7-7,7.5l7-7.5ZM542.4,958.7l-11,8c3,1.7,12.5-6.4,11-8Z"/>
  <path d="M379.4,759l6.1,188.7c-3.7-3.1-1.6-10.7-2-15.5-3.6-47.5-4-95.3-5.9-142.9-.2-5.4-3.3-27.3-1.6-30.5h3.4Z"/>
  <path d="M366.5,1008.7c-.4,1.8-2,1.9-3.5,2-8.3.9-26.5.7-35.1,0-23.5-2-50.2-6.5-71.6-12.3-4.7-1.3-15.8-4.4-19.7-6.2-1.1-.5-2.6-2.3-3-3.4,4,.7,7.9,2.7,11.7,3.7,11,3,22.2,6.1,33.5,8.5,16.2,3.4,33.6,5.4,50.2,7.8,11.2,1.6,25.9-1.3,37.5,0Z"/>
  <path d="M1437.9,975.7c.3,2,.2,1.6-1.2,2.2-5.5,2.3-10.8,2-16.2,2.8s-10.1,3.5-17.6,0c-.7-4,4.9-.9,7.4-1,4.7-.2,25.1-6.4,27.5-4Z"/>
  <path d="M399.5,357.3l-51.3-3.4-2.7-1.6c8.5-2.2,15.4.3,23.5,1,9.2.7,17.9,1,27,2s3.1.2,3.5,2Z"/>
  <path d="M409.5,1008.7l-4,3.5c-11.8,1.6-23.9,2.8-36,2.5-3.4-2.6,7.5-1.9,8.4-2,3.7-.4,6.6-.5,10-.9,7.2-.9,14.3-3.2,21.5-3Z"/>
  <path d="M338.5,353.3c-.2,1.6-4.3,1.9-5.5,2-5.2.4-10.7-.4-16,0-10.9.9-21.5,4.4-32.5,4-3.5-2.7,8.5-1.9,9.4-2,5.5-.9,13.4-3.4,19.1-3.8,8.3-.7,17,.3,25.4,0Z"/>
  <path d="M411.5,863.8c-1.7-.3-1.7-2-2.3-3.2-2.7-6.5-3.7-15.6-5.4-22.5s-4.7-10.2-3.3-15.2c2.7,1.9,3.6,6.8,4.5,9.9,2,6.9,5.3,17.8,6.4,24.6s0,4.3,0,6.4Z"/>
  <path d="M275.5,361.3l-51,16c2.5-2.2,7.1-3.9,10.3-5.2,10.1-4,20.4-6.7,30.9-9.1s5.7-3,9.8-1.7Z"/>
  <path d="M1369.4,980.7c.2,0,2.3,1,2.5,1.5-1.6,3.3-26.8,4.8-29-1.5,8.2.9,18.6-1.2,26.5,0Z"/>
  <path d="M1402.9,982.7c-7.1,2.5-19,3-26.5,2.1-1.7-.2-3.4-.3-3.5-2.5,8.2-.3,18.5-2.4,26.5-1.5s3.1.2,3.5,2Z"/>
  <path d="M1338.9,979.7c.5.5.2,2.4-1.2,2.2-5.3,2.3-6.7-.8-10.3-1.2s-9.5.4-13.8-.2c-6.4-.8-3.7-4.4,1.9-4s4.1,1.8,6,2c3.4.4,15.8-.7,17.4,1.1Z"/>
  <path d="M364.5,1013.6c.3,2.6,0,1.6-1.5,2-5.4,1.7-10.9.2-16.3,1.7l-4.3-3.3c6.8-3.3,14.8-.9,22-.5Z"/>
  <path d="M1067.4,769.6c0,.2,1.2.3,1.5,1.1,2.3,6,4.7,12.8,6.1,19.2-3,.5-1.5-.9-2.1-2.4-2.3-6.2-5.4-12.2-7.5-18.5s-3.2-7.1-1.9-10.1c3.3,2.8,2.7,7.8,3.8,10.7Z"/>
  <path d="M468.4,993.7c2.1,1.8-6.8,5.4-8,5.6-2.6.4-4.8-1-6.3-.7s-2.2,5.5-7.7,2.1l16.9-6.5,5-.4Z"/>
  <path d="M61.6,829.8l12,22c-6.7-.9-5-12.7-12-11,.4-3.7,0-6.4-2-9.5l2-1.5Z"/>
  <path d="M365.5,1022.6c-.9.9-4.7-1.9-6.5-2.1-3.7-.3-8.4,2.1-12.5,1.1v-3s17.4,0,17.4,0c1.6.4,2.2,3.4,1.6,3.9Z"/>
  <path d="M193.6,387.3c.6,2.8-.8,1.6-2.1,2.3-5,2.7-9.8,5.7-14.7,8.3s-2.3,1.8-4.1,1.3c2.6-4.4,7.7-6.2,12.2-8.1,1.8-1.8,5.9-4,8.8-3.9Z"/>
  <path d="M439.4,359.3c1,3-3.7,2.3-5.4,1.9-2.7-.6-7.3-3-10.3-3.7s-6.9,1-8.3-2.2c8.4-1.4,15.7,4.6,24,4Z"/>
  <path d="M1366.9,343.3l-16.4,2c-3.2-.4-6.9.4-10.1,0s-1.6.3-1.5-2h28Z"/>
  <path d="M518.4,926.7l-10,4-1-2.5c3.8-.6,2.9-4.2,7.7-5.3l3.3,3.8Z"/>
  <path d="M1624.5,855.5c-.6.6-1.7.5-2.3,1.2l-2.5-3.5,3.1-6.5,3.8,2.7c.3,1.2-1.3,5.2-2.1,6Z"/>
  <path d="M1366.9,976.7c0,.6-1.3,2-1.5,2h-20.5c0-.6,1.3-2,1.5-2h20.5Z"/>
  <path d="M415.5,1002.7c.2,2.6.2,1.7-1.5,2-5.9,1-11.3,2.9-17.5,2-.8-3.7,5.2-1.5,7.5-1.9,3.7-.7,6.8-3.4,11.4-2Z"/>
  <path d="M503.4,930.7c1.8,1.5-1.4,2.2-1.9,2.6-3.9,2.9-10.5,7.7-15.1,7.4.9-2,16.2-10.6,17-10Z"/>
  <path d="M1396.4,343.3c.3,0,1.5,1.4,1.5,2-5.1-.5-11.6.5-16.5,0s-3.1,0-3.5-2c5.1.9,13.9-1.2,18.5,0Z"/>
  <rect x="309.5" y="345.3" width="18" height="2"/>
  <path d="M183.6,397.2c1.7,1.4-1.3,2.2-1.9,2.6-1.7,1.1-12.5,7.9-13.1,7.4-1.7-1.5,1.4-2.2,1.9-2.6,1.9-1.4,11.7-8.5,13.1-7.4Z"/>
  <path d="M205.6,385.3c1.7,1.5-1.3,2.2-1.9,2.6-2.3,1.5-4.8,2.4-7.3,3.5s-1.8,3.3-5.8,1.9c1.2-2,14.3-8.5,15-8Z"/>
  <path d="M1228,367.3c1.8,1.7-9.3,6.6-10.4,7.1s-2.7,1.3-4.6.9c-.6-3,1-1.5,2.3-2.1,4.3-1.9,8.3-4.3,12.6-5.9Z"/>
  <path d="M427.5,1006.7c-1.1,1.6-7.1,3.5-8.7,3.8s-3,.3-4.2-1.3c3.9-2.9,8.4-2.7,13-2.5Z"/>
  <path d="M440.2,355.6c.3.1.2,1.5.9,1.7,3.8.8,10.1-.3,13.3,4-2-.2-4.4.4-6.3,0s-2.2-1.3-5.1-2c-4.8-1.3-10.4-3.8-15.6-3.9-.3-4.9,6.1-.7,7.8-.3s3.4-.1,5,.6Z"/>
  <path d="M308,996.7c-.3,0-1.5-1.4-1.5-2,4.4.2,8.9-.4,13.2.2s3,.4,2.7,1.7c-4.1-.7-10.9.9-14.5,0Z"/>
  <path d="M179.3,957l8.2,7.7c-5.1-.1-7.3-5.9-12-6-.7-2.9,1.8-2.3,3.7-1.7Z"/>
  <path d="M355.5,347.3c-2.2,3.2-12.9,3.1-15,0h15Z"/>
  <path d="M324.5,349.3c-3.2,4.4-10.3.8-14.9,1.6s-1.3.2-1.1-1.6h16Z"/>
  <rect x="307.5" y="998.7" width="14" height="2"/>
  <path d="M214.6,968.7c-4.8-.2-9.6-2.7-13-6,4.7-.6,9.4,3.2,13,6Z"/>
  <path d="M351.5,345.3c1.7-3,9.6-2.4,12.5-2s1.6-.3,1.5,2h-14Z"/>
  <path d="M633.3,834.8c.7.8-2.3,5.4-3,6.5-.9,1.6-2.8,5.8-5,5.5.8-3.7,3.4-6.9,5.4-10.1s1.2-3.5,2.6-1.9Z"/>
  <path d="M449.4,994.7c-3.3,2.9-9.8,4.1-14,4,3.3-2.9,9.8-4.1,14-4Z"/>
  <path d="M1682.8,639l-2.1-10.5c0-2-.4-4.8,2.1-5.5v16Z"/>
  <path d="M37.7,757.9l2,12-3.9-7.5c0-2.1-1.3-5.2,1.9-4.4Z"/>
  <path d="M1674.8,704.9c-1.9.2-.8-2.1-.7-3.2.3-3.5,0-9.9,2.7-11.8.7,5.5-.5,9.8-2,15Z"/>
  <path d="M1559.8,916.7c.5,2.3-.3,1.6-1.3,2.2-2.2,1.4-6.1,3.5-8.7,3.7,1.7-2.7,5.6-2.9,5-7l5,1Z"/>
  <path d="M661.3,768.9c.2,3.9-1.3,9.9-4,13-1.1-3.4,1.1-5.5,1.7-7.8s-1-6,2.3-5.2Z"/>
  <path d="M1384.9,791.9c-4.3-2.9-3.2-8.7-4-12.4-1.8-8.3-4.2-16.8-5.9-25.1s-2.2-11.6-3.1-17.4c2-.3,2.6.8,3,2.5,1.4,7.7,2.5,15.9,4.3,23.7s6.4,18.9,5.8,28.7Z"/>
  <path d="M1386.9,792.9c.3,11.3,5.7,21.9,6,33-3.1-1.6-2.6-6.1-3.5-9-1.4-4.6-3.7-10.7-4.4-15.5s-.6-11.8,1.9-8.4Z"/>
  <path d="M1280.6,619.4c7.9,4.9,14.9,12,23.3,16.2l5.1,5.4c-2.1.6-2.7-.7-4-1.5-8.1-4.9-19.4-12.9-27.2-18.6s-4.8-4.3-6.8-6c3,.4,7.1,2.8,9.6,4.4Z"/>
  <path d="M209.6,898.8c.8,3.8-2.2,6.8-6,6-.3-4.2,1.8-6.2,6-6Z"/>
  <path d="M675.3,672c-2.4-.6-2-4.3-2-6.5v-20.5h1c-.2,1,1,2,1,2.5v24.5Z"/>
  <path d="M679.3,663c-.6,0-2-1.3-2-1.5v-17c0-.2,1.4-1.6,2-1.5v20Z"/>
  <path d="M505.4,391.3c.1,1.7.5,2.1-1.5,2-4.1-.2-8.9-6.4-13.7-6.1l-.7-3,16,7Z"/>
  <path d="M521.1,395.6c1.4.5,7.9,5.7,10.3,7.1s2.5-.1,2,2.5c-1.7.2-2.5.2-4-.7s-9.5-6.5-11-7.9-1.2-.7-1-1.4c1.3,0,2.4-.2,3.7.3Z"/>
  <path d="M490.4,379.3c-.1,5.3-4.2.3-4.8.1-1.9-.7-7.6-1.1-7.2-4.1l12,4Z"/>
  <path d="M503,385.7c.2.1.4.9,1.3,1.5s3.6-.9,4.2,3.1l-12-5c-.7-4.3,4.8-.4,6.5.5Z"/>
  <path d="M661.3,585.1c-2.9-3.5-4.4-9.6-4-14,2.9,3.1,3.7,9.8,4,14Z"/>
  <path d="M607.8,471.7c2.1,2.3,5.5,6.4,5.5,9.5l-9-10.5,1.5-1.5c.7.8,1.2,1.7,2,2.5Z"/>
  <path d="M758.3,710.9c-1.1,7.3-3.7,9.1-11,8l1.5-2.7,4.5.7.9-5.6,4.1-.4Z"/>
  <path d="M567.4,115.5l-10.7,5.8c-8.9,0-20.2,3.2-27.3-3.3,4-.4,8.5,1.4,12.4,1.4,8.3,0,17.3-3.7,25.6-3.9Z"/>
  <path d="M561.4,83.5c.5,2.9-.8,1.6-2.2,2.3-4.5,2.1-5.3,2.1-9.8-.3l.5-2c4.9,3.2,6.5.8,11.5,0Z"/>
  <path d="M773.3,867.8c-1.2,1.6-1.8,0-2-1.5-1.1-8.8,1.2-18.2,1.8-27,.2-3.4-2.5-5.9,3.2-8.5,1.4,4.8-2.5,8.5-3,12.4-.5,3.6,1,23.2,0,24.5Z"/>
  <path d="M780.3,792.9c-1.4,7-1.2,14.5-2,21.5s-.8,3-2,1.5c-.3-5.9,1.4-11.7,2-17.5.3-2.3-2.4-5.5,2-5.4Z"/>
</svg>