<?xml version="1.0" encoding="UTF-8"?>
<svg id="Layer_1" xmlns="http://www.w3.org/2000/svg" version="1.1" viewBox="0 0 1122.9 208.6">
  <!-- Generator: Adobe Illustrator 29.1.0, SVG Export Plug-In . SVG Version: 2.1.0 Build 142)  -->
  <path d="M505.1,134.2c.2,0,.8.9,1.4,0l-.7-.7c-.2,0-.5.8-.7.7Z"/>
  <path d="M498.7,133.9c.2.2.5.4.7.7l.3-1.1c-.5-.4-1,.4-1,.4Z"/>
  <path d="M503.6,132.9l.5,1.7c.6.3,1-.4,1-.4-.4,0-1-1-1.5-1.3Z"/>
  <path d="M479,148.5l-.8-2.1-1.3,1.5c.2,0,.5.6.7.7s.5-.2,1.4,0Z"/>
  <path d="M124.9,15.2c.2,0,.5.7.7.7s.4-.7.7-.7c-.4,0-1.1,0-1.4,0Z"/>
  <path d="M119.8,5.3c.5.4,1-.4,1-.4s.7.8,1.1.3l-.4-1c144.2-8.3,287.7-1.7,431.7.2l58.3,3,2.2,2,.9-2.5c.7.6,1.6,1,2.6,1.2,12.7,2.3,26.4,3.5,39.2,3.8,17.2.4,33.8,1.7,51.2,2.7,132.1,7.4,264.6,11.8,391.4,55.5,6.2,2.7,16.7,2.2,22.3,5s1.3.9,1.8,1.5c-1.3,1.1-.9,3.6-1.7,4.5s-1.7.8-2.5,1.7c-24.6,27.2-64.9,54.8-98.7,69.5-55.4,24.2-115.9,23.8-175.1,22.2-48.7-1.4-97.2-4.4-146.2-5.8-7.1-.2-24.1,1.5-29.3-3.2s-2-3.6-4.5-5.4c-4.6-3.3-11.4-6.7-17.1-6.8s-4.7.3-6.7.4c-10.6.5-10.5,6.6-16.7,13.8-4.8,11.3-7.4,25.5-14.5,35.5s-10.4,7-15.3,5.2-4.4-2-5.2-2.6c-1.8-1.4-7.5-14.3-8-16.9-.9-4.4-1.3-4.9-3.1-9.3-4.9-12.6-7.1-20.3-22.2-23.3-14.4-2.9-32.7-2.2-47.6-2.4-45-.7-90.7-.7-135.3,0-95.9,1.3-191.4,2.7-286.1,13.7-12.9,1.5-33.2,7-45.2,3C13.3,160.7,5.5,133.3,1.6,106.3-2.3,79.2-.1,49.8,18.4,28.1,42.7,6.2,77.2,6.5,107.3,4.6s8.5-.2,12.8-.4l-.3,1.1ZM1103.5,78c-2.9-.9,2.8-2-.2-2.8-9.4-2.6-19.3-5.7-28.8-8.5-65.3-19.4-129.1-31.7-197-37.8s-127.1-7.5-190.5-11.7c-3.6-.2-5.9-2.7-9.5,1.5-3.2-1.6-8-2.9-11.5-3.1s-1.3.9-2.4.9c-2.6,0-5.7-1-8.6-.3l-4.2,5.6-4.4-2.5,1.7-1.2-1.1-1-3.4,2.1-4-1.4.8,1.7-.9,1.5,2.8,1.2-1,1.4,11,27.8-1,1.4,4.3,1.2-2.8.2c-1.4,0,2.3,9.2,2.4,10.1.3,3.4.8,5.8,1.2,9.1.6,5-.6,12.1,2.2,16-2.6,1.8-1.2,6.6-1.7,9.5-2.7,18.5-10.1,35.2-19.9,51.1,1.7,1,3.1-.5,4.2-1.6l1.1,1.7c1.4.3,5.4-1.4,6.1-2.5,1.1-1.6,1.4-10.1,2-12.9,2-9.5,4.5-19.2,6.5-28.7,4.9-24,9.1-50.3,33.9-62.2,1.3-.6,6.2-2.5,7.3-2.6s4.3,1.1,6.1,1.2c83,3.4,165.8,8.1,248.2,18.3,35,4.3,70.4,11.7,105,15.8s24.8,1.3,38.2-.6,2.4-.6,4,1.3l-8,3c-27.8,2.9-55.3-4.6-82.7-8.5-89.6-12.8-179.5-21-269.9-25s-23.7-1.2-35.5-.7c-1.4,0-5.8-.5-6.7-.4-11.6,2.1-21.8,15.6-26.6,25.6s-6.6,20.4-8.8,31c-2.8,13.3-5.8,26.7-8.2,40s1,1.2.8,2.3-1.3,2.9-2.2,3.9c1.4,2.3,3.8,2,5.5,2.8,5.9,2.8,12.4,7.3,16.3,12.6,2.2,1.8,27.7.7,32.7.9,74.9,1.9,152.8,9.9,226.8,3.2,76.1-6.9,122.3-33.7,178.6-84.7,1.5-1.3,1.5-3.4,3.6-4.1l-8-2.9c-.7.1-1.9,2.4-3.8,1.8ZM689.5,46.7c.5.4,1.2-.3.7-.7s-1.2.3-.7.7ZM686.8,48.3c.5.4,1.2-.3.7-.7s-1.2.3-.7.7ZM638.7,13.5c.5.4,1.2-.3.7-.7s-1.2.3-.7.7ZM635.8,12.3c.5.4,1.2-.3.7-.7s-1.2.3-.7.7ZM628.3,21.6c3.2,1.8,6.5,10,7.9,14,7.1,19.2,13,48.8,8.9,68.9-2.7,13.4-10.2,30.3-18,41.4-4,5.7-12.8,17.8-18.6,20.6s-5.5.9-6.3,1.5-1.2,4-4.7,3.6l.9,2.7c1.5-.4,2.8.5,4,.6s.9-.8,1.3-.8c.8,0,1.6.8,2.5.6s8.2-4.8,9.3-5.8c18.9-17.8,33.9-44.3,37.2-70.6,2.6-20.6-6.2-59.5-17.5-76.9-1.7-2.6-4-5.4-7.1-6s-1.7.2-1.3,1.5,2.5,1.6,2.4,3.1l-1,1.4ZM622.6,16.5c1.4-.7,2.2-1.4,3-2.6-4.3-1.1-8.9-2.5-13.3-3.1-18.5-2.6-39.5-.7-58.3-3.1-90.3-1.3-181-3.9-272.2-4-63.6,0-129.1-.8-193,5.5C55.6,12.4,21.5,15.3,8.4,52.1,0,75.8,4,120.8,15.8,143c5.9,11.2,17.5,23,31.1,21.6,10.8-1.1,21.6-3.5,32.3-4.8,88.6-10.7,176.5-13.2,265.5-14.6,40.2-.7,80.5.2,120.2-3.4,8.6-.8,17-1.8,25.4-2.2s4.5,0,6.8-2.5l-1.1-3.2c1.6-2.7,1.9-.3,2.8-.2l-.3,1.1,1-.4c.5.6.2,2.1,1.8,1.7l5.7-1.1c.3-.6-.4-1-.4-1s.7-.6.3-1.1c-.5-.1-.9.4-1,.4-.9-.3-1.2-.4-2.2-.6s-.8-.8-1.8-1c-2.4-.3-5.4.6-7.8.4l-2.3,3.4,1.2-2.9-3.6-1.9.9,3.5-2.4.5-.3-2.7c-2.4-1.5-3,0-4.8.2-5.8.7-15.3,0-21.9.5-33.5,2-65.4,2.9-98.9,3.7s-30.5,1.8-45,0c.8-.6,2.2-1.1,2.4-1.9l-13.4.8c.2,1.2,2.6.5,3.6.5,1.7,0,4.2-.6,5.7-.3s1.6.9,1.8,1c-.4.3-.8,1.3-1.3,1.3-3.3-1.5-7.4-.3-11-.2s-6.7.3-9.6-.5l1.3-1.5-2.5-.2-.3.4,1.5,1.3-1.3,1.3c-7.2-1.4-13.4.9-20.6-.7.5-.4,2.2-2.3.2-1.7l-3.8,1.2c0,.3,2.7.3,3.6.5-1.6,1.3-1.7,1.3-3.8,1.2-21.5-.6-45.4,1.5-67.1,2.5-35.7,1.7-72.6,3.3-108.6,8.3s-32.1,6.4-37.9,5.1-1-2-2.9-1.3l.8,2.1c-1.4,0-2.8.3-4.2.3-6.9,0-15.6-2.9-20.3-8.1-9.4-10.3-14.8-29.3-16.7-42.9-3.5-25.6-2.5-59.9,21.9-75.7s7.2-3.3,9.9-5.8l1.9,2.4c-.3-2.3,2.8-2.9,4.8-3.6,6.5-2.3,25.1-5.5,31.6-4.9s1.1.8,1.9,1.2l.8-1.3c1.6-.2,3.3,0,4.9-.3,2.4-.2,3.5.1,3.9,0,0,0-1.1.8-1.7.5v.7s3.6-.2,3.6-.2v-.7c-.7.4-1.7-.3-1.8-.3,9.9-.6,20.4-2.1,31.1-1.8l-.3,1.1c.5.4,1-.4,1-.4.7,0,.7,0,1.4,0s.7.8,1.1.3l-.4-1c2.7-.4,6.2-2.3,9.5-1.7s1.1,2.8,3.6,2l-.5-2.4c2.7,2.5,8.1-1.2,9.9,1.8,7.1-2.6,17.7-2.5,25.9-2.8,24.9-1,50.6,0,75.8-.9l1.6,2c2.2-3.2,7.3-1.2,10.5-1.3,41.1-1,82.3-.5,122.6.7,5.8.2,13.7-1,18.8.7l-7.3,1.5c2.8,0,5.4-.2,8.1-.8s.7.8,1.1.3l-.4-1c3.8-.4,5.4-1.5,9.2.2l-5.9,1.4,7.8.3c1.7-.3-1.7-1.6-1.9-1.7,2.9-1.4,6.1-.1,8.8-.1s9.3-1.2,9.6.5l-3.1,1.2c1.6.5,2.6-.6,3.5-.9,5.1-1.8,27.9-.7,35.4-.7,37.5.5,75.7,1.6,113.1,3l-1.7,1.2,2.5.9.7-.7-1.5-1.3c1.1,0,3.5-.8,5.3-.7,6.1.2,26.9.3,30.9,2.1-1.1.4-2,.6-3.2.5l5.7,1.1c.3-.4-1.6-1.2-2.6-1.6.6-.2,2.7-1,3.1-1.3ZM641.8,31c.5.4,1.2-.3.7-.7s-1.2.3-.7.7ZM642.3,32.8l1.5,1.3.7-.7-1.5-1.3-.7.7ZM625.2,18.9l1.5,1.3.7-.7-1.5-1.3-.7.7ZM645.2,39.3c.5.4,1.2-.3.7-.7s-1.2.3-.7.7ZM623.5,20c.5.4,1.2-.3.7-.7s-1.2.3-.7.7ZM670.5,67.3l1.3-1.5-.7-.7-1.3,1.5.7.7ZM631.8,34.1l2.2,2,.7-.7-2.2-2-.7.7ZM634.5,39.2c.5.4,1.2-.3.7-.7s-1.2.3-.7.7ZM610,18.7c.5.4,1.2-.3.7-.7s-1.2.3-.7.7ZM638,50.4c.5.4,1.2-.3.7-.7s-1.2.3-.7.7ZM596.5,18.1v.7s3.6-.2,3.6-.2v-.7s-3.6.2-3.6.2ZM642.6,67.8c.5.4,1.2-.3.7-.7s-1.2.3-.7.7ZM586.6,17.9c.5.4,1.2-.3.7-.7s-1.2.3-.7.7ZM642.7,70.6c.5.4,1.2-.3.7-.7s-1.2.3-.7.7ZM642.8,72.8v2.1c.1,0,.8,0,.8,0v-2.1c-.1,0-.8,0-.8,0ZM566.8,6.3v.7s2.2-.1,2.2-.1v-.7s-2.2.1-2.2.1ZM578.7,17.7c.5.4,1.2-.3.7-.7s-1.2.3-.7.7ZM575.2,17.2c.5.4,1.2-.3.7-.7s-1.2.3-.7.7ZM643.3,80.5c.5.4,1.2-.3.7-.7s-1.2.3-.7.7ZM569.5,16.8v.7s3.6-.2,3.6-.2v-.7s-3.6.2-3.6.2ZM643.5,84.1l.2,3.5h.7s-.2-3.6-.2-3.6h-.7ZM563.1,16.5v.7s2.2-.1,2.2-.1v-.7s-2.2.1-2.2.1ZM658.8,103v2.1c.1,0,.8,0,.8,0v-2.1c-.1,0-.8,0-.8,0ZM560.3,17.3c.5.4,1.2-.3.7-.7s-1.2.3-.7.7ZM556.7,16.8c.5.4,1.2-.3.7-.7s-1.2.3-.7.7ZM643.5,96.8c.5.4,1.2-.3.7-.7s-1.2.3-.7.7ZM642.9,99c.5.4,1.2-.3.7-.7s-1.2.3-.7.7ZM546.1,16v.7s3.6-.2,3.6-.2v-.7s-3.6.2-3.6.2ZM541.8,16.3v.7s2.2-.1,2.2-.1v-.7s-2.2.1-2.2.1ZM535.4,15.9v.7s2.2-.1,2.2-.1v-.7s-2.2.1-2.2.1ZM607.2,80.5c.5.4,1.2-.3.7-.7s-1.2.3-.7.7ZM599.7,73.8c.5.4,1.2-.3.7-.7s-1.2.3-.7.7ZM580.4,71.4c1.4-.3,2.9,0,4.2-.3l4.2-1.6c-4.2.4-9.5.6-12.9,3.2,1.2,1,2.8-.9,4.5-1.3ZM613.6,93.6l.4,6.4h.7s-.4-6.4-.4-6.4h-.7ZM523.4,15.9v.7s3.6-.2,3.6-.2v-.7s-3.6.2-3.6.2ZM613.5,103.5c.5.4,1.2-.3.7-.7s-1.2.3-.7.7ZM515.6,16.4c.5.4,1.2-.3.7-.7s-1.2.3-.7.7ZM612.8,105v2.1c.1,0,.8,0,.8,0v-2.1c-.1,0-.8,0-.8,0ZM597.6,92l2.2,2,.7-.7-2.2-2-.7.7ZM592.7,87.7c.5.4,1.2-.3.7-.7s-1.2.3-.7.7ZM546.4,46.5c.5.4,1.2-.3.7-.7s-1.2.3-.7.7ZM584.7,83.9v.7s2.2-.1,2.2-.1v-.7s-2.2.1-2.2.1ZM574.2,73.9c.5.4,1.2-.3.7-.7s-1.2.3-.7.7ZM599.5,100.4l.9-3.2h-.7s-.9,2.6-.9,2.6l.7.7ZM582.4,86.5l1.3-1.5-.7-.7-1.3,1.5.7.7ZM609.4,113.3l2-2.2-.7-.7-2,2.2.7.7ZM502.1,15.7v.7s2.2-.1,2.2-.1v-.7s-2.2.1-2.2.1ZM500,15.9c.5.4,1.2-.3.7-.7s-1.2.3-.7.7ZM631.2,135.4l1.3-1.5-.7-.7-1.3,1.5.7.7ZM639.1,142.4c.5.4,1.2-.3.7-.7s-1.2.3-.7.7ZM567.2,81l1.3-1.5-.7-.7-1.3,1.5.7.7ZM629.6,138c.5.4,1.2-.3.7-.7s-1.2.3-.7.7ZM576.6,90.8c.5.4,1.2-.3.7-.7s-1.2.3-.7.7ZM603.4,120l2.7-3-.7-.7-2.7,3,.7.7ZM490.1,15.7v.7s2.2-.1,2.2-.1v-.7s-2.2.1-2.2.1ZM485.2,16c.5.4,1.2-.3.7-.7s-1.2.3-.7.7ZM600.3,121.3c.5.4,1.2-.3.7-.7s-1.2.3-.7.7ZM597.9,123.2l1.3-1.5-.7-.7-1.3,1.5.7.7ZM585.6,111.5v.7s2.2-.1,2.2-.1v-.7s-2.2.1-2.2.1ZM479.5,16.3c.5.4,1.2-.3.7-.7s-1.2.3-.7.7ZM561.7,90.9c.5.4,1.2-.3.7-.7s-1.2.3-.7.7ZM466.7,15l6.4,1.1,4.9-1h-11.3ZM579.4,109.4l1.5,1.3.7-.7-1.5-1.3-.7.7ZM561.1,93.1c.5.4,1.2-.3.7-.7s-1.2.3-.7.7ZM576.2,107.8c.5.4,1.2-.3.7-.7s-1.2.3-.7.7ZM560.5,94.5l.4,6.4h.7s-.4-6.4-.4-6.4h-.7ZM621.1,150.5c.5.4,1.2-.3.7-.7s-1.2.3-.7.7ZM617.5,155.3l3.3-3.7-.7-.7-3.3,3.7.7.7ZM583.8,124l3.2.9v-.7s-2.6-.9-2.6-.9l-.7.7ZM580.6,123.8c.5.4,1.2-.3.7-.7s-1.2.3-.7.7ZM457.5,14.8v.7s2.2-.1,2.2-.1v-.7s-2.2.1-2.2.1ZM444.8,3.5v.7s2.2-.1,2.2-.1v-.7s-2.2.1-2.2.1ZM577.4,122.2l1.5,1.3.7-.7-1.5-1.3-.7.7ZM574.8,121.3c.5.4,1.2-.3.7-.7s-1.2.3-.7.7ZM448.3,15.3c.5.4,1.2-.3.7-.7s-1.2.3-.7.7ZM609.1,162.5c.5.4,1.2-.3.7-.7s-1.2.3-.7.7ZM442.6,14.9v.7s2.2-.1,2.2-.1v-.7s-2.2.1-2.2.1ZM612.7,177c-4,2.9-11.3,3-16.2,2.5l-.7,1.5-4.1-4.3c-.3,2.9-2,2.9-4,4.5l-3-6.6-6.1-4.2c2.7,3.2,4.4,8.1,5.8,12.1s.2,2.8.6,4.2,1.7,2.9,2.2,4.8,1.6-2,2.4-.5c-.4,1.1-2.9.8-2.3,1.9,1.4,2.6,2.4,7.6,4,9s6.1,3.2,7,3.2,5.5-1.8,5.9-2.1c5.2-3.8,8.8-14.1,10.9-20.2s.8-4.7,2.4-8,1.5-.9-.6-2.4c-1.5,1.5-2.6,3.4-4.3,4.6ZM437.7,15.2c.5.4,1.2-.3.7-.7s-1.2.3-.7.7ZM603.6,165.7c.5.4,1.2-.3.7-.7s-1.2.3-.7.7ZM428.4,15c.5.4,1.2-.3.7-.7s-1.2.3-.7.7ZM598.9,169.5c.5.4,1.2-.3.7-.7s-1.2.3-.7.7ZM595.1,166.2c.5.4,1.2-.3.7-.7s-1.2.3-.7.7ZM584.9,161.1c.5.4,1.2-.3.7-.7s-1.2.3-.7.7ZM583.4,159.8c.5.4,1.2-.3.7-.7s-1.2.3-.7.7ZM581.9,158.4c.5.4,1.2-.3.7-.7s-1.2.3-.7.7ZM567.4,145.5l1.5,1.3.7-.7-1.5-1.3-.7.7ZM565.1,143.5l1.5,1.3.7-.7-1.5-1.3-.7.7ZM614.9,189.1c.5.4,1.2-.3.7-.7s-1.2.3-.7.7ZM563.3,143.2c.5.4,1.2-.3.7-.7s-1.2.3-.7.7ZM562.9,141.5l-1.9-1.7-2.1.8,3.3,1.6.7-.7ZM556.8,140.1c.5.4,1.2-.3.7-.7s-1.2.3-.7.7ZM401.5,2.4v.7s2.2-.1,2.2-.1v-.7s-2.2.1-2.2.1ZM495.6,86.9c.5.4,1.2-.3.7-.7s-1.2.3-.7.7ZM549.1,135.9l1.5,1.3.7-.7-1.5-1.3-.7.7ZM584.8,171.7c.5.4,1.2-.3.7-.7s-1.2.3-.7.7ZM575.5,163.4l2.2,2,.7-.7-2.2-2-.7.7ZM571.8,160.1l2.2,2,.7-.7-2.2-2-.7.7ZM541.1,132.8l1.5,1.3.7-.7-1.5-1.3-.7.7ZM586.9,176.2l1.5,1.3.7-.7-1.5-1.3-.7.7ZM557.4,151.4c.5.4,1.2-.3.7-.7s-1.2.3-.7.7ZM390.9,3c.5.4,1.2-.3.7-.7s-1.2.3-.7.7ZM533,132.2c.5.4,1.2-.3.7-.7s-1.2.3-.7.7ZM548.2,151.2c.5.4,1.2-.3.7-.7s-1.2.3-.7.7ZM465.8,146l-1,.4-38.5,1.9c-30.2-.2-61,.4-90.6.9-90.9,1.5-181.5,4.2-272.5,16.5-1.6.2-3.4.2-3.8.2-1.7.3-3.8,1.3-5.6,1.4l12.4-.3c99.3-14.2,198.5-14.9,299.4-16.7,20.9-.4,43.4-.4,63.7-.8s23.1-1.5,35-1,5.9,1.3,8.9.5l-.8-2.1,2.3,1.2.8-1.6,1.5,1.2-.3,1.1c.5.4,1-.4,1-.4.3,0,.9.4,1.4,0,6.8.6,13.5.4,20.2.6s17.4.8,25.1,0,9.4,3.1,11.5-.5l5,2.7,2-2.1c.6,2.4,2,1.7,4,1.5.3-1.5-2.6-1.7-3.7-1.9-1.7-.4-6.6-1.7-7.9-1.7s-2.9,2.2-4.9,1.7l1-.4.2-2.5c-1.7,0-4.2.4-4.1,2.4l-1-2.7c-3.7-.2-7.3-1.4-11-1.6s-9,.7-13,.9-6.3-1-9.2-.3-2.9,1.9-4.2,1.8l-1.9-2.4-.5,2.1-4.7-.7.5,2.4c-2.2-2.9-4.5-2.3-7.6-2.1s-3.9.2-4.9.3-4.2,1.2-4.5,1.4l.3-1.1ZM521.4,128.7c.5.4,1.2-.3.7-.7s-1.2.3-.7.7ZM378.8,2.3v.7s2.2-.1,2.2-.1v-.7s-2.2.1-2.2.1ZM582,183.9c.5.4,1.2-.3.7-.7s-1.2.3-.7.7ZM547.6,153.3c.5.4,1.2-.3.7-.7s-1.2.3-.7.7ZM391.6,14.3c.5.4,1.2-.3.7-.7s-1.2.3-.7.7ZM515,127.6v.7s2.2-.1,2.2-.1v-.7s-2.2.1-2.2.1ZM388.7,14.5c.5.4,1.2-.3.7-.7s-1.2.3-.7.7ZM584.6,191.6c.5.4,1.2-.3.7-.7s-1.2.3-.7.7ZM585.4,193.7c.5.4,1.2-.3.7-.7s-1.2.3-.7.7ZM512.2,128.5c.5.4,1.2-.3.7-.7s-1.2.3-.7.7ZM510,127.9c.5.4,1.2-.3.7-.7s-1.2.3-.7.7ZM379.5,13.6v.7s2.2-.1,2.2-.1v-.7s-2.2.1-2.2.1ZM509,133.6c.5.4,1.2-.3.7-.7s-1.2.3-.7.7ZM501.6,128.4c.5.4,1.2-.3.7-.7s-1.2.3-.7.7ZM411.2,47.9c.5.4,1.2-.3.7-.7s-1.2.3-.7.7ZM357.6,2.1v.7s3.6-.2,3.6-.2v-.7s-3.6.2-3.6.2ZM513.7,141.8c.5.4,1.2-.3.7-.7s-1.2.3-.7.7ZM498.7,128.5c.5.4,1.2-.3.7-.7s-1.2.3-.7.7ZM368.9,14.2c.5.4,1.2-.3.7-.7s-1.2.3-.7.7ZM498.7,139.2l8.8-.2c-2.3-2.2-5.7.5-7.9-1.7l-1,1.8ZM362.5,13.9c.5.4,1.2-.3.7-.7s-1.2.3-.7.7ZM483.2,128.7v.7s3.6-.2,3.6-.2v-.7s-3.6.2-3.6.2ZM350.4,13.2v.7s2.2-.1,2.2-.1v-.7s-2.2.1-2.2.1ZM480.4,129.6c.5.4,1.2-.3.7-.7s-1.2.3-.7.7ZM476.1,129.2v.7s2.2-.1,2.2-.1v-.7s-2.2.1-2.2.1ZM339.8,13.1v.7s3.6-.2,3.6-.2v-.7s-3.6.2-3.6.2ZM464.2,131.2c2.7-.5,6.6.6,8.8-1.6l-8.8,1.6ZM492.3,152.3c.5.4,1.2-.3.7-.7s-1.2.3-.7.7ZM488.8,151.8c.5.4,1.2-.3.7-.7s-1.2.3-.7.7ZM327.7,13.1v.7s6.4-.4,6.4-.4v-.7s-6.4.4-6.4.4ZM452.9,131.2v.7s6.4-.4,6.4-.4v-.7s-6.4.4-6.4.4ZM321.4,12.7v.7s2.2-.1,2.2-.1v-.7s-2.2.1-2.2.1ZM443,131.8v.7s5-.3,5-.3v-.7s-5,.3-5,.3ZM457.9,144.4c.5.4,1.2-.3.7-.7s-1.2.3-.7.7ZM317.9,26.4c.5.4,1.2-.3.7-.7s-1.2.3-.7.7ZM284.6,1.4v.7s2.2-.1,2.2-.1v-.7s-2.2.1-2.2.1ZM295.9,13.5c.5.4,1.2-.3.7-.7s-1.2.3-.7.7ZM423.2,132.9v.7s2.2-.1,2.2-.1v-.7s-2.2.1-2.2.1ZM419.6,132.4v.7s2.2-.1,2.2-.1v-.7s-2.2.1-2.2.1ZM332.3,55.3c.5.4,1.2-.3.7-.7s-1.2.3-.7.7ZM283.9,13.5c.5.4,1.2-.3.7-.7s-1.2.3-.7.7ZM411.9,132.9c-1,0-3.4-.3-3.5.9,1.9-.1,3.8-.2,5.6-.3s3.4.3,3.5-.9c-1.9.1-3.8.2-5.6.3ZM430,151.6c.5.4,1.2-.3.7-.7s-1.2.3-.7.7ZM270.4,13.5c.5.4,1.2-.3.7-.7s-1.2.3-.7.7ZM404.2,134c.5.4,1.2-.3.7-.7s-1.2.3-.7.7ZM412.7,146.3v.7s2.2-.1,2.2-.1v-.7s-2.2.1-2.2.1ZM397.8,133.7c.5.4,1.2-.3.7-.7s-1.2.3-.7.7ZM394.9,133.8c.5.4,1.2-.3.7-.7s-1.2.3-.7.7ZM258.3,12.8v.7s2.2-.1,2.2-.1v-.7s-2.2.1-2.2.1ZM387.8,133.5v.7s3.6-.2,3.6-.2v-.7s-3.6.2-3.6.2ZM400.7,147c.5.4,1.2-.3.7-.7s-1.2.3-.7.7ZM367.8,117.7c.5.4,1.2-.3.7-.7s-1.2.3-.7.7ZM404.5,151.7c.5.4,1.2-.3.7-.7s-1.2.3-.7.7ZM249.1,13.4c.5.4,1.2-.3.7-.7s-1.2.3-.7.7ZM395,146.6v.7s2.2-.1,2.2-.1v-.7s-2.2.1-2.2.1ZM374.4,133.6l3.6,1.3,4.9-1-8.5-.2ZM243.5,13v.7s2.2-.1,2.2-.1v-.7s-2.2.1-2.2.1ZM387.2,147c.5.4,1.2-.3.7-.7s-1.2.3-.7.7ZM363.8,134.2c-1,0-3.4-.3-3.5.9,2.8-.2,5.7-.3,8.5-.5s3.4.3,3.5-.9c-2.8.2-5.7.3-8.5.5ZM234.2,12.8v.7s2.2-.1,2.2-.1v-.7s-2.2.1-2.2.1ZM228.6,13.1v.7s2.2-.1,2.2-.1v-.7s-2.2.1-2.2.1ZM372.3,146.5v.7s2.2-.1,2.2-.1v-.7s-2.2.1-2.2.1ZM222.2,13.5c.5.4,1.2-.3.7-.7s-1.2.3-.7.7ZM344,134.7v.7s6.4-.4,6.4-.4v-.7s-6.4.4-6.4.4ZM339.8,135.6c.5.4,1.2-.3.7-.7s-1.2.3-.7.7ZM196.7,12.9v.7s2.2-.1,2.2-.1v-.7s-2.2.1-2.2.1ZM333.4,135.3c.5.4,1.2-.3.7-.7s-1.2.3-.7.7ZM329.1,134.8v.7s2.2-.1,2.2-.1v-.7s-2.2.1-2.2.1ZM339.7,147v.7s3.6-.2,3.6-.2v-.7s-3.6.2-3.6.2ZM323.5,135.1v.7s2.2-.1,2.2-.1v-.7s-2.2.1-2.2.1ZM188.3,14c.5.4,1.2-.3.7-.7s-1.2.3-.7.7ZM183.5,16.5c.5.4,1.2-.3.7-.7s-1.2.3-.7.7ZM288.3,115.2c.5.4,1.2-.3.7-.7s-1.2.3-.7.7ZM176,16.5l-.4-.3-5.7-.4v.7s4.7,1.5,4.7,1.5l1.3-1.5ZM169.2,14.4c.5.4,1.2-.3.7-.7s-1.2.3-.7.7ZM317.9,148.2c.5.4,1.2-.3.7-.7s-1.2.3-.7.7ZM166.8,16.3l1.5,1.3.7-.7-1.5-1.3-.7.7ZM317.4,152.5v.7s2.2-.1,2.2-.1v-.7s-2.2.1-2.2.1ZM299.4,135.8c.5.4,1.2-.3.7-.7s-1.2.3-.7.7ZM160.8,16.3c-.9,0-3.4-.3-3.5.9,2.3,0,4.9,1.6,6.7-.7,0-.6-2.5-.2-3.2-.2ZM173.2,28.7l3,2.7.7-.7-3-2.7-.7.7ZM304.4,147.6v.7s2.2-.1,2.2-.1v-.7s-2.2.1-2.2.1ZM179.2,35.5l1.5,1.3.7-.7-1.5-1.3-.7.7ZM291,136.3c.5.4,1.2-.3.7-.7s-1.2.3-.7.7ZM183.1,40.2c-1-.7-1.3-1.2-1.2-2.4h-.7s.6,3.9.6,3.9l1.3-1.5ZM168.4,25.8l-4.9.3v.7s5.4.8,5.4.8l-.5-1.7ZM307.5,153.8c.5.4,1.2-.3.7-.7s-1.2.3-.7.7ZM283.2,136.1c-1,0-3.4-.3-3.5.9,1.2,0,2.4-.2,3.5-.2s3.8.3,4.2-.9c-1.4,0-2.8.1-4.2.2ZM152.4,18.2c.5.4,1.2-.3.7-.7s-1.2.3-.7.7ZM180.8,50.2l.9-3.2h-.7s-.9,2.6-.9,2.6l.7.7ZM166.5,36.2l1.5,1.3.7-.7-1.5-1.3-.7.7ZM172.2,41.9v2.1c.1,0,.8,0,.8,0v-2.1c-.1,0-.8,0-.8,0ZM153.4,29.9l2.4-1.2v-.7s-3.2,1.2-3.2,1.2l.7.7ZM138.9,18.3l3.5-.9-3.9-.8.5,1.7ZM171,46.9c.5.4,1.2-.3.7-.7s-1.2.3-.7.7ZM150.8,32.9l2-2.2-.7-.7-2,2.2.7.7ZM281.1,148.9c.5.4,1.2-.3.7-.7s-1.2.3-.7.7ZM266.2,137c.5.4,1.2-.3.7-.7s-1.2.3-.7.7ZM172.2,60l4.1-3.1-.7-.7-4.1,3.1.7.7ZM167.7,50.6c.5.4,1.2-.3.7-.7s-1.2.3-.7.7ZM155.9,41.4c.5.4,1.2-.3.7-.7s-1.2.3-.7.7ZM147.7,35.5c.5.4,1.2-.3.7-.7s-1.2.3-.7.7ZM257.7,136.8v.7s3.6-.2,3.6-.2v-.7s-3.6.2-3.6.2ZM164.2,51.6c.5.4,1.2-.3.7-.7s-1.2.3-.7.7ZM124.8,18.4v.7s3.6-.2,3.6-.2v-.7s-3.6.2-3.6.2ZM147.1,37.7c.5.4,1.2-.3.7-.7s-1.2.3-.7.7ZM156.2,47.1c.5.4,1.2-.3.7-.7s-1.2.3-.7.7ZM254.9,137.7c.5.4,1.2-.3.7-.7s-1.2.3-.7.7ZM117.6,16.7c.5.4,1.2-.3.7-.7s-1.2.3-.7.7ZM60.3,23.5l-7.3,2.6,9.8-1.3c3.8,1.8,5.6-2.3,9.2-.5l2.4-2,.8,2c.5-.6,1-.9,1.7-1.1,9.9-3.2,25.1-2.4,34.9-2.7l8-1.9c-3.8-.7-7.4.4-11.3.7s-1.9-.7-2.5-.7c-15,.9-31.6,4-45.8,4.8ZM245,137.6v.7s6.4-.4,6.4-.4v-.7s-6.4.4-6.4.4ZM113.3,16.3v.7s2.2-.1,2.2-.1v-.7s-2.2.1-2.2.1ZM159.8,60.3v.7s2.2-.1,2.2-.1v-.7s-2.2.1-2.2.1ZM156.3,60.5c.5.4,1.2-.3.7-.7s-1.2.3-.7.7ZM147.3,52.5c.5.4,1.2-.3.7-.7s-1.2.3-.7.7ZM148.5,54.9l3.7,3.3.7-.7-3.7-3.3-.7.7ZM102,16.9v.7s5-.3,5-.3v-.7s-5,.3-5,.3ZM233.7,138.2v.7s5-.3,5-.3v-.7s-5,.3-5,.3ZM225.2,138c-1,0-3.4-.3-3.5.9,1.2,0,2.4-.2,3.5-.2s3.8.3,4.2-.9c-1.4,0-2.8.1-4.2.2ZM210.4,138.8v.7s6.4-.4,6.4-.4v-.7s-6.4.4-6.4.4ZM224.1,155.8c.5.4,1.2-.3.7-.7s-1.2.3-.7.7ZM204.4,139.5l.4.3,2.4-.5-1.5-1.3-1.3,1.5ZM114.5,60.8c.5.4,1.2-.3.7-.7s-1.2.3-.7.7ZM199.7,138.8v.7s2.2-.1,2.2-.1v-.7s-2.2.1-2.2.1ZM82.5,34.3v.7s2.2-.1,2.2-.1v-.7s-2.2.1-2.2.1ZM77.8,38.8c-5.1-.1-24.4.4-28.2,1.7-5.8,1.9-9.7,6.2-11.1,12-2.7,10.6,4.3,16.7,14.3,18.3,4.1.6,6.4-.3,9.9-.6s4.9.6,7.8.3,13.2-1.7,16.8-3.2c8.3-3.4,13.5-15,7.6-22.3-4.4-5.6-10.3-6-17.1-6.1ZM99,50.4v2.1c.1,0,.8,0,.8,0v-2.1c-.1,0-.8,0-.8,0ZM76.8,33.7c-2-.4-3.7-.3-5.7-.1l7.6,2c1.4-1.5-.8-1.7-1.9-1.9ZM193.5,140.5c.5.4,1.2-.3.7-.7s-1.2.3-.7.7ZM167,118.3l1.5,1.3.7-.7-1.5-1.3-.7.7ZM98.7,57.5c.5.4,1.2-.3.7-.7s-1.2.3-.7.7ZM187.8,140.9c.5.4,1.2-.3.7-.7s-1.2.3-.7.7ZM184.2,140.4c.5.4,1.2-.3.7-.7s-1.2.3-.7.7ZM62.6,34.1v.7c1.6-.2,2.8.9,4.3.5v-.7s-4.3-.5-4.3-.5ZM179.3,140.6v.7s2.2-.1,2.2-.1v-.7s-2.2.1-2.2.1ZM59.9,34.9c.5.4,1.2-.3.7-.7s-1.2.3-.7.7ZM51.6,26.2c-3.5,0-7.5,2.1-10,4.5l10-4.5ZM171.5,140.4v.7s2.2-.1,2.2-.1v-.7s-2.2.1-2.2.1ZM53.5,35.3v.7s2.2-.1,2.2-.1v-.7s-2.2.1-2.2.1ZM90.9,69.3c.5.4,1.2-.3.7-.7s-1.2.3-.7.7ZM51.4,35.4c.5.4,1.2-.3.7-.7s-1.2.3-.7.7ZM32.5,21.3l1.3-1.5-.7-.7-1.3,1.5.7.7ZM44.4,36.5v.7s2.2-.1,2.2-.1v-.7s-2.2.1-2.2.1ZM160.2,141.7c.5.4,1.2-.3.7-.7s-1.2.3-.7.7ZM35.4,34.6l2-2.2-.7-.7-2,2.2.7.7ZM31.8,34.1l2-2.2-.7-.7-2,2.2.7.7ZM74.9,73.7c.5.4,1.2-.3.7-.7s-1.2.3-.7.7ZM150.4,142.3c.5.4,1.2-.3.7-.7s-1.2.3-.7.7ZM20.3,30.5l1.3-1.5-.7-.7-1.3,1.5.7.7ZM26.4,38.6l1.3-1.5-.7-.7-1.3,1.5.7.7ZM23.8,41.6l2-2.2-.7-.7-2,2.2.7.7ZM34.1,48.1c-1.5,2.2-3,5.3-1.7,7.9,1.3-2,2.6-5.6,1.7-7.9ZM15,36.5l2.7-3-.7-.7-2.7,3,.7.7ZM134.8,143.2c-1,0-3.4-.3-3.5.9,1.2,0,2.4-.2,3.5-.2s3.8.3,4.2-.9c-1.4,0-2.8.1-4.2.2ZM21.9,45.3l1.3-1.5-.7-.7-1.3,1.5.7.7ZM31.9,64.1c-.9,1.1,1.8.7,2.1.6,2.3-.9-1-2.4-1-3.1l1-4.3c-1.4-1.7-2.4,2.7-2.4,3,0,.9,1.9,2.2.4,3.8ZM142.2,159.8v.7s3.6-.2,3.6-.2v-.7s-3.6.2-3.6.2ZM127.8,144.3v-.7s-5,.3-5,.3v.7s2.6.9,2.6.9l2.4-1.1ZM47.9,73.9c.5.4,1.2-.3.7-.7s-1.2.3-.7.7ZM62.2,87.9c.5.4,1.2-.3.7-.7s-1.2.3-.7.7ZM18.9,49.3c.5.4,1.2-.3.7-.7s-1.2.3-.7.7ZM35.6,68.2c.5.4,1.2-.3.7-.7s-1.2.3-.7.7ZM33.8,68l1.3-1.5-.7-.7-1.3,1.5.7.7ZM17.4,53.3l1.3-1.5-.7-.7-1.3,1.5.7.7ZM16.4,55.1c.5.4,1.2-.3.7-.7s-1.2.3-.7.7ZM30.7,69.2c.5.4,1.2-.3.7-.7s-1.2.3-.7.7ZM109.5,145.4v.7s6.4-.4,6.4-.4v-.7s-6.4.4-6.4.4ZM64.5,103.4c.5.4,1.2-.3.7-.7s-1.2.3-.7.7ZM61.9,101l1.5,1.3.7-.7-1.5-1.3-.7.7ZM58.2,97.7l2.2,2,.7-.7-2.2-2-.7.7ZM15.2,59.5c.5.4,1.2-.3.7-.7s-1.2.3-.7.7ZM54.9,96.1c.5.4,1.2-.3.7-.7s-1.2.3-.7.7ZM14.7,61.6c.5.4,1.2-.3.7-.7s-1.2.3-.7.7ZM67,108.9l.3,4.9h.7s-.3-5-.3-5h-.7ZM14,63.1v2.1c.1,0,.8,0,.8,0v-2.1c-.1,0-.8,0-.8,0ZM5.1,55.8c.5.4,1.2-.3.7-.7s-1.2.3-.7.7ZM13.5,66.6v2.1c.1,0,.8,0,.8,0v-2.1c-.1,0-.8,0-.8,0ZM100.3,146.6v.7s2.2-.1,2.2-.1v-.7s-2.2.1-2.2.1ZM66.4,117.1l1.3-1.5-.7-.7-1.3,1.5.7.7ZM3.9,60.1c.5.4,1.2-.3.7-.7s-1.2.3-.7.7ZM53.8,107.2l2.2,2,.7-.7-2.2-2-.7.7ZM49.4,104.6l3.2.9v-.7s-2.6-.9-2.6-.9l-.7.7ZM13.1,70.9c.5.4,1.2-.3.7-.7s-1.2.3-.7.7ZM65.4,118.9c.5.4,1.2-.3.7-.7s-1.2.3-.7.7ZM57.2,111.6c.5.4,1.2-.3.7-.7s-1.2.3-.7.7ZM41.5,97.6c.5.4,1.2-.3.7-.7s-1.2.3-.7.7ZM64.5,122.1l1.3-1.5-.7-.7-1.3,1.5.7.7ZM92.6,147.8v.7s2.2-.1,2.2-.1v-.7s-2.2.1-2.2.1ZM12.7,77.3c.5.4,1.2-.3.7-.7s-1.2.3-.7.7ZM2.3,68.7v2.1c.1,0,.8,0,.8,0v-2.1c-.1,0-.8,0-.8,0ZM107,163.9c.5.4,1.2-.3.7-.7s-1.2.3-.7.7ZM36.8,101.4c.5.4,1.2-.3.7-.7s-1.2.3-.7.7ZM88.4,148.7c.5.4,1.2-.3.7-.7s-1.2.3-.7.7ZM59.9,127.4l2.7-3-.7-.7-2.7,3,.7.7ZM42.2,108.9c.5.4,1.2-.3.7-.7s-1.2.3-.7.7ZM12.3,82.3c.5.4,1.2-.3.7-.7s-1.2.3-.7.7ZM12.5,85.1c.5.4,1.2-.3.7-.7s-1.2.3-.7.7ZM2,75.8c.5.4,1.2-.3.7-.7s-1.2.3-.7.7ZM50,121.2c.5.4,1.2-.3.7-.7s-1.2.3-.7.7ZM95,165.3c.5.4,1.2-.3.7-.7s-1.2.3-.7.7ZM32.3,108.8v2.1c.1,0,.8,0,.8,0v-2.1c-.1,0-.8,0-.8,0ZM46.9,129.9v.7s6.4-.4,6.4-.4v-.7s-6.4.4-6.4.4ZM13,94.3l.4,6.4h.7s-.4-6.4-.4-6.4h-.7ZM31.8,113c.5.4,1.2-.3.7-.7s-1.2.3-.7.7ZM68.7,151.3c-1,0-3.4-.3-3.5.9,1.2,0,2.4-.2,3.5-.2s3.8.3,4.2-.9c-1.4,0-2.8.1-4.2.2ZM44.8,130c.5.4,1.2-.3.7-.7s-1.2.3-.7.7ZM32.1,118.7c.5.4,1.2-.3.7-.7s-1.2.3-.7.7ZM37.9,126.5l1.5,1.3.7-.7-1.5-1.3-.7.7ZM33.4,122.5l1.5,1.3.7-.7-1.5-1.3-.7.7ZM14.3,104.8l.2,3.5h.7s-.2-3.6-.2-3.6h-.7ZM80.2,166.9c.5.4,1.2-.3.7-.7s-1.2.3-.7.7ZM63.1,153c.5.4,1.2-.3.7-.7s-1.2.3-.7.7ZM2.8,102c.5.4,1.2-.3.7-.7s-1.2.3-.7.7ZM16.5,117.5v2.1c.1,0,.8,0,.8,0v-2.1c-.1,0-.8,0-.8,0ZM18.3,125.2c.5.4,1.2-.3.7-.7s-1.2.3-.7.7ZM4.9,113.9l.2,3.5h.7s-.2-3.6-.2-3.6h-.7ZM20.8,131.4c.5.4,1.2-.3.7-.7s-1.2.3-.7.7ZM21.6,133.5c.5.4,1.2-.3.7-.7s-1.2.3-.7.7ZM39.4,151.9c.9,1.2,2.6.9,3.7,1.9l.7-.7-3.7-1.9-.7.7ZM22.1,135.2l1.5,1.3.7-.7-1.5-1.3-.7.7ZM23.7,138l1.5,1.3.7-.7-1.5-1.3-.7.7ZM7,125.8c.5.4,1.2-.3.7-.7s-1.2.3-.7.7ZM53,168.1c-1.4-1.6-4.4-1-6.4-.3,1.4,1.6,4.4,1,6.4.3ZM22.3,156.8c.5.4,1.2-.3.7-.7s-1.2.3-.7.7Z"/>
  <path d="M126.4,15.1c.2,0,.5.7.7.7s.4-.7.7-.7c-.3,0-1,0-1.4,0Z"/>
  <path d="M405.3,13.2c.3,0,.5.7.7.7l.7-.7c-.3,0-.9-.3-1.4,0Z"/>
  <path d="M120.1,4.2c.2,0,.5.7.7.7s.4-.7.7-.7c-.5,0-.9,0-1.4,0Z"/>
  <path d="M464.1,148.6c.5-.4.9-1.3,1.3-1.5l-.7-.7-.6,2.2Z"/>
  <path d="M709,72.5c.9-1.5,3-6.3,5-5.2,1.9.9,1.3,2.2,1.6,3.4,2.5,9.2,6.6,17.6,9.1,26.4s2.7,7.1-2.2,7.9l-27.6-5.1c4.4-9.2,8.8-18.5,14-27.4ZM720.2,100.8l1.8-1.1-1.9-2.4-7-23-2.7,6.5-9.1,16.5,18.9,3.4Z"/>
  <path d="M785.3,93.2l-1.3,1.5.4.3c1.6-.2,3.2,1.2,4.6,0l-3.7-1.9Z"/>
  <polygon points="733.9 122.4 736.1 124.4 737.5 122.9 736.3 121.9 733.9 122.4"/>
  <path d="M729.3,129l.5,3v2.6c1.4-1.4,1.2-4.4-.5-5.6Z"/>
  <path d="M917.6,114.6c1.4.7.9,1.7,1.6,2.7,1.2-.9,1-1.8.9-3.2l-2.4.5Z"/>
  <rect x="873.4" y="150.1" width="2" height="2" transform="translate(180 703.5) rotate(-48.3)"/>
  <rect x="778.3" y="73.4" width="2" height="2" transform="translate(205.4 606.9) rotate(-48.3)"/>
  <rect x="800.3" y="110.4" width="2" height="2" transform="translate(185.1 635.6) rotate(-48.3)"/>
  <rect x="884.8" y="78.6" width="2" height="2" transform="translate(237.2 688.1) rotate(-48.3)"/>
  <path d="M1027.7,84.2l-.2,2.5c.7,0,2.5,0,2.4-.5l-2.2-2Z"/>
  <path d="M934.4,134.9l2-2.2c0-.5-1.7-.2-2.5-.2l.5,2.4Z"/>
  <polygon points="703.2 57.6 704.7 58.9 706 56 705.2 55.3 703.2 57.6"/>
  <rect x="872.6" y="136" width="2" height="2" transform="translate(190.3 698.2) rotate(-48.3)"/>
  <rect x="665.7" y="25.4" width="2" height="2" transform="translate(203.6 506.7) rotate(-48.3)"/>
  <rect x="944.3" y="151.7" width="2" height="2" transform="translate(202.6 757) rotate(-48.3)"/>
  <rect x="667.1" y="37.4" width="2" height="2" transform="translate(195.1 511.8) rotate(-48.3)"/>
  <polygon points="677.1 120 675.8 121.5 676.1 121.8 678.6 121.3 677.1 120"/>
  <polygon points="738.4 102.3 738.6 105.1 739.9 103.6 738.4 102.3"/>
  <polygon points="670.5 43.2 669.2 44.7 669.6 45 672 44.5 670.5 43.2"/>
  <polygon points="874 156.1 874.1 158.9 875.5 157.4 874 156.1"/>
  <polygon points="801 95.1 802.5 96.5 802.8 96.1 802.4 93.6 801 95.1"/>
  <polygon points="1021 90.2 1022.5 91.5 1023.8 90 1021 90.2"/>
  <polygon points="657.5 26.2 659 27.6 660.3 26.1 657.5 26.2"/>
  <polygon points="700.3 18.8 699 20.3 699.3 20.6 701.8 20.1 700.3 18.8"/>
  <polygon points="1017.2 123 1017.4 125.8 1018.7 124.3 1017.2 123"/>
  <polygon points="775 86.7 773.7 88.2 774.1 88.5 776.5 88.1 775 86.7"/>
  <polygon points="701 141.3 701.2 144.1 702.5 142.6 701 141.3"/>
  <polygon points="679.8 31.3 681.3 32.6 681.6 32.3 681.1 29.8 679.8 31.3"/>
  <rect x="953" y="127.6" width="3" height="1" transform="translate(224 755.6) rotate(-48.3)"/>
  <polygon points="954 130.9 952.6 132.4 953 132.7 955.4 132.2 954 130.9"/>
  <polygon points="749.1 153.4 747.8 154.9 748.2 155.2 750.6 154.7 749.1 153.4"/>
  <polygon points="886 94.5 887.5 95.8 888.8 94.3 886 94.5"/>
  <polygon points="669.5 98.5 668.1 100 668.5 100.3 671 99.8 669.5 98.5"/>
  <polygon points="683.3 19.8 683.5 22.6 684.8 21.1 683.3 19.8"/>
  <rect x="945.9" y="137.6" width="2" height="1" transform="translate(214 753.3) rotate(-48.3)"/>
  <rect x="682.5" y="102.5" width="2" height="1" transform="translate(152 544.9) rotate(-48.3)"/>
  <rect x="705.8" y="136.6" width="2" height="1" transform="translate(134.3 573.7) rotate(-48.3)"/>
  <rect x="688.9" y="101.4" width="2" height="1" transform="translate(154.9 549.3) rotate(-48.3)"/>
  <rect x="669" y="103.5" width="1" height="2" transform="translate(146.2 534.9) rotate(-48.3)"/>
  <rect x="689.6" y="126.2" width="2" height="1" transform="translate(136.7 558.1) rotate(-48.3)"/>
  <rect x="883.9" y="68.9" width="2" height="1" transform="translate(244.5 684) rotate(-48.3)"/>
  <rect x="962.7" y="133.7" width="2" height="1" transform="translate(222.5 764.6) rotate(-48.3)"/>
  <rect x="784.5" y="128.7" width="1" height="2" transform="translate(166 629.6) rotate(-48.3)"/>
  <polygon points="770.9 162 770.1 161.4 767.7 162.6 767.8 163.3 770.9 162"/>
  <rect x="852.8" y="110.6" width="1" height="2" transform="translate(202.4 674.6) rotate(-48.3)"/>
  <rect x="695.1" y="160.6" width="2" height="1" transform="translate(112.9 573.7) rotate(-48.3)"/>
  <rect x="678.8" y="73.7" width="2" height="1" transform="translate(172.3 532.4) rotate(-48.3)"/>
  <rect x="994.5" y="144.7" width="2" height="1" transform="translate(225 792) rotate(-48.3)"/>
  <rect x="675.8" y="37.2" width="1" height="2" transform="translate(197.9 517.8) rotate(-48.3)"/>
  <rect x="968.9" y="109.5" width="1" height="2" transform="translate(242.1 760.9) rotate(-48.3)"/>
  <rect x="977.8" y="116.1" width="1" height="2" transform="translate(240.2 769.8) rotate(-48.3)"/>
  <rect x="1007.3" y="137.1" width="1" height="2" transform="translate(234.4 798.8) rotate(-48.3)"/>
  <rect x="923.3" y="129.2" width="1" height="2" transform="translate(212.2 733.4) rotate(-48.3)"/>
  <rect x="988.6" y="81.5" width="1" height="2" transform="translate(269.6 766.2) rotate(-48.3)"/>
  <rect x="658.8" y="144.2" width="2" height="1" transform="translate(112.9 541.1) rotate(-48.3)"/>
  <rect x="887.5" y="97.3" width="1" height="2" transform="translate(224 696) rotate(-48.3)"/>
  <rect x="1009.9" y="79.3" width="2" height="1" transform="translate(278.9 781.6) rotate(-48.3)"/>
  <rect x="830.9" y="135.2" width="1" height="2" transform="translate(176.7 666.4) rotate(-48.3)"/>
  <rect x="817.5" y="120.9" width="2" height="1" transform="translate(183.4 651.8) rotate(-48.3)"/>
  <rect x="832.4" y="134.2" width="2" height="1" transform="translate(178.5 667.5) rotate(-48.3)"/>
  <rect x="760.1" y="59.1" width="2" height="1" transform="translate(210.4 588.3) rotate(-48.3)"/>
  <rect x="827.9" y="68.6" width="2" height="1" transform="translate(226 642.1) rotate(-48.3)"/>
  <rect x="659.4" y="45.7" width="2" height="1" transform="translate(186.6 508.7) rotate(-48.3)"/>
  <rect x="1031.1" y="95.3" width="1" height="2" transform="translate(273.6 802.6) rotate(-48.3)"/>
  <rect x="877.9" y="115.5" width="1" height="2" transform="translate(207.2 695) rotate(-48.3)"/>
  <rect x="851.9" y="95.1" width="1" height="2" transform="translate(213.7 668.7) rotate(-48.3)"/>
  <rect x="827.3" y="94.8" width="2" height="1" transform="translate(206.2 650.5) rotate(-48.3)"/>
  <rect x="750.8" y="37.2" width="1" height="2" transform="translate(223.1 573.8) rotate(-48.3)"/>
  <path d="M692.2,117.4c-.5-.4-1.2.3-.7.7s1.2-.3.7-.7Z"/>
  <path d="M696.6,119.9c-.5-.4-1.2.3-.7.7s1.2-.3.7-.7Z"/>
  <path d="M720,132.8c-.5-.4-1.2.3-.7.7s1.2-.3.7-.7Z"/>
  <path d="M763.5,150.1c-.5-.4-1.2.3-.7.7s1.2-.3.7-.7Z"/>
  <path d="M682.7,75.4c-.5-.4-1.2.3-.7.7s1.2-.3.7-.7Z"/>
  <path d="M665.3,57.3c-.5-.4-1.2.3-.7.7s1.2-.3.7-.7Z"/>
  <path d="M688.9,72.9c-.5-.4-1.2.3-.7.7s1.2-.3.7-.7Z"/>
  <path d="M667.2,52.2c-.5-.4-1.2.3-.7.7s1.2-.3.7-.7Z"/>
  <path d="M686.2,63.9c-.5-.4-1.2.3-.7.7s1.2-.3.7-.7Z"/>
  <path d="M735.9,101.4c-.5-.4-1.2.3-.7.7s1.2-.3.7-.7Z"/>
  <path d="M747.1,111.4c-.5-.4-1.2.3-.7.7s1.2-.3.7-.7Z"/>
  <path d="M691.3,53.7c-.5-.4-1.2.3-.7.7s1.2-.3.7-.7Z"/>
  <path d="M778.7,119.4c-.5-.4-1.2.3-.7.7s1.2-.3.7-.7Z"/>
  <rect x="749.9" y="86.3" width="2.1" height=".7" transform="translate(-3.8 43.5) rotate(-3.3)"/>
  <path d="M749,83.6c-.5-.4-1.2.3-.7.7s1.2-.3.7-.7Z"/>
  <path d="M679.5,20.4c-.5-.4-1.2.3-.7.7s1.2-.3.7-.7Z"/>
  <path d="M759.1,85.9c-.5-.4-1.2.3-.7.7s1.2-.3.7-.7Z"/>
  <path d="M699.8,29.1c-.5-.4-1.2.3-.7.7s1.2-.3.7-.7Z"/>
  <path d="M705.8,34.4c-.5-.4-1.2.3-.7.7s1.2-.3.7-.7Z"/>
  <path d="M700.2,22.7c-.5-.4-1.2.3-.7.7s1.2-.3.7-.7Z"/>
  <path d="M819.6,127.7c-.5-.4-1.2.3-.7.7s1.2-.3.7-.7Z"/>
  <path d="M779.1,76.9c-.5-.4-1.2.3-.7.7s1.2-.3.7-.7Z"/>
  <path d="M746.4,38.4c-.5-.4-1.2.3-.7.7s1.2-.3.7-.7Z"/>
  <path d="M834.9,111.9c-.5-.4-1.2.3-.7.7s1.2-.3.7-.7Z"/>
  <path d="M754,35.9c-.5-.4-1.2.3-.7.7s1.2-.3.7-.7Z"/>
  <path d="M842.2,102.3c-.5-.4-1.2.3-.7.7s1.2-.3.7-.7Z"/>
  <path d="M791.3,55.7c-.5-.4-1.2.3-.7.7s1.2-.3.7-.7Z"/>
  <path d="M903.7,150.5c-.5-.4-1.2.3-.7.7s1.2-.3.7-.7Z"/>
  <path d="M933.6,140.9c-.5-.4-1.2.3-.7.7s1.2-.3.7-.7Z"/>
  <path d="M936.5,140.8c-.5-.4-1.2.3-.7.7s1.2-.3.7-.7Z"/>
  <path d="M939.4,130c-.5-.4-1.2.3-.7.7s1.2-.3.7-.7Z"/>
  <path d="M871.3,68c-.5-.4-1.2.3-.7.7s1.2-.3.7-.7Z"/>
  <path d="M946.2,125.3c-.5-.4-1.2.3-.7.7s1.2-.3.7-.7Z"/>
  <path d="M881.9,66.7c-.5-.4-1.2.3-.7.7s1.2-.3.7-.7Z"/>
  <path d="M990,148.3c-.5-.4-1.2.3-.7.7s1.2-.3.7-.7Z"/>
  <path d="M947,101.9c-.5-.4-1.2.3-.7.7s1.2-.3.7-.7Z"/>
  <path d="M1001.5,114.4c-.5-.4-1.2.3-.7.7s1.2-.3.7-.7Z"/>
  <rect x="494.4" y="134.1" width="1" height="2" transform="translate(64.8 414.8) rotate(-48.3)"/>
  <path d="M618.9,14.6c-.5-.4-1.2.3-.7.7s1.2-.3.7-.7Z"/>
  <rect x="624.9" y="148.6" width="3" height="1" transform="translate(98.4 517.7) rotate(-48.3)"/>
  <path d="M601.8,172.2c-.5-.4-1.2.3-.7.7s1.2-.3.7-.7Z"/>
  <path d="M610.4,179.8c-1.4,3.2-2.5,5.4-6.4,5.7l1.2,1.7,2-2.1,3.6.3-1.4-1.3c-.2-1.2,4.3-2.7,1-4.3Z"/>
  <polygon points="600.7 195.3 602.9 197.2 604.9 195 603.1 194 601.7 194.1 600.7 195.3"/>
  <path d="M590.4,188.8l-.7.7,3.1,4.1c1.1-2.2-.7-3.5-2.4-4.8Z"/>
  <path d="M588,183.9l.2,4.2,1-1.8c.1-1.2-.2-1.8-1.2-2.4Z"/>
  <rect x="602.3" y="189.9" width="2" height="2" transform="translate(59.5 514.4) rotate(-48.3)"/>
  <path d="M594.7,189.9l2-2.2c0-.5-1.7-.2-2.5-.2l.5,2.4Z"/>
  <rect x="606.5" y="195.4" width="2" height="1" transform="translate(57.1 519.2) rotate(-48.3)"/>
  <path d="M612.9,179.3c-.5-.4-1.2.3-.7.7s1.2-.3.7-.7Z"/>
  <path d="M607.3,181.1c-.5-.4-1.2.3-.7.7s1.2-.3.7-.7Z"/>
  <path d="M600.1,190.7c-.5-.4-1.2.3-.7.7s1.2-.3.7-.7Z"/>
  <path d="M605.4,196.8c-.5-.4-1.2.3-.7.7s1.2-.3.7-.7Z"/>
  <path d="M587.6,182.2c-.5-.4-1.2.3-.7.7s1.2-.3.7-.7Z"/>
  <rect x="710" y="93" width="2" height="2" transform="translate(167.9 562.4) rotate(-48.3)"/>
</svg>