<?xml version="1.0" encoding="UTF-8"?>
<svg id="Layer_1" xmlns="http://www.w3.org/2000/svg" version="1.1" viewBox="0 0 709.7 624.2">
  <!-- Generator: Adobe Illustrator 29.1.0, SVG Export Plug-In . SVG Version: 2.1.0 Build 142)  -->
  <g>
    <path d="M544.1,151.8c38,45.8,60.1,102.5,62.2,162.2M606.3,319.7c.3,63.3-23.6,124.8-65.5,171.8-140.3,157.5-406.2,82-443.9-124.2S230.3,29.7,412.4,72.5c48.1,11.3,93.2,39.2,127.2,74.6M515.1,132.9c-110.9-96.1-287.7-74.7-370.9,46-76.6,111.1-52.3,262.9,57.7,341.7,160.2,114.8,379.6,14.5,397-180.9.2-2.6,1.2-18.9,0-20l-17.9,1.6c-.9,6.2-.3,12.2-.8,18.4-14.7,170.8-204.8,265.9-351.7,175.6-162.1-99.6-140-335.4,34.3-406.9,88.7-36.4,201.4-12.8,263,61.7,33.4,40.5,54,92.7,55.2,145.5l8.2-.8c-1.3-11.8-2.2-23.6-4.3-35.3-27.5-152.3-187.5-235.3-329.9-175.7-158.7,66.4-195.4,282.4-61.8,394,149.6,125,364.4,41.4,393.6-147.5.2-8.5,1.3-16.8,1.6-25.3s-.6-3,.8-2.8c3.3,95.7-66,189.4-154.4,222.1-84.7,31.3-171.5,13.2-240.3-43.1C44.7,378.3,102.6,140.3,286.9,91c144.3-38.6,284.7,57.3,302.2,204.6.7,6,1.3,13.3.8,19.2,2.2.3,9.1-.2,9.5-2.8-1.9-51.2-19.6-100.2-49.7-141.3-9.5-13-22.4-27.3-34.5-37.8ZM498.8,146c-76.2-63.5-189.4-69.2-272.8-16.2-138.4,88-141.8,285.9-5.7,378.2,106.6,72.4,250.7,44.3,321.4-62.9,62.4-94.7,44.2-226.6-42.8-299.2Z"/>
    <path d="M549.8,152.4c37.6,46.7,58.5,102.4,60.5,161.4l-7.4.3c-.4.9-1.1,1.6-1.8,2.2l.4.4c.8.7,1.3,1.5,1.6,3h7.2c.3,64-23.3,126-66.5,174.4-33.8,37.9-77,64.6-125.1,77.2-21.5,5.6-43.7,8.4-66,8.4-24.5,0-49.1-3.4-73.2-10.1-46.1-12.9-87.5-37.5-119.9-71-34.5-35.8-57.6-80.9-66.7-130.7-8.2-44.8-5.2-88.8,9-130.5,13.2-39,36.2-74.8,66.5-103.6,31-29.5,69.2-51.2,110.3-62.8,43.2-12.2,89.8-13,134.6-2.5,46.1,10.8,91.1,36.9,127.1,73.6M351.1,76.7c-10.8,0-21.6.7-32.5,2.1-70,8.9-132.4,46.3-171.1,102.4-36.6,53.1-50.9,117-40.5,180.1,10.5,63.3,45,118.8,97.2,156.1,74.2,53.2,167.2,62.6,248.6,25.2,81-37.2,134.1-113.1,142.1-203.2.3-3.1.6-10.9.6-15.3l-2.3.2c2.2,93.8-65,189.7-157.1,223.7-83.6,30.9-172.6,14.9-244.2-43.8-35.6-29.2-61.6-66.9-75.3-109-12.8-39.5-14.9-82.3-5.9-123.9,9.2-42.7,29.5-82.1,58.7-114,31-33.8,71.2-58.1,116.5-70.2,35.7-9.6,71.8-11.3,107.3-5.1,34.1,5.9,65.9,18.7,94.5,38.2,28.7,19.4,52.4,44.2,70.5,73.7,18.8,30.6,30.6,64.7,34.9,101.3.7,6.1,1.1,11.2,1,15.5.5,0,.9-.2,1.3-.3-2.2-49.3-19.1-96.7-48.9-137.3-9.8-13.4-22.5-27.3-33.9-37.2-44.3-38.4-101.8-59.3-161.4-59.3ZM351.7,97.8c-43.9,0-87.4,12.4-123.6,35.4-33,21-58.9,48.5-77.1,81.9-17,31.2-26.3,66.7-26.8,102.5-.5,35.8,7.7,71.4,23.7,103.1,17.1,33.8,42.2,62.1,74.6,84.1,50.9,34.5,111.9,47,171.8,35.2,59.4-11.8,110.6-46.2,144.1-96.9,29.7-45.1,41.8-100.1,34-155.1-7.8-55.1-34.8-104.4-76.1-138.8h0c-36-30-82.7-48.1-131.4-50.9-4.4-.2-8.8-.4-13.2-.4ZM538.9,151c.4.5.8,1,1.3,1.4-.1-.5-.1-1,0-1.4-.3,0-.5,0-.8,0h-.4Z"/>
  </g>
  <g>
    <path d="M349.8,223.7c96.4-.3,134.8,119.3,60.1,176.4-57.3,43.8-143.3,9.4-157.4-59.9-12.5-61.3,35.9-116.3,97.4-116.4ZM347.6,230.8c-83.4,3.1-122.2,104-57.5,159.1,39,33.2,99,29.5,131.2-11,49-61.5,5.4-151-73.7-148.1Z"/>
    <path d="M352,422.1c-12.2,0-24.7-2.2-36.7-6.7-33.9-12.7-58.3-40.6-65.3-74.6-5.9-28.9,1.4-58.6,20.1-81.6,19.5-24,48.6-37.8,79.7-37.9.1,0,.2,0,.3,0,23,0,44.3,6.8,61.5,19.7,16,12,28,28.6,34.6,48,14.2,41.7.5,86.1-34.8,113.1-17.2,13.2-38,19.9-59.4,19.9ZM349.8,223.7v2.5c-29.6,0-57.3,13.2-75.9,36-17.7,21.8-24.7,50-19.1,77.4,6.6,32.4,29.8,58.9,62.1,71,31.5,11.8,65.7,7.1,91.3-12.5,17.3-13.2,29.4-30.8,34.9-50.7,5.1-18.6,4.5-38.2-1.8-56.8-6.3-18.5-17.6-34.3-32.8-45.6-16.4-12.3-36.7-18.8-58.8-18.7v-2.5ZM351.1,414.9c-22.8,0-45.2-8.1-62.6-23-29.9-25.5-40.7-63.9-28.1-100,6.1-17.5,17.1-32.7,31.7-44,15.7-12,34.8-18.7,55.5-19.5,19.1-.7,37.3,3.9,52.8,13.4,14.5,8.9,26.2,21.7,34,37.1,16.7,33.1,12.5,72-11.1,101.6-15.5,19.4-37.9,31.5-63,33.9-3.1.3-6.1.4-9.2.4ZM347.6,230.8v2.5c-19.5.7-37.7,7.1-52.5,18.5-13.9,10.6-24.3,25-30,41.6-11.9,34.2-1.7,70.5,26.7,94.6,18.7,16,43.5,23.7,68.1,21.4,23.8-2.3,45-13.7,59.6-32.1,22.3-28,26.3-64.9,10.5-96.2-7.4-14.6-18.5-26.7-32.2-35.1-14.6-9-31.9-13.3-50-12.7v-2.5Z"/>
  </g>
  <path d="M405,116.2c.5,2.5-1.2,1.6-2.9,1.6-6.5.1-17.7-3.4-25.1-4.3-78.2-9.1-155,22.9-200.6,87-58.8,82.7-49.7,193.3,20.8,265.9,1.8,1.9,9.1,7.4,9.8,9s-.2,1.6-1.2,1.2-12.4-11.6-14-13.4c-98.6-103.3-61.2-272.7,65.8-332.9,46-21.8,98.1-25.5,147.4-14.1Z"/>
  <path d="M504.5,466.5c-25.6,26.8-63.4,50.4-99.5,59.6-35.3,8.9-75.7,10.4-110.4-1.3l.4-1.6,22.3,5.5c139.2,21.3,262.7-98.2,241.4-238.7-6.4-42.2-26.9-85.2-56.7-115.8-1.2-1.2-9.7-7.8-8.6-9,4.7,2.9,9.3,7,13.1,11,75.9,80.2,74.1,210.9-1.9,290.2Z"/>
  <path d="M398.3,133.6c.2.2.7,1.7,1,2.2-1.3.9-14.9-3.3-17.8-3.9-88.6-15.9-180.2,37-212.7,119.7-29.1,74.3-8.7,158,50.5,210.6.1.6-.8.5-1.2.4-3.6-1.1-17.8-16.3-20.9-20-90-110.5-32.8-273.6,103-308.9,25.4-6.6,62-7.8,87.7-2.6,1.5.3,9.8,2.1,10.3,2.4Z"/>
  <path d="M485.5,459.7c-45.8,44.5-111.2,65.7-174.7,51.8-2.7-.6-9.2-1.8-10.5-4.3,7.6.3,15.1,3.3,22.6,4.4,86.3,12.7,173.1-37.5,206-117.6,29.7-72.1,11.7-159.2-45.4-212-.5-.5-2.7-2.2-2-2.9,3.8.4,4.8,3.4,6.9,5.4,41.2,38.5,62.1,103.4,55.6,159.2-5.3,45.4-26.2,84.6-58.5,116Z"/>
  <path d="M245,181.1c-18.7,13.3-37.3,34.9-48.7,54.7-40.4,69.6-26.5,159.2,34.5,211.8l-.4,2c-8.8-7.7-17.2-15.5-24.1-24.9-78-105.8-16.5-253.9,111.5-276,23.2-4,50.9-5,73.9,1.8,1.1.3,3.1.3,2.8,2.1s-2.1.3-2.7.2c-53.6-10.4-101.7-3.7-146.7,28.3Z"/>
  <path d="M305.2,492.1c0-1.4-.5-1.8,1.1-1.6,5.8.7,11.5,2.4,17.4,3.1,22,2.5,44.2,2.3,65.6-2.9,136.4-32.7,182.6-197.2,81.4-295.6-.3-.3-2.1-2.7.1-2.2,9.2,6.7,16.6,15.8,23.2,25.1,44.8,63.2,44.6,148.4-3.1,209.8-43.8,56.3-116,81-185.7,64.2Z"/>
  <path d="M388.7,168.5c0,1.4.5,1.8-1.2,1.6-8-1-15.9-3.5-23.8-4-100.2-6.6-181.4,71.8-171.3,172.8,3,29.7,21.4,71.7,44.6,91.1,2.5,2.1,8.6,3,6.6,7.3-3.3-4-7.8-6.1-11.5-9.8-67.8-67.2-50.4-184.7,26.7-236.5,37.5-25.2,86.1-33.8,130-22.5Z"/>
  <path d="M462.8,208.9c13.7,10.5,31.7,42.3,37.4,58.7,39,112.3-51.3,222.7-168.3,211.5-7.2-.7-14.4-3.2-21.7-3.3l.4-2.5c69.9,15.7,142-13.7,177.2-76.3,31.7-56.3,24.1-130.2-18.5-178.7-1.9-2.2-9.6-8.6-10.2-10.2-1.2-2.9,3.1.3,3.7.8Z"/>
  <path d="M382.9,185.7l-1.3,2.3c-7-1-14.1-3.3-21.2-3.9-45.3-4.2-94.3,17.3-121.8,53.1-45,58.7-37.9,133.6,15,184.3,1.1,1.1,3.7,1.1,2.1,2.8-1.6.1-3.8-1.6-5-2.7-16.8-15.3-31.2-39.1-37.7-60.8-30.6-102.7,62.9-198.3,166.3-175.1,1.1.3,2.4,0,3.6,0Z"/>
  <path d="M445.9,220.8c2.3-2.6,8.8,4.8,10.2,6.5,64.4,73.6,35.8,193.2-57.3,225.6-26.5,9.2-56.8,12.5-83.9,4.5-1.3-.6,0-2,.4-2,1.4-.1,9,2.6,11.7,3,56.4,8.8,115.2-18.3,143.7-67.7,31.4-54.4,21.7-127.5-24.9-169.9Z"/>
  <path d="M310.7,448.6l1.3-2.3c9.4,2.8,18.8,3,28.5,3.2,112.9,2.3,176.4-128.1,101.8-214.3-2.3-2.6-7.1-5-6.9-8.8,14.9,12.6,26.9,31,33.1,49.5,25,74.6-15.4,151.9-91.6,171.6-22.2,5.7-43.8,5.3-66.3,1.2Z"/>
  <path d="M376,204.9l-1.3,2.4c-2.7-.9-5.5-1.7-8.4-2.1-104.5-16.5-184.5,104.8-116.3,190.6,4.9,6.2,11.8,10.5,16.4,16.7-1.2.9-8.4-5.6-9.9-6.9-28.3-27-39.8-74.7-29.6-112.2,15.3-56.3,70.9-95.1,129-91.7s13.4,2.4,20,3.3Z"/>
  <path d="M430.1,402.7c-23.3,23-59.2,34.7-91.7,32.2-2-.2-16.7-2.5-16.8-3.7,0-1.7,2.4-.6,2.9-.5,19.8,2.7,34,3.5,53.8-1.6,67.8-17.4,102.2-91,73.2-154.7-6-13.2-12.8-18.9-21.1-29.6-1-1.2-2.5-2.8-2.5-4.5,1.2-1.3,15,16,16.2,17.7,31,44.2,24.1,106.9-14.1,144.6Z"/>
  <path d="M350.1,296.2c32.3-.7,33.6,52.6-1.9,49.6-30.4-2.5-30-48.9,1.9-49.6ZM347.6,303.6c-17.3,2.2-20,26.8-4.2,34s20.3-.8,23.3-10.1c4.3-13.4-4.8-25.8-19.1-23.9Z"/>
</svg>