<?xml version="1.0" encoding="UTF-8"?>
<svg id="Layer_1" xmlns="http://www.w3.org/2000/svg" version="1.1" viewBox="0 0 709.7 624.2">
  <!-- Generator: Adobe Illustrator 29.1.0, SVG Export Plug-In . SVG Version: 2.1.0 Build 142)  -->
  <path d="M101.4,280.6c1,.1,2-.5,2-1v-88c0-.3.7-.6.8-1.2.6-3.4.5-4.2,2.8-7.2,8.1-10.6,23.6-18.6,34-27,1.2-7.3-1.2-11.9,3.4-18.4s1.3-.6,1.7-1,.2-1.2.9-1.7c4.8-3.3,15.1-6.1,20.9-6.9,16.6-2.5,48.4-2.4,63.2,5.8,4.8,2.7,6.7,5.3,6.3,11.2,4.8.2,9.7-.3,14.5,0,8.8.4,18.2,1.4,27,2s5.8.4,8,0c3.1-.4,4.7-4.6,6.5-6.5,9.1-9.9,35.2-30.2,48.5-31.5,7.2-.7,17.6-.2,25.1,0,22.8.6,46.1,2.2,68.9,3.1s44.6.2,65.9,3.2c6.3.9,9.4,5.5,10.6,11.3s1.6,10,2,14-1.4,11.1,2.7,12.3c7.9.5,16-.2,23.9,0s3.2,1,4.9,1.1c16,.7,33.3.2,49,3,9.2,1.6,16.9,8.9,17.6,18.4v267.1c-.7,7.4-2.3,12.4-6.2,18.8-9,14.8-29.2,32.1-46.6,35.4s-24.3.7-34.8.3c-57.9-2.2-116.1-6-173.9-8.1-17.7-.6-32.7,5.3-50,6.1-16.9.8-33-2.9-48.8-8.3-6.9-2.4-6-2.6-13.2-2.9-33-1.7-66.1-2.6-99-4.8s-26.1,0-31.9-8.1c-2.3-3.2-3.2-7.8-4.5-11.5v-168.9c-.4-.9-1-1.1-1.7-1.4M495.4,124.1c-7.5-2-15-1.5-22.5-2-32.4-2-65.4-3.4-97.9-4.1-15.7-.3-31.4-2-45.5,5.6s-16.8,12-24.8,18.3-1.9-.3-1.3,2.2c3.8.2,7.7-.3,11.5,0,39.3,2.4,79.6,4,118.9,5.1,10.3.3,21.1-1.1,31.1,1,6.6-4,12.1-10,18-15,4.1-3.6,9.4-6.4,12.5-11ZM504.3,130.1l-6.5,4c-4.3,5.1-10,8.7-15,13s-6.4,7.7-11.4,9.1l4.9,23.9c1.6.4,1.7-.4,2.5-1,9.8-7,19.4-15.6,28.1-24l-2.5-25ZM228.4,142.1c-2.1-.5-3.8-1.7-6-2.5-16.3-5.8-48.7-6.6-64.6.5s-10.6,6.3-3,7.1,7.7,1.8,12.2,2.8c13.9,2.8,37.6,1.2,51.6-2,1.1-.2,12.5-3.8,9.7-5.8ZM567.4,243.1v-42.5c0-2-3.2-.5-4.5-.5-7.1.3-13.4-.9-20-1.1-21.3-.6-42.9-.1-64.1-1.9-6.2-.5-7.2-1.4-9-7s-6.2-29-8.4-30.6c-3.4-2.4-11.3-1.1-15.6-1.4-47.2-3.1-94.9-2.5-142-6-2.6-.2-5.3,0-7.9,0-3.2,4.9-6.3,9.9-9,15.1-5.3,10.2-9.4,23.4-15.1,32.9s-12.7,5.4-19,5.1c-30.3-1.6-60.7-3.2-90.9-5.1-14-.9-28-.9-42-3-2.7-.4-4.6-2.5-7.5-.9.3,1.8-.9,3.8-.8,5.2.2,5.1.4,10.1.8,15.2s-1.4,3.3-.9,4.8c1,3.4,5,2.3,7.4,2.7,8.7,1.4,15.3,2.3,24.1,2.9,39.1,2.9,78.6,4.6,117.9,6.1,15.8.6,17.2-2.9,30.3-7.8,29.2-11.1,63.3-9.7,92,2.6s18.1,10.5,22.8,11.2,8.2-.3,12,0c40.9,2.5,82,3.3,122.9,5.1,6.6.3,11.8-.6,18-1.1s5.7.2,8.5,0ZM237.4,154.1v20.5c0,1.7-8,6.2-10,7-19,7.4-52.7,6.7-72.2,1.2-4.4-1.2-12.2-3.6-13.6-8.4s.6-5.3-.7-7.3c-8.1,6.7-18.1,11.5-24.5,20l15.5,3c41.2,3.2,82.8,2.9,123.9,6.1,2.2.2,4.7,0,6.9-.1l3.8-5.2,16.8-35.7c-4.2.7-8.4-.8-12.4-1-7.3-.3-14.8.3-22.1,0-1.8,0-3.3-1.1-5-1.1s-4.2,1.6-6.5,1.1ZM150.4,154.1v18c8,2.8,4.3-.8,4-5.5s-.1-4.2,0-6.1c.2-3.6,2.5-6.2-4-6.5ZM220.4,156.1c-1.6,0-3.6-.5-4.5,1-3.2,4.8-.3,13.6-1.5,19l6-1v-19ZM169.4,158.1l-6-1v19c1.5-.4,6,1.6,6-.5v-17.5ZM206.4,158.1h-3.5c0,0-1.1,2.1-1.1,2.1h-4.4c.1,6.3-.6,12.7,1,18.9l8-1v-20ZM188.4,160.1h-10v18l10,1v-19ZM481.4,188.1c6.4,1.8,13,.7,19.5,1,18.6.9,37.8,2.2,55.9,1,3-.2,6,.3,9,0,8.4-.9,23.4-10.4,30.5-15.5s8-4.7,2.1-7-9.9-3.1-13.6-3.4c-21.2-1.8-42.9-.9-64-3-1.3-.1-2.7-.2-4,0-4.4.6-17.6,13.5-22,17l-13.5,10ZM601.9,180.1l-26.4,17.6c-.2,2.3-.1,4.6-.1,6.9,0,7.2,1.5,14.6,1.1,22s-3,9.3.5,12.5c4.9-2.7,9.8-5.3,14.4-8.5s11.7-8.6,12.6-11.4.4-1.6.5-2.5c.7-7.6.7-22.5,0-30.1s-1.3-6.5-2.5-6.5ZM410.1,256.3c-33.6-30.8-84.2-39.2-125.8-19.8s-3.4,1.7-4,3.5c2.7-.5,4.5-2.6,7.5-3,14.1-1.8,29.9-2.4,43.9,0,47,8.1,84.3,43.9,98.1,88.9,10.5,34.2,5.8,61.1-9.6,92.5-.4.9-2,2.6-.5,3.5,3.8-4,8.4-9,11.4-13.6,31.3-50.2,22.3-112.4-21.1-152.1ZM604.4,425.6v-194.5l-1.2,1.8c-4.7,2.7-8.8,6.3-13.5,9.1s-13.9,6.6-14.2,7.8c-1,3.3.8,6,.9,8.8,3,62.6-1.5,128.5-1,191.1v4.5c3.6.8,2.6-1.2,4.4-3s3.1-2.1,4.6-3.4c7.3-6.7,14.1-14,20-22ZM262.3,241.1c-5.8-.2-11.7.3-17.5,0-17.2-.7-34.7-2.3-51.9-3.1-25.8-1.2-52-.3-77.2-5.8-1.1-.2-2.2-.3-3.3-.2,0,2.5.1,5,0,7.5-.2,3.7,0,4.8,0,8,.3,62.7-.3,125.4,0,188.1-.4,4.6,7.7,5.8,11.6,6.4,23,3.9,47.8,2.2,71,5,1.5.2,3,0,4.5,0-25.6-35.5-34.7-83.8-17.5-125,12.9-30.9,33.9-46.2,59.6-65.4,4.9-3.7,14.5-11.2,19.7-13.4s1.6,0,1.3-2.2ZM403.4,431.1c4.5-3.5,6.2-10.4,8.8-15.7,14.1-28.5,19.9-51.8,10.9-83.5-17-60-69-92.7-130.2-87.7-5.5.4-15.4,2.6-20.8,4.2s-10.1,5-15.7,6.3c-2.9,2.4,2.5,1.1,3,.9,8.1-1.9,16-4.9,24.4-5.5,94.6-6.7,158.8,87.6,122.1,174.1-1,2.4-3.4,3.7-2.5,7ZM567.4,251.1c-1.1,0-2.3-.1-3.5,0-24.8,3.1-50.3-.2-75-1.1-23.4-.8-46.8-.3-70.1-1.9-2-.1-3.5-1.3-5.5-1-.4,1.6.6,2,1.5,3,2.3,2.5,5.9,4.6,8.5,7.5,54.8,59.2,44.2,153.7-26.3,194.7-1.1,1.3-5.7.2-5.7,1.3,0,2.6,1.5,1.4,3.5,1.5,40.3,1.1,80.6,3.6,121,5,12.3.4,25.5,2.3,37.9,1,4-.4,10.5-1.9,13.5-4.5v-205.5ZM373.6,455.4c66.3-63.7,32.6-177.1-58-195.1-80.1-15.9-148.7,51.9-132,132,17.8,85.8,119.2,124.1,187.2,65.7.7-.6,1.7-.7,2.3-1.3l.5-1.4ZM603.3,442.1l-15.5,14c-3.7,3.4-11.7,6.2-12.5,11.5s1.2,10.1-1,14.5c1.7.4,2-.7,3-1.5,8.2-6.8,24.2-22.7,25.8-33.2s.3-3.5.2-5.3ZM229.4,473.1c-.7,0-1.4,0-1.9-.5-3.9-3.1-8.1-6-12-9s-8.3-7.9-9.7-8.3c-2.9-.8-8.5.1-11.9,0-23.8-1.6-48.3-1.6-71.9-5.1-1.6-.2-9-2.5-9.5-2-.4,10.2-.6,18,10.7,20.8,15.6,3.9,34.7,2.6,50.8,3.2,16.3.6,33.7,3.2,50,3,1.8,0,3.2-1.9,5.5,0v-2ZM567.4,467.1c-3.1-.1-5.4,1.8-8.5,2-15.3,1.4-31.8-.7-47-1.1-42.1-1.1-84.1-2.4-126-5-1,0-2-.9-3.1-1-3.4,0-19.3,13.3-23.9,16-1.2.7-2.1,1.2-3.5,1,0,2.1-.5,1.9,1.5,2s4-.2,6,0c8.8.9,18.2,1.6,27,2,51,2.4,102.1,3.5,153,6,8.8.4,16.6-.2,24.5-4v-18Z"/>
  <path d="M506.5,278.9c-3-5.2-.5-12.1,6.2-10.7,9.7,2.2,3.4,16.7-6.2,10.7Z"/>
  <path d="M542.2,270.2c1.4,1.8,1.5,7.7-.8,9.4-5,3.5-12.6-1.6-9.5-7.5s8.6-4.1,10.4-1.8Z"/>
  <path d="M490.2,268.3c.2.2,2,4.2,2,4.5.2,1.6-1.8,5.7-3.5,6.2-7.4,2.2-11.8-7.1-5.7-10.7,2-1.2,5.4-1.7,7.2,0Z"/>
  <path d="M457.2,215.9c-7,1.6-15.1,1.4-22.4,1.2-11.1-.4-22.8-1.4-33.9-2.1-4.1-.3-8.4.3-12.5,0-1.8-3.8-.7-7.6-1-11.5-.6-7.5-2.9-17.6-2-24.9s6.2-7,12.5-6.6c16,1.1,32.1.9,48,2s7,1.5,10.5,1.5c1.7,1.2.8,6,.9,8.1.6,9,1.9,18.7,1.1,28-.1,1.6-.6,2.9-1.2,4.3ZM394.4,181.1v26c7.5.2,15-.3,22.5,0,7.4.2,15.4.6,23,1s9.5,2.6,9.5-.5v-22c0-.2-1.2-2.5-1.6-2.5l-53.4-2Z"/>
  <path d="M364.1,440.8c-31.3,32.4-84,34.9-121.1,11.1-63.9-41.1-58.9-140.7,13.4-169.4,74.2-29.4,151.6,41.1,129.8,117.8-3.9,13.7-12,30.2-22,40.5ZM280.1,285.3c-56.8,5.9-88.2,66.2-67.2,117.8,17.7,43.6,68.3,67,112.8,51.8,46.6-15.9,69.6-72.1,48.9-116.5-16.8-36-54.8-57.1-94.5-53.1Z"/>
  <path d="M242.7,321.3c.3-.3,1-.2,1.4-.6,35.9-37.2,99.5-23.2,118.1,25,21.7,56.2-29,111.6-87.1,93.1-49.2-15.7-66.7-79-32.4-117.6ZM288.1,308.3c-60.1,5.6-75,86.4-24.4,116,42.3,24.7,91.9.6,95.7-48.7,3-38.8-33.5-70.8-71.2-67.2Z"/>
  <path d="M291.1,316.3c21.3-2.5,42,5.7,53.1,24.4,25.1,42.3-15.3,91.5-62.9,73.9-46.9-17.5-41.4-92.2,9.7-98.3ZM292.1,324.3c-13.7,1.9-27.3,13.1-32.2,25.8s-4.1,17.4-1,28c10.8,37.1,59.7,43.9,79.4,10.3,18.7-32.1-10.7-69-46.1-64.1Z"/>
</svg>