<?xml version="1.0" encoding="UTF-8"?>
<svg id="Layer_1" xmlns="http://www.w3.org/2000/svg" version="1.1" viewBox="0 0 709.7 624.2">
  <!-- Generator: Adobe Illustrator 29.1.0, SVG Export Plug-In . SVG Version: 2.1.0 Build 142)  -->
  <path d="M281.3,427.7c-1.7-7.6-2.9-15.5-4.9-23s-3-10.9-4.8-15c-2-4.5-6.8-9.7-9.5-14.1-22.5-37.5-23.5-85.2-3.1-123.8,3.8-7.1,10.6-15.1,13.3-22.1,5.6-14.4,7.6-32.4,11.3-47.5s4.9-11.6,15.9-11c.2-6.8-.2-13.7,0-20.5,1-35.6,2.1-71.1,4.7-106.4.5-6.4-.8-15.2,6.1-18.4s5.3-.5,8.8-.4,3.6-.8,5.4-.9c26.3-1.2,53.5,1,79.9,0,3.6.3,7.6,4.2,8.6,7.8s1.2,10.5,1.7,15c2,18.7,2.6,37.2,3.5,56.1,0,.5-.6,1.3-.4,2l13.6-7,14.6-8.9c3.6-1.1,4.7,2.9,1.8,5.1-7.5,5.7-16.3,9.7-24,15s-4.6,3-5,4.4c-.6,2.3-.2,11.3-.1,14.3.4,10.9,2.1,24.6,1.6,35.2s-1.7,4.6,0,7.5c10.3.4,13.6,1.2,15.9,11.8,3.8,17,5.7,34.5,12.8,50.7,1.9,4.2,4.9,7.8,6.5,12,.2.2,1.9-1.4,2.5-1.8,2.2-1.1,12.4-5.5,14-5.5,3.6,0,3.5,3,1.1,5.2s-10.1,4.9-13.8,6.9v.4c6.5,12.5,11.3,25.8,14.6,39.6h9.6c8.2-1.3,12.7,2.1,13.4,10.8.5,6.3.3,17.9-.9,23.9s-2.9,4.6-4.1,5.4-3.1.8-3.4,2c-.1,6.1,0,12.2-.1,18.4,0,2,0,3.3,0,5.5s.6,9.4-2.7,8.4-1.2-8.6-1.1-10.8c.3-7.4,0-14.8-.8-22.1-2.2,0-4.3.1-6.5,0s-2.9-1.7-3.9,0-.9,5.7-1.3,7.5c-3.3,13.7-9.8,27.2-17.1,39s-7.1,8.9-9.4,15.8-5.3,19.1-6.9,27.2c-1.5,7.7-1.9,15.8-3.6,23.5-3,5.8-9.3,5.9-15,5.6-.2,7.6.2,15.3,0,22.9-.6,25-2.5,50.3-3.9,75.2s-.5,20.5-1.7,30.3c-1.1,8.5-1.4,13.7-10.9,15l-91.3-.2c-3.7-1.8-6.5-3.9-7.3-8.4-1.2-7.4-1.1-15.5-1.7-23.1-1.8-26.7-3.3-54.1-3.9-80.8-.2-10.5.2-21.1,0-31.7-6.8.2-12.6.9-15.5-6.6l-1.8-7M414.1,204.7c0-1.3-.7-2.2-.8-3.6-1.3-18.7.5-39.5,0-58.5-.7-31.7-1.5-66.5-5.4-97.7-.6-4.5,0-9.8-3.9-12.8h-91.4c-1.9,1.9-1.2,4.1-1.5,6.4-4.5,32.7-4,68.4-4.5,101.8s-.8,2.6-.8,3.9c-.3,20.1.3,40.3,0,60.5,7.3-3.4,14.5-7,22.3-9.2,23.7-6.9,49.3-5.7,72.4,3l13.6,6.2ZM299.7,177.5c-2.9.2-5-1.4-7.7.4s-1.9,6.1-2.5,8.6-1,4.8-1.6,7.2c-2.1,9.7-4.5,19.4-6.7,29,.2,1,1.2-.5,1.5-.8,5.4-5.1,10.8-9.5,16.9-13.6v-30.8ZM438.7,222.3c-2.2-7.1-4.4-14.1-5.9-21.4-.9-4.3-2.6-19.6-4.4-21.8s-7.7-2.8-8.1.4c-.7,6.3-.8,12.9-.4,19.2.2,2.9.6,5.8.5,8.7,1.7,2.9,5,3.8,7.5,5.8s5.7,5.5,8.5,8,1,1.5,2.3,1.2ZM360.2,197.7c-10.3,1.5-18.4,1.1-29,4.2-84.6,24.8-109.4,136.7-41.1,195.8s48.2,27.9,68.3,26.4c17-1.3,30.5-2.5,46.3-10.2,41-19.9,68.8-65,64-112.7-5-50-39.4-91.9-87.4-101.1s-17.5-3-21.1-2.4ZM489.8,298.4h-14.2c-.4,5.5,5.1,2.6,8,2.4s4.9.2,7.3,0c.3-.9-.5-2.2-1.2-2.4ZM477.5,309.6c2.2.6,10,0,13.1,0s1.3-3.1.4-3.6c-3-1.2-6.1,0-8.9.4s-5.2-.6-5.7,1.2.7,1.9,1.2,2ZM490.9,315.2h-13.4c-.2,0-.9-1.2-1.1-.8-.2,2.2-.9,3.4,0,5.6h12.7c.1,0,1.1-1,1.9-.8v-4ZM300.4,413c-7.1-3.8-13.1-9.3-19.1-14.5,1.3,5.9,3.1,11.6,4.4,17.4s2.7,16.2,4.4,24.2c.2,3.1,7.4,4.7,8.9,3.6s.7-.9.8-1.6c.6-4.7-.2-11.1,0-16.1s.8-2.5.8-3.9c.2-3,0-6.1-.1-9.2ZM420.3,413.3v28.8c0,.1.7,1.9.8,2,.8.9,6.9-.7,7.7-2s1.1-3.1,1.3-4.1c2.4-11,3.5-22,6.5-33.3s1.3-4.2,2.1-6.2c-1-.9-4.1,3.3-5,4-4.4,3.7-9.1,7.1-13.4,10.8ZM414.1,416.9c-.5-.6-9.3,4.6-10.7,5.2-26.6,11.8-59.4,11.4-86,0-1.7-.7-10.8-6-11.5-5.2.4,19.9-.5,39.8,0,59.7.7,33.2,2.7,67.1,5.4,100.1.2,2.2-.4,7.7.9,9.1s4.7.9,5.6,1c28.1,1.3,57.1-1.1,85.3,0,5.9-.4,4.5-5.6,5-10,3.6-35.5,5.3-73.8,6.1-109.7.4-16.7-.4-33.4,0-50.1Z"/>
  <path d="M474.1,228.2"/>
  <path d="M474,252.7"/>
  <path d="M357.9,208c1.4-.1,2.3.7,3.6.7,72.4,1.2,116.1,76.1,87.6,144.9-27.9,67.2-116.4,79.6-162.4,25.2-41.9-49.5-29.2-126,25.9-158,14.1-8.2,29.6-11.2,45.4-12.8ZM297.6,240.1c-70.6,70.2-5.1,189.9,89.1,162.2,56.2-16.6,81-85.9,53.4-138.6s-100.5-65.4-142.5-23.6Z"/>
  <path d="M357.4,322.5l-21,65c-1.6,3-1.7,8.2-6,7.8-1-2.9-1.5-3.5-.6-6.6,6-21.4,15.4-43.1,21-64.6,1.8-7.1-.9-5.1-1.8-10.2s0-4.8-.2-5-1.8-.4-2.5-1c-11.7-8.4-23.4-16.7-35-25.1-2.5-2.5.4-6.6,3.5-6.8s17,10.9,20.8,13.5,10.8,6.9,16.2,10.4c3.1.9,6.2-1.4,9.1-1.5s3.5,1.1,5.4.9c2.8-.3,9-6.8,11.5-8.8,9.3-7.5,18.5-14.9,27.7-22.4,3.1-2.5,14.7-13.7,17.7-13.5,3.5,2.4,1.9,6.2-.8,8.6-13.9,13.2-30.7,26.7-45.7,38.8-1,.8-3.8,2.1-4.2,2.8-1,1.5,0,6.7-.5,9.1s-3.1,5.4-4.1,6.2c-2.9,2.1-6.9,2.6-10.3,2.4ZM364.1,306.6c-4-4-11.9,2.5-7.6,7.5s9.3.8,9.3-4.1-1.5-3.2-1.7-3.4Z"/>
  <path d="M358.6,223.2c5.1-1.6,3.9,5.4,4.2,8.3s.7,2,.8,3.2c.2,2.9.7,12.5-3.5,12.5s-2.5-9.7-3.5-12.4c.5-3-1.3-10.5,2-11.6Z"/>
  <path d="M276,313.5c-1-1-1-4.5,0-5.4s2.9-.8,3.4-.9c4.9-.6,10.2,1.4,15.2.9l2.1,2.7c0,1.3-2.3,3.4-3.5,3.6-3.1.5-10.6.3-13.9,0s-2.8-.5-3.3-1Z"/>
  <path d="M424.3,308.1c1.2-1.3,11-1.1,13.3-1s5.1.7,6,.9,1.8,1.4,1.9,1.9c-.9,4.6-2.8,3.8-6.2,3.9s-2.9-.2-4.7-.3c-2.7-.1-6,.4-8.5,0s-3.3-3.9-1.8-5.5Z"/>
  <path d="M361.8,376.2c.3.3.8,2.1.9,2.7.5,4.5.6,9.1.8,13.6s1.5,3.2-.3,5.2-1.3.9-2.3.8c-4.3-.5-3.2-11.5-3.4-14.9s-2-5.3,0-7.2,3.4-1.4,4.5-.2Z"/>
  <path d="M303.5,272.9l-.7,5.5c-1.8,1.9-11.9-5.2-13.7-6.8-2.9-2.6-2.9-3.7-1.5-7.5,2.4-2.6,13.1,8,16,8.8Z"/>
  <path d="M320.8,234.5c2,.1,6.9,12,8.7,14,.5,5.7-2.2,7.7-6.1,3.1-.7-3.6-8.7-11.7-6.5-14.9s2.9-1.4,3.9-2.2Z"/>
  <path d="M432.5,265.6c0,.9.8,1.8.7,2.6-.6,4.3-10.4,8.1-13.4,10.8-3.5,1.7-6.4-3.6-4.1-5.9,5.8-2.2,10.3-8.5,16.9-7.6Z"/>
  <path d="M326.3,367.4c1.5-.2,3.6,1.4,3.2,3.4-.6,3.2-4.7,8.1-6.2,11.2s-.5,2.2-1,3c-1.4,2.3-7.6-.5-6.5-4.3s1.3-1.4,1.8-2.1c1.8-2.9,5.5-10.6,8.6-11.1Z"/>
  <path d="M395.6,368.1c1,3.9,8.1,12,7.8,15.5-.4,4.8-4.8,3.2-7,0s-1.2-3-1.9-4.4-4.2-6.2-4-7.5c.3-3.3,2.1-4.4,5.2-3.7Z"/>
  <path d="M398.5,235.2c2.4-.7,4.2,0,4.2,2.7s-6.8,11.7-8.5,15.2c-3.8,1.5-6.1-.9-4.5-4.7s4.8-8.7,6.4-11,1.7-2.1,2.4-2.3Z"/>
  <path d="M431.8,355.2c-4.1.9-7.4-1.3-10.7-3.6s-8.4-6-3.4-9.9c1.9-.6,2.2,1.2,3.4,1.9,2.4,1.5,10.8,5.7,11.4,8.2s-.7,2.2-.8,3.4Z"/>
  <path d="M301.6,341.8c1.2,0,3.1,3.3,2.6,5s-9.4,7.3-10.7,8c-3.1,1.6-4.3,1.8-6.5-1.2-1.1-1.9,7-7.6,8.6-8.7s5.7-3.2,6-3.2Z"/>
</svg>