<?xml version="1.0" encoding="UTF-8"?>
<svg id="Layer_1" xmlns="http://www.w3.org/2000/svg" version="1.1" viewBox="0 0 44.8 44.8">
  <!-- Generator: Adobe Illustrator 29.1.0, SVG Export Plug-In . SVG Version: 2.1.0 Build 142)  -->
  <path d="M25.9,14.7L17.7.6C10.1,2.2,4,7.6,1.4,14.7h24.5Z"/>
  <path d="M30.8,21.6l8.2-14.2C34.9,2.9,29,0,22.4,0s-2.6,0-3.8.3l12.2,21.3Z"/>
  <path d="M43.7,29.3c.7-2.2,1.1-4.5,1.1-6.9,0-5.4-1.9-10.4-5.2-14.3l-12.2,21.2h16.3Z"/>
  <path d="M13.9,23.3l-8.2,14.1c4.1,4.5,10,7.4,16.6,7.4s2.6,0,3.8-.3l-12.2-21.2Z"/>
  <path d="M17.4,15.5H1.1c-.7,2.2-1.1,4.5-1.1,6.9,0,5.4,1.9,10.4,5.2,14.3l12.2-21.2Z"/>
  <path d="M18.9,30.2l8.2,14.1c7.6-1.6,13.7-7,16.3-14.1h-24.5Z"/>
</svg>