<?xml version="1.0" encoding="UTF-8"?>
<svg id="Layer_1" xmlns="http://www.w3.org/2000/svg" version="1.1" viewBox="0 0 580.5 635.5">
  <!-- Generator: Adobe Illustrator 29.1.0, SVG Export Plug-In . SVG Version: 2.1.0 Build 142)  -->
  <defs>
    <style>
      .st0 {
        fill: #010101;
      }
    </style>
  </defs>
  <path class="st0" d="M275,538.5c-9.7-7.9-18.7-16.2-30.4-20-15.5-4.5-34-10.7-48.9-17.5-20.8-9.3-41.2-19.9-58.2-35.1-26.9-21.9-39.7-35.3-50.3-68.4-8.4-24.3-11.2-50-12.1-75.7-1.4-25.6-3.1-51.3-.2-76.8,1.1-10.9,3-22.1,7.9-31.9,2-4,7.4-4.2,8.9.3,1.2,3.4,3,6.7,4.5,9.8,15.2,28.3,34.2,54.7,52.5,81,1.4,2,2.9,3.9,3.6,6.2,1.3,3.7-2.3,7.1-5.9,6.3-10.7-2.3-21.5-5-31.2-10-.2,2-.3,4-.4,6.1-.2,4.6,0,9.3.5,13.9.5,5.5,1.4,10.9,2.6,16.3,1.4,5.8,3,11.5,5.1,17.1,2.5,6.7,5.5,13.2,8.6,19,27,49.7,46.4,57.2,52.8,61.1,37.4,21.9,74.8,33,79.5,33.1h.8v-1c.3-3.9.3-204.8,1.1-214.7-11.3-.6-20.8-3.8-20.9-11.8,0-.7-1.1-15.9,2.8-18.3h.2c.2-.2.5-.3.7-.5,2-.9,4.4-.5,6.5-.3,3.9.4,1.5,0,5.5,0,.8-9.9,11.4-38.1,11.8-42.2-2.7-.8-5.4-1.8-7.9-3-12.6-5.8-22.7-16.6-27.8-29.5-1.4-3.5-2.4-7.1-3.1-10.7,0,0-.2-.2-.2-.2-.3-.6-.7-1.3-.8-2v-1.1c-.2-1.7-.3-3.4-.4-5.1,0-3.8.2-7.5.8-11.3,1.2-7.4,4-14.6,8-20.9,7.5-11.8,19.5-20.3,33-23.7h.2c7.4-1.9,15.1-2.2,22.7-.9,7.5,1.2,14.6,4.1,20.9,8.1,12,7.7,20.5,20,24,33.7,3.3,13.1,1.6,27.4-4.8,39.4-.7,1.2-1.4,2.4-2.1,3.6-3.8,6-8.6,11.3-14.3,15.5-6.1,4.4-13,7.6-20.4,9.3-.6.2-1.2.2-1.8.4.2,1.9,10.1,31.5,10.7,39.4,0,.7.2,1.4.2,2.1,11.8.2,8.5.9,10.9,1,1.7,0-1.9.2-.3.2.8-.2,1.8.2,2.4.5,1.1.7,1.7,1.9,1.7,3.3,0,.5,1.4,20.3-1.4,23.1-4,3-9.9,2.5-19.6,2.4,0,0,4.2,200.7,5.4,216.3,2.5-.2,73.3-29.6,79.7-33.4,42.2-25.9,49.7-43.7,52.3-48.3,2.5-4.5,4.7-9.1,6.6-13.9,1.8-4.5,3.3-9.1,4.5-13.5v-.3h0c1-4.2,1.8-19,2.4-23.1v-.4h0c.5-4.5.8-8.9.8-13.3s-.3-8.2-.9-12.3c-.4-2.7-.8-5.3-1.4-8-.2-1.2-.6-2.5-.9-3.7-4,1.4-8,2.8-12.1,4.2-5.9,1.8-11.6,5.2-17.7,6.1-8.4-1.9-.8-11.4,1.7-15.6,12.6-18.7,25.6-37.2,38.1-56,5-7.7,8.7-16,13.6-23.8,2.8-5.2,7.8-12.1,13.3-5,4.1,6.7,5.2,15,6.4,22.8,1.6,12.1,1.5,24.4,1.7,36.6,0,29.3-.9,69.6-7.7,98.2-7.1,31.2-12.5,37.6-29.3,64.7-21.5,33.1-56.3,56.7-93.8,68.1-11.4,3.1-22.7,5.6-33.6,10.1-12.3,4.5-24.9,15.9-34.3,25.4-2.6,2.7-4.5,5.9-6.4,9.1-.7,1.7-2.3,2.8-4,2.8s-4.4-7.4-12.4-13.4ZM285.7,106.1c-1.1.2-2.3.4-3.3.7-1.1.3-2.1.7-3.1,1.1-1,.5-2,.9-3,1.4-.9.6-1.8,1.2-2.8,1.8-.8.7-1.7,1.4-2.4,2.1s-1.4,1.6-2.2,2.5-1.4,1.8-1.9,2.8c-.5.9-1,1.9-1.4,2.9-.5,1.1-.8,2.2-1.1,3.3-.2,1-.5,2.1-.7,3.1-.2,1.1-.2,2.3-.2,3.4s.2,2.4.2,3.5c.2,1.1.4,2.3.7,3.3.3,1,.7,2.1,1.1,3,.5,1,.9,2,1.4,3,.6,1,1.3,2,2,3,.6.7,1.2,1.4,1.8,2.1.8.8,1.7,1.5,2.5,2.3.9.8,2,1.4,3,2,.8.5,1.7.9,2.6,1.4,1.1.5,2.3.8,3.5,1.2,1.1.2,2.2.5,3.3.7,1.1.2,2.3.2,3.1.2h2.4c.3,0,.7,0,1-.2,1.1-.2,2.3-.4,3.4-.7,1.1-.3,2.2-.7,3.2-1.1,1.1-.5,2.3-1.1,3.4-1.7.8-.5,1.7-1.1,2.4-1.7.9-.7,1.8-1.4,2.5-2.3.8-.8,1.4-1.6,2.1-2.4.7-.9,1.3-1.8,1.8-2.7.7-1.1,1.1-2.2,1.7-3.3.4-.9.7-2,1-3,.2-1.1.5-2.2.7-3.3.2-1.1.2-2.3.2-3.4s0-2.1-.2-3.2c-.2-1.2-.5-2.4-.7-3.6-.3-.9-.7-1.9-1-2.9-.5-1.1-1-2.2-1.6-3.2-.5-.8-1-1.6-1.6-2.4-.7-.9-1.4-1.8-2.3-2.6s-1.7-1.6-2.7-2.4c-.8-.7-1.7-1.2-2.6-1.8-.9-.6-2-1-3-1.5-1.1-.5-2.1-.8-3.2-1.1-1-.2-2.1-.5-3.1-.7-1.2-.2-2.4-.2-3.6-.2s-2.4.2-3.6.2v.2h.2Z"/>
</svg>