<svg width="20" height="24" viewBox="0 0 20 24" xmlns="http://www.w3.org/2000/svg" fill="none">
  <path fill="currentColor" d="M15.89 12.71c.02 3.09 2.7 4.12 2.73 4.13-.02.07-.42 1.43-1.38 2.82-.83 1.2-1.69 2.38-3.03 2.4-1.32.02-1.74-.78-3.24-.78-1.5 0-2 .76-3.26.8-1.31.05-2.31-1.29-3.15-2.49-1.71-2.48-3.04-7.02-1.27-10.08.88-1.52 2.46-2.48 4.17-2.5 1.3-.03 2.53.86 3.24.86.7 0 2.24-1.06 3.8-.91.65.03 2.47.27 3.65 2.04-.09.06-2.17 1.27-2.16 3.71ZM12.96 4.7c.69-.83 1.15-1.96 1.02-3.1-1 .04-2.2.66-2.91 1.49-.64.75-1.2 1.92-1.05 3.05 1.11.09 2.24-.56 2.94-1.44Z"/>
</svg>
