<?xml version="1.0" encoding="UTF-8"?>
<svg id="Layer_1" xmlns="http://www.w3.org/2000/svg" version="1.1" viewBox="0 0 110 135">
  <!-- Generator: Adobe Illustrator 29.1.0, SVG Export Plug-In . SVG Version: 2.1.0 Build 142)  -->
  <g>
    <path d="M100.7,99c-.6-2.2-2.3-3.9-4.5-4.5v-4.2c2.7-.7,4.7-3.2,4.7-6.2s-1.9-5.5-4.7-6.2v-4.2c2.7-.7,4.7-3.2,4.7-6.2s-1.9-5.5-4.7-6.2v-4.2c2.7-.7,4.7-3.2,4.7-6.2s-1.9-5.5-4.7-6.2v-4.2c2.7-.7,4.7-3.2,4.7-6.2s-1.9-5.5-4.7-6.2v-4.2c2.8-.7,4.7-3.2,4.7-6.2,0-3.5-2.7-6.3-6-6.4-2.7,0-5.1,2-5.8,4.7h-5.1c-.6-2.9-3.1-4.9-5.9-4.9s-5.3,2-5.9,4.9h-4c-.6-2.9-3.1-4.9-5.9-4.9s-5.3,2-5.9,4.9h-4c-.6-2.9-3.1-4.9-5.9-4.9s-5.3,2-5.9,4.9h-4c-.6-2.9-3.1-4.9-5.9-4.9s-5.3,2-5.9,4.9h-4c-.4-2.3-2-4.1-4.1-4.8-2.1-.7-4.4,0-6,1.5-1.6,1.6-2.2,4-1.6,6.2.6,2.2,2.3,3.9,4.5,4.5v4.2c-2.7.7-4.7,3.2-4.7,6.2s1.9,5.5,4.7,6.2v4.2c-2.7.7-4.7,3.2-4.7,6.2s1.9,5.5,4.7,6.2v4.2c-2.7.7-4.7,3.2-4.7,6.2s1.9,5.5,4.7,6.2v4.2c-2.7.7-4.7,3.2-4.7,6.2s1.9,5.5,4.7,6.2v4.2c-3,.7-5,3.7-4.7,6.9.3,3.2,2.9,5.6,6,5.6,2.7,0,5.1-2,5.8-4.7h5.1c.6,2.9,3.1,4.9,5.9,4.9s5.3-2,5.9-4.9h4c.6,2.9,3.1,4.9,5.9,4.9s5.3-2,5.9-4.9h4c.6,2.9,3.1,4.9,5.9,4.9s5.3-2,5.9-4.9h4c.6,2.9,3.1,4.9,5.9,4.9s5.3-2,5.9-4.9h4c.4,2.3,2,4.1,4.1,4.8,2.1.7,4.4,0,6-1.5,1.6-1.6,2.2-4,1.6-6.2ZM88.7,90.5c0,2.2-1.7,4-3.9,4H25c-2.1,0-3.9-1.8-3.9-4V27.5c0-2.2,1.7-4,3.9-4h59.9c2.1,0,3.9,1.8,3.9,4v63.1Z"/>
    <polygon points="100.9 17.7 100.9 17.7 100.9 17.7 100.9 17.7"/>
  </g>
  <path d="M41.1,80.1c-.9,0-.9-1-.8-1.5l7.5-37.1c.3-1.3-1.2-1.5-3.8-1.3-1,0-1.3-1.5-.4-1.9,8.5-1.5,7-1.8,11.1-3,.8,0,.6.7.6,1.3l-5.2,23.4s3.3-10.5,13.3-8.2c6.8,1.6,3.1,12.5,1.9,17.5-.5,2.1-2.2,8.4,1.9,7.7,3.8-.7,6.9-5,7.1-5.2.6-.5,1.1-.4,1.3,0s.1,1.2-.2,1.7-6.1,9.6-14.2,6.1c-6.8-3.5,0-16.1-.3-21.8,0-2-1.9-2.7-3.7-2.4-4.9.8-7.4,12.4-8.7,17.1-.2.7-1.3,5.8-1.5,6.6s-.2,1.1-1.4,1h-4.5c0,0,0,0,0,0Z"/>
</svg>