<?xml version="1.0" encoding="UTF-8"?>
<svg id="Layer_1" xmlns="http://www.w3.org/2000/svg" version="1.1" viewBox="0 0 911.4 911.4">
  <!-- Generator: Adobe Illustrator 29.1.0, SVG Export Plug-In . SVG Version: 2.1.0 Build 142)  -->
  <defs>
    <style>
      .st0 {
        fill: none;
        stroke: #010101;
        stroke-dasharray: 0 30;
        stroke-linecap: round;
        stroke-miterlimit: 1;
        stroke-width: 30px;
      }
    </style>
  </defs>
  <path d="M447.3,15.8l1,5,2-2.5-2-2.5,7.5,1,.5,4,1-4c7.1.8,16.7-1.1,23.5,0,6.8,1.1,15.6,2.4,23,3s6.4-.2,9.5,0l1.5,3c1.5-2.3,4.3-2.4,7-2s5.9,1.6,8,2c24.6,4.9,49.9,8.2,72.9,19l2-1c11.3,4.4,23,8.8,34,14s13.7,5.9,20,9c19.2,9.5,37.2,21.5,54.9,34,3,2.1,7.1,5.7,10.5,6v2c27.3,18.5,52.4,43.9,71.9,69.9h2c4.3,7.1,10.2,14.5,15,21.5s12.4,17.9,18,27,13.7,24.6,20,38,13,28.1,18,42c4.8,13.1,8,26.6,12,40s4,11.4,5,17c5.6,32.4,8,68,9,100.9-3.2,50.1-9.1,99-27,145.9-15.4,43.2-39.6,83.7-66.9,119.9-1.7,2.2-3.8,2.3-4,2.5s0,2.4-1.5,3l-1.5-1c-.5,1.5,1,2.3,1,2.5s-1.5,1-1,2.5h-2c-1.7,5.6-9,9.6-11,15h-2c-13.3,16.5-30.8,33-48.5,46-1.9,1.4-3,4.3-5.5,4l-2-3,1,4.5c-.9.7-1.6,1.8-2.5,2.5-15.4,11.6-34.1,23.7-51,33s-26,13.6-40,20-11.6,5.3-18,7-.7,1-1,1-1-1.5-2.5-1l-.5,2-1.5-1v2c-1.9-.7-2.8.8-3.5,1-10.8,3.6-21.1,7.1-32,10s-2.1.8-3,1-2.7-1.8-4.5-1l2,2-7.5,1c-24.7,8-51.7,9.7-78.9,12-6.7.6-15.9,2.1-22,1s-7.8.7-12,0-18.8.7-19.5,0v-2l-3.5,1c-3.6-1.7-6.8-.3-11-1-12.3-2-27.9-2.7-41-7-.3,0-.6.9-1,1-2.3.7-27.2-6.9-31-9l-2,1c-23.9-8.7-49.5-16.1-72.9-29s-1.8,0-2.5-1.5l1-1.5c-4.5,1.1-7.1-1.4-10.5-3-4.9-2.3-10.1-5.2-15-8-23.7-13.7-46.1-30-65.9-47-51.2-43.6-92.1-100.9-119.4-162.3l1-5.5h-3c.4-1.7-1.5-3.2-2-4.5-4.4-11.5-8.8-23.4-12-35-5.7-20.8-9.4-39.5-13-60.9s-2.4-10.8-2-15c-1.6-1.3-1.6-4.7,0-6l-2-.5,2-2.5c-1.5-.8-.7-2-1-3-1.2-4.7-2.8-18.9-2-24s.4-7.7,0-10c-1.4-8.4.4-17.4,1-26,1.1-15,.8-28.1,3-44,1-6.8,2.7-12.6,4-20s3.9-17.4,6-26c5-20.6,11.8-43,22-62.9l-1-1c3.2-6.5,6.7-13.1,10-20,17.5-36.6,36.3-65,62.9-95.9,3.3-3.8,10.6-13.9,13.5-15.5,4.8-2.7,17.5-18,23-23,16.5-15.1,34.7-27.6,52.9-40,33.6-22.7,70.6-39.2,108.9-51,14.1-4.3,27.2-7.2,42-10s26-5.5,40-7c2.2-.2,4.9.4,7,0,7.6-1.4,18-2.1,27-3s5.1.2,7.5,0h0ZM441.3,21.9v-2.5l-3-1.5v2h2v2h1ZM411.3,19.9l-4,.5v4.5c3.1.6,1.8-1.5,2-3.5,0,0,2-1.5,2-1.5ZM447.3,22.9c-1.9-.2-3.5,0-4,2,1.9.2,3.5,0,4-2ZM459.3,27.9l-2-4.5c-.9-1.3-2.8.3-3,1-1.2,4,3,1.7,5,3.5ZM428.3,23.9h-2v3h2v-3ZM443.3,26.9c-.2-1.3-3.2-3.8-4-3v3h4ZM502.3,27.9c2-.5,2.2-2.1,2-4l-3,1,1,3ZM398.4,25.9c-1.5.4-1.8-.7-3-1v3h1.5l1.5-2ZM447.3,25.9c-2.2-.7-3.4,2.7-4.5,3-2.1.6-4.2-2.8-5.5,1,4.1.3,8,0,10-4ZM422.3,27.9l-4.5,2-2.5-1-1,3.5,2.5,2.5c2-2.3,3.2-3.6,6.5-3l-2-1,1-3ZM463.3,28.9h-4v2h4v-2ZM537.2,28.9c-1.9-.3-3.3,1.1-3,3h3v-3ZM374.4,30.9h-4v2h4v-2ZM357.4,31.9l-4,1.5,2,3.5,2-5ZM461.3,32.9l-3-1,1,4h1l1-3ZM513.2,31.9h-2v3h3c-.3-1.2-1.4-1.5-1-3ZM382.4,35.9c-1-2.2-2.6-3.5-5-3,.6,1.9,3.2,2.9,5,3ZM386.4,35.9h1.5l1.5-1.5-1.5-1.5-1.5,1.5v1.5ZM553.2,33.9c-1.9-.3-3.3,1.1-3,3h2l1-3ZM379.4,35.9l-4-1c.2,1.3,3.2,3.8,4,3v-2ZM524.2,37.9v-1.5l-1.5-1.5-1.5,1.5v1.5h3ZM505.3,35.9l-5,.5c1.2.3.5,3.4,2.5,2.5s2.3-2.1,2.5-3ZM512.2,35.9h-3v2h3v-2ZM367.4,36.9h-4v2l2.5-1,1.5,1v-2ZM791,204.7c-14.7-19.6-33.5-40.2-52.9-56.9v-2c-19.2-15.9-37.6-31.8-59.4-44-5.3-4.2-12.6-8.6-18.5-11v-2c-25.2-11.2-51.7-24.7-78.4-32-.4,0-2.6-1.9-3-2-1-.2-2.4,0-3.5,0v-2l-3.5,1c-3.5-2.7-8.8-.9-12-5l-5,1c-1.5-1.5-3.6-.6-5-3-7.2.9-16.1-3.2-24-4s-14.6-1.9-22-3-16.8-1.7-24-2c-28.4-1.1-57.1.2-83.9,3-1.9.2-10.7,2.4-12,2-1.9-.6-9.7,2.3-13,3-12.3,2.8-23.8,5.1-36,9s-14.3,4.5-22,7c-15.2,4.9-31.6,12.6-46,20s-4.8,1.9-7,3c-29.1,15.4-58.7,35.9-82.9,57.9-9.8,9-19.6,20.4-28.5,28.5-76.1,86.2-115,192.6-107.8,308.7.7,11.6,1.1,22,3,33s1.8,18.4,4,27c4.7,18,8.5,35.5,15,53.9s9.1,23.6,14,34,5.5,11.2,8,16c5.2,10.2,10.9,19.2,16,29,7.6,14.5,18.9,26.4,27,40.5h2c10.7,16.2,25.2,32.6,41,46v2c70.4,63.9,156.5,103.1,248.3,109.9,15.6,1.2,35.4,5.3,50,2s7.6,1.5,12,1c16-2,33.3-4.7,47-7,12.3-2.1,24.1-3.9,36-7,10.9-2.8,22.5-8.3,33-11s5.7-2.6,7-3c13.5-4,27-10.9,39-17,9.3-4.7,17.4-10.2,26-15,26.8-15.1,49.1-33.7,72.4-52.9v-2c10.9-8,18.4-17.9,27-27.5,12.3-13.8,22.5-27.5,33-43,13.2-19.5,24.5-40.8,34-60.9,8.5-18.1,15.4-36.2,21-54.9,1.7-5.6,3.6-11.3,5-17s.5-4.2,1-6l3-1.5v-1h-2c-.5-1.6.9-2.1,1-2.5.4-2.3.5-4.6,1-7,5.2-23,7.7-47.2,9-71.9-.7-77.4-18.3-154.4-57.9-221.8-7.9-13.4-16-27.5-25-39.5h2l1-4c-2.5-.2-3.4,1.6-3,4h-.5ZM358.4,40.9h-2v6h1c0-2.3-.4-4.1,1-6ZM569.2,46.8c.3-1.9-1.1-3.3-3-3l1,3h2ZM582.2,43.8l-5,1,1.5,2,3.5-2v-1ZM609.2,47.8l1.5,2c1.6-1.4,4-1.4,3.5-4-.2-.3-3.9,2.5-5,2ZM567.2,48.8l-3.5-1-1.5,2,2.5,1,2.5-2ZM580.2,47.8l-3,1.5v.5l-3,1,6-3ZM281.5,55.8h-3.5l-1.5,2h3.5l1.5-2ZM637.1,56.8h-2c.3,1.7-.2,2.6-1,4h2l1-4ZM632.1,58.8h-2c-.3,1.9,1.1,3.3,3,3l-1-3ZM637.1,62.8c-3.2-.7-1.8,2.1-2,4h-2c-.3,1.9,1.1,3.3,3,3-2.3-2.7,1.1-4.2,1-7ZM645.1,64.8h-2l2.5,4,1.5-2h-2v-2ZM270.5,68.8c.3-1.5-.4-2.1-1.5-3h-2.5c.2,1.3,3.2,3.8,4,3ZM656.1,68.8l-1-3-3,4,4-1ZM650.1,76.8c-.8-.8-3.8,1.7-4,3l4-1v-2ZM654.1,76.8c-4.3-.5.4,2.7-2,5l3-1.5-1-3.5ZM237.5,78.8l-2.5-1-1.5,3h4v-2ZM674.1,80.8c-1.5.4-1.8-.7-3-1v3h3v-2ZM676.1,83.8h-3v4h2l1-4h3v-2h-3v2ZM209.5,107.8h-2l1,5h1l1-2.5-1-2.5ZM199.6,108.8l-1.5,1-2.5-1v2l2.5,1,1.5-3ZM200.5,115.8h-2v3h2v-3ZM729,120.8l-5-5,1.5,3,3.5,2ZM196.6,119.8l-5-1v2l3.5,1,1.5-2ZM724,119.8h-3l1,4h1l1-4ZM725,124.8h-4.5l-1.5,2,3.5-1,1,1,1.5-2ZM734,127.8h-1.5l-1.5,2c1.5-.4,1.8.7,3,1v-3ZM177.6,140.8c.5-2.4-.8-4-3-5-.5,1.2,2.4,5.8,3,5ZM743,138.8c-1.9-.3-3.3,1.1-3,3h2l1-3ZM761,149.7l-1.5-3-3.5,1,1.5,2,1-1,2.5,1ZM756,154.7v-4h-1l-1,4h2ZM146.6,154.7c-2.2-.4-2,.2-2.5,2s-.8,2.5-.5,4c1.6.2.9-1.4,1.5-3,.6-1.6,1.6-2.9,1.5-3ZM765,163.7l1.5-2c-2-2.8-4.3-2.6-4.5,1l3,1ZM780,171.7h-3l1,4h1c-.3-1.7.2-2.6,1-4ZM140.6,174.7c-1.8-.3-3.3,1.4-4,3,1.8.3,3.3-1.4,4-3ZM134.6,185.7c-2,.5-2.3-1.5-4-2-.4,1.9,1.3,2.7,2.5,4l1.5-2ZM790,184.7c-2.7-.5-2,.8-2,3h1.5l1,3-.5-6ZM128.6,185.7h-2l1,5h2l-1-5ZM795,188.7h-2c1.1,1.7,1.2,3,1,5h1v-5ZM122.6,193.7l-4-1,2.5,3,1.5-2ZM121.6,199.7h-3v2h3v-2ZM808,205.7l-3-2c-.4,1.9,1.3,2.7,2.5,4l.5-2,3,1v-3l-1.5,1-1.5-1v2ZM110.6,212.7v-1.5l-1.5-1.5-1.5,1.5,1.5,1.5h1.5ZM802,209.7c-4.3-.8-2.3,1.4-4,4l2-2.5,2-1.5ZM104.6,216.7h-2v2.5l1.5,1.5,1.5-2h-2l1-2ZM829.9,231.7c0-1.9-1.5-2.8-1-5h-1v3.5l2,1.5ZM822.9,244.7v-3.5l-2-1.5c0,1.9,1.5,2.8,1,5h1ZM88.7,243.7l-1.5-2h-1.5v3c1.2-.3,1.5-1.4,3-1ZM833.9,243.7l-1.5-2c-.7,1-1.3,1.2-2.5,1v2l4-1ZM73.7,258.6h-2l1,4h1v-4ZM831.9,261.6h-2l-1,4c1.3-.2,3.8-3.2,3-4ZM65.7,279.6c-.2-1.2,0-1.8,1-2.5l-2-1.5-1,4h2ZM856.9,280.6v-3l-3,2.5v.5h3ZM847.9,282.6l-4-1,1.5,3h2.5v-2ZM66.7,290.6l-3,3-3,1c1.6-.5,2.4,1.8,3.5,0s.7-1,.5-2l2-2ZM47.7,327.6c.7-1.7-3.1-4.9-4-4v2l4,2ZM41.7,334.6l-2.5,1-1-1-1.5,2h5v-2ZM49.7,334.6h-3l-1,4c1.1.9,4.6-2.3,4-4ZM863.9,338.6l1-4c-2,.4-1.7,2.5-3,3.5l2,.5ZM875.9,366.5h-2l-1,3.5,2,1.5,1-5ZM37.7,370.5c-1.9-.3-3.3,1.1-3,3l3-1v-2ZM40.7,371.5h-2l-1,3c1.9.3,3.3-1.1,3-3ZM875.9,389.5l1-7-2,2.5c.3,2.2-2.1,3.5,1,4.5ZM876.9,389.5c0,3,2.2,4.1,4,1.5l-.5-2.5-3.5,1ZM877.9,420.5l-5,4,1.5-2,3.5-2ZM885.9,439.5l-1-4.5c2.1-1.6,3.1-3.2,0-4.5l-1,6.5,2,2.5ZM879.9,436.5l-1.5-3c-1.7,1.5-3,2.5-2.5,5l4,1-3-4,3,1ZM35.2,439.5l-1.5,1.5,2.5,1.5,1.5-1.5-2.5-1.5ZM26.7,458.4l-4-1c-.3,1.5.4,2.1,1.5,3h2.5v-2ZM888.9,466.4c.4-2.4-.5-4.2-3-4-.8.8,1.7,3.8,3,4ZM28.7,463.4c-5-.4-5.2,3.4-1.5,6l-1.5-4,3-2ZM888.9,482.4v-5h-.5l-2.5,3.5,1.5,1.5h1.5ZM23.7,484.4l-1.5,1-2.5-1v2h4v-2ZM30.7,487.4v-1.5l-1.5-1.5-1.5,1.5,1.5,1.5h1.5ZM880.9,489.4l-4-4v3l4,1ZM38.7,501.4l-1.5-2h-1l-1.5,1.5v.5h4ZM877.9,510.4l-1-2c0,2.1-.4,3.7,1.5,5l1.5-1,.5,3,2.5-5c-1.5-.5-2.3,1-2.5,1s-1-1.5-2.5-1ZM35.7,527.4v-2l-5,1,1.5,2,3.5-1h0ZM867.9,550.4l-3.5-1-1.5,1.5c1.3,1.9,2.9,1.6,5,1.5v-2ZM869.9,572.3h-2v3h2v-3ZM49.7,573.3c-1.9-.2-3.5,0-4,2,1.9.2,3.5,0,4-2ZM868.9,586.3c-2.2-.5-3.1,1.1-5,1l1.5,2,3.5-3ZM61.7,605.3l-2.5-3-2.5,1,5,2ZM853.9,620.3l-1.5-2h-1l-1.5,1.5v.5h4ZM72.7,633.3c.9.9,4.7-2.3,4-4l-4,2v2ZM88.7,666.2l2.5,3,1.5-1.5-1.5-1.5h-2.5ZM820.9,670.2l-5-3,1,3c1.9-1.3,2.1-1.2,4,0ZM98.6,673.2l-3,1.5,3,1.5-1-1.5,1-1.5ZM832.9,676.2l-7-2c.7.9.8,2.8,1.5,3s1.4,0,2,1l3.5-2ZM823.9,681.2c-1.5.4-1.8-.7-3-1v3h3v-2ZM811,682.2l-3-1c-.4,1.9,1.3,2.7,2.5,4l.5-3ZM822.9,687.2c-4.4-.3-1,3.9,2,3l-.5-3h-1.5ZM817.9,701.2c.2-1.6-.4-3-1-4.5s-.7-2.9-3-2.5l4,7ZM814,697.2h-3l2.5,3h.5v-3ZM119.6,709.2v-3c-1.2.3-1.5,1.4-3,1v2h3ZM111.6,711.2l-4,1v2l1.5-1,2.5,1v-3ZM789,724.2v-4h-1l-1,4h2ZM127.6,721.2l-4,1,.5,2,1.5,2c1.1-.2,2.3-1.4,2-2.5s-1.6-.4,0-2.5ZM120.6,723.2l-3-1c-.4,1.9,1.3,2.7,2.5,4l.5-3ZM136.6,743.2c0-1.9-1.5-2.8-1-5h-1v3.5l2,1.5ZM764,746.2h-1.5l-1.5,1.5,1.5,1.5,1.5-1.5v-1.5ZM770,746.2l-1.5,1-2.5-1v2h4v-2ZM165.6,762.1l-5,.5,5,1.5-3,1,2.5,3,1.5-2.5-1-3.5ZM158.6,762.1l-5,.5,2.5,1.5,2.5-1v-1ZM721,784.1l-4,1v1l2.5,1,1.5-3ZM194.6,790.1c.2-2.6-1.7-3.4-4-3l-1,4,3,1v-1.5l2-.5ZM208.5,796.1h-2v3h2v-3ZM206.5,801.1l-5-1v4c2.6.2,5.2.2,5-3ZM210.5,804.1h-3v2h3v-2ZM683.1,818.1h-2l-1,5c1.6,0,3.5-4.5,3-5ZM236.5,820.1h-3v2h3v-2ZM655.1,834.1l-1-4-2,1.5,1,2.5h2ZM246.5,836.1c.4-1.9-1.3-2.7-2.5-4l-1.5,2,4,2ZM270.5,833.1l-2,.5,1,4,3,.5-2-5ZM264.5,836.1l-1.5-2h-1l-1.5,1.5v.5h4ZM293.5,852.1l1-3.5-3-1.5v5h2ZM628.1,847.1c-1.9-.3-3.3,1.1-3,3,1.9.3,3.3-1.1,3-3ZM607.2,854.1l-4,1v1h4v-2ZM592.2,855.1c-1.9-.3-3.3,1.1-3,3,1.9.3,3.3-1.1,3-3ZM328.4,862.1l-2.5-4-2.5,1.5.5,2.5,2.5-2,2,2ZM304.4,860.1l-5,1,1.5,2,3.5-3ZM588.2,868l-1.5-3c-1.2,1.8-1.5-.3-3.5,0-.2,3.1,2.3,3.3,5,3ZM593.2,865h-4v3l2-.5-1-1,2.5.5.5-2ZM380.4,874l-1-4-2,1.5,1,2.5h2ZM486.3,880v-3c-1.2.3-1.5,1.4-3,1l1.5,2h1.5ZM539.2,877l-1.5,1-2.5-1v2h4v-2ZM482.3,878c-2.8-.4-4.9.3-6,3,1.9.7,2.6-1.7,3.5-2s2.8.8,2.5-1ZM502.3,878h-2l2,3.5-2,2.5,2.5-1,1.5,1.5,3-.5-2-2.5,1-1.5h-4v-2ZM431.3,879h-4c0,4,4,4,4,0ZM372.4,886c-1.6-1.8-2.1-5.3-5-5l.5,4,1.5-3,3,4ZM427.3,889v-2h-1v3h4v-1h-3ZM482.3,888h-3v4c.6.8,2.8-3.1,3-4Z"/>
  <path d="M464.3,661.9l-6.6,1.3,7.9-1.3-1.3,5.3,2.6.7-1.3,3.3h2.6c-.9,2.5,1.1,3.8,1.3,4.6,1.1,3.6,1.3,8.7,2.6,11.9s2.4,4,3.3,4.6,2-.1,2.6,1.3l2.6-1.3,1.3,1.3c3.7-2.6,8.3-.7,11.9-1.3s17.3-.5,19.8,0,3.8,3.3,5.9,2.6c-2,2.2-4.9,4.9-7.3,6.6-6.9,5-19.9,15.6-26.4,18.5s-3.4-.5-4.6,2l4,7.9c3,10.8,6.9,22.4,10.6,33,.3.8,2,3,2.6,4l-5.9.7c-1.8-1.6-3.4-3.8-5.3-5.3-6.6-5.1-14.4-11-21.1-15.8s-4.4-5-5.3-5.3c-3.6-1.1-5.3,3.6-7.9,5.3-8.6,5.7-17.7,10.4-25.1,18.5l-7.3,2.6c-1.1-4.9,1.8-7.8,2.6-11.9h5.3l-4-4.6c2.2-1.2.8-3.4,1.3-5.3,1.1-4,5.4-10.3,6.6-14.5s-.8-4.6,2.6-6.6l-9.9-8.6c-7.5-3.7-14.3-8.6-21.1-13.2-1.3-.9-2.6-3.3-4-4s-1.7.3-2,0-.8-3.7-1.3-4.6c1.5-2.2,2.4-1.8,4.6-2,3.8-.3,12.4,1.6,13.2,1.3,4.6-1.3,12.4-1.3,17.2,0s3.6-1.2,4-1.3c2.1-.4,5,.3,7.3,0,.1-1.1-.3-2.4,0-3.3,3-11,9.5-23.8,11.9-35.6,2.4-11.9-.1-3.2,0-4.6l3.3-1.3c.5,0,2.9,3.8,3.3,4.6s-.3,1.8,0,2.6c.9,2.2,3.6,4.1,2.6,7.3ZM462.9,690.8c.1-2.5-2-3.7-1.3-6.6h-1.3v6.6h2.6ZM452.4,685.5c-2.5-.3-4.6,0-5.3,2.6l4,1.3,1.3-4ZM441.8,698.7v-3.3l-2-2h-3.3c-.7.5,2.2,3.4,4,2.6v2.6h1.3ZM506.4,693.4c-3.2-.7-5.3,1.1-6.6,4,3,.7,3.6-3.3,6.6-2.6v-1.3ZM484.1,700h-5.3v1.3l5.3,1.3v-2.6ZM460.3,702.6h-2.6c-.4,2.5,1.5,4.4,4,4l-1.3-4Z"/>
  <g>
    <path d="M648.7,713.3l-4.5-1h-85.4l-2,2,1-2h-6.2c0,3.8-.2,7.5-.8,11.2,2.3.1,4.5.2,6.4-.2,2.2-.4-3.2-1.4,5,0s21.3-1.5,28,0c3.4.7,8.8-.5,12.5,0l1-3c-.7,3-1.1,4.5,3.5,3s3.8-.3,7,0c13.2,1.4,7.5-1.9,19,0,3.1.5,5.9-1,7-1s1,1.5,2.5,1l-2-4c2.5,0,3.5-.7,3,2.5.3,1.9,4.1-.6,5-2,.2-.3,0-1.5,1-2l-1-4.5ZM590.3,717.3c-1.1,1.7.5,4-1.5,4l-1-4h2v-1.5l2-1,2,1.5c-1.4,0-2.4-.7-3.5,1ZM592.8,721.3h-1v-2.5l3-1.5-2,4Z"/>
    <path d="M364.9,720.6l-.9.2-3-1.5c1.1,0,2.7,0,3.5,0,0,0,.2,0,.2,0l-.9-6.9h-11.1l1,2h-2v-2h-97.4c-2.5,1.3-4,2.6-4.5,5.5,1.2,1.4,1.8,3.5,3.5,4.5.2,0,.6-.2,1,0,.4.2.1.8,1,1,.9.2,4.1.2,5,0,.3,0,0-.4.3-.7.6.2,1.5.4,2.7.7,8.5,1.9,24.5-1.7,32,0,8.5,1.9,9.5-1.7,17,0,5.8,1.3,12.7-1,19,0s13.7-.9,19,0c2.1.4,4.8-.3,7,0l1.5-3h1v2l3.5,1c1.3-1.7,1.2-1.1,1.9-.5l-.3-2.2ZM315,722.3l-2-1.5,1-1-1-1.5h3l-1,4Z"/>
    <path d="M379.9,762.9c-8,.1-15.9.3-23.8.4-3.7-2.4-6.4-.3-11,0-4.6.3-10.8-.7-15,0-.4,0-.9,1.6-2.5,1l-1,3.5,5.5,5.5h1c1.1-1.8,1.8.6,4,0s3.6-.2,7-1c3.4-.8,7.3.8,10,0,.6-.2,1.3,0,2,0l1.5,1,1-2,1,1.5,1.5-.5c3.9,1.1,13.4-.9,19,0,.4,0,.7,1,1,1s1.7-1.8,3.5-1l.4-2.6c-1.8-2.2-3.5-4.5-5.1-6.8Z"/>
    <path d="M385.4,770.1l1.2,3.2c.6,0,1.1,0,1.6,0-1-1.1-1.9-2.1-2.8-3.2Z"/>
    <path d="M581.5,766.3l2-2h0l-6.5-2c-3,.4-6.9-1-9,1-10.8-.3-21.6-.5-32.5-.6-2.3,3.5-4.9,6.9-7.9,10,14.7,0,29.2,0,43.5.6l1-1c2.8,1.9,2.9.4,5,0s2.5,1.1,6-1,3.3-5.4-1.5-5ZM544.5,768.3h-3v-2h3v2Z"/>
    <path d="M363.9,675.8c1.7-2.3,1-.4,3,0,.5.1,1.8.2,3.4.2.4-.8.8-1.7,1.2-2.5,1-3,2.2-5.9,3.5-8.8h-21.8l1,2h-2v-2h-97.4c-2.5,1.3-4,2.6-4.5,5.5,1.2,1.4,1.8,3.5,3.5,4.5.2,0,.6-.2,1,0,.4.2,0,.8,1,1,.9.2,4.1.2,5,0,.3,0,0-.4.3-.7.6.2,1.5.4,2.7.7,8.5,1.9,24.5-1.7,32,0,8.5,1.9,9.5-1.7,17,0,5.8,1.3,12.7-1,19,0s13.7-.9,19,0c2.1.4,4.8-.3,7,0l1.5-3h1v2l3.5,1ZM315.6,674.8l-2-1.5,1-1-1-1.5h3l-1,4ZM365.1,671.8c.8,0,1.6-2,2.5,1l-3,.5-3-1.5c1.1,0,2.7,0,3.5,0Z"/>
    <path d="M649.3,665.8l-4.5-1h-85.4l-2,2,1-2h-18.3c1.4,2.6,2.7,5.3,3.9,8h.3l-.2.3c.4.9.7,1.7,1,2.6,4.2,0,9,.8,12.7.1,2.2-.4-3.2-1.4,5,0s21.3-1.5,28,0c3.4.7,8.8-.5,12.5,0l1-3c-.7,3-1.1,4.5,3.5,3s3.8-.3,7,0c13.2,1.4,7.5-1.9,19,0,3.1.5,5.9-1,7-1s1,1.5,2.5,1l-2-4c2.5,0,3.5-.7,3,2.5.3,1.9,4.1-.6,5-2,.2-.3,0-1.5,1-2l-1-4.5ZM590.9,669.8c-1.1,1.7.5,4-1.5,4l-1-4h2v-1.5l2-1,2,1.5c-1.4,0-2.4-.7-3.5,1ZM593.4,673.8h-1v-2.5l3-1.5-2,4Z"/>
  </g>
  <path d="M484.3,850.1c.3,2.9-1.5,5.2-3.5,7-2.1.3-5.1-.4-7,0s-.7,1.4-2,1-.6-.9-1-1c-1.9-.4-4.9.3-7,0l-2.5-3.5v-2l4.5-2.5c4.6,0,8.9.2,12-1,1.9,1.7,4.1,2.3,6.5,2Z"/>
  <path d="M848.4,492.4h4c2.7,2.4,2.9,6.1,2.5,9.5s-.9.6-1,1c-.4,2.4-.4,5.7-1,8s-2,3.4-2.5,3.5c-1.1.3-2.3,0-3-1s-.5-1.4-.5-1.5c-1.2-1.7-2.7-1.9-2-5s2.3-1.3,0-3c1.9-1.6.6-4.7,1-7s.9-.6,1-1c.4-1.1-.4-2.5,1.5-3.5Z"/>
  <path d="M131.6,233.7c-.2.2-1-.3-1.5,0-1.1.6-1.5,2.6-3.5,2l1-3c-2.2,1.6-4.6,1.5-5-1.5.7-.9,1.5-2,2-3,1.1-2,2.7-5.3,4-7s4.2-3.9,6-5,4.8-.7,5,2-1.8,4-3,6-2.8,4.8-4,7-.9,2.4-1,2.5Z"/>
  <path d="M516.2,845.1l1,6.5-1.5,1.5-2-1c-3.2,2.5-8.3,1.3-12,2s-1,1.6-3,1l-3.5-3.5c1.5-.8.7-2.1,1-3,.5-1.7,2.6-1.2,3.5-1.5s.6-.9,1-1c1.2-.2,2.8.2,4,0s.6-1,1-1c3.3-.4,7.1.3,10.5,0Z"/>
  <path d="M67.7,529.4c3.7-.2,2.5,2.4,3,4.5s1.9,4.4,2,5c.2,1.4.2,4.7,0,6s-1.5.9-1,2.5h-5c.7-1.9-1.7-2.6-2-3.5-1.4-4.7-1.3-7.7-2-12s-1-.7-1-1,1.8-1.7,1-3.5l4.5-2c2,1.5,1.7,2.1.5,4Z"/>
  <path d="M415.3,848.1l-1,6-2.5-1-.5,2c-3.1-2-7.1-.5-10.5-1s-.6-.9-1-1c-1.3-.3-3.9.5-4.5-1.5s.5-2.1-1-3l2-.5-1-1.5,2.5-2.5c1.3,0,2.8-.2,4,0s.6.9,1,1c3.1.7,7,.9,10,2s.9,1.5,2.5,1Z"/>
  <path d="M530.2,849.1l-1-2.5,1-5.5c1.1,0,2.5.2,3.5,0s5.1-1.9,6-2c1.8-.2,5.3-.2,7,0,3.5.5,2.4,3.7,2.5,6.5-2.1,2.9-4.9,2-7.5,2.5s-3.6.8-5,1-4.4-.2-6.5,0ZM537.2,846.1c-.5-2-2.1-2.2-4-2,.5,2,2.1,2.2,4,2Z"/>
  <path d="M591.2,85.8c-.5-1.6.8-1.9,1-2.5s-.2-1.4,0-2c.5-1.8,4.7-1.8,6.5-1.5,1.8.3,5.4,2.3,7,3,2.3,1,4.8,1.7,6.5,3.5.4,1.3-2.4,2.4,0,4-1.2,1.8-3.6,1.9-5.5,1.5s-.6-.9-1-1c-3.7-.9-7.3-1.9-11-3s-1.6-2.7-3.5-2Z"/>
  <path d="M169.1,726.2c1.6.8,2.7,2.1,4,3s.8-.2,1,0c2.7,2,3.9,5.4,6.5,7.5,1.6,3.4,1.6,5.2-1.5,7.5-1.3-.7-2.9-.7-4-1-1.9-.6-8.9-9.7-10.5-11.5l4.5-5.5Z"/>
  <path d="M515.2,58.8l-1,7c-.5,0-1.1.2-1.5,0-3.9-1.7-3.7.4-5,0-2.8-.8-6.1-1.3-9-2s-3.2.7-4.5-1.5v-4c1.6-1.9,2.9-3.1,5.5-2.5,3.9.9,6.9.3,10,1s2.5,1.8,3,2,1.7,0,2.5,0Z"/>
  <path d="M449.3,857.1c-.4.4-5.9-.3-7.5,0s-.7,1-1,1-.6-.9-1-1c-2.4-.4-5.5.4-8,0s-1.7-1.8-3.5-1v-4.5l3.5-2.5,1,1c1.2-1.4,5-1.3,7-1s.7,1,1,1,.6-.9,1-1c2.6-.4,3.7,1.1,6,1l2.5,2.5-1,4.5Z"/>
  <path d="M705.1,144.8c2.7.2,4.8-1.7,7.5-1s4.6,4.9,6,6,.8-.2,1,0c2.5,1.9,2.1,3.4,3.5,5.5-.7,2.9-2.1,5.5-5.5,4.5s-1.3-1.5-2-2c-3.9-2.7-7.5-5.9-10-10s-.6-1.8-.5-3Z"/>
  <path d="M76.2,333.6c4.7-1.1,5.1,2.8,4.5,6.5s-2.6,5.4-3,7,.2,2.2,0,3-.8.6-1,1-.3,2.2-1.5,2.5c-5.6,1.5-6.3-2.8-5.5-7.5s1.9-.7,0-2l3-8,3.5-2.5Z"/>
  <path d="M736,165.7v2c1.9-.7,9.6,6.2,10,7.5s-.2,1.4,0,2,.9.6,1,1c.2,1,0,2.4,0,3.5l-4.5,1-13.5-13.5,3.5-4.5,3.5,1Z"/>
  <path d="M350.4,840.1c-1.1,0-2.5-.2-3.5,0s-.6.9-1,1c-1.1.2-4,.2-5,0s-2.6-1.9-3-2c-1.4-.4-3.3,0-5-1s-1.6-1.9-2.5-2.5c1.7-1,.7-2.7,1-4s4-1.8,5.5-1.5.6.9,1,1c4,1,5.8,1.1,10,3s3-.3,3.5,1.5-1.3,2.7-1,4.5Z"/>
  <path d="M641.1,105.8c-1.4-.2-3.2.2-4.5,0s-4.5-2.4-6-3-1.4.2-2,0c-1.5-.7-2.7-2.1-4-3s-1.9-.2-2.5-1.5l1-1-1-1,1-2.5c2,0,3.2-1.5,5.5-1s3.8,2.5,5,3,2.2-.5,3,1l5.5,3.5-1,5.5Z"/>
  <path d="M362.4,70.8c0-1.9-1.6-3.3-1-5.5s2.7-1.2,3.5-1.5,1.3-2.3,3,0l2-2,2,1c1.3-1.4,4.9-1.3,7-1s1.7.5,2.5,1.5l-.5,2.5.5,1.5c-.6,1.4-2,1.2-2.5,1.5s-2.7,1.9-3,2c-1.6.4-5.4.7-6,0-2.1,2.3-5.1.4-7.5,0Z"/>
  <path d="M680.1,124.8l3.5-2c.5,1.1,1.7.8,2,1,3,1.9,6.2,4.9,9,7s2.4,2.3,2.5,2.5c.3.9-.5,2.1,1,3l-4.5,3.5c-1.5-2.6-3.2-1.5-5-2s-5.6-5-7-6-1.6-1.8-2.5-2.5l1-4.5Z"/>
  <path d="M818.9,290.6h-4.5c-.8-1.4-2.8-3.3-3.5-4.5-1.1-1.8-1.4-4.1-2-6s-1.8-1.4-2-2,.2-1.4,0-2-1.6-1-1-3,2.3-2.5,2.5-2.5c2.2-.6,4.3.7,5.5,2.5,1.2,1.8,1.3,3.7,2,5s1.8,1.5,2,2c.6,1.9.5,4.7,2,6l-1,4.5Z"/>
  <path d="M546.2,66.8h2l1,2.5-2.5,2.5c-1.6-.2-3.5.2-5,0s-.6-.9-1-1c-3.6-.6-7.6-.8-11-2s-.9-1.5-2.5-1c-.3-3.2-.2-5,2.5-7,1.6,1.9,4.6.7,7,1s4.3,1.9,5,2c2,.4,4.1-.9,5.5,1.5l-1,1.5Z"/>
  <path d="M382.4,848.1l-4.5,2c-.3,0-.6-.9-1-1-2.3-.6-2.6-.4-4,0s-4.6-1.7-6-2-2.4,0-3.5,0l-1-4.5,2.5-3.5c1.3,0,2.8-.2,4,0s.6.9,1,1c2.8.4,6.2.2,9,1s3.4,2,3.5,2.5v4.5Z"/>
  <path d="M92.7,292.6c0-.1-.6-2.8-1-3.5,1.5-.8.7-2,1-3,.5-1.8.4-3.9,1-6s1.6-1.3,2-2,.7-2.6,1-3c1.5-2.3,5.5-2.2,7,0,0,1.3.2,2.8,0,4-.3,1.7-2.2,7.9-3,10s-.9,1.8-1,2c-.5.8-1.9,1.6-2.5,2.5l-4.5-1Z"/>
  <path d="M770,702.2c-.3,1.6.4,4.1,0,5.5s-6.9,7.1-7.5,7.5-1.3-.2-1.5,0v2l-2.5,1-3.5-1c.2-1.7-.3-4,0-5.5s2.9-3.6,4-5-.2-.8,0-1c1.8-2.3,4.2-4.1,6.5-5.5l4.5,2Z"/>
  <path d="M318.4,824.1c.4,2.9-.3,4.2-2.5,6-1.6-1.9-4.7-.6-7-1s-5.4-2.3-8-3-2.5-2.9-3.5-3.5l1-4.5c1.8.2,3.8-.3,5.5,0,3.5.5,8.6,3.1,12,5s.9,1.5,2.5,1Z"/>
  <path d="M656.1,106.8l.5,2,1-2c.8,1.5,2.1.7,3,1s4.8,4,6,5,2,.4,3,2c1.9,3.2-.5,4.6-3,6l-7-2c-.8-1.7-3.3-2.5-4-3s-3.4-3.2-3.5-3.5c-.6-2.1,2.3-3.4,0-5l4-.5Z"/>
  <path d="M829.4,586.3l3.5,3.5c-.2,1.6.3,3.6,0,5s-.8.6-1,1c-.7,2-5,11.5-6.5,11.5-.8-1.5-2-.7-3-1-1.8-.5-1.8-4.7-1.5-6.5s1.7-3.2,2-4c1.5-3.7,2.6-7.8,6.5-9.5Z"/>
  <path d="M63.7,483.4l-5,1-3-5.5,1-2c-2.7-1.6,0-5.6,0-6s-.9-.6-1-1c-.6-2,.9-2.6,1-3,.3-1.2-.5-3.9,1.5-4.5s4.4,1.3,5.5,2.5l-1,1c1.7,1.1.7,3.2,1,5s1,.6,1,1c.2,2,.3,7.1,0,9s-1.5.9-1,2.5ZM62.7,481.4v-5.5c0-1.8.7-2.7-1-2.5v5.5c0,1.8-.7,2.7,1,2.5Z"/>
  <path d="M395.4,65.8l-1-6c1.9.7,2.7-1.8,3.5-2,1.5-.4,4.2.2,6,0s.6-.9,1-1c1.5-.2,3.4.2,5,0,.9,1.5,4,.7,4.5,2.5s-2.3,5.5-4.5,6.5c-2.5-3.1-5.2.6-7,1-2.7.6-5.2-.5-7.5-1Z"/>
  <path d="M156.6,190.7l1,6h-2c.6,3.3-3.1,4.8-3,8h-2c.3,2-3.2,5.7-5.5,5s-2.9-4.4-2.5-6.5.9-.6,1-1c.2-.6-.2-1.4,0-2s3.1-3.3,3.5-3.5,1.3.2,1.5,0-.3-1,0-1.5c.9-1.7,2.7-1.9,3.5-2.5,1.5-1,1.8-2.7,4.5-2Z"/>
  <path d="M672.1,788.1l1,3.5-5.5,5.5c-2.3-.4-5.1,3.8-6,4s-2.8,1-3,1c-1,.2-2.4,0-3.5,0l-1-4,2-1c-3.1.6-2.4-1.8-.5-3,3.1-1.9,7.2-3.3,10-6h6.5Z"/>
  <path d="M613.1,819.1c1.2,6-3.2,7.4-7.5,10l-10,2-2.5-3.5,2-.5-1-1.5,1-2.5c1.9.7,2.8-.8,3.5-1,2.6-.9,5.7-1.4,8-3h6.5Z"/>
  <path d="M802.5,645.3c3.6.7,5.5,2.7,4.5,6.5s-1.6,1.3-2,2c-.7,1.2-1.3,4-2,5s-3.4,3.7-4.5,4.5-1.4,1.5-3,1-2.5-2.3-2.5-2.5c-.6-2.3.6-3,1-4,1.8-5,4.5-8.9,8.5-12.5Z"/>
  <path d="M841.9,350.6h-5.5l-1.5-1.5-1-6.5h-2c.5-3.1-1.7-5.4-1-8.5s2.1-3.5,2.5-3.5c1.2,2,1.6-.4,3,0l1.5,1.5,2,8c2.3,2,1.4,5.2,3,7l-1,3.5Z"/>
  <path d="M90.7,303.6l1,4.5-4,13.5h-2v2h-5l1-2h-2c.2-1.4-.2-3.2,0-4.5s2.6-4.3,2-6.5h2c-.7-4.3,2.7-7.7,7-7Z"/>
  <path d="M230.2,776.2l2.5-1,1.5,1.5-1,5.5-3-1v2h-2.5l-10.5-8.5v-4l2.5-2.5h2c3,2.4,8.1,3.9,8.5,8Z"/>
  <path d="M786,229.7l2-.5-1.5,3.5-1.5-4-1,4c-.8-.8-2.9-.9-3-1-.2-.2.3-1,0-1.5-.9-1.6-4.6-6-6-8s-2.2-1.9-3-3c-.4-1.3,1.7-1.6,0-3.5l6.5-1,8.5,10.5-1,4.5Z"/>
  <path d="M826.9,300.6c-.4,1.7,1.4,3.1,2,4.5s-.2,1.3,0,2,1.8,1.4,2,2c.2.8-.2,2.1,0,3s.9.6,1,1c.5,2.6-.6,4.3-1,6.5h-5c.7-1.9-1.7-2.6-2-3.5-.9-3.1-2.1-5.8-3-9s-.9-.6-1-1c-1-4.4,3-6.3,7-5.5Z"/>
  <path d="M268.5,803.1l2.5-1,7,3c3.3,1,6.5,3.4,9,6,.5.3-.4,2.4-.5,2.5-1.2,1.9-5.5,1.9-7.5,1.5s-.6-.8-1-1c-3.5-1.3-7.6-3.3-10.5-5.5,1.7-1.2.8-3.5,1-5.5h0Z"/>
  <path d="M582.2,831.1l1,3.5c-.9.6-1.7,2-2.5,2.5-1.8,1.1-4.9,1.3-7,2s-2.6,1.9-3,2c-.7.2-3.3.2-4,0s-1.6-2.7-3.5-2l1-6,11.5-3,6.5,1Z"/>
  <path d="M112.6,649.3h2c.7,2.3,2.6,6.4,4,8.5s4,2.5,3,6.5h-2v2l-1.5-1-2.5,1c.3-2.4-2.6-3.6-4-5.5s-2-4.2-3-6-1.9-1.5-2-2c-1-3.6,1.9-4.9,4.5-6.5l1.5,3Z"/>
  <path d="M798,242.7c.2.2-.3,1,0,1.5.8,1.3,3.2,3.6,4,5s2.9,6.3,3,7c.2,1.3-.2,3.1,0,4.5-1.6-.5-2,.8-2.5,1-2.2.7-4.8-2-4.5-4h-2l-4-10.5,1-4.5,2.5-1c.5,1.3,2.4.9,2.5,1Z"/>
  <path d="M65.7,415.5l-5-1v3c-1.1.3-2.8-.7-3-1.5s-.2-7.6,0-9,1-.7,1-1-.9-.6-1-1c-.6-2,.8-2.5,1-3s-.2-1.4,0-2,2.3-2.5,2.5-2.5c5.2-1.4,6.2,4.5,5.5,8.5s-.8,3.6-1,5,.2,3.1,0,4.5Z"/>
  <path d="M642.1,804.1l1,5.5c-.9.7-1.6,1.8-2.5,2.5-2.7,2.1-6.6,2.5-9,5l-1-1-3,1c-.9.3-2.3-1-2.5-1.5-.6-2.1,1.9-2.9,0-4l1-2.5c1.7.4,3.2-1.5,4.5-2s3.8-.6,5-1,2.6-1.9,3-2c1-.2,2.4,0,3.5,0Z"/>
  <path d="M842.9,557.3l-1,9.5c-2.5,2.7-2,7.1-4.5,9.5l-1-1-1,1-3.5-1c.2-2-.3-4.6,0-6.5s1.5-5.1,2-7,3-2,2-4.5l2.5-1,4.5,1Z"/>
  <path d="M62.7,385.5l-1-4.5c1.8-1.3.7-3.9,1-6s.9-.6,1-1c.5-2.6-.3-5.5,2.5-7.5l1,1,3-1c2,.6,1.7,6.6,1.5,8.5s-.9.6-1,1c-.2,1.6.3,3.5,0,5s-1.7,1.4-1,3l-3.5,2.5-3.5-1Z"/>
  <path d="M63.7,430.5v17.5l-1.5,1.5h-4.5c.7-1.9-1.8-2.6-2-3.5s-.3-10.8,0-12,.8-.6,1-1,0-.8,0-1c.5-.8,1.9-1.6,2.5-2.5l4.5,1Z"/>
  <path d="M580.2,80.8l-2.5-1-2,1c-2.8-2.6-6.8-2.2-10-3s-1.6-1.7-3.5-1c0-2-1.5-3.1-1-5.5s1.5-.9,1-2.5c1.6-.5,1.9.8,2.5,1,3.5,1.2,7.4,1.3,11,2s1.4,1.7,3,1l2.5,2.5-1,5.5Z"/>
  <path d="M74.7,558.3l.5,2h1.5c1.3,5.8,4.5,8.7,4,15.5s.2,2.4-1.5,3.5c-3.4-.7-5.4-2.9-6.5-6l2-1-3-.5-2-6,1-1c-3.6-1.8,2.9-7.6,4-6.5Z"/>
  <path d="M286.5,99.8c-1.9-.7-2.6,1.7-3.5,2-2.5.7-5.8,2.7-7,3-1.8.4-4.5-.3-6.5,0v-4.5l5.5-4.5,8-4c2-.2,3.3-.2,4.5,1.5.5,2.6-.6,4.3-1,6.5Z"/>
  <path d="M480.3,60.8c-.2,0-.7,1.8-1.5,2l-3-1-1,1-1-1-1,1c-1.8-2-5.3-.6-8-1s-1.7-1.8-3.5-1c.2-1.8-1.5-2.6-1-4.5s4.4-3,6.5-2.5c3.3.7,7.7.3,12,1s.9,1.5,2.5,1v5c-.1.2-.8-.2-1,0v-2c-1.7,1.1-3,1.2-5,1v1h5Z"/>
  <path d="M86.7,591.3l4,8.5,1,7-1.5,1.5-2-1-.5,2c-.8.8-3.5-1.7-4-2.5s-1.9-3.8-2-4c-.2-.9.3-2.2,0-3s-1.9-3.5-2-4c-.4-1.9-.3-4.3,1.5-5.5,1.3,1.7,3.6.8,5.5,1Z"/>
  <path d="M231.5,131.8c-2.2-.4-2.9,1.9-4.5,3s-.8-.2-1,0c-1.7,1.2-1.7,2-4,3s-.6.9-1,1c-2.4.5-4.3-.6-6.5-1-.6-1.9.5-2.4,1-3.5,1.5-3.1,1.1-1.7,2.5-2.5s5.1-4.6,7-6l6-3c1.1.4.3,2.5.5,3.5s1.4.7,1,2-1.7,1.6-1,3.5Z"/>
  <path d="M119.6,243.7l1,3.5-4,10-5.5,5.5c-.3,0-2.7-.8-3-1-3.3-2.1,1-3.7-1.5-5.5l8.5-11.5,4.5-1Z"/>
  <path d="M768,206.7c-3.4.3-4.9.2-7-2.5s-2.9-4.6-4-6c-2.5-3.1-4.4-2.7-4-7.5l2-2c1.2,0,1.9-.2,3,.5,4,2.4,8.4,9.2,11,13l-1,4.5Z"/>
  <path d="M849.9,393.5v2l1.5-1c2.5,1.6,1.1,4.1,1.5,6.5s.9.6,1,1c.3,1.9-.3,4.2,0,6s1.6,1,1,3-4.3,3.6-6,2l-2-2c.7-1.6-.9-2.7-1-3-.6-3.4,1.2-8.3-1-11l2.5-3.5h2.5Z"/>
  <path d="M204.5,151.7c-.2.2-1-.3-1.5,0s-8.1,7.9-8.5,8.5.2,1.3,0,1.5l-5-1v-1.5l-2-.5c-.5-1.9,1.2-2.3,2-3.5s-.2-.8,0-1c.8-1,8.9-8.3,9.5-8.5,1-.3,2.2.5,3-1,1.8-.5,3.3,3.1,3.5,4.5-1.3.5-.9,2.4-1,2.5Z"/>
  <path d="M719.5,749.2c1.5-.3,5-.2,5.5,1.5s-1,2.5-1,4c-2.3,1.9-4.2,4.7-6.5,6.5s-.8-.2-1,0c-3.4,2.6-4.4,5.4-8.5.5.7-1.3.7-2.9,1-4s4.7-4.9,5.5-5.5.8.2,1,0c1-.7,2.9-2.8,4-3Z"/>
  <path d="M98.6,619.3c-.6,1.9,1.3,2.3,2,3.5,1.3,2.4,2.3,5.4,3,8s4.5,3.4.5,6.5l-.5-4-3,1,2,1-.5,4c-1.1.3-2.9-1.7-3.5-2.5-1.1-1.4-1.5-4-2-5-1.6-3.2-5-5.5-4-10,1.8-2.2,3.1-2.9,6-2.5Z"/>
  <path d="M199.6,752.2c.2.2-.3,1,0,1.5,1.2,2.2,5.5,3.5,7,6,.4,1.3-1.7,1.6,0,3.5-2,0-3.2,1.5-5.5,1s-.6-.8-1-1-.8,0-1,0c-1.3-.8-2.6-3-4-4s-2.4-1.7-3-2-1.3.2-1.5,0-.2-2.8-2-3.5c.4-.7.9-3.4,1-3.5s2,.3,2.5-1h2c1.5.6,2.8,2.3,4,3s1.3-.2,1.5,0Z"/>
  <path d="M134.6,679.2c-.3,2.5,3.5,4.3,4,6.5s.4,7-1.5,7.5c-2.8.7-6.1-2.4-7.5-4.5s-.7-2.6-1-3c-.6-.9-2.8-2.4-3-3-.4-1.5-.2-6,1.5-6.5,2.7-.8,5.1,3.2,7.5,3Z"/>
  <path d="M820.9,618.3c0,1.1.2,2.5,0,3.5-.4,1.8-3.6,8.9-5,11s-1.4,1.5-2,2c-3.6,3-4,1.2-6-2v-1c1.5-.8.7-2.1,1-3,.5-1.4,2.9-6.4,4-8s2.6-2.3,3.5-3.5l4.5,1Z"/>
  <path d="M850.9,459.4l3.5,1c.6.4,2.4,3.1,2.5,3.5.3,1.3.3,8.7,0,10s-3,3-1,4l-2.5,2.5c-3.3-.9-5.1-1.8-4.5-5.5s1-2.8,1-3c0-.3-.9-.6-1-1-.2-1.3-.3-5.8,0-7s2.5-2.9,2-4.5Z"/>
  <path d="M849.9,381.5c-2.1-.6-3.7,1.5-5.5,1s-1.2-2.6-1.5-3.5-.9-.6-1-1c-1-3.5-.8-7.2-2-11s2.8-3.1,4.5-4.5c.6.9,2,1.7,2.5,2.5,1,1.7.6,3.6,1,5s1.9,4.3,2,5c.3,2-.2,4.4,0,6.5Z"/>
  <path d="M64.7,495.4c-.6,1.5,1.8,3.6,2,4.5.3,1.4-.3,3.6,0,5s1.4.7,1,2-2.4,4.1,0,6l-2.5,3.5-2-2-2.5,1c.7-1.9-.9-3-1-3.5-1.1-4.3,0-7.8-1-11l1-4.5,5-1Z"/>
  <path d="M783.5,674.2c2.5-.7,4,.7,5.5,2.5v1c-1.5.8-.7,2.2-1,3-1.2,2.9-3.2,4.7-5,7s0,1.4-1.5,2.5c-3.5,2.7-7.1-2-6.5-5.5,1.5-2.1,3.5-4.1,5-6s-.2-.8,0-1c.5-.6,3.2-3.4,3.5-3.5Z"/>
  <path d="M682.1,783.1v-6.5l9.5-7.5c2.6.2,4.3-2.6,6.5.5.4,3.2,0,4.6-2.5,6.5s-6.1,5.3-9.5,6.5-2.5.7-4,.5Z"/>
  <path d="M179.6,174.7c-.1.1-2-.3-3,1.5s-3.7,2.7-5,5,.2,1.3,0,1.5-2-.3-2.5,1l-3.5-1,1-3.5-2-.5c.4-1.7,5.2-7.6,6.5-8s1.7.1,2.5,0c.6-4.3,4.2-5.6,7-1.5l-1,1,1,2c-1.3.5-.9,2.4-1,2.5Z"/>
  <path d="M317.4,79.8l1,2.5-1,3.5-2.5,1-1.5-1c.4,1.9-1.3,2.7-2.5,4l-3.5-1,1,2-7,1c.4-2.4-2.8-2.9-2-5.5s2.1-2.2,2.5-2.5.7.2,1,0c2.8-1.7,9-4.4,12-4s.5,1.6,2.5,0Z"/>
  <path d="M849.9,526.4c-.2,2.1.3,4.5,0,6.5s-1.5,6.1-2,8-1.8,3-2.5,3.5c-1.3,1-1.7,1.3-3.5,1l-1-10h2c-2.2-3-.3-5.5,0-8.5l3.5-2.5,3.5,2h0Z"/>
  <path d="M259.5,795.1l-2,6h-2.5l-8-4c-3.4-.7-5.8-3.1-6.5-6.5l3.5-2.5h3l12.5,7Z"/>
  <path d="M439.8,53.8l4,1,1-1c.9-.3,2.3,1,2.5,1.5.6,2.1-1.9,2.9,0,4l-2.5,2.5-1-1c-1.6,1.9-4.6.7-7,1s-.6.9-1,1c-.9.2-3.1.2-4,0s-.6-.9-1-1c-.6-.2-1.4.2-2,0-2.1-.6-2.1-6.4,0-7,3.1-.8,8.5,1.3,11-1ZM434.3,58.8h-4v2l2.5,1,1.5-3Z"/>
  <path d="M343.9,68.8c1.5-.3,5-.2,5.5,1.5.8,2.6-3.1,4.7-4.5,6.5l-11,3-3.5-2.5.5-3.5,2-2c.6-.2,1.4.2,2,0,2.2-.7,7.2-2.7,9-3Z"/>
  <path d="M151.6,703.2v2h2c0,3.3,5.3,5.4,6,8.5s-.1,2.4,0,3.5c-2,0-3.3,1.6-5.5,1s-4.9-4.7-5.5-5.5.2-.8,0-1c-.7-1-3.8-4.5-4-5-.8-2.8,2.5-4,4.5-4.5l2.5,1Z"/>
  <path d="M855.9,447.5l-2.5,1-2.5-1c.8-1.8-1-3.2-1-3.5-.6-3.9.6-8.2-1-12l2-4.5c3.5-.7,4.4,2.1,6,4.5-.2,3.2.3,6.8,0,10s-.9.6-1,1c-.2,1.4,0,3.1,0,4.5Z"/>
  <path d="M748,726.2l1,3.5c-.9,1.1-2.2,1.9-3,3s.2.8,0,1c-1,1.3-4.3,4.7-5.5,5.5s-3.2.7-4,2l-3.5-1v-1.5l2,.5-1-3.5c0-.3,3.5-4.1,4-5s-.2-1.3,0-1.5,1,.3,1.5,0c1.3-.7,2.7-3.1,4-4l4.5,1Z"/>
  <path d="M257.5,108.8c.3,3.4.2,4.9-2.5,7s-.8-.2-1,0c-1.9,1.5-3.9,3.5-6,5h-3l-3.5-2.5,1-4.5,10.5-6,4.5,1Z"/>
  <path d="M423.3,429.8l4.4-2.2c.7-3.7,5.4-6.7,7.1-9.7.9-1.6,2.4-3.1,4-4,2.3-1.3,8.5-8.2,11.5-10.6s4.8-4,7.1-5.3,5.8-2.5,7.9-3.5c6.3-3,12.4-5.4,18.5-7.1,14.3-3.7,30.5-1.6,44.1,2.6l8.4,4.4v1.8c2.5-.3,3.8,3.3,5.8,4.4s1.2-.2,1.3,0-.2.9,0,1.3c1.2,2.3,4.6,5.4,5.3,7.9s-.2,1.9,0,2.6,1.7,2.3,1.8,2.6c.2,1.2-.2,3,0,4.4s.9.5.9.9c.2,1.6-.2,3.7,0,5.3s.9.5.9.9c.3,3.5-.5,5.5-.9,7.9-1.3,10.2-2,19.4-4.4,29.1-2.4,9.6-2.7,13.6-4.4,20.3-1.6,6.3-3.8,12.7-5.3,19.4-2.9,13.4-8.5,27.6-9.7,41.4s-.4,8,0,9.7,2,1.2,0,2.6c2.2,2.1,3,5.8,4.4,7.9s4.4,2.6,5.8,4c3.4-.3,7.3.4,10.6,0s.5-.9.9-.9c1.9-.3,2.4-.2,4.4-.9,4.7-1.5,9.2-3.3,13.2-6.1,6-4.2,13.1-9.2,18.5-14.1s8.9-10.5,14.1-15c2.6-.3,4.5.3,6.6.9,0,1.7,1.4,2.8.9,4.8s-.9.5-.9.9c-.2,1.4.2,3.2,0,4.4-.6,3-4.4,7.2-6.1,9.7-12.3,16.6-29.5,32.3-49.8,37.5s-4.8,1.1-7.1,1.8-1.4,1.5-3.1.9v-.5l-2.6-1.3,1.8,1.8c-1.4-.5-1.9.9-2.2.9-3.2.5-19.8.5-22.9,0s-.5-.8-.9-.9c-2.5-.7-4.3-1.8-6.1-.9-1-1.6-3.5-1.3-4.4-1.8-8.8-3.9-16.9-10.2-21.6-18.1s-2-3.6-2.6-5.3c-1.1-3-1.2-5.8-1.8-8.8s-.9-.5-.9-.9c-.5-4.2-.3-12.4,0-16.8.5-5.9,2.1-12.8,3.5-18.5,3.4-13.9,6.7-27.3,10.6-41.4,1.8-6.3,3.7-13,5.3-19.4,1.4-5.9,2.8-12.4,3.5-18.5s-.5-8.7-.9-11.5-.8-.5-.9-.9c-.3-1.4,0-2.9-.9-4.4s-2.2-1.8-2.6-2.6.2-1.2,0-1.3-.9.2-1.3,0c-.9-.5-1.2-1.1-2.6-1.8s-4.7-2.5-5.3-2.6c-2-.5-10.9-.3-13.2,0s-.5.9-.9.9c-1.9.3-2.7.5-4.4.9-8.6,2.3-15.6,6.7-22.1,12.4-6.8,6-14.4,15.4-18.1,23.4-3.3,7-5.8,12.2-7.9,20.3-2.1,8-4.7,16.6-6.1,24.7s.8,3.7-1.8,5.3l.9,1.8c-4.3,14.8-6.1,30.7-9.7,45.9-3.6,15.2-2.5,16.5-6.1,23.8,2.3,2.4-.7,5.7-.9,8.4l-2.6-.9.9,2.2-1.3,1.3c-3.8-.2-7.7.2-11.5,0-.3,0-.5-.9-.9-.9-2.9-.2-5.9.2-8.8,0l-.5-1.8c-.4-.5-2.3,1.6-1.8,2.6-2.3.5-3.4-1.9-4.8,0l-.5-1.8-2.2,1.8-.9-.9c-.8,1.2-3,1.1-4.4.9s-.5-1.2-2.6,0c-1.6-1.2-3.5-.9-4.8-3.1s.2-.6,0-.9-.8-.5-.9-.9c-.2-.9-.2-4.3,0-5.3s.8-.5.9-.9c.9-3.6,1.6-7.2,1.8-11h1.8c0-.4.2-.9,0-1.3-.2-.6-1.4-.9-.9-2.6,1.5-4.8,2.3-10.1,3.5-15,3.6-14.3,4.8-29.6,7.9-44.1,1.6-7.7,4.3-16,5.3-23.8.2-1.6-.2-3.3,0-4.8h1.8c-.8-1.2-1.2-2.4-.9-4,2.2-9.2,3.7-18.7,5.3-28.2,1.1-6.4,3.1-15.2,4.4-22.9,2.3-13.4,5.4-29.5,7.9-44.1,1.6-8.7,3.3-17.9,5.3-26.4s.8-8.2,1.8-12.4-1.9-3.9,0-5.3l-.9-.9.9-.9c0-.4-2.3-1.9-2.6-2.6s.2-1.2,0-1.3-.9.2-1.3,0c-.9-.5-1.7-2-2.6-2.6-3-2-8.9-3.5-12.4-4.4s-3.9-1.6-7.1-.9-4.3.2-5.3,0-.8-1.4-2.2-.9l-1.8-4.8c1.4-1.6.5-4.3,3.5-4v-2.6c.7,0,1.6.2,2.2,0s2.3-1.7,2.6-1.8c2.6-.5,6.8-.3,9.7-.9,7.5-1.6,15.3-3,22.9-4.4s21.1-5.8,31.7-7.9.5-.9.9-.9c2.3-.3,13.1-.5,15,0s.5.7.9.9.7,0,.9,0c1,.6,3.3,3.9,3.1,4.8-1.6,1.2-.5,3.5-.9,5.3-2.1,12.4-6.2,25.5-7.9,37.9-1.2,9-2.6,17.7-4.4,26.4-3.8,18.1-7.8,36.1-10.6,54.6,0,.3-.9.5-.9.9-.4,3.7.9,6.9-1.8,10.1l-.2-.2ZM442.8,289.6h-1.8l.9,1.3-.9.9,2.6,1.3-.9-3.5ZM423.3,309.1l-1.3-2.6-2.2.9v1.8l2.2-.9,1.3.9h0ZM412.8,311.7c.2-1.7-.9-2.9-2.6-2.6l.9,2.6h1.8ZM434.8,311.7l-3.5-.9v1.8l3.5.9v-1.8ZM440.1,310.8h-1.8v2.6h1.8v-2.6ZM421.5,316.1h1.3l1.3-1.3-1.3-1.3-1.3,1.3v1.3ZM389,315.2h-1.8v2.6l3.5.9c-.4-1.5-2.3-1.8-1.8-3.5h0ZM432.1,319.6v-4.4l-1.8,1.3.9,3.1h.9ZM417.2,317h-1.8c-.3,1.6,1.2,1.9.9,3.5h1.8l-.9-3.5ZM416.3,321.3h-3.5c.3,1,1.2,1.3.9,2.6l2.6-2.6ZM419.8,333.7l1.8-2.2-.9-2.2-1.8,1.3.9,3.1h0ZM415.4,330.2h-1.8v3.5h1.8c-1.1-1.7-1.1-1.9,0-3.5ZM412.8,334.6c.3-2.1-.4-3.7-2.6-3.5-.2.2,2.1,4.3,2.6,3.5ZM439.2,342.6l-3.5-.9v1.8c1.1-.2,1.6,0,2.2.9l1.3-1.8h0ZM414.5,352.3c.2-2,2.1-3.3-.9-4.4l-1.8,4.4h2.6ZM410.1,369h-2.6v3.5l1.8-.5-.5-1.3,1.3-1.8h0ZM403,370.8l-2.6-.9v2.6l1.3-.9,1.3.9v-1.8h0ZM424.2,371.6h-2.6c.5,1.5,2.3,1.8,1.8,3.5h.9v-3.5ZM407.5,377.9l-.9-1.8-1.8,2.2,4.4,2.2-1.3-2.6h-.5ZM407.5,384.8h-2.6l.5,4.4,2.2-4.4ZM403,385.8h-3.5v1.8l3.5-.9v-.9h0ZM498.2,390.1c1.7.2,2.9-.9,2.6-2.6l-2.6.9v1.8ZM407.5,390.1l-3.5.9v.9l2.6.9.9-2.6h0ZM477.1,393.7h-1.8l-.9,2.6h2.6l-.9-1.3.9-1.3h0ZM506.3,397.2h-4.4v1.8l3.1-.9,1.3.9v-1.8ZM480.7,402.5c-2.3-.3-2.6,1.8-3.5,3.5h1.8l1.8-3.5h0ZM385.4,406.9l-1.8.5c1.9,1.2-.9,2.1-.9,2.6l3.1,2.2-.5,2.2,1.8.5v-3.5h-1.8v-4.4h0ZM539.8,407.8c-1.9-.5-2.8,1-4.4.9v1.8l4.4-.9v-1.8ZM381.9,413.1l-2.6-.9-.9,3.5,1.8-1.8h.9l1.8,1.8-.9-2.6h0ZM423.3,413.1l-2.6-.9v3.5h.9v-1.8h1.8v-.9ZM402.2,416.6l-1.8-2.6,2.2,4.4,3.1-2.6-3.5.9h0ZM396.9,421.1l-4-.9-.5,1.8.9,1.8c2,.3,3.7-.3,3.5-2.6h0ZM505.3,420.1h-3.5v1.8l1.3-.9,2.2.9v-1.8ZM545.9,423.7h-4.4l1.3,1.8.9-.9,2.2.9v-1.8h0ZM395.1,424.6c-1.5-.2-2.6.4-4,.9s-.3,1.9-.5,2.6l3.5-.9.9-2.6h0ZM541.5,429l-5.3-.9v.9l5.3.9v-.9ZM530.9,434.3l-.9-4.4-1.8,1.3,2.6,3.1h0ZM394.3,431.6l-2.6.5.5,1.3-1.3,2.6,3.5-4.4ZM504.5,434.3l-3.5-.9v1.8l3.5.9v-1.8ZM414.5,439.6l1.8-1.3v-.9l-1.3-1.3h-.5v3.5h0ZM541.5,436l-3.5.9v1.8c.2.2,4.3-2,3.5-2.6ZM505.3,441.4h-2.6v.9h1.8l-.9,1.8h1.8v-2.6h0ZM512.4,444c-1.9-3.7-3.2.3-2.6,2.6l2.6-2.6ZM421.5,459.8l-3.5-3.5,2.6,2.2-.9.9,1.8.5h0ZM389,458.1l-1.8,3.5,4.4-.9h-3.1l.5-2.6h0ZM418,462.5h-3.5v1.8h3.5v-1.8ZM509.8,464.3h-1.3l-1.3,1.8c1.3-.4,1.6.6,2.6.9v-2.6ZM541.5,468.6c-.3-1-1.2-1.3-.9-2.6l-2.6,2.2v.5h3.5ZM378.3,471.3c.9.9,4.1-2,3.5-3.5l-3.5,1.8v1.8h0ZM396.9,474.8l2.6-1.3c-1.6-1,.3-1.3,0-3.1-2.3.6-1.5,2.9-2.6,4.4ZM525.6,471.3c-1.3-.5-2,.9-2.2.9s-.9-1.4-2.2-.9v1.8h4.4v-1.8h0ZM395.1,476.6l2.2,1.8,1.3-2.6-3.5.9ZM369.5,480.1h-1.3l-1.3,1.3,1.3,1.3h1.3v-2.6h0ZM390.7,488.9l-.5-1.8-1.3,2.6,2.2.9,1.3-1.8h-1.8,0ZM368.7,496l-.5-3.5c-2.1-.2-1.2.3-.9,1.8s.5,2.6,1.8,3.5h5.8l-3.1-1.8c-1,1.6-1.3-.3-3.1,0h0ZM389.8,492.5h-2.6c.9,1.6,1.2,3.9,3.5,3.5l-2.6,2.6,4.4-.9-1.3-2.6h-2.2l.9-2.6h0ZM512.4,495.1l-5.8-.9-.5,2.6,3.5-1.8,1.3,2.6,1.3-2.6h0ZM370.4,498.6c-1.5.3-2.3-.2-3.5-.9v2.6l3.5-.9v-.9h0ZM525.6,503.1c.3-1.7-1.2-2.3-2.2-3.5l-1.3,2.6,3.5.9ZM370.4,501.3h-2.2l-1.3,2.6h1.8v-1.8h1.8v-.9h0ZM518.5,503.1c-1.3.4-1.6-.6-2.6-.9v2.6h1.3l1.3-1.8ZM371.3,506.6l-4.4-1.8.9,4.4h2.6l-1.8-2.2,2.6-.5h0ZM389.8,507.4l-3.1,1.8-2.6-1.8-1.3,1.8,1.8.5v1.3c1.9.2,5.4-.7,5.3-3.5h0ZM380.1,509.2h-4.4l1.3,1.8,3.1-.9v-.9h0ZM520.3,509.2c-1.6-.2-3,0-3.5,1.8l2.2-.9,1.3.9v-1.8ZM384.5,512.8c-2.1-.3-3.7.4-3.5,2.6.7.7,3.3-1.5,3.5-2.6ZM522.1,523.3l1.8-1.3-1.3-2.2-1.3,1.3.9,2.2h0ZM519.5,524.2c.3-1.7-1.2-2.3-2.2-3.5l-1.3,1.8h1.8v1.8h1.8,0ZM373,524.2l-3.1-2.6-1.3,1.3.9,2.2,3.5-.9h0ZM375.7,526.8c0-1.9.5-3.7-1.8-4.4l.5,3.5-2.2,1.3,3.5,1.3-1.8-1.8h1.8,0ZM490.3,524.2l-1.3-1.8h-.9l-1.3,1.3v.5h3.5ZM380.1,530.3l.9-4.4h-.9l-.9,4.4h.9ZM517.7,526.8c-.6-.6-5.1,2.1-4.4,2.6h4.4v-2.6ZM504.5,529.5l-2.6,3.5.9-2.2,1.8-1.3ZM398.6,531.3h-1.8c-.9.9,2,4.1,3.5,3.5l-1.8-3.5h0ZM498.2,534.8h-2.6v1.8h2.6v-1.8ZM390.7,538.3h-3.5v1.8l3.5-.9v-.9h0ZM384.5,539.2h-2.6c.3,1,1.2,1.3.9,2.6l1.8-1.3v-1.3h0ZM512.4,541.8l-3.5-1.8-.9,3.5,4.4-1.8h0ZM598.8,540.1h-3.5v.5c1,1.3,1.9,1.6,3.5,1.3v-1.8h0ZM393.3,544.5l-3.5-1.3-1.8.9,3.1,2.2,2.2-1.8h0ZM378.3,545.3l-1.3-1.8-3.1.9,1.3,1.8,3.1-.9ZM396,548.9h-3.5v1.8l4.4.9-.9-2.6h0ZM592.6,548.9h-3.5v1.8l3.5-.9v-.9h0ZM483.3,549.8l-2.6.5.9,3.1,1.8-3.5h0ZM597,554.2l-.9-3.5h-.9l-.9,4.4,2.6-.9h0ZM515,558.6l-2.6-.9c-.2,1.7.9,2.9,2.6,2.6v-1.8h0ZM386.3,558.6l-2.6,5.3c2.3.5,2.3-1,1.3-2.6l1.3-2.6h0ZM381.9,562.1h-1.8v2.6h1.8v-2.6ZM388,563.9v-1.8l-1.8,1.3,2.2,2.2,1.3-1.8h-1.8,0ZM517.7,566.6l1.8-1.3v-3.1h-.9c.5,1.9-1,2.8-.9,4.4h0ZM396,563.9l-3.5-.9v1.8c1.5-.3,2.3.2,3.5.9v-1.8ZM523.8,563.9c-1.6-.2-3,0-3.5,1.8h3.5v-1.8ZM506.3,564.8h-4.4v1.8c1.5-1,2.6-1,4.4-.9v-.9h0ZM378.3,568.3v-2.6l-2.6,2.2v.5h2.6ZM363.3,569.2l-4-2.6-4.8,1.3,3.5-.5v1.8h5.3ZM351.9,571.8h1.3l1.3-1.3-2.2-3.1h-.5v4.4h0ZM374.8,568.3h-3.5v.5l1.3,1.3h.9l1.3-1.8h0ZM506.3,570.1l-3.1-.9-2.2,1.8c1.9-.5,5.8,3,5.3-.9h0ZM361.6,572.7c.3-1.3-.4-1.8-1.3-2.6h-2.2v1.8l3.5.9h0ZM489.5,571.8l-3.5-.9v2.6c1.7-1.1,1.9-1.1,3.5,0v-1.8h0ZM386.3,573.6l-3.5-.9.9,2.6,1.3-.9,1.3.9v-1.8h0ZM493.9,575.3h-4.4v.5c1.4,1.9,3.6,1.9,4.4-.5ZM505.3,578.9v-1.3l-1.8-1.3c.4,1.3-.6,1.6-.9,2.6h2.6ZM519.5,577.1c-2.2.5-3.5-.7-5.3-.9l1.3,1.8h4v-.9h0ZM553,577.1h-1.8c-.2,1.7.9,2.9,2.6,2.6l-.9-2.6h0ZM371.3,578h-3.5l.9,3.5h1.8l-.5-1.8,1.3-1.8h0ZM568.8,578h-3.5v1.8l3.5-.9v-.9h0ZM548.5,578.9c-3.8-.7-2,1.2-3.5,3.5l1.8-2.2,1.8-1.3h0ZM553,585.1l-2.2-.9-1.3,2.6h3.5v-1.8h0Z"/>
  <path d="M329.6,155.5c-17.1,7.1-33.6,15.7-49.1,26.2-13.1,8.9-26.2,17.9-38,28.8-4,3.6-13.1,14.6-16.5,16.5-2.1,1.2-7.3,8.4-9.7,11.1-19.1,22.2-32.6,42.6-45.2,69-2.4,5-4.9,9.7-7.2,14.4l.7.7c-7.3,14.3-12.2,30.4-15.8,45.2-1.5,6.2-3.4,13.4-4.3,18.7-.9,5.3-2.2,9.5-2.9,14.4-1.6,11.4-1.4,20.9-2.2,31.6-.4,6.2-1.7,12.7-.7,18.7.3,1.7.6,3.5,0,7.2-.6,3.7.6,13.9,1.4,17.3.2.7-.4,1.6.7,2.2l-1.4,1.8,1.4.4c-1.2.9-1.2,3.4,0,4.3-.3,3-1.2-4.6,1.4,10.8,2.6,15.4,5.2,28.8,9.3,43.8,2.3,8.3,5.5,16.9,8.6,25.2.4.9,1.7,2,1.4,3.2h2.2l-.7,4c5.6,12.6,12,25,19.2,37,4.2-1.3,8.5-2.4,12.9-3.3l-.3-.2,2.2-1.1-.7,1c.9-.2,1.8-.3,2.6-.5-.2-.3-.3-.6-.5-.8-3.7-7-7.8-13.5-11.5-20.9-1.8-3.5-2.2-4-5.8-11.5-3.5-7.5-5.4-11.2-10.1-24.4-4.7-13.2-7.4-25.8-10.8-38.8-1.6-6.2-1.5-11.5-2.9-19.4-1.4-7.9-1.7-15.4-2.2-23.7-5.2-83.5,22.8-160,77.5-222,6.4-5.8,13.4-14,20.5-20.5,17.4-15.8,38.7-30.6,59.6-41.6,1.6-.8-5.3,3.2,5-2.2,5-2.6,10.3-5.2,15.7-7.6-1.9-4.8-3.3-9.8-4.1-14.9ZM191.6,598.3l1.1,1.1-1.1,1.1-1.8-2.2h1.8ZM178.3,573.2l2.9-1.4c.5,1.2-2.2,3.5-2.9,2.9v-1.4ZM168.6,552.3l1.8,2.2-3.6-1.4,1.8-.7ZM161.7,531.5c-.4,1.4-1.5,1.6-2.9,1.4.4-1.4,1.5-1.6,2.9-1.4ZM153.1,385.6v1.4l-2.2.7c-.2-1.4.8-2.4,2.2-2.2ZM151.3,435.2l1.8,1.1-1.1,1.1-1.8-1.1,1.1-1.1ZM143.1,469h-2.9v-1.4l1.8.7,1.1-.7v1.4ZM142.3,448.1l2.9.7v1.4h-1.8c-.8-.6-1.3-1.1-1.1-2.2ZM146.6,452.4l-2.2,1.4,1.1,2.9c-2.7-1.9-2.5-4.6,1.1-4.3ZM145.9,468.6l1.1-1.1,1.1,1.1v1.1h-1.1l-1.1-1.1ZM151.7,498.4l-2.5.7-1.1-1.4,3.6-.7v1.4ZM151,479.8v-.4l1.1-1.1h.7l1.1,1.4h-2.9ZM153.1,388.5l.7-2.2h1.4c.2,1.4-.8,2.4-2.2,2.2ZM156,361.2h-3.6l1.1-1.4.7.7,1.8-.7v1.4ZM157.4,351.9c.6-.6,3.4,1.7,2.9,2.9l-2.9-1.4v-1.4ZM158.9,362.7l.7-2.9h2.2c.4,1.2-2.1,3.5-2.9,2.9ZM172.2,331c-.8,1.3-1.4-.4-2.5,0l2.2-.7.7-.7c.1.7.4.1-.4,1.4ZM173.3,320.3h-1.4l.7-2.9,1.4,1.1c-.7.5-.9.9-.7,1.8ZM179,308h-.7l-.7-2.9h1.4v2.9ZM187.6,295.2v-2.2h1.1l1.1,1.4c-1.1-.3-1.3.5-2.2.7ZM200.9,277.9l-1.1-1.1v-1.8h1.4l-.7,1.4h1.4l-1.1,1.4ZM205.5,272.1h-1.1l-1.1-1.1,1.1-1.1,1.1,1.1v1.1ZM213.5,264.2h-2.2v-1.4h2.2v1.4ZM213.1,259.9l-1.8-2.2,2.9.7-1.1,1.4ZM217.8,256.3l-.7-3.6h1.4l.7,3.6h-1.4ZM221.7,254.2c-.9-.9-2.1-1.5-1.8-2.9,1.2.4,1.4,1.8,2.9,1.4l-1.1,1.4ZM224.2,247c.5-1.2,1.6-2.4,2.9-2.2-.5,1.2-1.6,2.4-2.9,2.2ZM230.4,232.6c-.4,1.2,0,2.3-1.1,2.2-.2-1.1,0-1.6.4-2.9.4-1.3.2-1.7,1.8-1.4,0,0-.6,1-1.1,2.2ZM253.7,220.4c-.4.6-2.5-2.7-2.2-3.6,1.6.7,2.5,1.9,2.2,3.6ZM266.3,206.8l-2.5-.7v-1.4l3.6.7-1.1,1.4ZM266.7,198.9v-1.4l1.8.7,1.1-.7-1.1,2.2-1.8-.7ZM270.2,204.6h-1.4v-2.2h1.4v2.2ZM276.7,200.3h-.7l-.7-3.6h1.4l.7,1.8-.7,1.8ZM296.8,177.3h-2.9l1.1-2.2,1.8.7v1.4ZM320.5,168.7c-.6.6-2.7-1.2-2.9-2.2h1.8c.8.6,1.3,1.1,1.1,2.2ZM324.8,160.8l1.1-1.4h2.5l-1.1,1.4h-2.5Z"/>
  <path d="M763.1,378.9c-.7-4-.7-2.6-3.6-12.2-2.9-9.6-5.2-19.3-8.6-28.8-3.6-10-8.4-20.6-12.9-30.2-4.5-9.6-10.4-20.8-14.4-27.3-4-6.5-9.5-14.4-12.9-19.4s-7.7-10.4-10.8-15.5h-1.4c-14-18.7-32.1-37-51.7-50.3v-1.4c-2.4-.2-5.4-2.8-7.6-4.3-12.7-9-25.7-17.6-39.5-24.4-3-1.5-4.9-2.2-8.2-3.6-.5,1.5-1,3-1.6,4.5v1.3h1.4l-1.1,1.4-.9-1.4c-1.3,3-2.8,5.9-4.4,8.6,5.3,2.4,10.6,4.9,15.8,7.2v1.4c4.2,1.7,9.5,4.9,13.3,7.9,15.7,8.8,28.9,20.2,42.7,31.6v1.4c14,12,27.5,26.8,38,40.9h.4c-.3-1.7.4-2.9,2.2-2.8l-.7,2.9h-1.4c6.5,8.6,12.3,18.8,18,28.4,28.5,48.5,41.1,103.8,41.6,159.5-.9,17.8-2.7,35.2-6.5,51.7-.4,1.7-.4,3.4-.7,5,0,.3-1.1.6-.7,1.8h1.4v.7l-2.2,1.1c-.4,1.3.3.2-.7,4.3s-2.4,8.2-3.6,12.2c-4,13.4-9,26.5-15.1,39.5-6.8,14.5-15,29.8-24.4,43.8-1.4,2.1-2.9,4.2-4.3,6.3,4,0,8,.3,12,.7l-.7-.9h2.2v1c.6,0,1.2.1,1.9.2l-1.9-3.4c1.7-.3,1.7.7,2.2,1.8.2.6.4,1.1.6,1.7.8,0,1.7.2,2.5.3,13.6-20.5,25.4-42.6,33.6-65.8,12.9-33.7,17.1-68.9,19.4-104.9-.7-23.7-2.4-49.3-6.5-72.6ZM593.5,175.9l-2.9.7c.1-.9,2.3-2.7,2.9-2.2v1.4ZM594.9,178c1.7-1.7-1.7-4,1.4-3.6l.7,2.5-2.2,1.1ZM594.9,169.4l2.2-2.9.7,2.2-2.9.7ZM608.6,176.6c.9.2,1.1,1,2.2.7v1.4h-2.2v-2.2ZM614.4,179.5h-2.2l-.7,2.9h-1.4v-2.9h2.2v-1.4h2.2v1.4ZM646.6,205.3l-.7,2.9h-.7l-.7-2.9h2.2ZM646.3,210.4l-.7-.7-2.5.7,1.1-1.4h3.2l-1.1,1.4ZM647.7,204.6l-1.1-2.2,3.6,3.6-2.5-1.4ZM653.8,213.2c-.9-.2-1.1-1-2.2-.7l1.1-1.4h1.1v2.2ZM659.6,221.2h-1.4c-.2-1.4.8-2.4,2.2-2.2l-.7,2.2ZM669.7,230.4h-1.4l.7-2.9h.7v2.9ZM671.5,226.1l-.7.7-1.1-1.4,2.5-.7,1.1,2.2-1.8-.7ZM676.1,236.9l-2.2-.7c.1-2.6,1.8-2.7,3.2-.7l-1.1,1.4ZM686.2,245.5h-.7l-.7-2.9h2.2c-.6,1-.9,1.7-.7,2.9ZM693.7,254.2h-1.1c0-1.6-.5-2.5,1.4-2.2l.4,4.3-.7-2.2ZM697.7,258.5h-.7c.1-1.4,0-2.4-.7-3.6h1.4v3.6ZM701.3,271.1l-1.4,1.8c1.2-1.9-.2-3.5,2.9-2.9l-1.4,1.1ZM709.2,267.8l-2.2-.7-.4,1.4c-.9-.9-2.1-1.5-1.8-2.9l2.2,1.4v-1.4l1.1.7,1.1-.7v2.2ZM717.8,295.2h-.7c.4-1.6-.8-2.2-.7-3.6l1.4,1.1v2.5ZM721.4,282.2h.7c-.4,1.6.8,2.2.7,3.6l-1.4-1.1v-2.5ZM722.1,310.2l.7-2.9h1.4c.6.6-1.2,2.7-2.2,2.9ZM722.8,295.2v-1.4c.9.1,1.3,0,1.8-.7l1.1,1.4-2.9.7ZM735.7,323.8h-1.8l-1.1-2.2,2.9.7v1.4ZM742.2,321h-2.2v-.4l2.2-1.8v2.2ZM747.2,362.7l-1.4-.4c.9-.7.7-2.2,2.2-2.5l-.7,2.9ZM708.8,611.9c-.9-.9-2.1-1.5-1.8-2.9l2.2.7-.4,2.2ZM716.3,608.3c.9.2,1.1,1,2.2.7v1.4h-2.2v-2.2ZM713.5,601.1l-.7-2.2,2.9,1.7c-.8-.4-1.1-.3-2.2.4ZM717.8,613.4h1.1l.4,2.2c-2.2.6-4.6-2.4-1.4-2.2ZM722.4,606.9c-.4-.8-.9-.6-1.4-.7-.5-.1-.6-1.5-1.1-2.2l5,1.4-2.5,1.4ZM737.2,565.3v-.4l1.1-1.1h.7l1.1,1.4h-2.9ZM746.5,515.3l1.1-1.1,2.5.7v1.4c-1.5,0-2.7.3-3.6-1.1ZM748.3,543l-1.1-1.4c1.4,0,2-1.1,3.6-.7l-2.5,2.2ZM751.6,532.9h-1.4v-2.2h1.4v2.2ZM759.5,400.4c-1.3,1.9-2.9,1.1-2.9-1.1l2.5-.7.4,1.8ZM759.5,471.1l-2.9-.7v-2.2l2.9,2.9ZM754.4,382.7h1.4l-.7,3.6-1.4-1.1.7-2.5ZM755.2,396l1.4-1.8-.7,5c-2.2-.7-.5-1.7-.7-3.2ZM757.7,430.9l1.1,2.2-2.2-.7,2.2,2.9-2.9-.7c-.4-1.8.6-2.5,1.8-3.6ZM759.1,489.8l-.4-2.2-1.1.7c-1.4-.9-1.1-2.1-1.1-3.6l.7,1.4c1.1-.4,1.7.7,1.8.7s.7-1.1,1.8-.7l-1.8,3.6ZM762.3,428.8c2.2.9,1.5,2.1,0,3.2l.7,3.2-1.4-1.8.7-4.7ZM765.2,466.1h-1.1l-1.1-1.1,1.8-2.5h.4v3.6ZM763.1,451.7c1.8-.1,2.4,1.2,2.2,2.9-.9-.1-2.7-2.3-2.2-2.9Z"/>
  <circle class="st0" cx="455.7" cy="455.7" r="440.7"/>
  <g>
    <rect x="451.4" y="109.6" width="19.8" height="131" rx="9.9" ry="9.9"/>
    <rect x="451.4" y="109.6" width="19.8" height="131" rx="9.9" ry="9.9" transform="translate(286.2 636.5) rotate(-90)"/>
  </g>
</svg>