<?xml version="1.0" encoding="UTF-8"?>
<svg id="Layer_1" xmlns="http://www.w3.org/2000/svg" version="1.1" viewBox="0 0 76.5 94.5">
  <!-- Generator: Adobe Illustrator 29.1.0, SVG Export Plug-In . SVG Version: 2.1.0 Build 142)  -->
  <path d="M11.2,31.6h3.1c0-.3,0-.7-.1-1-.1-1.1-.2-2.1-.2-3.1,0-7.5,2.7-14.4,7-19.3C25.5,3.1,31.6,0,38.3,0s12.8,3.1,17.2,8.1c4.3,5,7,11.8,7,19.3s0,2.1-.2,3.1c0,.3,0,.7-.1,1h3.1c3.1,0,5.9,1.3,7.9,3.3,2,2,3.3,4.9,3.3,7.9,0,24.7-9.9,40.5-22.5,47.5-5,2.8-10.4,4.1-15.8,4.1-5.4,0-10.8-1.4-15.8-4.1C9.9,83.4,0,67.5,0,42.9c0-3.1,1.3-5.9,3.3-7.9h0c2-2.1,4.8-3.3,7.8-3.3h0ZM50.9,31.6v-.6c.1-.7.1-1.4.1-2.1,0-4.9-1.5-9.3-3.9-12.5-2.3-3-5.5-4.9-8.9-4.9s-6.6,1.9-8.9,4.9c-2.4,3.2-3.9,7.6-3.9,12.5s0,1.4,0,2.1v.6h25.4ZM65.3,35.1H11.2c-2.1,0-4,.8-5.4,2.2-1.4,1.4-2.3,3.4-2.3,5.5,0,23.2,9.1,38,20.7,44.4,4.5,2.5,9.3,3.7,14.1,3.7s9.6-1.2,14.1-3.7c11.6-6.4,20.6-21.2,20.6-44.5s-.9-4.1-2.3-5.5c-1.4-1.4-3.3-2.3-5.5-2.3h0ZM39.1,44.6c3.8,0,7,3.2,7,7s-1.6,5.1-4,6.3l1.2,22.9c0,.9-.6,1.6-1.5,1.7h-5.3c-.9,0-1.6-.7-1.6-1.6l1.2-23c-2.4-1.2-4-3.6-4-6.3,0-3.8,3.1-7,7-7Z"/>
</svg>