<?xml version="1.0" encoding="UTF-8"?>
<svg id="Layer_1" xmlns="http://www.w3.org/2000/svg" version="1.1" viewBox="0 0 64.1 74.4">
  <!-- Generator: Adobe Illustrator 29.1.0, SVG Export Plug-In . SVG Version: 2.1.0 Build 142)  -->
  <defs>
    <style>
      .st0 {
        fill: #fff;
      }

      .st1 {
        fill: none;
        stroke: #000;
        stroke-miterlimit: 10;
        stroke-width: 1.2px;
      }
    </style>
  </defs>
  <path d="M19.1,55h26c.3,0,.6.4.6.8h0c0,.4-.3.8-.6.8h-26c-.3,0-.6-.4-.6-.8h0c0-.4.3-.8.6-.8Z"/>
  <path d="M19.3,61.1h25.6c.4,0,.8.4.8.8h0c0,.4-.4.8-.8.8h-25.6c-.4,0-.8-.4-.8-.8h0c0-.4.4-.8.8-.8Z"/>
  <path d="M17.2,18.3v14.5c0,3,1.7,4.8,2.5,5.9h.1c1,1.3,2.2,2.4,4.7,4.1,2.1,1.3,5.1,2.9,6.2,3.4.9.4,1.9.4,2.8,0,1.2-.6,4.1-2.1,6.2-3.4,2.6-1.7,3.7-2.8,4.7-4v-.2c1.1-1,2.6-2.9,2.6-5.8v-14.5c0-2.1-1.3-3.9-3.2-4.5h0c-3.7-1.3-7.8-2.1-11.8-2.1s-8,.8-11.8,2.1c-2,.7-3.2,2.5-3.2,4.5h.2Z"/>
  <path class="st0" d="M25.9,35.6c-.4,0-.3-.4-.3-.6l3-15c.1-.5-.5-.6-1.5-.5-.4,0-.5-.6-.2-.8,3.4-.6,2.8-.7,4.5-1.2.3,0,.3.3.2.5l-2.1,9.5s1.3-4.3,5.4-3.3c2.7.6,1.3,5.1.8,7.1-.2.8-.9,3.4.8,3.1,1.5-.3,2.8-2,2.9-2.1.2-.2.4,0,.5,0s0,.5,0,.7-2.5,3.9-5.7,2.5c-2.7-1.4,0-6.5,0-8.8s-.8-1.1-1.5-1c-2,.3-3,5-3.5,6.9,0,.3-.5,2.3-.6,2.7s0,.4-.6.4h-2.1Z"/>
  <rect class="st1" x="1" y="1" width="62.3" height="72.4" rx="8.3" ry="8.3"/>
</svg>