<?xml version="1.0" encoding="UTF-8"?>
<svg id="Layer_1" xmlns="http://www.w3.org/2000/svg" version="1.1" viewBox="0 0 48 48">
  <!-- Generator: Adobe Illustrator 29.1.0, SVG Export Plug-In . SVG Version: 2.1.0 Build 142)  -->
  <defs>
    <style>
      .st0 {
        fill: #f3f3f3;
        stroke: #e2e2e2;
        stroke-width: 2px;
      }

      .st1 {
        opacity: .3;
      }
    </style>
  </defs>
  <rect class="st0" x="4" y="4" width="40" height="40" rx="8" ry="8"/>
  <path class="st1" d="M17.1,34.2c-.4,0-.4-.5-.4-.7l3.5-17.3c.1-.6-.6-.7-1.8-.6-.5,0-.6-.7-.2-.9,3.9-.7,3.3-.8,5.2-1.4.4,0,.3.3.3.6l-2.4,10.9s1.5-4.9,6.2-3.8c3.1.7,1.4,5.8.9,8.1-.2,1-1,3.9.9,3.6,1.8-.3,3.2-2.3,3.3-2.4.3-.2.5-.2.6,0s0,.6,0,.8-2.8,4.5-6.6,2.9c-3.1-1.6,0-7.5-.1-10.1,0-.9-.9-1.3-1.7-1.1-2.3.4-3.5,5.8-4,8,0,.3-.6,2.7-.7,3.1s0,.5-.7.5h-2.1s0,0,0,0Z"/>
</svg>