<?xml version="1.0" encoding="UTF-8"?>
<svg id="Layer_1" xmlns="http://www.w3.org/2000/svg" version="1.1" viewBox="0 0 923.4 367">
  <defs>
    <style>
      .st0 {
        fill-rule: evenodd;
      }
    </style>
  </defs>
  <path class="st0" d="M182.9,65.2c65.2-.2,117.8,53.5,118,118.6-6.5,156.3-230.6,156.7-237.3,0,.6-65.9,53.5-119.2,119.4-118.6ZM182.7,0c87.9.7,161.1,62.6,179.2,145.7.8,3.4,3.8,5.9,7.3,5.9l39.5-.2c3,0,5.7-1.7,6.9-4.5,1.6-4,5.8-6.7,10.6-6.9h12c4.8-.2,8.6,2.7,10.3,6.9s4,4.5,7,4.5l315.6.4h137.4c0,.1,7.5.2,7.5.2,4.1,0,7.4,3.4,7.3,7.5,0,0-.4,49.9-.4,49.9,0,4-3.2,7.2-7.2,7.4-4,.1-7.1,3.4-7.2,7.4-.2,24.9.4,49.9.2,74.8,0,4.1-3.4,7.4-7.4,7.4h-29.1c-4.1,0-7.5-3.3-7.5-7.4,0,0,0-9.2,0-9.2,0-4.1-3.3-7.5-7.4-7.5l-34.7-.2c-4.1,0-7.5,3.3-7.5,7.4v9.2c0,4.1-3.4,7.4-7.5,7.4h-29c-4.1,0-7.5-3.3-7.5-7.4.2-24.8-.4-49.6-.2-74.3,0-4.1-3.3-7.5-7.4-7.5,0,0-308.5-.4-308.5-.4-2.9,0-5.5,1.6-6.7,4.2-1.8,3.9-5.5,6.9-10.3,7.1h-11.7c-.2,0-.4,0-.7,0-5.1-.4-9.3-3.1-11-7.3s-3.7-4.8-6.7-4.8l-39.6.2c-3.5,0-6.5,2.5-7.2,5.9-17.6,82.6-91.2,145.7-179.1,145C-60.9,357.1-60.8,9.5,182.7,0Z"/>
</svg>
