<?xml version="1.0" encoding="UTF-8"?>
<svg id="Layer_1" xmlns="http://www.w3.org/2000/svg" version="1.1" viewBox="0 0 923.4 367">
  <!-- Generator: Adobe Illustrator 29.1.0, SVG Export Plug-In . SVG Version: 2.1.0 Build 142)  -->
  <path d="M916,152s-7.5,0-7.5-.2h-137.4l-315.6-.4c-3,0-5.3-.3-7-4.5-1.7-4.2-5.5-7.1-10.3-6.9h-12c-4.8.2-9,2.9-10.6,6.9-1.2,2.8-3.9,4.5-6.9,4.5l-162.8.2c31.4-27.3,32.1-52.6,29.1-72.9C269.1,38,235.4,5.7,194.6,1.3c-55-5.9-101.5,37.1-101.6,90.9-50.5,0-91.5,40.9-91.6,91.4,0,50.5,40.9,91.5,91.4,91.6,0,53.8,46.4,96.8,101.4,91.1,40.8-4.3,74.5-36.5,80.6-77.1,2.8-19-2.2-53.2-22.8-73.3h155.8c3-.1,5,.5,6.7,4.7s5.9,6.9,11,7.3h12.4c4.8-.2,8.5-3.2,10.3-7.1,1.2-2.6,3.8-4.2,6.7-4.2l308.5.4c4.1,0,7.4,3.4,7.4,7.5-.2,24.7.4,49.5.2,74.3,0,4.1,3.4,7.4,7.5,7.4h29c4.1,0,7.5-3.3,7.5-7.4v-49.2c0-4.1,3.4-7.4,7.5-7.4l34.7.2c4.1,0,7.4,3.4,7.4,7.5v49.2c0,4.1,3.4,7.4,7.5,7.4h29.1c4,0,7.4-3.3,7.4-7.4.2-24.9-.4-49.9-.2-74.8.1-4,3.2-7.3,7.2-7.4,4-.2,7.2-3.4,7.2-7.4l.4-49.9c.1-4.1-3.2-7.5-7.3-7.5ZM89,229.4c-25.4,0-45.9-20.6-45.9-45.9,0-25.4,20.6-45.9,45.9-45.9,25.4,0,58.1,46,58.1,46,0,0-32.8,45.9-58.2,45.9ZM184.7,319.7c-25.3.2-46.1-20.2-46.3-45.5-.2-25.3,45.4-58.5,45.4-58.5,0,0,46.2,32.4,46.4,57.8.2,25.3-20.2,46.1-45.5,46.3ZM184.3,144.7s-45.9-32.8-45.9-58.2c0-25.4,20.6-45.9,46-45.9,25.4,0,45.9,20.6,45.9,46,0,25.4-46,58.1-46,58.1Z"/>
</svg>