<?xml version="1.0" encoding="UTF-8"?>
<svg id="Layer_1" xmlns="http://www.w3.org/2000/svg" version="1.1" viewBox="0 0 90.9 74.6">
  <!-- Generator: Adobe Illustrator 29.1.0, SVG Export Plug-In . SVG Version: 2.1.0 Build 142)  -->
  <path d="M86.5,13.1C80.9,5.1,70.2-.1,54.9,3.1h-.4c-2.7,1.4-5.1,2.9-7.2,4.5C41.2,1.6,31.5-1.8,18.5,1c-.2,0-.3,0-.4,0C8.9,5.7,3.6,11.9,1.4,18.1c-2.4,6.5-1.6,13.1,1.3,18.8,3.3,6.2,9.2,11.3,16.4,13.4v.2c.3,3.4,1.2,6.8,2.8,9.8,5.8,11.2,20.1,18.5,35.4,12.1,10.1-4.2,15.3-12.3,16.3-20.8.3,0,.7-.4,1-.4,17.1-7.2,20.3-26,11.9-38.1ZM46.9,12c1.5,2,2.6,4.2,3.4,6.5.5,1.7,1,3.4,1,5.1-3.4-.5-7.2-.5-11.4.2.9-4.1,3.1-8.2,7-11.8ZM20.5,41.3c-.7,1.9-1.1,3.8-1.3,5.7-8.3-2.7-14.4-9.8-15.8-17.8C1.9,20.4,6.2,10.6,19.3,3.9c11.5-2.3,20.1.5,25.5,5.7-3.5,3.3-5.8,6.9-7.1,10.5-.5,1.5-.9,3-1.1,4.5-8.8,4.6-13.9,10.5-16.1,16.7ZM36.3,28.3h.1c0,3.7,1,7.3,2.7,10.6.8,1.5,1.8,3,2.9,4.4-1.5,1.1-3.2,2-5.1,2.8-5.2,2.1-10.2,2.6-14.7,1.7.5-7,4.7-14.1,14.1-19.5ZM56,69.3c-16.3,6.8-31.3-3.7-33.5-16.9,0-.5-.2-.9-.2-1.4h0c4.9.7,10.3.2,15.8-2.1,2.2-.9,4.2-2,6-3.3,6.3,6.1,15.7,9.4,26,6.8-1.2,7-5.8,13.5-14.1,16.9ZM46.5,43.7h0c4.8-4.5,7.4-10.3,7.9-16.2,7.8,2.2,12.9,7.7,15,14.2.8,2.4,1.1,5,1.1,7.5-9.4,2.8-18.1,0-23.9-5.5ZM73.7,48s0,0,0,0h-.1s0,0,0,0c-.1-4.9-1.7-9.7-4.5-13.8-3.2-4.6-8.1-8.3-14.6-10-.3-4.7-1.8-9.3-4.5-13.2-.2-.3-.4-.7-.7-1,1.8-1.4,3.9-2.8,6.3-4,17-3.5,27.7,4.3,31,14.5,3.2,10-.8,22.1-13,27.5Z"/>
</svg>