<?xml version="1.0" encoding="UTF-8"?>
<svg id="Layer_1" xmlns="http://www.w3.org/2000/svg" version="1.1" viewBox="0 0 90.9 74.6">
  <!-- Generator: Adobe Illustrator 29.1.0, SVG Export Plug-In . SVG Version: 2.1.0 Build 142)  -->
  <defs>
    <style>
      .st0 {
        fill-rule: evenodd;
      }
    </style>
  </defs>
  <path class="st0" d="M19.1,50.3c-7.2-2.1-13.1-7.2-16.4-13.4C-.2,31.2-1,24.6,1.4,18.1,3.6,11.9,8.9,5.7,18.1,1.1c.1,0,.2-.1.4-.1,13-2.8,22.7.6,28.8,6.6,2.1-1.6,4.5-3.1,7.2-4.5.1,0,.2-.1.4-.1,15.3-3.2,26,2,31.6,10,8.4,12.1,5.2,30.9-11.9,38.1-.3.1-.7.3-1,.4-1,8.5-6.2,16.6-16.3,20.8-15.3,6.4-29.6-.9-35.4-12.1-1.6-3-2.5-6.4-2.7-9.8h0ZM44.8,9.6c-5.4-5.2-14-8-25.5-5.7h0C6.2,10.6,1.9,20.4,3.4,29.2c1.4,8,7.5,15.1,15.8,17.8.2-1.9.6-3.8,1.3-5.7,2.2-6.2,7.3-12.1,16.1-16.7.2-1.5.6-3,1.1-4.5,1.3-3.6,3.6-7.2,7.1-10.5h0ZM73.6,48c12.3-5.3,16.3-17.5,13.1-27.5-3.3-10.2-14-18-31-14.5h0c-2.4,1.2-4.5,2.6-6.3,4,.3.3.5.7.7,1,2.7,3.9,4.2,8.5,4.5,13.2,6.5,1.7,11.4,5.4,14.6,10,2.8,4.1,4.4,8.9,4.5,13.8h0ZM22.3,51c0,.5.1.9.2,1.4,2.2,13.2,17.2,23.7,33.5,16.9,8.3-3.4,12.9-9.9,14.1-16.9-10.3,2.6-19.7-.7-26-6.8-1.8,1.3-3.8,2.4-6,3.3-5.5,2.3-10.9,2.8-15.8,2h0ZM51.3,23.6c-.1-1.7-.5-3.4-1-5.1-.8-2.3-1.9-4.5-3.4-6.5-3.9,3.6-6.1,7.7-7,11.8,4.2-.7,8-.7,11.4-.2h0ZM36.3,28.3c-9.4,5.4-13.6,12.5-14.1,19.5,4.5.9,9.5.4,14.7-1.7,1.9-.8,3.6-1.7,5.1-2.8-1.1-1.4-2.1-2.9-2.9-4.4-1.7-3.3-2.7-6.9-2.7-10.6h0ZM46.5,43.7c5.8,5.5,14.5,8.3,23.9,5.5,0-2.5-.3-5.1-1.1-7.5-2.1-6.5-7.2-12-15-14.2-.5,5.9-3.1,11.7-7.9,16.2h0ZM51.3,26.7c-3.5-.6-7.5-.6-11.9.2,0,1.4,0,2.8.3,4.2.6,3.7,2.3,7.2,4.7,10.2,4.3-4,6.6-9.3,6.9-14.6h0Z"/>
</svg>