<?xml version="1.0" encoding="UTF-8"?>
<svg id="Layer_1" xmlns="http://www.w3.org/2000/svg" version="1.1" viewBox="0 0 90.9 74.6">
  <!-- Generator: Adobe Illustrator 29.1.0, SVG Export Plug-In . SVG Version: 2.1.0 Build 142)  -->
  <circle cx="32.5" cy="17.1" r="14.7"/>
  <path d="M79.8,44.8c-10.3-6.8-20.9-13.2-31.6-19.6-3.6-2.2,1.9,1.3-3.1-1.7-.4.8-.9,1.5-1.4,2.3,4.8,3.2,14.3,8.7,17.8,11,10.4,7,9.7,6.9,16.6,11.5.5-1.2,1.1-2.3,1.7-3.4Z"/>
  <path d="M77,37.8c4,0,7.3,3.3,7.3,7.3s-3.3,6.3-7.3,6.3-7.3-2.3-7.3-6.3,3.3-7.3,7.3-7.3Z"/>
  <path d="M28.2,61.1c4,.5,6.8,4.2,6.3,8.2s-4,5.8-8,5.3-7-3.2-6.5-7.2c.5-4,4.2-6.8,8.2-6.3Z"/>
  <path d="M71.3,46.5c-7.9,3.8-17.6,8.6-20.2,9.8-11.5,5-11.1,4.5-18.6,7.8.7,1.1,1.4,2.1,2,3.3,11.3-5,22.4-10.5,33.5-16.1,1.1-.5,2.2-1.1,3.4-1.7,0-1,0-2-.1-3.1Z"/>
</svg>