<?xml version="1.0" encoding="UTF-8"?>
<svg id="Layer_1" xmlns="http://www.w3.org/2000/svg" version="1.1" viewBox="0 0 90.9 74.6">
  <!-- Generator: Adobe Illustrator 29.1.0, SVG Export Plug-In . SVG Version: 2.1.0 Build 142)  -->
  <defs>
    <style>
      .st0 {
        fill: none;
        stroke: #000;
        stroke-miterlimit: 10;
        stroke-width: 4px;
      }
    </style>
  </defs>
  <circle class="st0" cx="74.8" cy="17.1" r="14.7"/>
  <circle class="st0" cx="16.7" cy="57.9" r="14.7"/>
  <path d="M61.9,15.7c-12.1-2.7-24.3-4.9-36.5-7-4.1-.8-9.3-1.7-15.1-2.7-.1.9-.3,1.8-.5,2.6,5.7,1.2,28,5.2,32.1,6.1,12.2,2.8,11.6,3,19.6,4.8,0-1.3.2-2.5.3-3.8Z"/>
  <path d="M13.2,1.3c4,0,7.3,3.3,7.3,7.3s-3.3,6.3-7.3,6.3-7.3-2.3-7.3-6.3S9.1,1.3,13.2,1.3Z"/>
  <path d="M82.8,60.8c4,.5,6.8,4.2,6.3,8.2s-4,5.8-8,5.3-7-3.2-6.5-7.2c.5-4,4.2-6.8,8.2-6.3Z"/>
  <path d="M30.7,64.4c12.3,1.6,24.6,2.7,37,3.7,4.2.4,9.4.9,15.2,1.4,0-.9.1-1.8.3-2.7-5.7-.7-28.4-2.7-32.5-3.3-12.4-1.7-11.8-2-19.9-3.1,0,1.3,0,2.5,0,3.8Z"/>
  <path d="M62.2,23.9c-6.5,5.8-14.6,13.1-16.8,14.9-9.7,7.9-9.5,7.3-15.8,12.5,1,.8,1.9,1.7,2.8,2.6,9.5-7.9,18.7-16.2,27.9-24.6.9-.8,1.8-1.6,2.8-2.5-.3-1-.6-1.9-.9-2.9Z"/>
</svg>