<?xml version="1.0" encoding="UTF-8"?>
<svg id="Layer_1" xmlns="http://www.w3.org/2000/svg" version="1.1" viewBox="0 0 70 74.3">
  <!-- Generator: Adobe Illustrator 29.1.0, SVG Export Plug-In . SVG Version: 2.1.0 Build 142)  -->
  <path d="M35,11.9c-5,0-10.2,2.4-12.9,6-7.9,9.9-2.9,26.5,10.5,28,23.8,3.2,26.5-33.8,2.6-34h-.2ZM22.5,38.7c-.9-2.9,3-3.7,4.1-5.9,1.1-1.7,0-3.5-1-5-1-1.9-3-3.7-3.8-5.5-.8-3.1,4.5-4.6,6.9-5,1.1-.1,2.3-.4,3.1-1.3.7-.9,2-3,3.2-2.2.5.4.6,1,.9,1.5.3.5,1.1.6,1.7.6,2.9,0,6.6-1.1,8.2,1.8.3,2.1-5.3,2.5-6.3,3.8-.7.8-1.2,1.7-2,2.4-.9.8-2.1,1.4-2.8,2.5-.8,1.2-.9,2.9-.2,4,.6,1,1.8,1.4,2.7,1.9,1.5.9,1.5,2.8,1.1,4.4-.3,1.7-1.8,4-.8,5.6,2.3,1.3,6.3-2.8,8.2-4.6.8-.8,1.5-1.6,2.3-2.4.8-.8,1.5-1.5,1.7-1.2.4.6-.3,1.7-.6,2.4-5,9.3-20.3,11.4-26.5,2.2h0ZM46.5,26.7c.4.3,1.1,1,1,1.6-.1.4-.6.6-1,.4-1.4-.8-2.8-3.4-4.2-4.3-.5-.3-.8-.7-.5-1.3,1.1-2,3.5,3,4.7,3.5h0ZM20.6,29.9c.3.5,0,4.1-.6,3-.7-2-.4-7,.6-9.5,0-.2.2-.5.4-.6.4.2,0,1.8-.1,2.3-.5,1.5-.8,3.2-.2,4.7h0Z"/>
  <path d="M60,0H10C6.1,0,3,3.1,3,7v60.4c0,3.8,3.1,7,7,7h50.1c3.8,0,7-3.1,7-7V7c0-3.8-3.1-7-7-7h0ZM64.9,67.4c0,2.7-2.2,4.9-4.9,4.9H10c-2.7,0-4.9-2.2-4.9-4.9V7c0-2.7,2.2-4.9,4.9-4.9h50.1c2.7,0,4.9,2.2,4.9,4.9v60.4h0Z"/>
  <path d="M22.1,55h26c.3,0,.6.4.6.8h0c0,.4-.3.8-.6.8h-26c-.3,0-.6-.4-.6-.8h0c0-.4.3-.8.6-.8Z"/>
  <path d="M22.3,61.1h25.6c.4,0,.8.4.8.8h0c0,.4-.4.8-.8.8h-25.6c-.4,0-.8-.4-.8-.8h0c0-.4.4-.8.8-.8Z"/>
</svg>