<?xml version="1.0" encoding="UTF-8"?>
<svg id="Layer_1" xmlns="http://www.w3.org/2000/svg" version="1.1" viewBox="0 0 70 74.3">
  <!-- Generator: Adobe Illustrator 29.1.0, SVG Export Plug-In . SVG Version: 2.1.0 Build 142)  -->
  <path d="M60,0H10C6.1,0,3,3.1,3,7v60.4c0,3.8,3.1,7,7,7h50.1c3.8,0,7-3.1,7-7V7C67.1,3.2,64,0,60.1,0h0ZM64.9,67.4c0,2.7-2.2,4.9-4.9,4.9H10c-2.7,0-4.9-2.2-4.9-4.9V7c0-2.7,2.2-4.9,4.9-4.9h50.1c2.7,0,4.9,2.2,4.9,4.9v60.4h0Z"/>
  <path d="M22.1,55h26c.3,0,.6.4.6.8h0c0,.4-.3.8-.6.8h-26c-.3,0-.6-.4-.6-.8h0c0-.4.3-.8.6-.8Z"/>
  <path d="M22.3,61.1h25.6c.4,0,.8.4.8.8h0c0,.4-.4.8-.8.8h-25.6c-.4,0-.8-.4-.8-.8h0c0-.4.4-.8.8-.8Z"/>
  <path d="M21.4,19.3v13.2c0,2.7,1.5,4.4,2.3,5.4h.1c.9,1.2,2,2.2,4.3,3.7,1.9,1.2,4.6,2.6,5.6,3.1.8.4,1.7.4,2.5,0,1.1-.5,3.7-1.9,5.6-3.1,2.4-1.5,3.4-2.5,4.3-3.6v-.2c1-.9,2.4-2.6,2.4-5.3v-13.2c0-1.9-1.2-3.5-2.9-4.1h0c-3.4-1.2-7.1-1.9-10.7-1.9-3.7,0-7.3.7-10.7,1.9-1.8.6-2.9,2.3-2.9,4.1ZM25.3,30.3v-4.9h19.5v4.9h-19.5ZM26.8,35.4v-.2c-.7-.6-1.1-1.3-1.4-2.1h3.8v4.4c-.9-.6-1.7-1.3-2.4-2.1ZM35.1,40.8c-.5-.3-2.2-1.6-2.9-2v-5.7h5.9v5.7c-.7.4-2.4,1.7-2.9,2ZM43.3,35.4c-.7.8-1.5,1.5-2.4,2.1v-4.4h3.8c-.2.8-.7,1.5-1.2,2.1v.2ZM25.6,18.8c3-1.1,6.2-1.7,9.4-1.7,3.2,0,6.4.6,9.4,1.7.2,0,.3.3.3.5v3.2h-19.5v-3.2c0-.2.1-.4.3-.5Z"/>
</svg>