<?xml version="1.0" encoding="UTF-8"?>
<svg id="Layer_1" xmlns="http://www.w3.org/2000/svg" version="1.1" viewBox="0 0 70 74.3">
  <!-- Generator: Adobe Illustrator 29.1.0, SVG Export Plug-In . SVG Version: 2.1.0 Build 142)  -->
  <defs>
    <style>
      .st0 {
        fill: #fff;
      }
    </style>
  </defs>
  <path d="M60,0H10C6.1,0,3,3.1,3,7v60.4c0,3.8,3.1,7,7,7h50.1c3.8,0,7-3.1,7-7V7C67.1,3.2,64,0,60.1,0h0ZM64.9,67.4c0,2.7-2.2,4.9-4.9,4.9H10c-2.7,0-4.9-2.2-4.9-4.9V7c0-2.7,2.2-4.9,4.9-4.9h50.1c2.7,0,4.9,2.2,4.9,4.9v60.4h0Z"/>
  <path d="M22.1,55h26c.3,0,.6.4.6.8h0c0,.4-.3.8-.6.8h-26c-.3,0-.6-.4-.6-.8h0c0-.4.3-.8.6-.8Z"/>
  <path d="M22.3,61.1h25.6c.4,0,.8.4.8.8h0c0,.4-.4.8-.8.8h-25.6c-.4,0-.8-.4-.8-.8h0c0-.4.4-.8.8-.8Z"/>
  <path d="M20.2,18.3v14.5c0,3,1.7,4.8,2.5,5.9h.1c1,1.3,2.2,2.4,4.7,4.1,2.1,1.3,5.1,2.9,6.2,3.4.9.4,1.9.4,2.8,0,1.2-.6,4.1-2.1,6.2-3.4,2.6-1.7,3.7-2.8,4.7-4v-.2c1.1-1,2.6-2.9,2.6-5.8v-14.5c0-2.1-1.3-3.9-3.2-4.5h0c-3.7-1.3-7.8-2.1-11.8-2.1s-8,.8-11.8,2.1c-2,.7-3.2,2.5-3.2,4.5h.1Z"/>
  <path class="st0" d="M28.9,35.6c-.4,0-.3-.4-.3-.6l3-15c.1-.5-.5-.6-1.5-.5-.4,0-.5-.6-.2-.8,3.4-.6,2.8-.7,4.5-1.2.3,0,.3.3.2.5l-2.1,9.5s1.3-4.3,5.4-3.3c2.7.6,1.3,5.1.8,7.1-.2.8-.9,3.4.8,3.1,1.5-.3,2.8-2,2.9-2.1.2-.2.4-.1.5,0s0,.5,0,.7-2.5,3.9-5.7,2.5c-2.7-1.4,0-6.5-.1-8.8,0-.8-.8-1.1-1.5-1-2,.3-3,5-3.5,6.9,0,.3-.5,2.3-.6,2.7s0,.4-.6.4h-1.8s0,0,0,0Z"/>
</svg>